<?xml version="1.0" encoding="utf-8"?>
<!-- Generator: Adobe Illustrator 18.0.0, SVG Export Plug-In . SVG Version: 6.00 Build 0)  -->
<!DOCTYPE svg PUBLIC "-//W3C//DTD SVG 1.1//EN" "http://www.w3.org/Graphics/SVG/1.1/DTD/svg11.dtd">
<svg version="1.1" id="Layer_1" xmlns="http://www.w3.org/2000/svg" xmlns:xlink="http://www.w3.org/1999/xlink" x="0px" y="0px"
	 viewBox="0 0 50 50" enable-background="new 0 0 50 50" xml:space="preserve">
<path fill="#303538" d="M12,43.7c0.9,0,1.7-0.2,2.3-0.5c-0.1-0.4-0.4-0.8-0.8-1.1c-0.3-0.2-0.7-0.3-1-0.2c-0.2,0.1-0.4,0.1-0.7,0.1
	c-0.2,0-0.4,0-0.5-0.1c-0.4-0.1-0.8,0-1.1,0.3c-0.3,0.3-0.5,0.6-0.6,0.9C10.3,43.6,11.1,43.7,12,43.7z"/>
<g>
	<g>
		<g>
			<g>
				<g>
					<path fill="#313234" d="M35.8,2.6C35.8,2.6,35.8,2.6,35.8,2.6C35.7,2.6,35.8,2.6,35.8,2.6z"/>
					<polygon fill="#313234" points="34.2,2.9 34.3,2.8 34,2.9 					"/>
					<path fill="#313234" d="M32.9,3.2C33,3.2,33.3,3,33.6,3l0,0l0.1-0.1C33.4,3,33.1,3.1,32.9,3.2z"/>
					<path fill="#313234" d="M32.1,3.3c0.1,0-0.1,0.1,0.2-0.1c0,0,0,0,0,0C32.2,3.2,32.2,3.3,32.1,3.3z"/>
					<path fill="#313234" d="M32.2,3.2C32.4,3.2,32.1,3.3,32.2,3.2L32.2,3.2z"/>
					<path fill="#313234" d="M31.6,3.5l0.2-0.1C31.7,3.4,31.5,3.5,31.6,3.5C31.4,3.6,31.5,3.6,31.6,3.5z"/>
					<path fill="#313234" d="M31.4,3.7L31.4,3.7C31.5,3.6,31.5,3.6,31.4,3.7z"/>
					<path fill="#313234" d="M31.7,3.5l-0.2,0.1c0,0,0,0,0.1-0.1C31.6,3.6,31.6,3.5,31.7,3.5z"/>
					<path fill="#313234" d="M31.8,3.4C31.9,3.4,32.1,3.4,31.8,3.4C32.2,3.3,32.2,3.3,31.8,3.4z"/>
					<path fill="#313234" d="M32.8,3.3l0.1,0l0.1-0.1C33,3.2,32.8,3.2,32.8,3.3z"/>
					<path fill="#313234" d="M30.5,4.1c0,0,0.1,0,0.1,0L30.7,4C30.6,4,30.5,4.1,30.5,4.1z"/>
					<path fill="#313234" d="M30.6,4.1l-0.2,0.1C30.6,4.1,30.6,4.1,30.6,4.1z"/>
					<polygon fill="#313234" points="31.4,3.7 31.7,3.5 31.4,3.8 					"/>
					<polygon fill="#313234" points="29.8,4.6 29.8,4.5 29.7,4.6 					"/>
					<path fill="#313234" d="M29.3,4.9C29.4,4.8,29.2,5,29.3,4.9C29.1,5,29.1,5.1,29,5.2C29.1,5.1,29.2,5,29.3,4.9z"/>
					<path fill="#313234" d="M28.9,5.4c0,0,0.1-0.1,0.1-0.2C28.9,5.2,28.9,5.3,28.9,5.4z"/>
					<path fill="#313234" d="M30.1,4.4c0,0-0.1,0-0.2,0.1L30.1,4.4C30,4.5,30,4.5,30.1,4.4z"/>
					<path fill="#313234" d="M30,4.5L30,4.5c-0.1,0.1-0.1,0.1-0.2,0.1C29.9,4.6,29.9,4.6,30,4.5z"/>
					<path fill="#313234" d="M30.1,4.4L30.1,4.4C30.1,4.4,30.1,4.4,30.1,4.4z"/>
					<path fill="#313234" d="M30.9,4c-0.1,0.1-0.3,0.2-0.1,0.1C30.9,4,30.8,4.1,30.9,4z"/>
					<path fill="#313234" d="M30.2,4.4c0,0,0.2-0.1,0.2-0.1c0,0-0.1,0,0,0C30.4,4.2,30.2,4.4,30.2,4.4z"/>
					<polygon fill="#313234" points="30.1,4.5 30.2,4.4 30.1,4.5 					"/>
					<path fill="#313234" d="M29.2,5.1c-0.1,0.1-0.1,0.2-0.2,0.2C29.1,5.3,29.2,5.2,29.2,5.1C29.3,5.1,29.3,5,29.2,5.1z"/>
					<path fill="#313234" d="M29.6,4.8L29.6,4.8C29.6,4.8,29.6,4.8,29.6,4.8z"/>
					<polygon fill="#313234" points="28.1,6.2 28.1,6.2 28.1,6.2 					"/>
					<path fill="#313234" d="M29.3,5.1C29.4,5,29.4,5,29.4,4.9C29.4,5,29.3,5,29.3,5.1C29.3,5.1,29.3,5.1,29.3,5.1z"/>
					<path fill="#313234" d="M28.6,5.6c0,0,0.1-0.1,0.1-0.1C28.7,5.5,28.6,5.6,28.6,5.6z"/>
					<path fill="#313234" d="M29.5,4.8C29.5,4.8,29.5,4.8,29.5,4.8C29.5,4.8,29.5,4.8,29.5,4.8z"/>
					<path fill="#313234" d="M29.5,4.8c0,0-0.1,0.1-0.1,0.1C29.5,4.9,29.5,4.9,29.5,4.8C29.6,4.8,29.5,4.8,29.5,4.8z"/>
					<path fill="#313234" d="M28.1,6.7c0,0,0.1-0.3,0.3-0.4c0.1-0.2-0.1-0.2-0.3-0.1c0,0,0,0-0.1,0.2c0.1-0.1,0.4-0.4,0.3-0.2
						c-0.2,0.2-0.2,0.2-0.3,0.3c0.1-0.1-0.2,0.4-0.1,0.3L28.1,6.7C28.1,6.7,28.1,6.8,28.1,6.7z"/>
					<path fill="#313234" d="M28.4,5.9L28.4,5.9c0,0-0.1,0-0.2,0.1c-0.1,0.1-0.1,0.2-0.1,0.2L28.4,5.9L28.4,5.9z"/>
					<path fill="#313234" d="M28.8,5.5c0,0.1-0.2,0.3,0,0.2c0.2-0.2,0.1-0.2,0.2-0.3C28.6,5.7,29,5.3,28.8,5.5
						c0.1-0.1,0.1-0.1,0.2-0.2C28.9,5.4,28.8,5.4,28.8,5.5L28.8,5.5L28.8,5.5L28.8,5.5C28.8,5.5,28.8,5.5,28.8,5.5L28.8,5.5
						C28.8,5.5,28.8,5.5,28.8,5.5C28.7,5.6,28.8,5.5,28.8,5.5L28.8,5.5L28.8,5.5c0,0-0.3,0.3-0.3,0.3C28.6,5.8,28.6,5.7,28.8,5.5z"
						/>
					<path fill="#313234" d="M30.7,4.3C30.7,4.3,30.7,4.3,30.7,4.3C30.6,4.3,30.6,4.3,30.7,4.3z"/>
					<path fill="#313234" d="M30.5,4.4c0,0,0-0.1,0.1-0.1c0.1,0,0,0,0,0c0,0,0.2-0.1,0-0.1l0,0c-0.2,0.1-0.4,0.2-0.4,0.1
						C30.3,4.4,30.4,4.4,30.5,4.4z"/>
					<path fill="#313234" d="M29.6,4.9c0,0-0.3,0.3-0.3,0.3l0.2-0.1l0,0C29.7,4.9,29.6,5,29.6,4.9z"/>
					<polygon fill="#313234" points="28.1,6.3 28.1,6.2 28,6.4 					"/>
					<polygon fill="#313234" points="27.8,6.7 27.8,6.6 27.7,6.7 					"/>
					<path fill="#313234" d="M40.7,20.9L40.7,20.9C40.7,20.9,40.7,20.9,40.7,20.9z"/>
					<path fill="#313234" d="M40,21.3L40,21.3C40,21.3,40.1,21.2,40,21.3z"/>
					<path fill="#313234" d="M27.3,18c0.1,0.2,0.1,0.3,0.1,0.3l0-0.1C27.4,18.1,27.3,18,27.3,18z"/>
					<path fill="#313234" d="M33.9,22.3L33.9,22.3c-0.1,0-0.1,0-0.2,0C33.8,22.3,33.8,22.3,33.9,22.3z"/>
					<path fill="#313234" d="M34,22.1l0.2,0.1C34.2,22.2,34.1,22.1,34,22.1z"/>
					<path fill="#313234" d="M43.7,18.1l0-0.1C43.6,18.1,43.7,18,43.7,18.1z"/>
					<path fill="#313234" d="M25.9,11.2c0,0.1-0.1,0.2-0.1,0.3C25.9,11.4,25.9,11.3,25.9,11.2z"/>
					<path fill="#313234" d="M40.7,21.5C40.7,21.4,40.7,21.4,40.7,21.5C40.7,21.4,40.6,21.5,40.7,21.5z"/>
					<path fill="#313234" d="M25.8,12C25.8,12,25.8,11.9,25.8,12c0-0.2,0-0.3,0-0.4C25.8,11.7,25.8,11.8,25.8,12z"/>
					<path fill="#313234" d="M41.2,4.7C41.2,4.7,41.2,4.7,41.2,4.7C41.1,4.7,41.2,4.7,41.2,4.7z"/>
					<path fill="#313234" d="M37.2,2.8c0.1,0,0.1,0,0.2,0C37.3,2.8,37.3,2.8,37.2,2.8z"/>
					<path fill="#313234" d="M26.7,8.3C26.8,8.2,26.7,8.3,26.7,8.3L26.7,8.3z"/>
					<path fill="#313234" d="M27.1,8C27.1,8,27.1,8,27.1,8C27.1,8,27.1,8,27.1,8z"/>
					<path fill="#313234" d="M26,13L26,13C26.1,13,26.1,13,26,13z"/>
					<path fill="#313234" d="M26.8,8.2c0,0,0,0.1-0.1,0.1C26.8,8.3,26.8,8.3,26.8,8.2z"/>
					<path fill="#313234" d="M26.8,8.2C26.8,8.2,26.8,8.2,26.8,8.2C26.8,8.1,26.8,8.1,26.8,8.2z"/>
					<path fill="#313234" d="M26.7,8.5c0-0.1,0-0.1,0.1-0.1c0,0,0,0,0,0C26.7,8.4,26.7,8.4,26.7,8.5z"/>
					<path fill="#313234" d="M45.4,11.4C45.4,11.4,45.4,11.4,45.4,11.4C45.4,11.3,45.4,11.3,45.4,11.4z"/>
					<polygon fill="#313234" points="29.3,19.7 29.3,19.7 29.3,19.7 					"/>
					<path fill="#313234" d="M29.6,19.9c-0.1-0.1-0.2-0.1-0.3-0.2l0,0.2L29.6,19.9z"/>
					<path fill="#313234" d="M42.2,19.8L42,20c0.2-0.3,0.4-0.4,0.1-0.3c0.1,0.1-0.7,0.6-0.7,0.7l-0.1,0.1c0,0,0,0,0.1-0.1
						c-0.3,0.1-0.1,0.2-0.5,0.4c-0.1,0.1-0.2,0.1-0.1,0l-0.3,0.2c-0.1,0-0.1,0,0,0c0,0-0.4,0.2-0.4,0.2l0,0c-0.1,0-0.2,0.1-0.2,0.2
						c-0.1,0,0.1,0,0,0c0,0-0.2,0.2-0.2,0.1c-0.1,0,0.1-0.1,0.2-0.2c-0.3,0-0.2,0.1-0.7,0.2l0.2-0.1c-0.2,0-0.4,0.1-0.6,0.1
						c0.1,0,0.6-0.1,0.3,0c-0.1,0-0.2,0.1-0.3,0.1c0,0-0.2,0-0.3,0.1l0-0.1c-0.2,0.1-0.2,0.1-0.3,0.2c-0.2,0.1-0.3,0-0.3,0
						c-0.4,0,0.3,0-0.2,0.1c-0.3,0-0.5,0.1-0.9,0.2c-0.2,0,0,0,0-0.1l-0.2,0.1c0,0,0,0,0,0c-0.2,0,0,0.1-0.3,0.1
						c-0.1,0.1-0.5-0.1-0.8,0c-0.1,0,0,0,0-0.1c-0.4,0-0.4,0-0.7,0l-0.3-0.1c0.2,0.1-0.1,0.1-0.3,0.1c0.1,0,0.1,0.1,0.2,0.1
						c0,0-0.4,0-0.4,0c0,0,0,0,0.1,0c0,0-0.1,0-0.1,0c-0.1-0.1-0.1-0.1,0.1-0.1l0.1,0.1c0.1,0,0.2-0.1,0.2-0.1c0,0-0.1,0-0.1,0
						c0,0,0,0,0,0c0,0-0.1,0-0.1,0L33.8,22l0,0l-0.5-0.2c-0.4,0-0.7-0.1-1.3-0.2c0.2,0,0.1-0.1,0.1-0.1c0.1,0.1,0.4,0.1,0.7,0.3
						c-0.1-0.1-0.1-0.1-0.1-0.1l-0.5-0.1c0,0-0.1-0.1-0.2-0.2c0.1,0.1-0.4-0.1-0.6-0.2c0,0,0.1,0,0.3,0.1c-0.2-0.2-0.4-0.1-0.6-0.3
						c0.1,0,0.1,0.1,0.1,0.1c-0.1-0.1-0.5-0.3-0.4-0.3l0.1,0c-0.4-0.2-1.1-0.8-1.2-0.7c0,0,0.1,0,0.1,0c0,0-0.2-0.1-0.4-0.2
						c-0.2-0.1-0.4-0.2-0.4-0.2c0.1,0,0-0.3,0.3-0.1c-0.1-0.1-0.2-0.2-0.3-0.3c0,0.1,0,0.2,0,0.1c-0.1-0.3-0.1-0.2-0.3-0.5
						c0.1,0.1-0.1,0.1-0.2-0.1c0,0,0.1-0.1,0.1,0c0,0-0.4-0.2-0.4-0.3c0.1,0.1,0.1,0,0.1-0.1c0,0-0.2-0.3-0.3-0.4l0.1,0.2
						c-0.3-0.4-0.4-0.3-0.7-0.7c0.1,0,0.2,0,0.1-0.2c-0.1-0.1-0.5-0.3-0.7-0.7l0-0.1c0,0-0.2-0.3-0.2-0.3c0.2,0.2,0.6,0.6,0.8,0.8
						c-0.1-0.2,0-0.1-0.1-0.3c0-0.1,0.1,0.1,0.1,0.2l-0.2-0.6c-0.1,0.1-0.3-0.4-0.3-0.4c0,0,0.3,0.6,0.3,0.6c0,0.1-0.4-0.3-0.5-0.7
						c0-0.1,0.1,0,0.2,0c0,0-0.2-0.4-0.2-0.4l0.1,0.2c-0.1-0.2-0.2-0.3-0.2-0.7c0-0.1,0-0.3,0-0.3c0,0.2-0.3,0.3-0.3,0.2
						c0,0-0.1-0.6,0-0.7c0-0.2,0.2,0.2,0.2,0.1c0,0-0.1-0.1-0.1-0.1c0-0.1,0.1,0,0-0.2c-0.1,0-0.1-0.5-0.1-0.1c0-0.2,0-0.2-0.1-0.5
						c0,0.1-0.2-0.2-0.2-0.5c0,0,0,0,0-0.1c0-0.5,0.1-0.7,0.1-1.2c0,0,0.1-0.2,0.1-0.2c0-0.1,0-0.1,0-0.3c0.1-0.3,0,0.3,0.1,0.1
						c0,0,0-0.4,0-0.5c-0.1,0-0.1,0.4-0.1,0.6c-0.1,0-0.1-0.4-0.1-0.8c0-0.4,0.1-0.1,0.1-0.2c0.2-0.7,0-0.6,0.2-1.2
						c0.1-0.2,0.1,0,0.2,0c-0.1,0.3-0.2,0.4-0.2,0.6l0.1-0.2c0,0.1,0,0.3-0.1,0.4c0.1-0.2,0.3-1.1,0.6-1.6c0-0.1,0.1-0.2,0-0.2
						l-0.1,0.2c-0.1,0.1,0.1-0.3,0-0.1C27,8.3,27,8,27.2,7.7l0.1,0c0,0-0.1,0.2-0.2,0.2c0-0.1,0.3-0.4,0.3-0.5l-0.2,0.2
						c0.1-0.2,0.2-0.5,0.4-0.7c-0.1,0.1,0,0.1-0.2,0.2c0.2-0.1-0.4,0.6-0.2,0.4c-0.2,0.1-0.2,0.3-0.4,0.5c0,0,0.1-0.1,0,0.1
						c0,0,0,0,0,0.1l0,0l0,0c0,0,0,0,0,0c0,0,0.1-0.1,0.1-0.1c0,0.1-0.2,0.5-0.2,0.6c-0.1,0.1,0-0.1,0,0l0,0.2c0,0-0.2,0.3-0.1,0
						l-0.1,0.3c-0.1,0.2-0.2,0.4-0.2,0.5c0,0.1,0,0.4,0,0.2l-0.1,0.5l0,0c-0.1,0.5-0.1,1-0.2,1.5c0,0.2,0,0.3,0,0.6l0,0.1
						c0,0.2,0,0.6,0,0.7c-0.1,0.2,0.1,1,0.1,1.4l0.1,0c0,0.2,0.1,0.5,0.2,0.8l0,0c0.1,0.2,0.2,0.7,0.3,1c0,0-0.1-0.1-0.1-0.2
						c0.1,0.5,0.5,0.9,0.6,1.4c0.1,0.1,0.1,0.2,0.1,0.2c0,0,0,0,0,0c0,0,0,0,0,0c0,0,0,0.1,0.1,0.1c0,0,0-0.1,0-0.1
						c0,0.1,0.1,0.2,0.2,0.3l0,0.1c0,0,0,0,0,0c0.1,0.1,0.1,0.1,0.1,0c0,0.1,0.1,0.1,0.1,0.1c0,0.1,0.2,0.3,0.2,0.4
						c0.1,0.1,0.4,0.5,0.5,0.5c0,0,0,0,0,0c0.1,0.1,0.2,0.2,0.3,0.3l0,0.1c0,0,0.3,0.2,0.3,0.2c0.1,0.2,0.2,0.2,0,0.1
						c0.4,0.3,0.3,0.2,0.6,0.4l0,0c0.1,0.1,0.3,0.2,0.4,0.2c0.2,0.3,1.3,0.9,2,1.2c-0.1-0.2,0.3,0.2,0.4,0.1c0,0,0.1,0.1,0,0.1
						c0.4,0.1,0.6,0.3,0.9,0.3c0,0-0.1,0-0.1,0c0,0,0.1,0,0.2,0c0,0-0.1,0-0.1,0c0.4,0.1,0.5,0,0.5,0c0.2,0.1,0.3,0.1,0.5,0.1
						c0.1,0,0.2,0.1-0.1,0.1c0.1,0,0.9,0.2,0.9,0.1c0,0,0.2,0,0.2,0c0.3,0,0.3,0,0.7,0l-0.1,0c0.1-0.1,0.3,0,0.5,0l0,0
						c0.6,0,0.3,0,0.8,0l0,0c0-0.1,0.5,0,0.8-0.1l-0.1,0c0.2-0.1,0.5,0,0.7,0c0,0-0.1,0-0.1,0.1c0.5-0.1,0-0.1,0.4-0.2
						c0.1,0-0.1,0.1,0.2,0c0.1,0,0.6-0.3,1-0.4c-0.1,0-0.2,0,0-0.1c0.2-0.1,0.7-0.2,0.8-0.4c0,0,0,0,0,0c0.2-0.1,0.5-0.4,0.6-0.5
						c0.2,0,0.9-0.8,1-0.7l0.4-0.4l0,0c0.3-0.3,0.3-0.4,0.4-0.5c0.1-0.1,0,0,0,0c0.4-0.4,0.4-0.5,0.6-0.9l0.1,0
						c0.1-0.1,0.5-0.6,0.7-1.2c0,0,0,0,0,0.1c0.2-0.6,0.7-1.3,0.6-1.6c0,0,0.1-0.4,0.1-0.4c-0.1,0.5-0.1-0.1-0.1,0.1
						c0-0.2,0.2-0.5,0.1-0.3l0,0c0.1,0.1,0.2-0.6,0.2-0.6c0.2-1,0.3-2.1,0.2-3l-0.1,0.1c0,0,0-0.3,0-0.3c0-0.1,0-0.1,0.1,0.1
						c0-0.1-0.1-0.4-0.1-0.4c0-0.5,0.1,0.2,0.1,0l0-0.2l0,0c-0.1-0.2-0.1-0.2-0.1-0.5c0-0.2,0-0.1,0-0.2c0,0,0,0,0-0.1l-0.1-0.4
						l0,0.2c-0.1-0.2-0.1-0.4-0.1-0.2c0-0.2-0.1-0.5-0.3-0.9c-0.2-0.4-0.3-0.7-0.4-0.8c-0.1-0.2-0.3-0.4-0.5-0.7
						c0,0.1,0,0.2-0.1-0.1c0.2,0-0.2-0.5-0.3-0.7c0.1,0.2-0.5-0.6-0.4-0.3c-0.1-0.2,0,0-0.1-0.2c-0.4-0.4-0.8-0.9-1.4-1.3
						c0,0,0.1,0.1-0.1,0l-0.2-0.3c-0.1-0.1-0.2,0-0.3-0.2c0,0,0.1,0.1,0,0c-1.1-0.8-2.5-1.2-3.8-1.6c0.2,0.1,0.1,0-0.1,0
						c0.1,0,0,0,0,0.1c0,0-0.6-0.2-0.6-0.1c-0.1,0.1-0.6,0-0.7,0l0.2,0C36,2.8,36.6,2.9,36.6,3c0.3-0.1,0.7,0.2,1.1,0.2
						c0.1,0-0.1,0,0,0c0.1,0,0.2,0,0.5,0.1l0,0c0.7,0.2,0.9,0.3,1.6,0.6l0-0.1C39.9,3.9,39.9,4,39.9,4c0.2,0-0.4-0.2-0.2-0.2
						c0.2,0.2,1.1,0.5,1.1,0.7c0.2,0.1,0-0.1,0.2,0l0,0.1l0.1,0c0.1,0.1,0.2,0.2,0.2,0.2c0,0-0.1-0.1-0.1-0.1
						c0.2,0.2,0.5,0.4,0.5,0.4L41.5,5c0.6,0.4,1.2,1,1.6,1.5l0-0.1c0.4,0.4,0.2,0.3,0.6,0.8l0,0c0.1,0.1,0.2,0.2,0.3,0.3
						c-0.1-0.1,0.1,0.3,0,0.1c0.3,0.5,0.2,0.2,0.4,0.5l0,0.1c0.1,0.1,0.1,0.1,0.2,0.4c-0.1-0.2,0,0.2-0.1,0c0.2,0.6,0.4,0.8,0.4,1.1
						c0.2,0.2-0.1-0.5,0-0.4c0-0.1,0.1,0.2,0.2,0.4c0.1,0.2,0,0.3,0.1,0.8c0,0,0-0.1,0-0.1c0,0.2,0.1,0.3,0.1,0.6
						c0.1,0.1,0,0.3,0.1,0.3l-0.1-0.4c0.1,0.2,0.2,0.5,0.2,0.9c0,0-0.1-0.1-0.1-0.2c0,0.1,0.1,0.2,0,0.4c-0.1,0-0.1-0.5-0.2-0.8
						c0,0.1,0.1,0.5,0,0.4c0.1,0.2,0.1,0.5,0.1,0.8l0,0c0,0.1,0,0.2,0,0.2l-0.1-0.2c0.1,0.3,0,0.5,0,0.7c0-0.5,0.1-0.1,0.1-0.3
						c0,0.6-0.1,0.4-0.2,1.1c0-0.1,0-0.4,0.1-0.2c0,0.1-0.1,0.3-0.1,0.4c-0.1,0.5,0.1-0.1,0.1,0.1c-0.1,0.2,0,0.2,0,0.4l0,0
						c-0.1,0.5,0.1,0.2-0.1,0.6l0-0.2l0,0.3l0-0.1c0,0.3,0,0.4-0.2,0.6c0.1,0,0.1,0.1,0,0.3c-0.1,0.1,0-0.1-0.1,0.2
						c0-0.1,0-0.2,0.1-0.3c0,0,0-0.1,0-0.1c-0.1,0.2-0.2,0.4-0.2,0.5c0,0,0-0.1,0.1-0.1c0,0-0.1,0.5-0.1,0.5c-0.1,0.1,0,0,0-0.1
						c0,0.1,0,0.2-0.1,0.3c0-0.1-0.1-0.1,0-0.3l-0.2,0.4c0,0-0.1,0.2-0.1,0.1c-0.2,0.2-0.3,0.6-0.5,0.9c0,0,0,0.1-0.1,0.1
						c-0.2,0.2-0.4,0.5-0.6,0.8l-0.2,0.1c-0.2,0.2,0.3-0.2-0.1,0.2c-0.2,0.3-0.1,0.1-0.2,0.1c-0.1,0.1-0.3,0.4-0.6,0.6
						C42,19.9,42.1,19.9,42.2,19.8z M39,21.7c0.1,0,0.2-0.1,0.2-0.1C39.2,21.7,39.1,21.7,39,21.7z M33.4,22.1c0.1,0,0.1,0,0.2,0.1
						C33.5,22.1,33.5,22.1,33.4,22.1z M26.3,9.4L26.3,9.4C26.3,9.6,26.3,9.5,26.3,9.4z M26.5,9.1C26.5,9,26.5,9,26.5,9.1
						c0,0,0,0.1-0.1,0.2C26.4,9.2,26.5,9.2,26.5,9.1z M45.5,10.3L45.5,10.3C45.5,10.2,45.5,10.2,45.5,10.3z"/>
					<path fill="#313234" d="M34,22.1C34,22.1,34,22.2,34,22.1C34.1,22.2,34.1,22.2,34,22.1z"/>
					<path fill="#313234" d="M43.7,18.1L43.7,18.1C43.7,18.1,43.7,18.1,43.7,18.1L43.7,18.1z"/>
					<path fill="#313234" d="M26.4,14.3c0,0.1,0,0.1,0,0.1C26.4,14.5,26.4,14.4,26.4,14.3z"/>
					<path fill="#313234" d="M27.2,7.4l-0.1,0.2C27.2,7.5,27.2,7.5,27.2,7.4C27.2,7.4,27.2,7.4,27.2,7.4z"/>
					<path fill="#313234" d="M28.6,6C28.7,6,28.7,6,28.6,6L28.6,6C28.6,6,28.5,6.1,28.6,6z"/>
					<path fill="#313234" d="M27.5,7.3c0,0,0.1-0.1,0.2-0.3l0,0C27.6,7,27.5,7.1,27.5,7.3z"/>
					<path fill="#313234" d="M27.7,7c0,0,0.1-0.1,0.1-0.1C27.8,6.9,27.7,6.9,27.7,7z"/>
					<path fill="#313234" d="M26.6,8.7C26.7,8.6,26.6,8.6,26.6,8.7C26.6,8.5,26.5,9,26.6,8.7z"/>
					<polygon fill="#313234" points="27.7,7.3 27.6,7.3 27.6,7.4 					"/>
					<path fill="#313234" d="M27,8.3l0.1-0.2c0,0,0,0,0-0.1C27.1,8.1,27,8.3,27,8.3z"/>
					<path fill="#313234" d="M27.2,8c0-0.1,0.1-0.1,0.1-0.2C27.2,7.9,27.2,7.9,27.2,8z"/>
					<polygon fill="#313234" points="27.5,7.5 27.5,7.6 27.4,7.7 					"/>
					<path fill="#313234" d="M26.2,10.8l0,0.3c0,0,0,0,0-0.1C26.2,10.8,26.2,10.7,26.2,10.8z"/>
					<path fill="#313234" d="M26.5,10c0,0.1,0,0.1-0.1,0.1l0.1,0L26.5,10z"/>
					<path fill="#313234" d="M26.3,10.8C26.3,10.8,26.3,11.2,26.3,10.8C26.3,10.8,26.4,10.5,26.3,10.8z"/>
					<polygon fill="#313234" points="26.3,14.8 26.3,14.7 26.2,14.7 					"/>
					<path fill="#313234" d="M27.9,17.9c-0.1-0.3-0.1,0-0.2-0.3c-0.1,0,0.1,0.2,0,0.2C27.8,17.9,27.8,18,27.9,17.9z"/>
					<path fill="#313234" d="M27.7,17.8C27.7,17.7,27.6,17.7,27.7,17.8C27.7,17.7,27.7,17.7,27.7,17.8z"/>
					<polygon fill="#313234" points="36.4,2.6 36.2,2.6 36.3,2.7 					"/>
					<path fill="#313234" d="M36,2.7L36,2.7l-0.2,0C35.9,2.7,36,2.7,36,2.7z"/>
					<path fill="#313234" d="M38.4,21.8L38.4,21.8c0,0,0.1,0,0.2,0L38.4,21.8z"/>
					<polygon fill="#313234" points="40.9,20.7 40.8,20.7 40.9,20.7 					"/>
					<path fill="#313234" d="M42.6,19.3c-0.1,0.1-0.1,0.1-0.2,0.2C42.5,19.3,42.6,19.3,42.6,19.3z"/>
				</g>
			</g>
		</g>
	</g>
</g>
<circle fill="#3D76DE" cx="39.4" cy="11.5" r="1.5"/>
<circle fill="#3D76DE" cx="32.2" cy="11.5" r="1.5"/>
<path fill="#3E4347" d="M31.8,16.5c-0.2-0.2-0.2-0.5,0-0.6c0.2-0.2,0.5-0.2,0.6,0c1.9,1.8,4.9,1.8,6.8,0c0.2-0.2,0.5-0.2,0.6,0
	c0.2,0.2,0.2,0.5,0,0.6C37.6,18.7,34.1,18.7,31.8,16.5z"/>
<g>
	<g>
		<g>
			<g>
				<g>
					<path fill="#313234" d="M4.6,12.5C4.6,12.4,4.6,12.4,4.6,12.5C4.5,12.6,4.6,12.5,4.6,12.5z"/>
					<polygon fill="#313234" points="4.4,14.2 4.4,14.1 4.4,14.4 					"/>
					<path fill="#313234" d="M4.5,15.7c0-0.2-0.1-0.6-0.1-0.8l0,0l-0.1-0.1C4.4,15,4.5,15.5,4.5,15.7z"/>
					<path fill="#313234" d="M4.5,16.5c0-0.1,0.1,0.2,0-0.2c0,0,0,0,0,0C4.5,16.4,4.5,16.4,4.5,16.5z"/>
					<path fill="#313234" d="M4.5,16.4C4.4,16.2,4.5,16.5,4.5,16.4L4.5,16.4z"/>
					<path fill="#313234" d="M4.7,17.1c0,0-0.1-0.2-0.1-0.2C4.6,17,4.7,17.1,4.7,17.1C4.7,17.3,4.7,17.2,4.7,17.1z"/>
					<path fill="#313234" d="M4.8,17.3l0-0.1C4.8,17.2,4.8,17.2,4.8,17.3z"/>
					<path fill="#313234" d="M4.7,17l0.1,0.2c0,0,0,0,0-0.1C4.8,17.1,4.7,17.1,4.7,17z"/>
					<path fill="#313234" d="M4.6,16.8C4.6,16.7,4.6,16.6,4.6,16.8C4.6,16.4,4.5,16.4,4.6,16.8z"/>
					<path fill="#313234" d="M4.6,15.8l0-0.2l0-0.1C4.6,15.5,4.6,15.8,4.6,15.8z"/>
					<path fill="#313234" d="M5.2,18.4c0,0,0-0.1,0-0.1l-0.1-0.1C5.2,18.2,5.2,18.3,5.2,18.4z"/>
					<path fill="#313234" d="M5.2,18.3c0,0,0.1,0.2,0.1,0.2C5.2,18.3,5.2,18.2,5.2,18.3z"/>
					<polygon fill="#313234" points="4.9,17.3 4.7,16.9 4.9,17.4 					"/>
					<polygon fill="#313234" points="5.7,19.2 5.6,19.1 5.7,19.2 					"/>
					<path fill="#313234" d="M6,19.6C6,19.6,6.1,19.8,6,19.6c0.1,0.2,0.2,0.3,0.3,0.4C6.2,19.9,6.1,19.8,6,19.6z"/>
					<path fill="#313234" d="M6.5,20.1c0,0-0.1-0.1-0.2-0.1C6.4,20.1,6.4,20.1,6.5,20.1z"/>
					<path fill="#313234" d="M5.5,18.8c0,0,0,0.1,0.1,0.2L5.5,18.8C5.6,18.9,5.6,18.8,5.5,18.8z"/>
					<path fill="#313234" d="M5.6,18.9L5.6,18.9C5.6,19,5.7,19,5.7,19.1C5.7,19,5.7,19,5.6,18.9z"/>
					<path fill="#313234" d="M5.5,18.8L5.5,18.8C5.5,18.8,5.5,18.8,5.5,18.8z"/>
					<path fill="#313234" d="M5.1,17.9C5.2,18,5.3,18.2,5.2,18C5.2,17.9,5.2,18.1,5.1,17.9z"/>
					<path fill="#313234" d="M5.5,18.7l-0.1-0.2c0,0,0,0.1,0,0L5.5,18.7z"/>
					<polygon fill="#313234" points="5.6,18.8 5.5,18.7 5.6,18.7 					"/>
					<path fill="#313234" d="M6.2,19.8c0.1,0.1,0.2,0.2,0.3,0.3C6.4,19.9,6.3,19.8,6.2,19.8C6.2,19.7,6.1,19.7,6.2,19.8z"/>
					<path fill="#313234" d="M5.9,19.4L5.9,19.4C5.9,19.4,5.9,19.4,5.9,19.4z"/>
					<polygon fill="#313234" points="7.5,21 7.5,20.9 7.4,20.9 					"/>
					<path fill="#313234" d="M6.2,19.7c-0.1-0.1-0.1-0.1-0.2-0.2C6.1,19.6,6.2,19.7,6.2,19.7C6.2,19.7,6.2,19.7,6.2,19.7z"/>
					<path fill="#313234" d="M6.8,20.4c0,0-0.1-0.1-0.1-0.2C6.7,20.3,6.7,20.4,6.8,20.4z"/>
					<path fill="#313234" d="M5.9,19.4C5.9,19.4,5.9,19.4,5.9,19.4C5.9,19.4,5.9,19.4,5.9,19.4z"/>
					<path fill="#313234" d="M5.9,19.4c0,0,0.1,0.1,0.1,0.1C6,19.5,6,19.4,5.9,19.4C5.9,19.4,5.9,19.4,5.9,19.4z"/>
					<path fill="#313234" d="M7.9,21c0,0-0.3-0.1-0.4-0.3c-0.2-0.1-0.2,0.1,0,0.3c0,0,0,0,0.2,0.1c-0.1-0.1-0.4-0.4-0.2-0.3
						c0.3,0.2,0.2,0.2,0.3,0.3c-0.1-0.1,0.4,0.2,0.4,0.1C8.1,21.1,7.9,21,7.9,21C7.9,21,8,21,7.9,21z"/>
					<path fill="#313234" d="M7.1,20.6L7.1,20.6c0,0,0.1,0.1,0.1,0.2c0.1,0.1,0.2,0.1,0.2,0.1C7.4,21,7.1,20.6,7.1,20.6L7.1,20.6z"
						/>
					<path fill="#313234" d="M6.7,20.2c0.1,0,0.3,0.2,0.2,0c-0.2-0.2-0.2-0.1-0.3-0.2C6.9,20.4,6.5,20,6.7,20.2
						c-0.1-0.1-0.1-0.1-0.2-0.2C6.5,20.1,6.6,20.2,6.7,20.2L6.7,20.2L6.7,20.2L6.7,20.2C6.6,20.2,6.6,20.2,6.7,20.2L6.7,20.2
						C6.7,20.2,6.7,20.2,6.7,20.2C6.8,20.4,6.7,20.3,6.7,20.2L6.7,20.2L6.7,20.2c0,0,0.3,0.3,0.3,0.3C6.9,20.5,6.8,20.4,6.7,20.2z"
						/>
					<path fill="#313234" d="M5.4,18.2C5.4,18.2,5.4,18.2,5.4,18.2C5.5,18.2,5.5,18.2,5.4,18.2z"/>
					<path fill="#313234" d="M5.5,18.4c0,0,0,0-0.1-0.1c0-0.1,0,0,0,0c0-0.1-0.1-0.2-0.1,0l0,0c0.1,0.2,0.2,0.4,0.1,0.4
						C5.5,18.5,5.5,18.5,5.5,18.4z"/>
					<path fill="#313234" d="M6,19.3l0.3,0.3l-0.1-0.2l0,0C6.1,19.3,6.1,19.3,6,19.3z"/>
					<polygon fill="#313234" points="7.5,21 7.4,21 7.6,21.1 					"/>
					<polygon fill="#313234" points="7.9,21.3 7.9,21.3 8,21.4 					"/>
					<path fill="#313234" d="M16.9,10L16.9,10C16.9,10,16.9,10,16.9,10z"/>
					<path fill="#313234" d="M17.5,9.3L17.5,9.3C17.5,9.3,17.5,9.3,17.5,9.3z"/>
					<path fill="#313234" d="M19.4,19c0.1-0.1,0.3-0.3,0.2-0.3l-0.1,0C19.5,18.9,19.4,18.9,19.4,19z"/>
					<path fill="#313234" d="M18.9,14L18.9,14c0,0.1,0,0.1,0,0.2C18.9,14.1,18.9,14.1,18.9,14z"/>
					<path fill="#313234" d="M18.8,13.9l0.1-0.2C18.8,13.7,18.8,13.8,18.8,13.9z"/>
					<path fill="#313234" d="M13.1,8.2L13.1,8C13.1,8.2,13.1,8.1,13.1,8.2z"/>
					<path fill="#313234" d="M13.1,22.7c0.2,0,0.3,0,0.4,0C13.3,22.7,13.1,22.6,13.1,22.7z"/>
					<path fill="#313234" d="M16.9,9.4C16.8,9.5,16.8,9.5,16.9,9.4C16.8,9.4,16.9,9.4,16.9,9.4z"/>
					<path fill="#313234" d="M13.9,22.6C13.8,22.6,13.8,22.6,13.9,22.6c-0.2,0-0.3,0-0.4,0.1C13.6,22.7,13.7,22.7,13.9,22.6z"/>
					<path fill="#313234" d="M7.5,11.5C7.5,11.5,7.5,11.6,7.5,11.5C7.5,11.6,7.5,11.6,7.5,11.5z"/>
					<path fill="#313234" d="M5.9,13.4c0,0,0.1,0.1,0.1,0.1C6,13.5,6,13.4,5.9,13.4z"/>
					<path fill="#313234" d="M9.8,22.3C9.7,22.2,9.8,22.3,9.8,22.3L9.8,22.3z"/>
					<path fill="#313234" d="M9.4,21.9C9.4,21.9,9.4,21.9,9.4,21.9C9.4,21.9,9.4,21.9,9.4,21.9z"/>
					<path fill="#313234" d="M14.9,22.1L14.9,22.1C14.9,22.1,14.9,22.1,14.9,22.1z"/>
					<path fill="#313234" d="M9.7,22.2c0,0,0.1,0,0.1,0.1C9.8,22.3,9.7,22.2,9.7,22.2z"/>
					<path fill="#313234" d="M9.7,22.2C9.6,22.2,9.6,22.2,9.7,22.2C9.6,22.2,9.6,22.2,9.7,22.2z"/>
					<path fill="#313234" d="M10,22.3c-0.1,0-0.1,0-0.2-0.1c0,0,0,0,0,0C9.8,22.3,9.9,22.3,10,22.3z"/>
					<path fill="#313234" d="M11.4,4C11.4,4,11.4,4,11.4,4C11.3,4.1,11.3,4.1,11.4,4z"/>
					<polygon fill="#313234" points="20.1,16.2 20.1,16.2 20.1,16.2 					"/>
					<path fill="#313234" d="M20.1,15.9c0,0.2,0,0.3,0,0.4l0.2-0.1L20.1,15.9z"/>
					<path fill="#313234" d="M14.8,10.3l0.3,0.1c-0.4,0-0.6-0.2-0.4,0c0.1-0.1,0.3,0.1,0.7,0.1c0.3,0,0.6,0,0.6-0.1l0.2,0
						c-0.1,0-0.1,0-0.1,0c0.4,0,0.2-0.2,0.7-0.4c0.1-0.1,0.2-0.2,0.2-0.1l0.3-0.3c0.1-0.1,0.1,0,0,0c0,0,0.3-0.5,0.3-0.5l0,0
						c0,0,0-0.1,0.1-0.2c0,0,0-0.1,0-0.1c0.1-0.1,0,0.1,0,0l0.1-0.2c0,0,0,0.2-0.1,0.2c0.1,0,0.1,0,0.1-0.1c0,0,0-0.1,0-0.1
						c0-0.1,0.1,0,0.1,0.1c0,0-0.1-0.1-0.1,0c0,0.1,0.1,0.2,0.1,0.3c0,0-0.1-0.3,0-0.3C17.9,9,18,9.1,18,9.1c0,0,0,0.1,0.1,0.3
						l-0.1,0c0.1,0.2,0.1,0.2,0.2,0.3c0.1,0.2,0.1,0.3,0.1,0.4c0.1,0.4,0-0.3,0.2,0.1c0.1,0.3,0.2,0.5,0.3,0.9c0,0.2,0,0,0,0.1
						l0.1,0.2c0,0,0,0,0,0c0,0.2,0.1,0,0.1,0.3c0.1,0.1-0.1,0.6,0,0.9c0,0.1,0,0-0.1,0c0,0.4,0,0.3,0,0.8c0,0,0,0.1,0,0.2
						c0,0.1-0.1,0.2-0.1,0.2c0.1-0.2,0.1,0.1,0.1,0.4c0.1-0.1,0.1-0.1,0.1-0.2l-0.1,0.4c0,0,0,0,0-0.1c0,0,0,0.1,0,0.1
						c-0.1,0.1-0.1,0.1-0.1-0.1l0.1-0.1c0-0.1,0-0.2-0.1-0.2c0,0,0,0.1,0,0.1c0,0,0,0,0,0c0,0,0,0.1,0,0.1l-0.1,0.1l0,0
						c0,0-0.1,0.1-0.1,0.3c-0.1,0.2-0.2,0.4-0.2,0.4c0,0.1-0.1,0.2-0.1,0.4c0,0,0,0,0.1,0l0.2,0c0.1,0,0.2,0,0.3,0
						c0.2,0,0.4-0.1,0.6-0.2c-0.1,0.1,0,0.1,0,0.2c-0.1,0-0.6,0.3-1.1,0.2c0.2,0,0.2,0,0.1,0.1c0,0,0.2,0,0.4,0
						c0.2,0,0.4-0.1,0.4-0.1c0,0,0.1,0,0.3-0.1c-0.2,0,0.4-0.3,0.5-0.4c0,0,0,0.1-0.2,0.2c0.1-0.1,0.1-0.1,0.2-0.2
						c0-0.1,0.1-0.2,0.2-0.2c0,0-0.1,0-0.1,0.1c0,0,0.1-0.1,0.1-0.1l0.1-0.1c0,0,0,0.1,0,0.1c0,0.1,0,0.1,0,0.1l0,0
						c0,0.2,0,0.4,0,0.6c0,0.3,0,0.6,0,0.6c0,0-0.1-0.1-0.1-0.1c0,0,0,0.2,0.1,0.4c0,0.2,0,0.5,0,0.5c-0.1-0.1-0.3,0.1-0.2-0.2
						c0,0.1-0.1,0.2-0.1,0.5c0-0.1,0.1-0.2,0.1-0.1c-0.2,0.3-0.1,0.2-0.3,0.5c0.1-0.1,0.1,0.1,0.1,0.2c0,0-0.1,0-0.1-0.1
						c0,0,0,0.1,0,0.2c0,0.1,0,0.2,0,0.2c0-0.1-0.1-0.1-0.2,0c0,0-0.2,0.4-0.2,0.5c0,0,0.1-0.2,0.1-0.2c-0.3,0.4-0.1,0.5-0.4,1
						c0-0.1,0-0.2-0.2,0c0,0.1-0.1,0.6-0.4,1l-0.1,0c0,0-0.2,0.3-0.2,0.3c0.1-0.2,0.4-0.8,0.5-1.1c-0.1,0.1-0.1,0-0.2,0.2
						c-0.1,0.1,0.1-0.1,0.1-0.2c0,0-0.4,0.5-0.4,0.5c0.1,0-0.3,0.4-0.3,0.4c0,0,0.5-0.6,0.5-0.6c0.1,0-0.1,0.5-0.5,0.8
						c-0.1,0.1,0-0.1,0-0.2c0,0.1-0.3,0.3-0.3,0.3c0,0,0.1-0.2,0.1-0.2c-0.2,0.2-0.3,0.3-0.6,0.5c-0.1,0.1-0.3,0.1-0.3,0.2
						c0.2,0,0.4,0.1,0.3,0.3c0,0-0.5,0.3-0.7,0.3c-0.2,0,0.2-0.3,0-0.2c0,0-0.1,0.1-0.1,0.1c-0.1,0,0-0.1-0.2,0
						c0,0.1-0.5,0.2-0.1,0.1c-0.2,0.1-0.2,0.1-0.5,0.2c0.1,0-0.2,0.2-0.4,0.3c0,0-0.1,0-0.1,0c-0.5,0.1-0.8,0.2-1.2,0.2
						c0,0-0.3,0-0.2,0c-0.1,0-0.1,0.1-0.3,0.1c-0.3,0,0.3,0,0.1-0.1c0,0-0.4,0.1-0.6,0.1c0.1,0.1,0.5,0,0.7-0.1
						c0,0.1-0.3,0.2-0.9,0.3c-0.4,0-0.2-0.1-0.2-0.1c-0.7,0-0.7,0.1-1.3,0c-0.2-0.1,0-0.1,0-0.2c0.3,0,0.5,0.1,0.7,0.1l-0.3-0.1
						c0.1,0,0.3,0,0.4,0c-0.2,0-1.2-0.2-1.8-0.4C10,22,9.8,22,9.9,22l0.2,0.1c0.1,0.1-0.3-0.1-0.1,0c-0.2-0.1-0.5-0.1-0.8-0.3l0-0.1
						c0,0,0.2,0.1,0.3,0.2c-0.1,0-0.4-0.3-0.6-0.3l0.2,0.1c-0.2-0.1-0.5-0.2-0.8-0.4c0.1,0.1,0.1,0,0.2,0.2c-0.1-0.1,0.1,0,0.3,0.1
						c0.2,0.1,0.3,0.2,0.2,0C9,22,9.2,22,9.4,22.2c0,0-0.1-0.1,0.2,0c0,0,0,0,0.1,0l0,0l0,0c0,0,0,0,0,0c-0.1,0-0.1-0.1-0.1-0.1
						c0.1,0,0.5,0.2,0.7,0.2c0.1,0-0.1,0,0,0l0.2,0c0,0,0.4,0.2,0,0.1l0.3,0.1c0.2,0.1,0.5,0.1,0.6,0.1c0.2,0,0.4,0,0.3,0l0.5,0l0,0
						c0.3,0,0.5,0,0.8,0c0.3,0,0.5,0,0.8-0.1c0.2,0,0.3-0.1,0.6-0.1l0.1,0c0.2-0.1,0.7-0.1,0.7-0.2c0.3,0,1-0.4,1.4-0.6l0-0.1
						c0.2-0.1,0.5-0.3,0.7-0.5l0,0c0.2-0.2,0.6-0.4,0.9-0.7c0,0-0.1,0.1-0.2,0.2c0.2-0.1,0.4-0.4,0.6-0.6c0.2-0.2,0.3-0.4,0.5-0.6
						c0.1-0.1,0.1-0.2,0.2-0.2c0,0,0,0,0,0c0,0,0,0,0,0c0,0,0.1-0.1,0.1-0.1c0,0-0.1,0.1-0.1,0.1c0.1-0.1,0.1-0.2,0.2-0.3l0.1,0
						c0,0,0,0,0,0c0.1-0.1,0-0.1,0-0.1c0-0.1,0.1-0.1,0.1-0.2c0.1-0.1,0.1-0.3,0.3-0.4c0-0.1,0.3-0.7,0.2-0.8c0,0,0,0,0,0
						c0.1-0.1,0.1-0.3,0.1-0.4l0.1,0l0-0.3c0.1-0.2,0.1-0.3,0.1-0.1c0.1-0.5,0.1-0.4,0.1-0.8l0,0c0-0.1,0-0.4,0-0.5c0,0,0-0.1,0-0.2
						c0-0.1,0-0.3,0-0.4c0-0.1,0-0.3,0-0.5c0-0.2,0-0.4-0.1-0.4c-0.2,0.3-0.5,0.6-0.7,0.8c-0.2,0.2-0.3,0.2-0.5,0.3
						c0.1,0,0,0.1-0.1,0.1c-0.1,0-0.1,0-0.2,0.1c0,0-0.1,0,0-0.1c-0.1,0-0.3,0-0.2,0c0,0,0,0,0-0.1c0,0,0,0,0.1,0c0,0,0,0,0-0.1
						c0,0,0,0,0,0c0,0,0-0.1,0-0.2c0-0.1,0-0.1-0.1-0.1c0.1-0.2,0.1-0.3,0.1-0.5c0-0.1,0.1-0.2,0,0.1c0.1-0.1,0.3-0.9,0.2-1
						c0,0,0-0.2,0-0.3c0-0.4,0-0.4,0-0.7l0,0.1c-0.1-0.1,0-0.3-0.1-0.6l0,0c-0.1-0.6,0-0.3-0.1-0.9l0,0c-0.1,0-0.1-0.6-0.3-0.9
						l0,0.1c-0.1-0.2-0.1-0.6-0.2-0.8c0,0,0,0.1,0.1,0.1c-0.2-0.5-0.1,0-0.3-0.4c0-0.1,0.2,0.1-0.1-0.3c0-0.1-0.2-0.3-0.4-0.6
						c0-0.1-0.1-0.1-0.1-0.2c0,0-0.1,0.1-0.1,0.2c-0.1,0.1-0.1,0.3-0.2,0.4c0.1-0.1,0.1-0.1,0,0.1c0,0.1-0.1,0.2-0.2,0.3
						C17.2,9,17.2,9,17.1,9.1c-0.1,0.1-0.2,0.3-0.3,0.4c0,0,0,0,0,0c-0.1,0.1-0.2,0.2-0.3,0.3c-0.1,0.1-0.2,0.2-0.3,0.2
						c-0.1,0-0.4,0.1-0.6,0.1c-0.3,0-0.5,0-0.5-0.1c0,0-0.1,0-0.3-0.1c-0.1-0.1-0.2-0.2-0.2-0.2l0,0c-0.3-0.2-0.4-0.3-0.5-0.4
						c0-0.1,0,0,0,0c-0.2-0.4-0.2-0.4-0.5-1l0-0.1c-0.1-0.1-0.1-0.8-0.2-1.4c0,0,0,0,0,0.1c-0.1-0.3,0-0.7,0-1c0-0.3,0.1-0.6,0-0.7
						l0-0.4c-0.1,0.6-0.1-0.1-0.1,0.1c0-0.2,0.1-0.6,0.1-0.3l0,0c0.1,0.1,0.2-0.7,0.2-0.7c0.1-0.4,0.2-0.7,0.2-1.1
						c0.1-0.2-0.1-0.1-0.2,0l-0.3,0.1L12.9,3c-0.5,0.1-1,0.4-1.5,0.6l0.1,0l-0.3,0.2c-0.1,0-0.1,0,0.1-0.1c-0.2,0-0.4,0.3-0.4,0.3
						c-0.4,0.3,0.1-0.2,0-0.1L10.8,4l0,0c-0.1,0.1-0.1,0.2-0.4,0.4c-0.2,0.1-0.1,0-0.2,0.1c0,0,0,0-0.1,0.1c0,0-0.3,0.3-0.3,0.3
						L10,4.7C9.9,4.9,9.7,5,9.9,4.9C9.7,5,9.4,5.3,9.2,5.6C8.9,6,8.7,6.2,8.6,6.4C8.5,6.7,8.4,6.9,8.2,7.2c0.1-0.1,0.1-0.1,0,0.2
						C8.1,7.2,8,7.9,7.8,8.1c0.1-0.2-0.3,0.8-0.1,0.5c-0.1,0.2-0.1,0-0.1,0.2c-0.1,0.6-0.4,1.3-0.5,2c0,0,0.1-0.1,0.1,0.1L7,11.2
						c0,0.1,0.1,0.1,0,0.4c0,0,0-0.1,0,0C7,12.1,7,12.6,7,13.1c0,0.2,0,0.5,0,0.7l0,0.4c-0.1,0-0.3-0.2-0.4-0.2
						c-0.2-0.1-0.4-0.3-0.5-0.5c0.1,0.1,0,0.1-0.1,0c0.1,0.1,0,0,0,0.1c0,0-0.1-0.1-0.2-0.2c-0.1-0.1-0.2-0.2-0.2-0.2
						c-0.1,0-0.4-0.5-0.5-0.5l0.1,0.1c-0.2-0.1,0.1,0.4,0,0.4c0.3,0.2,0.5,0.6,0.9,0.8c0.1,0.1-0.1,0-0.1,0c0.1,0.1,0.2,0.1,0.5,0.3
						l0,0c0.3,0.2,0.6,0.4,0.8,0.5c0-0.5-0.1-1.1,0-1.6l0,0.1c0-0.2,0-0.2,0-0.3c-0.1-0.2,0,0.5-0.1,0.3c0.1-0.2,0-1.3,0.2-1.4
						c0-0.3-0.1,0.1,0-0.2l0-0.1l0-0.1c0-0.2,0.1-0.3,0.1-0.3c0,0,0,0.1,0,0.2c0.1-0.2,0.1-0.7,0.1-0.7l-0.1,0.3
						C7.6,10.3,7.8,9.4,8,8.7l0,0c0.1-0.6,0.2-0.4,0.4-1l0,0c0-0.1,0.1-0.3,0.2-0.4c0,0.1,0.2-0.2,0.1,0C8.8,6.8,8.7,7,8.8,6.6
						l0.1-0.1c0-0.1,0-0.2,0.2-0.4C9,6.4,9.2,6,9.1,6.3c0.4-0.5,0.5-0.8,0.8-0.9C10,5.1,9.5,5.7,9.6,5.6C9.4,5.7,9.7,5.4,9.8,5.2
						C10,5.1,10.1,5,10.5,4.7c0,0,0,0-0.1,0.1c0.2-0.1,0.3-0.3,0.5-0.4c0.1-0.1,0.2-0.2,0.2-0.3l-0.4,0.3C11,4.3,11.1,4,11.6,3.9
						c0,0-0.1,0.1-0.2,0.2c0.1,0,0.2-0.1,0.3-0.2c0,0.1-0.5,0.3-0.7,0.5c0.1-0.1,0.4-0.4,0.3-0.2C11.5,4,11.8,4,12.1,3.7l0,0.1
						c0,0,0.1-0.1,0.2-0.1l-0.1,0.1c0.2-0.2,0.5-0.2,0.7-0.3c-0.5,0.2-0.1,0-0.4,0c0.3-0.1,0.4-0.1,0.5-0.1c0.1,0,0.1,0.1,0.2,0
						c0,0-0.1,0,0,0c0,0,0.1,0,0.1,0c0,0,0,0.1,0,0.1c0,0.1,0.1-0.1,0.1,0c-0.1,0.1,0,0,0,0.3l0,0c-0.2,0.6,0,0.2-0.1,0.7
						c0,0,0-0.2,0-0.2c0,0,0,0.3,0,0.3l0-0.1c0,0.3,0,0.4-0.1,0.7c0-0.1,0.1,0,0,0.3c0,0.2,0-0.1,0,0.3c0-0.1-0.1-0.2,0-0.3
						c0,0,0-0.1,0-0.1c-0.1,0.2,0,0.5,0,0.6c0-0.1,0-0.1,0-0.2l0,0.6c0,0.1,0,0,0-0.1c0,0.1,0,0.2,0,0.4c0,0-0.1,0-0.1-0.3
						c0,0,0.1,0.5,0.1,0.5c0,0,0,0.3,0,0.2c0,0.3,0.2,0.7,0.2,1.1c0,0,0,0.1,0.1,0.1c0.1,0.4,0.2,0.7,0.5,1.1c0,0,0.1,0.3,0.1,0.3
						c0.3,0.3-0.2-0.3,0.3,0.1c0.3,0.3,0.1,0.2,0.2,0.3c0.2,0.1,0.5,0.3,0.9,0.4C15,10.4,14.9,10.4,14.8,10.3z M17.9,9
						c0,0-0.1,0-0.1-0.1C17.8,8.8,17.9,8.9,17.9,9z M18.6,14.6c0-0.1,0.1-0.2,0.1-0.2C18.7,14.4,18.7,14.5,18.6,14.6z M11,22.6
						L11,22.6C11.2,22.6,11.1,22.6,11,22.6z M10.6,22.5C10.6,22.5,10.6,22.5,10.6,22.5c0,0,0.1,0,0.2,0.1
						C10.8,22.5,10.8,22.5,10.6,22.5z M10.2,4.5L10.2,4.5C10.2,4.5,10.2,4.5,10.2,4.5z"/>
					<path fill="#313234" d="M18.8,13.9C18.8,13.9,18.8,13.9,18.8,13.9C18.8,13.8,18.8,13.8,18.8,13.9z"/>
					<path fill="#313234" d="M13.2,8.2C13.2,8.2,13.2,8.2,13.2,8.2C13.1,8.2,13.1,8.2,13.2,8.2L13.2,8.2z"/>
					<path fill="#313234" d="M16.1,21.4c0,0,0.1,0,0.1,0C16.3,21.3,16.3,21.3,16.1,21.4z"/>
					<path fill="#313234" d="M8.7,21.8L9,21.9C8.9,21.9,8.8,21.9,8.7,21.8C8.8,21.8,8.8,21.9,8.7,21.8z"/>
					<path fill="#313234" d="M7.2,20.4C7.2,20.4,7.2,20.4,7.2,20.4L7.2,20.4C7.2,20.5,7.3,20.5,7.2,20.4z"/>
					<path fill="#313234" d="M8.6,21.6c0,0-0.1-0.1-0.3-0.2l0,0C8.3,21.4,8.4,21.5,8.6,21.6z"/>
					<path fill="#313234" d="M8.3,21.4c0,0-0.1-0.1-0.1-0.1C8.1,21.3,8.2,21.3,8.3,21.4z"/>
					<path fill="#313234" d="M10.2,22.4c-0.1,0-0.1,0-0.1,0C10,22.4,10.6,22.5,10.2,22.4z"/>
					<polygon fill="#313234" points="8.6,21.4 8.6,21.5 8.7,21.5 					"/>
					<path fill="#313234" d="M9.7,22l-0.2-0.1c0,0,0,0-0.1,0C9.6,21.9,9.7,22,9.7,22z"/>
					<path fill="#313234" d="M9.4,21.9c-0.1,0-0.1-0.1-0.2-0.1C9.3,21.8,9.3,21.9,9.4,21.9z"/>
					<polygon fill="#313234" points="8.9,21.6 8.9,21.6 9.1,21.7 					"/>
					<path fill="#313234" d="M12.5,22.5l0.3,0c0,0-0.1,0-0.2,0C12.6,22.5,12.5,22.5,12.5,22.5z"/>
					<path fill="#313234" d="M11.7,22.3c0.1,0,0.1,0,0.1,0.1l0-0.1L11.7,22.3z"/>
					<path fill="#313234" d="M12.5,22.4C12.5,22.4,12.9,22.3,12.5,22.4C12.5,22.3,12.2,22.3,12.5,22.4z"/>
					<polygon fill="#313234" points="16.6,21.3 16.6,21.3 16.6,21.4 					"/>
					<path fill="#313234" d="M19.1,18.5c-0.2,0.3,0,0.1-0.2,0.3c0,0.1,0.1-0.2,0.1-0.1C19.1,18.5,19.2,18.5,19.1,18.5z"/>
					<path fill="#313234" d="M19,18.7C19,18.8,19,18.8,19,18.7C19,18.8,19,18.8,19,18.7z"/>
					<polygon fill="#313234" points="5.4,12.8 5.3,12.6 5.3,12.7 					"/>
					<path fill="#313234" d="M5.1,12.5L5.1,12.5L5,12.4C5,12.4,5.1,12.5,5.1,12.5z"/>
					<path fill="#313234" d="M18,9.4L18,9.4c0,0,0-0.1,0-0.2C17.9,9.2,18,9.4,18,9.4z"/>
					<polygon fill="#313234" points="16.7,10.2 16.8,10.2 16.6,10.2 					"/>
					<path fill="#313234" d="M14,9.9c0.1,0.1,0.2,0.2,0.3,0.2C14.1,10,14,9.8,14,9.9z"/>
				</g>
			</g>
		</g>
	</g>
</g>
<path fill="#3D76DE" d="M9,19c0,1.9,1.6,3.5,3.5,3.5S16,20.9,16,19c0-1-0.4-2-1.2-2.6c-1.3,1.8-3.3-0.9-1.8-3C13.1,13.4,9,13.9,9,19
	z"/>
<g>
	<g>
		<g>
			<g>
				<g>
					<path fill="#313234" d="M11.9,26.9C12,26.9,12,26.9,11.9,26.9C11.8,26.9,11.9,26.9,11.9,26.9z"/>
					<polygon fill="#313234" points="10.4,27.1 10.4,27.1 10.2,27.2 					"/>
					<path fill="#313234" d="M8.9,27.5c0.2,0,0.5-0.1,0.8-0.2l0,0l0.1-0.1C9.5,27.3,9.2,27.4,8.9,27.5z"/>
					<path fill="#313234" d="M8.2,27.6c0.1,0-0.2,0.1,0.2-0.1c0,0,0,0,0,0C8.3,27.5,8.2,27.6,8.2,27.6z"/>
					<path fill="#313234" d="M8.3,27.5C8.4,27.5,8.2,27.5,8.3,27.5L8.3,27.5z"/>
					<path fill="#313234" d="M7.6,27.8l0.2-0.1C7.8,27.7,7.6,27.8,7.6,27.8C7.5,27.9,7.5,27.8,7.6,27.8z"/>
					<path fill="#313234" d="M7.5,28L7.5,28C7.6,27.9,7.5,27.9,7.5,28z"/>
					<path fill="#313234" d="M7.8,27.8l-0.2,0.1c0,0,0,0,0.1-0.1C7.7,27.9,7.7,27.8,7.8,27.8z"/>
					<path fill="#313234" d="M7.9,27.7C8,27.7,8.1,27.7,7.9,27.7C8.3,27.6,8.2,27.6,7.9,27.7z"/>
					<path fill="#313234" d="M8.9,27.5l0.1,0l0.1-0.1C9.1,27.5,8.9,27.5,8.9,27.5z"/>
					<path fill="#313234" d="M6.5,28.4c0,0,0.1,0,0.1,0l0.1-0.1C6.7,28.3,6.5,28.4,6.5,28.4z"/>
					<path fill="#313234" d="M6.6,28.4l-0.2,0.1C6.6,28.4,6.6,28.4,6.6,28.4z"/>
					<polygon fill="#313234" points="7.5,28 7.8,27.8 7.4,28.1 					"/>
					<polygon fill="#313234" points="5.8,28.9 5.9,28.8 5.7,29 					"/>
					<path fill="#313234" d="M5.3,29.2C5.4,29.2,5.2,29.3,5.3,29.2c-0.2,0.1-0.3,0.2-0.3,0.3C5.1,29.4,5.2,29.3,5.3,29.2z"/>
					<path fill="#313234" d="M4.9,29.7c0,0,0.1-0.1,0.1-0.2C5,29.6,4.9,29.6,4.9,29.7z"/>
					<path fill="#313234" d="M6.1,28.7c0,0-0.1,0-0.2,0.1L6.1,28.7C6.1,28.8,6.1,28.8,6.1,28.7z"/>
					<path fill="#313234" d="M6,28.8L6,28.8c-0.1,0.1-0.1,0.1-0.2,0.1C5.9,28.9,5.9,28.9,6,28.8z"/>
					<path fill="#313234" d="M6.1,28.7L6.1,28.7C6.1,28.7,6.1,28.7,6.1,28.7z"/>
					<path fill="#313234" d="M7,28.3c-0.1,0.1-0.3,0.3-0.1,0.1C6.9,28.3,6.8,28.4,7,28.3z"/>
					<path fill="#313234" d="M6.2,28.7c0,0,0.2-0.1,0.2-0.1c0,0-0.1,0,0,0C6.4,28.6,6.2,28.7,6.2,28.7z"/>
					<polygon fill="#313234" points="6.2,28.8 6.2,28.7 6.2,28.8 					"/>
					<path fill="#313234" d="M5.2,29.4c-0.1,0.1-0.1,0.2-0.2,0.2C5.1,29.6,5.2,29.5,5.2,29.4C5.3,29.4,5.3,29.3,5.2,29.4z"/>
					<path fill="#313234" d="M5.6,29.1L5.6,29.1C5.6,29.1,5.6,29.1,5.6,29.1z"/>
					<polygon fill="#313234" points="4.1,30.6 4.1,30.6 4.1,30.6 					"/>
					<path fill="#313234" d="M5.3,29.4c0.1-0.1,0.1-0.1,0.2-0.2C5.4,29.3,5.3,29.4,5.3,29.4C5.3,29.4,5.3,29.4,5.3,29.4z"/>
					<path fill="#313234" d="M4.6,29.9c0,0,0.1-0.1,0.1-0.1C4.7,29.9,4.6,29.9,4.6,29.9z"/>
					<path fill="#313234" d="M5.6,29.1C5.6,29.1,5.6,29.1,5.6,29.1C5.5,29.1,5.5,29.1,5.6,29.1z"/>
					<path fill="#313234" d="M5.6,29.1c0,0-0.1,0.1-0.1,0.1C5.5,29.2,5.5,29.2,5.6,29.1C5.6,29.1,5.6,29.1,5.6,29.1z"/>
					<path fill="#313234" d="M4.1,31.1c0,0,0.1-0.3,0.3-0.4c0.1-0.2-0.1-0.2-0.3-0.1c0,0,0,0-0.1,0.2c0.1-0.1,0.4-0.4,0.3-0.2
						c-0.2,0.2-0.2,0.2-0.3,0.3c0.1-0.1-0.2,0.4-0.1,0.3L4.1,31.1C4.1,31,4,31.1,4.1,31.1z"/>
					<path fill="#313234" d="M4.4,30.2L4.4,30.2c0,0-0.1,0-0.2,0.1c-0.1,0.1-0.1,0.2-0.1,0.2L4.4,30.2L4.4,30.2z"/>
					<path fill="#313234" d="M4.8,29.9c0,0.1-0.2,0.3,0,0.2c0.2-0.2,0.1-0.2,0.2-0.3C4.6,30.1,5.1,29.7,4.8,29.9
						c0.1-0.1,0.1-0.1,0.2-0.2C4.9,29.7,4.8,29.8,4.8,29.9L4.8,29.9L4.8,29.9L4.8,29.9C4.8,29.8,4.8,29.8,4.8,29.9L4.8,29.9
						C4.8,29.8,4.8,29.8,4.8,29.9C4.7,29.9,4.8,29.9,4.8,29.9L4.8,29.9L4.8,29.9c0,0-0.3,0.3-0.3,0.3C4.6,30.1,4.6,30,4.8,29.9z"/>
					<path fill="#313234" d="M6.7,28.6C6.7,28.6,6.7,28.6,6.7,28.6C6.7,28.6,6.7,28.7,6.7,28.6z"/>
					<path fill="#313234" d="M6.5,28.7c0,0,0-0.1,0.1-0.1c0.1,0,0,0,0,0c0,0,0.2-0.1,0-0.1l0,0c-0.2,0.1-0.4,0.2-0.4,0.1
						C6.4,28.7,6.4,28.7,6.5,28.7z"/>
					<path fill="#313234" d="M5.6,29.2c0,0-0.3,0.3-0.3,0.3l0.2-0.1l0,0C5.7,29.3,5.6,29.3,5.6,29.2z"/>
					<polygon fill="#313234" points="4.1,30.6 4.1,30.5 4,30.8 					"/>
					<polygon fill="#313234" points="3.8,31 3.7,31 3.7,31.1 					"/>
					<path fill="#313234" d="M16.9,45.5L16.9,45.5C17,45.5,17,45.5,16.9,45.5z"/>
					<path fill="#313234" d="M16.3,45.9L16.3,45.9C16.3,45.9,16.3,45.9,16.3,45.9z"/>
					<path fill="#313234" d="M3.3,42.5c0.1,0.2,0.1,0.3,0.1,0.3l0-0.1C3.3,42.7,3.3,42.6,3.3,42.5z"/>
					<path fill="#313234" d="M10,46.9L10,46.9c-0.1,0-0.1,0-0.2,0C9.9,46.9,9.9,46.9,10,46.9z"/>
					<path fill="#313234" d="M10.1,46.8l0.2,0.1C10.3,46.8,10.2,46.8,10.1,46.8z"/>
					<path fill="#313234" d="M20,42.6l0-0.1C19.9,42.7,20,42.6,20,42.6z"/>
					<path fill="#313234" d="M1.8,35.7c0,0.1-0.1,0.2-0.1,0.3C1.8,35.9,1.9,35.7,1.8,35.7z"/>
					<path fill="#313234" d="M16.9,46.1C17,46,17,46,16.9,46.1C16.9,46.1,16.9,46.1,16.9,46.1z"/>
					<path fill="#313234" d="M1.7,36.4C1.7,36.4,1.8,36.4,1.7,36.4c0-0.2,0-0.3,0-0.4C1.7,36.2,1.7,36.3,1.7,36.4z"/>
					<path fill="#313234" d="M17.4,29.1C17.4,29,17.4,29,17.4,29.1C17.4,29,17.4,29,17.4,29.1z"/>
					<path fill="#313234" d="M13.3,27c0.1,0,0.1,0,0.2,0C13.5,27.1,13.4,27.1,13.3,27z"/>
					<path fill="#313234" d="M2.7,32.7C2.8,32.6,2.7,32.7,2.7,32.7L2.7,32.7z"/>
					<path fill="#313234" d="M3.1,32.3C3.1,32.4,3.1,32.4,3.1,32.3C3.1,32.4,3.1,32.4,3.1,32.3z"/>
					<path fill="#313234" d="M2,37.5L2,37.5C2,37.5,2,37.5,2,37.5z"/>
					<path fill="#313234" d="M2.8,32.6c0,0,0,0.1-0.1,0.1C2.7,32.7,2.8,32.6,2.8,32.6z"/>
					<path fill="#313234" d="M2.8,32.6C2.8,32.6,2.8,32.5,2.8,32.6C2.8,32.5,2.8,32.5,2.8,32.6z"/>
					<path fill="#313234" d="M2.6,32.8c0-0.1,0.1-0.1,0.1-0.2c0,0,0,0,0,0C2.7,32.7,2.7,32.8,2.6,32.8z"/>
					<path fill="#313234" d="M21.7,35.8C21.7,35.8,21.7,35.8,21.7,35.8C21.7,35.7,21.7,35.8,21.7,35.8z"/>
					<polygon fill="#313234" points="5.3,44.3 5.3,44.3 5.3,44.3 					"/>
					<path fill="#313234" d="M5.6,44.5c-0.1-0.1-0.2-0.1-0.3-0.2l0,0.2L5.6,44.5z"/>
					<path fill="#313234" d="M18.4,44.4l-0.2,0.1c0.2-0.3,0.4-0.4,0.1-0.3c0.1,0.1-0.7,0.6-0.7,0.8l-0.2,0.1c0,0,0,0,0.1-0.1
						c-0.3,0.1-0.1,0.2-0.5,0.4c-0.1,0.1-0.2,0.1-0.2,0l-0.3,0.2c-0.1,0-0.1,0,0,0c0,0-0.4,0.2-0.4,0.2l0,0c-0.1,0-0.2,0.1-0.3,0.2
						c-0.1,0,0.1,0,0,0c0,0-0.2,0.2-0.2,0.1c-0.1,0,0.1-0.1,0.3-0.2c-0.3,0-0.2,0.1-0.7,0.3l0.2-0.1c-0.2,0-0.4,0.1-0.7,0.1
						c0.1,0,0.6-0.1,0.3,0c-0.1,0-0.2,0.1-0.3,0.1c0,0-0.2,0-0.4,0.1l0-0.1c-0.2,0.1-0.2,0.1-0.3,0.2c-0.2,0.1-0.3,0-0.4,0
						c-0.4,0,0.3,0-0.2,0.1c-0.3,0-0.5,0.1-0.9,0.2c-0.2,0,0,0,0-0.1l-0.2,0.1c0,0,0,0,0,0c-0.2,0,0,0.1-0.3,0.1
						c-0.1,0.1-0.5-0.1-0.9,0c-0.1,0,0,0,0-0.1c-0.4,0-0.4,0-0.8,0l-0.3-0.1c0.2,0.1-0.1,0.1-0.3,0.1c0.1,0,0.2,0.1,0.2,0.1
						c0,0-0.4,0-0.4,0c0,0,0,0,0.1,0c0,0-0.1,0-0.1,0c-0.1-0.1-0.1-0.1,0.1-0.1l0.1,0.1c0.1,0,0.2-0.1,0.2-0.1c0,0-0.1,0-0.1,0
						c0,0,0,0,0,0c0,0-0.1,0-0.1,0l-0.1-0.1l0,0l-0.5-0.2c-0.4,0-0.7-0.1-1.3-0.2c0.2,0,0.1-0.1,0.1-0.1c0.1,0.1,0.5,0.1,0.7,0.3
						c-0.2-0.1-0.1-0.1-0.1-0.1l-0.5-0.1c0,0-0.1-0.1-0.2-0.2c0.1,0.1-0.4-0.1-0.6-0.2c0,0,0.1,0,0.3,0.1c-0.2-0.2-0.4-0.1-0.6-0.3
						c0.1,0,0.1,0.1,0.1,0.1c-0.2-0.1-0.5-0.3-0.4-0.3l0.1,0c-0.4-0.2-1.1-0.8-1.2-0.8c0,0,0.1,0,0.1,0c0,0-0.2-0.1-0.4-0.2
						C5.2,44.5,5,44.4,5,44.4c0.1,0,0-0.3,0.3-0.1C5.2,44.2,5.1,44.1,5,44c0,0.1,0,0.2,0,0.1c-0.1-0.3-0.1-0.2-0.3-0.5
						c0.1,0.1-0.1,0.1-0.2-0.1c0,0,0.1-0.1,0.1,0c0,0-0.1-0.1-0.2-0.1c-0.1-0.1-0.2-0.1-0.2-0.1c0.1,0.1,0.1,0,0.1-0.1
						c0,0-0.2-0.3-0.3-0.4l0.1,0.2c-0.3-0.4-0.4-0.3-0.7-0.7c0.1,0,0.2,0.1,0.1-0.2C3.4,42,3,41.7,2.8,41.4l0-0.1
						c0,0-0.2-0.3-0.2-0.3c0.2,0.2,0.6,0.6,0.8,0.9c-0.1-0.2,0-0.1-0.1-0.3c0-0.1,0.1,0.1,0.1,0.2l-0.3-0.6
						c-0.1,0.1-0.3-0.4-0.3-0.4c0,0,0.3,0.6,0.3,0.6c0,0.1-0.4-0.3-0.5-0.7c0-0.1,0.1,0,0.2,0c0,0-0.2-0.4-0.2-0.4l0.1,0.2
						c-0.1-0.2-0.2-0.4-0.2-0.7c0-0.1,0-0.3,0-0.3c0,0.2-0.3,0.3-0.3,0.2c0,0-0.1-0.6,0-0.7c0-0.2,0.2,0.2,0.2,0.1
						c0,0-0.1-0.1-0.1-0.1c0-0.1,0.1,0,0-0.2c-0.1,0-0.1-0.5-0.1-0.1c0-0.2,0-0.2-0.1-0.5c0,0.1-0.2-0.2-0.2-0.5c0,0,0,0,0-0.1
						C2,37,2,36.7,2.1,36.3c0,0,0.1-0.3,0.1-0.2c0-0.1,0-0.1,0-0.3c0.1-0.3,0,0.3,0.1,0.1c0,0,0-0.4,0-0.6c-0.1,0-0.1,0.4-0.1,0.6
						C2,36.1,2,35.7,2,35.2c0-0.4,0.1-0.1,0.1-0.2c0.2-0.7,0-0.6,0.2-1.2c0.1-0.2,0.1,0,0.2,0c-0.1,0.3-0.2,0.4-0.2,0.6l0.1-0.2
						c0,0.1,0,0.3-0.1,0.4c0.1-0.2,0.3-1.1,0.6-1.6c0-0.1,0.1-0.3,0-0.2L2.9,33c-0.1,0.1,0.1-0.3,0-0.1c0.1-0.2,0.1-0.5,0.3-0.8
						l0.1,0c0,0-0.1,0.2-0.2,0.3c0-0.1,0.3-0.4,0.3-0.6l-0.2,0.2c0.1-0.2,0.2-0.5,0.4-0.7c-0.1,0.1,0,0.1-0.2,0.2
						C3.6,31.3,3,32,3.3,31.8C3.1,32,3,32.1,2.9,32.4c0,0,0.1-0.1,0,0.1c0,0,0,0,0,0.1l0,0l0,0c0,0,0,0,0,0c0,0,0.1-0.1,0.1-0.1
						c0,0.1-0.2,0.5-0.2,0.6c-0.1,0.1,0-0.1,0,0l0,0.2c0,0-0.2,0.3-0.1,0l-0.1,0.3c-0.1,0.2-0.2,0.4-0.2,0.6c0,0.1,0,0.4,0,0.2
						L2,34.8l0,0c-0.1,0.5-0.1,1-0.2,1.5c0,0.2,0,0.3,0,0.6l0,0.1c0,0.2,0,0.6,0,0.7c-0.1,0.2,0.1,1,0.1,1.4l0.1,0
						c0,0.2,0.1,0.5,0.2,0.8l0,0c0.1,0.3,0.2,0.7,0.3,1.1c0,0-0.1-0.1-0.1-0.2c0.1,0.5,0.5,1,0.6,1.4c0.1,0.1,0.1,0.2,0.1,0.2
						c0,0,0,0,0,0c0,0,0,0,0,0c0,0,0,0.1,0.1,0.1c0,0,0-0.1,0-0.1c0,0.1,0.1,0.2,0.2,0.3l0,0.1c0,0,0,0,0,0c0.1,0.1,0.1,0.1,0.1,0
						c0,0.1,0.1,0.1,0.1,0.1c0,0.1,0.2,0.3,0.2,0.4c0.1,0.1,0.4,0.5,0.6,0.5c0,0,0,0,0,0c0.1,0.1,0.2,0.2,0.3,0.3l0,0.1
						c0,0,0.3,0.2,0.3,0.2c0.1,0.2,0.2,0.2,0,0.1c0.4,0.3,0.3,0.2,0.6,0.4l0,0c0.1,0.1,0.3,0.2,0.4,0.3c0.2,0.3,1.3,0.9,2,1.3
						c-0.1-0.2,0.3,0.2,0.4,0.1c0,0,0.1,0.1,0,0.1c0.4,0.1,0.6,0.3,0.9,0.3c0,0-0.1,0-0.1,0c0,0,0.1,0,0.2,0c0,0-0.1,0-0.1,0
						c0.4,0.1,0.5,0,0.5,0c0.2,0.1,0.3,0.1,0.5,0.1c0.1,0,0.2,0.1-0.1,0.1c0.1,0,0.9,0.2,0.9,0.1c0,0,0.2,0,0.2,0c0.3,0,0.4,0,0.7,0
						l-0.1,0c0.1-0.1,0.3,0,0.5,0l0,0c0.6,0,0.3,0,0.9,0l0,0c0-0.1,0.5,0,0.9-0.1l-0.1,0c0.2-0.1,0.5,0,0.7,0c0,0-0.1,0-0.1,0.1
						c0.5-0.1,0-0.1,0.4-0.2c0.1,0-0.1,0.1,0.2,0c0.1,0,0.6-0.3,1-0.4c-0.1,0-0.2,0,0-0.1c0.2-0.1,0.7-0.2,0.9-0.4c0,0,0,0,0.1,0
						c0.2-0.1,0.5-0.4,0.6-0.5c0.2,0,1-0.8,1-0.7l0.5-0.4l0,0c0.3-0.3,0.3-0.4,0.4-0.5c0.1-0.1,0,0,0,0c0.4-0.4,0.4-0.5,0.7-0.9
						l0.1,0c0.1-0.1,0.5-0.7,0.7-1.2c0,0,0,0,0,0.1c0.3-0.6,0.7-1.4,0.6-1.6c0,0,0.1-0.4,0.1-0.4c-0.1,0.5-0.1-0.1-0.1,0.1
						c0-0.2,0.2-0.5,0.1-0.3l0,0c0.1,0.1,0.2-0.6,0.3-0.6c0.2-1,0.3-2.1,0.2-3.1l-0.1,0.1c0,0,0-0.3,0-0.3c0-0.1,0-0.1,0.1,0.1
						c0-0.1-0.1-0.4-0.1-0.4c0-0.5,0.1,0.2,0.1,0l0-0.2l0,0c-0.1-0.2-0.1-0.2-0.1-0.5c0-0.2,0-0.1,0-0.2c0,0,0,0,0-0.1l-0.1-0.4
						l0,0.2c-0.1-0.2-0.1-0.4-0.1-0.2c0-0.2-0.1-0.5-0.3-0.9c-0.2-0.4-0.3-0.7-0.4-0.8c-0.1-0.2-0.3-0.4-0.5-0.7
						c0,0.1,0,0.2-0.1-0.1c0.2,0-0.2-0.5-0.3-0.7c0.1,0.2-0.5-0.6-0.4-0.3c-0.2-0.2,0,0-0.1-0.2c-0.4-0.4-0.8-0.9-1.4-1.4
						c0,0,0.1,0.1-0.1,0l-0.2-0.3c-0.1-0.1-0.2,0-0.3-0.2c0,0,0.1,0.1,0,0c-1.1-0.8-2.5-1.2-3.9-1.6c0.2,0.1,0.1,0-0.1,0
						c0.1,0,0,0,0,0.1c0,0-0.6-0.2-0.6-0.1c-0.1,0.1-0.6,0-0.7,0l0.2,0c-0.2,0.1,0.3,0.2,0.3,0.3c0.3-0.1,0.7,0.2,1.1,0.2
						c0.1,0-0.1,0,0,0c0.1,0,0.3,0,0.5,0.1l0,0c0.7,0.2,1,0.3,1.7,0.6l0-0.1c0.2,0.1,0.2,0.1,0.2,0.2c0.2,0-0.4-0.2-0.2-0.2
						c0.2,0.2,1.1,0.5,1.1,0.7c0.2,0.1,0-0.1,0.2,0l0,0.1l0.1,0c0.1,0.1,0.2,0.2,0.2,0.2c0,0-0.1-0.1-0.1-0.1
						c0.2,0.2,0.5,0.4,0.6,0.4l-0.2-0.2c0.6,0.4,1.2,1,1.7,1.5l0-0.1c0.4,0.4,0.2,0.3,0.6,0.8l0,0c0.1,0.1,0.2,0.2,0.3,0.3
						c-0.1-0.1,0.1,0.3,0,0.1c0.3,0.5,0.2,0.2,0.4,0.5l0,0.1c0.1,0.1,0.1,0.1,0.2,0.4c-0.1-0.2,0,0.2-0.1,0c0.2,0.6,0.4,0.8,0.4,1.1
						c0.2,0.2-0.1-0.5-0.1-0.4c0-0.1,0.2,0.2,0.2,0.4c0.1,0.2,0,0.4,0.1,0.8c0,0,0-0.1,0-0.1c0,0.2,0.1,0.3,0.1,0.6
						c0.1,0.1,0,0.3,0.1,0.3l-0.1-0.4c0.1,0.2,0.2,0.5,0.2,0.9c0,0-0.1-0.2-0.1-0.2c0,0.1,0.1,0.2,0,0.4c-0.1,0-0.1-0.5-0.2-0.8
						c0,0.1,0.1,0.5,0,0.4c0.1,0.2,0.1,0.5,0.1,0.8l0,0c0,0.1,0,0.2,0,0.3l-0.1-0.2c0.1,0.3,0,0.5,0,0.8c0-0.5,0.1-0.1,0.1-0.3
						c0,0.7-0.1,0.4-0.2,1.1c0-0.1,0-0.4,0.1-0.2c0,0.1-0.1,0.3-0.1,0.4c-0.1,0.5,0.1-0.1,0.1,0.1c-0.1,0.2,0,0.2,0,0.5l0,0
						c-0.1,0.5,0.1,0.2-0.1,0.6l0-0.2l0,0.3l0-0.1c0,0.3,0,0.4-0.2,0.6c0.1-0.1,0.1,0.1,0,0.3c-0.1,0.1,0-0.1-0.1,0.2
						c0-0.1,0-0.2,0.1-0.3c0,0,0-0.1,0-0.1c-0.1,0.2-0.2,0.4-0.2,0.5c0,0,0-0.1,0.1-0.1c0,0-0.1,0.5-0.1,0.5c-0.1,0.1,0,0,0-0.1
						c0,0.1-0.1,0.2-0.1,0.3c0-0.1-0.1-0.1,0-0.3l-0.2,0.4c0,0-0.2,0.2-0.1,0.1c-0.2,0.2-0.3,0.6-0.5,0.9c0,0,0,0.1-0.1,0.1
						c-0.2,0.3-0.4,0.5-0.6,0.8l-0.2,0.1c-0.2,0.2,0.3-0.2-0.1,0.2c-0.2,0.3-0.1,0.1-0.2,0.1c-0.1,0.1-0.3,0.4-0.6,0.6
						C18.3,44.5,18.4,44.5,18.4,44.4z M15.2,46.4c0.1,0,0.2-0.1,0.3-0.1C15.4,46.3,15.3,46.3,15.2,46.4z M9.5,46.7
						c0.1,0,0.1,0,0.2,0.1C9.6,46.8,9.6,46.7,9.5,46.7z M2.3,33.8L2.3,33.8C2.2,34,2.3,33.9,2.3,33.8z M2.4,33.5
						C2.5,33.4,2.4,33.4,2.4,33.5c0,0,0,0.1-0.1,0.2C2.4,33.6,2.4,33.6,2.4,33.5z M21.9,34.7L21.9,34.7
						C21.8,34.6,21.8,34.7,21.9,34.7z"/>
					<path fill="#313234" d="M10.1,46.8C10.2,46.8,10.2,46.8,10.1,46.8C10.2,46.8,10.2,46.8,10.1,46.8z"/>
					<path fill="#313234" d="M20,42.7L20,42.7C20,42.6,20,42.6,20,42.7L20,42.7z"/>
					<path fill="#313234" d="M2.3,38.8c0,0.1,0,0.1,0,0.1C2.3,39,2.3,38.9,2.3,38.8z"/>
					<path fill="#313234" d="M3.2,31.7l-0.1,0.2C3.2,31.8,3.2,31.8,3.2,31.7C3.2,31.8,3.2,31.8,3.2,31.7z"/>
					<path fill="#313234" d="M4.6,30.4C4.7,30.3,4.7,30.3,4.6,30.4L4.6,30.4C4.6,30.4,4.5,30.5,4.6,30.4z"/>
					<path fill="#313234" d="M3.5,31.6c0,0,0.1-0.1,0.2-0.3l0,0C3.6,31.3,3.5,31.5,3.5,31.6z"/>
					<path fill="#313234" d="M3.7,31.4c0,0,0.1-0.1,0.1-0.1C3.8,31.2,3.7,31.3,3.7,31.4z"/>
					<path fill="#313234" d="M2.6,33C2.6,33,2.6,33,2.6,33C2.6,32.8,2.4,33.4,2.6,33z"/>
					<polygon fill="#313234" points="3.6,31.6 3.6,31.6 3.6,31.7 					"/>
					<path fill="#313234" d="M3,32.7l0.1-0.2c0,0,0,0,0-0.1C3.1,32.5,3,32.7,3,32.7z"/>
					<path fill="#313234" d="M3.1,32.4c0-0.1,0.1-0.1,0.1-0.2C3.2,32.2,3.2,32.3,3.1,32.4z"/>
					<polygon fill="#313234" points="3.5,31.9 3.4,32 3.3,32.1 					"/>
					<path fill="#313234" d="M2.1,35.2l0,0.3c0,0,0,0,0-0.1C2.1,35.3,2.1,35.2,2.1,35.2z"/>
					<path fill="#313234" d="M2.4,34.4c0,0.1,0,0.1-0.1,0.1l0.1,0L2.4,34.4z"/>
					<path fill="#313234" d="M2.3,35.2C2.3,35.2,2.3,35.6,2.3,35.2C2.3,35.2,2.3,35,2.3,35.2z"/>
					<polygon fill="#313234" points="2.2,39.3 2.2,39.2 2.1,39.2 					"/>
					<path fill="#313234" d="M3.8,42.5c-0.1-0.3-0.1,0-0.2-0.3c-0.1-0.1,0.1,0.2,0,0.2C3.8,42.5,3.8,42.6,3.8,42.5z"/>
					<path fill="#313234" d="M3.7,42.3C3.6,42.3,3.6,42.3,3.7,42.3C3.6,42.3,3.6,42.3,3.7,42.3z"/>
					<polygon fill="#313234" points="12.6,26.9 12.3,26.9 12.5,26.9 					"/>
					<path fill="#313234" d="M12.1,27L12.1,27L12,27C12,27,12.1,27,12.1,27z"/>
					<path fill="#313234" d="M14.6,46.4L14.6,46.4c0,0,0.1,0,0.2,0L14.6,46.4z"/>
					<polygon fill="#313234" points="17.1,45.3 17.1,45.4 17.2,45.4 					"/>
					<path fill="#313234" d="M18.9,43.9c-0.1,0.1-0.1,0.2-0.2,0.2C18.8,43.9,18.9,43.9,18.9,43.9z"/>
				</g>
			</g>
		</g>
	</g>
</g>
<g>
	<g>
		<g>
			<g>
				<g>
					<path fill="#313234" d="M17.2,38.6C17.3,38.6,17.3,38.5,17.2,38.6C17.2,38.5,17.2,38.6,17.2,38.6z"/>
					<polygon fill="#313234" points="16.4,38.7 16.4,38.7 16.3,38.8 					"/>
					<path fill="#313234" d="M15.8,39c0.1,0,0.2-0.1,0.3-0.1l0,0l0-0.1C16.1,38.9,15.9,39,15.8,39z"/>
					<path fill="#313234" d="M15.5,39C15.5,39,15.4,39.1,15.5,39L15.5,39C15.5,39,15.5,39,15.5,39z"/>
					<path fill="#313234" d="M15.5,39C15.6,39,15.5,39,15.5,39L15.5,39z"/>
					<path fill="#313234" d="M15.3,39.1L15.3,39.1C15.3,39.1,15.2,39.1,15.3,39.1C15.2,39.1,15.2,39.1,15.3,39.1z"/>
					<path fill="#313234" d="M15.2,39.2L15.2,39.2C15.2,39.2,15.2,39.2,15.2,39.2z"/>
					<path fill="#313234" d="M15.3,39.1L15.3,39.1C15.3,39.2,15.3,39.2,15.3,39.1C15.3,39.2,15.3,39.2,15.3,39.1z"/>
					<path fill="#313234" d="M15.4,39.1C15.4,39.1,15.5,39.1,15.4,39.1C15.6,39.1,15.5,39,15.4,39.1z"/>
					<path fill="#313234" d="M15.8,39.1L15.8,39.1l0.1-0.1C15.9,39.1,15.8,39.1,15.8,39.1z"/>
					<path fill="#313234" d="M14.8,39.3C14.8,39.4,14.8,39.4,14.8,39.3l0.1,0C14.8,39.4,14.8,39.4,14.8,39.3z"/>
					<path fill="#313234" d="M14.8,39.4L14.8,39.4C14.8,39.4,14.8,39.4,14.8,39.4z"/>
					<polygon fill="#313234" points="15.2,39.3 15.3,39.2 15.2,39.3 					"/>
					<polygon fill="#313234" points="14.4,39.5 14.5,39.4 14.4,39.5 					"/>
					<path fill="#313234" d="M14.2,39.6C14.2,39.5,14.1,39.6,14.2,39.6c-0.1,0-0.1,0-0.2,0.1C14.1,39.6,14.1,39.6,14.2,39.6z"/>
					<path fill="#313234" d="M14,39.7C14,39.7,14,39.7,14,39.7C14,39.7,14,39.7,14,39.7z"/>
					<path fill="#313234" d="M14.6,39.5C14.6,39.5,14.6,39.5,14.6,39.5L14.6,39.5L14.6,39.5z"/>
					<path fill="#313234" d="M14.6,39.5L14.6,39.5C14.5,39.5,14.5,39.5,14.6,39.5C14.5,39.6,14.5,39.5,14.6,39.5z"/>
					<path fill="#313234" d="M14.6,39.5L14.6,39.5C14.6,39.5,14.6,39.5,14.6,39.5z"/>
					<path fill="#313234" d="M15,39.4c0,0-0.1,0.1,0,0.1C15,39.4,14.9,39.5,15,39.4z"/>
					<path fill="#313234" d="M14.7,39.5L14.7,39.5C14.8,39.5,14.7,39.5,14.7,39.5L14.7,39.5z"/>
					<polygon fill="#313234" points="14.6,39.6 14.7,39.5 14.6,39.5 					"/>
					<path fill="#313234" d="M14.1,39.7c0,0-0.1,0.1-0.1,0.1C14.1,39.7,14.1,39.7,14.1,39.7C14.2,39.7,14.2,39.7,14.1,39.7z"/>
					<path fill="#313234" d="M14.3,39.6L14.3,39.6C14.3,39.6,14.4,39.6,14.3,39.6z"/>
					<polygon fill="#313234" points="13.5,39.9 13.5,39.9 13.5,39.9 					"/>
					<path fill="#313234" d="M14.2,39.7C14.2,39.7,14.3,39.7,14.2,39.7C14.2,39.7,14.2,39.7,14.2,39.7
						C14.2,39.7,14.2,39.7,14.2,39.7z"/>
					<path fill="#313234" d="M13.8,39.8C13.9,39.8,13.9,39.8,13.8,39.8C13.9,39.8,13.9,39.7,13.8,39.8z"/>
					<path fill="#313234" d="M14.3,39.6L14.3,39.6C14.3,39.6,14.3,39.6,14.3,39.6z"/>
					<path fill="#313234" d="M14.3,39.6C14.3,39.6,14.3,39.6,14.3,39.6C14.3,39.6,14.3,39.6,14.3,39.6L14.3,39.6z"/>
					<path fill="#313234" d="M13.4,40.2c0,0,0.1-0.1,0.2-0.1c0.1-0.1,0-0.2-0.1-0.2c0,0,0,0-0.1,0.1c0,0,0.2,0,0.2,0
						c-0.1,0.1-0.1,0-0.2,0c0.1,0-0.1,0.1-0.1,0.2L13.4,40.2C13.4,40.2,13.4,40.2,13.4,40.2z"/>
					<path fill="#313234" d="M13.7,39.9L13.7,39.9c0,0,0,0-0.1,0c-0.1,0-0.1,0.1-0.1,0.1L13.7,39.9L13.7,39.9z"/>
					<path fill="#313234" d="M13.9,39.8c0,0.1-0.1,0.1,0,0.1C14,39.9,14,39.8,13.9,39.8C13.8,39.9,14.1,39.8,13.9,39.8
						C14,39.8,14,39.8,13.9,39.8C14,39.7,14,39.8,13.9,39.8L13.9,39.8L13.9,39.8L13.9,39.8C13.9,39.8,13.9,39.8,13.9,39.8L13.9,39.8
						C13.9,39.8,13.9,39.8,13.9,39.8C13.9,39.8,13.9,39.8,13.9,39.8L13.9,39.8L13.9,39.8l-0.2,0.1C13.8,39.8,13.8,39.8,13.9,39.8z"
						/>
					<path fill="#313234" d="M14.9,39.6C14.9,39.6,14.9,39.6,14.9,39.6C14.9,39.6,14.9,39.6,14.9,39.6z"/>
					<path fill="#313234" d="M14.8,39.6C14.8,39.6,14.8,39.6,14.8,39.6C14.9,39.6,14.9,39.6,14.8,39.6C14.9,39.6,15,39.5,14.8,39.6
						L14.8,39.6c0,0-0.1,0-0.1-0.1C14.7,39.6,14.8,39.6,14.8,39.6z"/>
					<path fill="#313234" d="M14.4,39.7l-0.1,0.1L14.4,39.7L14.4,39.7C14.4,39.8,14.4,39.7,14.4,39.7z"/>
					<polygon fill="#313234" points="13.5,39.9 13.5,39.8 13.4,39.9 					"/>
					<polygon fill="#313234" points="13.3,39.9 13.3,39.9 13.3,39.9 					"/>
					<path fill="#313234" d="M9.1,42.7L9.1,42.7C9.1,42.7,9.1,42.7,9.1,42.7z"/>
					<path fill="#313234" d="M8.8,42.5L8.8,42.5C8.8,42.6,8.8,42.6,8.8,42.5z"/>
					<path fill="#313234" d="M8.5,39.1c0-0.1-0.1-0.2-0.1-0.1l0,0C8.4,39,8.4,39,8.5,39.1z"/>
					<polygon fill="#313234" points="6.9,40.6 6.9,40.5 6.8,40.5 					"/>
					<path fill="#313234" d="M7.1,40.5L7.1,40.5C7.1,40.6,7.1,40.6,7.1,40.5z"/>
					<path fill="#313234" d="M10.8,43.3L10.8,43.3C10.8,43.3,10.8,43.3,10.8,43.3z"/>
					<path fill="#313234" d="M11.2,40.1c-0.1,0-0.1,0-0.1,0C11.2,40.1,11.2,40.1,11.2,40.1z"/>
					<path fill="#313234" d="M8.7,43C8.8,43.1,8.8,43.1,8.7,43C8.8,43,8.7,43,8.7,43z"/>
					<path fill="#313234" d="M10.9,40C10.9,40,11,40,10.9,40c0.1,0,0.1,0,0.2,0C11.1,40,11,40,10.9,40z"/>
					<path fill="#313234" d="M16.5,41L16.5,41C16.5,41,16.5,41,16.5,41z"/>
					<path fill="#313234" d="M17.6,39.3C17.6,39.3,17.6,39.3,17.6,39.3C17.6,39.4,17.6,39.3,17.6,39.3z"/>
					<path fill="#313234" d="M12.5,40.1C12.5,40.1,12.5,40.1,12.5,40.1L12.5,40.1z"/>
					<path fill="#313234" d="M12.7,40.2C12.7,40.2,12.7,40.2,12.7,40.2C12.7,40.2,12.7,40.2,12.7,40.2z"/>
					<path fill="#313234" d="M10.4,40.2L10.4,40.2C10.5,40.2,10.5,40.2,10.4,40.2z"/>
					<path fill="#313234" d="M12.6,40.1C12.5,40.1,12.5,40.1,12.6,40.1C12.5,40.1,12.5,40.1,12.6,40.1z"/>
					<path fill="#313234" d="M12.6,40.1C12.6,40.1,12.6,40.1,12.6,40.1C12.6,40.1,12.6,40.1,12.6,40.1z"/>
					<path fill="#313234" d="M12.4,40.1C12.5,40.1,12.5,40.1,12.4,40.1C12.5,40.1,12.5,40.1,12.4,40.1
						C12.5,40.1,12.5,40.1,12.4,40.1z"/>
					<path fill="#313234" d="M13.9,43.3L13.9,43.3C13.9,43.3,13.9,43.3,13.9,43.3z"/>
					<polygon fill="#313234" points="7.2,39 7.2,39 7.2,39 					"/>
					<path fill="#313234" d="M7.1,39c0.1,0,0.1,0,0.1,0l0-0.1L7.1,39z"/>
					<path fill="#313234" d="M9.8,43.1L9.8,43.1C9.9,43,10,43,9.9,43c-0.1,0.1-0.4-0.2-0.5,0l0-0.1c0,0,0,0,0,0
						c-0.1-0.1-0.1,0-0.3-0.1c0,0-0.1-0.1,0-0.1l-0.1,0c0,0,0,0,0,0l-0.2-0.1l0,0c0,0-0.1,0-0.1,0c0,0,0,0,0,0l-0.1,0
						c0-0.1,0.1,0,0.1,0c0-0.2-0.1,0-0.2-0.2l0.1,0.1c0-0.1-0.1-0.1-0.1-0.3c0,0,0.1,0.3,0,0.2c0,0-0.1-0.1-0.1-0.1
						c0,0,0-0.1-0.1-0.1l0,0c-0.1-0.1-0.1,0-0.2,0c-0.1-0.1,0-0.1,0-0.2c-0.1-0.1,0,0.1-0.1,0c-0.1-0.1-0.2-0.2-0.3-0.3
						c0-0.1,0,0,0,0l-0.1,0c0,0,0,0,0,0c-0.1,0-0.1,0-0.1,0c-0.1,0,0-0.2-0.2-0.3c0,0,0,0,0.1,0c-0.1-0.1-0.1-0.1-0.3-0.2l0-0.1
						c0,0.1-0.1,0-0.2-0.1c0,0,0,0.1,0,0.1l-0.1-0.2c0,0,0,0,0.1,0l0,0c0-0.1,0-0.1,0.1,0l0,0.1c0.1,0,0.1,0,0.1,0c0,0,0,0,0,0
						c0,0,0,0,0,0c0,0,0,0,0,0l0-0.1l0,0l0-0.2c-0.1-0.1-0.3-0.2-0.4-0.5c0.1,0.1,0.1,0,0.1,0c-0.1,0.1,0.1,0.2,0.1,0.3
						c0-0.1,0-0.1,0,0l-0.1-0.2c0.1,0,0-0.1,0-0.1c-0.1,0.1-0.1-0.2-0.1-0.3c0,0,0.1,0,0.1,0.1c0.1-0.1-0.1-0.2-0.1-0.3
						c0,0,0,0,0,0.1c0-0.1,0-0.2,0-0.2l0,0C6.8,39,6.8,39,6.8,39l0,0c0.1,0,0.2-0.1,0.2-0.1c0,0,0,0.1,0,0.1c0,0,0.4-0.2,0.4-0.2
						c0,0.1,0,0.3-0.2,0.3c0,0,0.1,0.1,0.2,0.1c0,0,0-0.1,0-0.1c0.1,0.1,0.1,0.1,0.2,0.2c0,0,0.1-0.1,0.1-0.1c0,0,0,0.1-0.1,0.1
						l0.2,0c-0.1,0,0,0.1,0,0.1c0,0,0.1,0.1,0.2,0.1L8,39.3c0.2,0.1,0.3,0,0.5,0.1c0,0-0.1,0.1,0,0.2c0.1,0,0.3-0.1,0.5-0.1l0,0
						l0.1,0c-0.1,0-0.4,0.1-0.6,0.1c0.1,0.1,0,0,0.1,0.1c0,0-0.1,0-0.1,0l0.2,0.1c0-0.1,0.2,0,0.2,0l-0.3-0.1c0-0.1,0.2-0.1,0.4,0
						c0,0-0.1,0.1-0.1,0.1c0,0,0.2,0,0.2,0.1l-0.1,0c0.1,0.1,0.2,0,0.3,0.1c0,0,0.1,0.1,0.1,0.1c0-0.1,0-0.3,0.1-0.4
						c0,0,0.2,0.2,0.2,0.2C9.9,40,9.7,40,9.8,40.1c0,0,0.1,0,0.1,0c0,0,0,0,0.1,0.1c0-0.1,0.2,0.1,0.1,0c0.1,0,0.1,0.1,0.2,0.1
						c0-0.1,0.1-0.1,0.3-0.1c0,0,0,0,0,0.1c0.2,0.1,0.3,0.1,0.5,0.2c0,0,0.1,0.1,0.1,0.1c0,0,0.1,0,0.1,0c0.1,0.1-0.1,0-0.1,0.1
						c0,0,0.2,0,0.3,0c0-0.1-0.2,0-0.3,0c0-0.1,0.2-0.2,0.4-0.2c0.2,0,0.1,0.1,0.1,0.1c0.3,0,0.3-0.1,0.5-0.1c0.1,0,0,0.1,0,0.1
						c-0.1,0-0.2,0-0.3,0l0.1,0c0,0-0.1,0-0.2,0c0.1,0.1,0.5,0,0.8,0c0,0,0.1-0.1,0.1-0.1l-0.1,0c-0.1,0,0.1-0.1,0-0.1
						c0.1,0,0.2-0.1,0.3-0.1l0,0.1c0,0-0.1,0-0.1,0c0.1,0,0.2,0.1,0.3,0l-0.1,0c0.1-0.1,0.2-0.1,0.3-0.1c-0.1,0,0,0-0.1,0
						c0.1,0.1-0.3,0.1-0.2,0.1c-0.1-0.1-0.2,0-0.3-0.1c0,0,0,0-0.1,0c0,0,0,0,0,0l0,0l0,0c0,0,0,0,0,0c0,0,0,0,0.1,0
						c0,0.1-0.2,0.1-0.3,0.1c-0.1,0,0,0,0,0l-0.1,0c0,0-0.2-0.1,0-0.1l-0.1,0c-0.1,0-0.2,0-0.2,0c-0.1,0-0.2,0-0.1,0l-0.2,0l0,0
						c-0.2,0-0.4,0-0.6-0.1c-0.1,0-0.1,0-0.2,0l0,0c-0.1,0-0.2-0.1-0.3-0.1c-0.1-0.1-0.4-0.1-0.5-0.2l0,0c-0.1,0-0.2-0.1-0.3-0.1
						l0,0c-0.1,0-0.3-0.1-0.4-0.2c0,0,0.1,0,0.1,0c-0.2-0.2-0.4-0.1-0.6-0.3c-0.1,0-0.1,0-0.1-0.1l0,0l0,0l0-0.1c0,0,0,0,0,0
						c0,0-0.1,0-0.1-0.1l0-0.1c0,0,0,0,0,0c0,0-0.1,0,0,0c0,0-0.1,0-0.1,0c0-0.1-0.1,0-0.2-0.1c-0.1,0-0.3-0.1-0.3,0c0,0,0,0,0,0
						c-0.1,0-0.1-0.1-0.2-0.1l0-0.1l-0.2,0c-0.1-0.1-0.1-0.1,0-0.1c-0.2,0-0.2,0-0.4,0l0,0c-0.1,0-0.2,0.1-0.2,0.1c0,0,0,0,0,0l0,0
						c-0.2,0-0.3,0.2-0.4,0.4c0,0.2,0,0.4,0,0.6c0.1-0.1,0,0.2,0.1,0.2c0,0,0,0.1-0.1,0c0.1,0.2,0,0.3,0.2,0.4c0,0-0.1,0-0.1,0
						c0,0,0,0,0,0.1c0,0,0,0-0.1,0c0.1,0.2,0.2,0.2,0.2,0.1c0,0.1,0,0.1,0.1,0.2c0,0,0,0.1-0.1,0c0,0.1,0.1,0.4,0.2,0.3
						c0,0,0,0.1,0.1,0.1c0.1,0.1,0.1,0.1,0.2,0.3l0,0c0.1,0,0.1,0.1,0.2,0.2l0,0c0.1,0.2,0.1,0.1,0.2,0.3l0,0c0.1,0,0.1,0.2,0.2,0.3
						l0-0.1c0.1,0,0.1,0.3,0.1,0.3c0,0,0,0-0.1,0c0.1,0.2,0.1,0,0.2,0.1c0,0-0.1,0,0,0.1c0,0.1,0.3,0.1,0.4,0.3c0,0,0-0.1,0.1-0.1
						C8.5,42.8,8.6,43,8.8,43c0,0,0,0,0,0c0.1,0,0.3,0.1,0.3,0.1c0,0.2,0.5,0.2,0.5,0.3l0.3,0.1l0,0c0.2,0.1,0.2,0.1,0.3,0
						c0,0,0,0,0,0c0.2,0.1,0.3,0.1,0.5,0.1l0,0.1c0.1,0,0.3,0.1,0.6,0.1c0,0,0,0,0,0c0.3,0,0.7,0.2,0.8,0l0.2-0.1
						c-0.2,0,0-0.1-0.1-0.1c0.1,0,0.2,0,0.1,0.1l0,0c0,0.1,0.3,0,0.3,0.1c0.5,0,0.9-0.1,1.4-0.2l-0.1-0.1l0.1,0c0,0,0.1,0,0,0.1
						c0.1,0,0.2-0.1,0.2-0.1c0.2,0,0,0.1,0,0.1l0.1,0l0,0c0.1-0.1,0.1-0.1,0.2-0.1c0.1,0,0.1,0,0.1,0c0,0,0,0,0,0l0.2-0.1l-0.1,0
						c0.1-0.1,0.2-0.1,0.1-0.1c0.2,0,0.7-0.3,0.7-0.4c0.1-0.1,0.2-0.2,0.3-0.3c0,0-0.1,0,0-0.1c0.1,0.1,0.2-0.1,0.4-0.1
						c-0.1,0,0.2-0.3,0.1-0.2c0.1-0.1,0,0,0.1,0c0.1-0.2,0.4-0.4,0.6-0.7c0,0-0.1,0,0-0.1l0.2-0.1c0-0.1-0.1-0.1,0.1-0.2
						c0,0-0.1,0,0,0c0.4-0.5,0.5-1.1,0.7-1.8c0,0.1,0,0,0,0c0,0,0,0-0.1,0c0,0,0.1-0.3,0-0.3c-0.1,0-0.1-0.3-0.2-0.3
						c0,0,0.1,0.1,0.1,0.1c-0.1-0.1-0.1,0.2-0.2,0.2c0.1,0.1-0.1,0.3,0,0.5c0,0,0,0-0.1,0c0,0,0,0.1,0,0.2l0,0
						c-0.1,0.3-0.1,0.4-0.3,0.7l0.1,0c0,0.1-0.1,0.1-0.1,0.1c0,0.1,0.1-0.2,0.1-0.1c-0.1,0.1-0.2,0.5-0.4,0.5c-0.1,0.1,0.1,0,0,0.1
						l0,0l0,0c0,0.1-0.1,0.1-0.1,0.1c0,0,0,0,0-0.1c-0.1,0.1-0.1,0.2-0.2,0.2l0.1-0.1c-0.1,0.3-0.4,0.5-0.6,0.8l0,0
						c-0.1,0.2-0.1,0.1-0.3,0.3l0,0c0,0.1-0.1,0.1-0.1,0.1c0-0.1-0.1,0-0.1,0c-0.2,0.2-0.1,0.1-0.2,0.3l-0.1,0c0,0.1,0,0.1-0.1,0.2
						c0.1-0.1-0.1,0,0-0.1c-0.3,0.1-0.3,0.3-0.5,0.2c-0.1,0.1,0.2-0.1,0.2,0c0.1,0-0.1,0.1-0.1,0.1c-0.1,0-0.2-0.1-0.4,0
						c0,0,0,0,0,0c-0.1,0-0.1,0.1-0.2,0.1c0,0.1-0.1,0-0.1,0.1l0.2-0.1c-0.1,0.1-0.2,0.2-0.3,0.2c0,0,0.1-0.1,0.1-0.1
						c-0.1,0-0.1,0-0.2,0c0-0.1,0.2-0.1,0.3-0.2c-0.1,0-0.2,0.1-0.2,0c0,0.1-0.2,0-0.3,0.2l0,0c0,0-0.1,0-0.1,0.1l0.1-0.1
						c-0.1,0.1-0.2,0-0.3,0.1c0.2-0.1,0.1,0,0.2,0.1c-0.3,0.1-0.2-0.1-0.5,0c0,0,0.2,0,0.1,0c-0.1,0-0.1,0-0.2,0c-0.2,0,0,0,0,0.1
						c-0.1-0.1-0.1,0-0.2,0.1l0,0c-0.2,0-0.1,0.1-0.3,0.1l0.1-0.1l-0.1,0l0-0.1c-0.1,0-0.2,0-0.3,0c0,0,0,0.1-0.1,0.1
						c-0.1,0,0,0-0.1,0c0,0,0.1-0.1,0.1,0c0,0,0,0,0,0c-0.1,0-0.2,0-0.2,0c0,0,0,0,0.1,0l-0.2,0.1c0,0,0,0,0,0c0,0-0.1,0-0.1,0
						c0,0,0-0.1,0.1-0.1l-0.2,0c0,0-0.1-0.1-0.1-0.1c-0.1,0-0.3,0-0.4,0c0,0,0,0-0.1,0c-0.1,0-0.2-0.1-0.4-0.1l-0.1-0.1
						c-0.1,0,0.1,0.1-0.1,0.1c-0.2,0,0-0.1-0.1-0.1c-0.1,0-0.2,0-0.3-0.1C9.7,43,9.8,43.1,9.8,43.1z M8.4,42.3
						C8.4,42.3,8.5,42.3,8.4,42.3C8.5,42.3,8.4,42.3,8.4,42.3z M6.9,40.3C6.9,40.3,6.9,40.4,6.9,40.3C6.9,40.4,6.9,40.3,6.9,40.3z
						 M12,40.1L12,40.1C12,40.1,12,40.1,12,40.1z M12.2,40.2C12.2,40.1,12.2,40.1,12.2,40.2C12.2,40.1,12.1,40.1,12.2,40.2
						C12.1,40.2,12.1,40.2,12.2,40.2z M14.4,43.4L14.4,43.4C14.5,43.4,14.4,43.4,14.4,43.4z"/>
					<path fill="#313234" d="M7,40.5C7,40.6,7,40.6,7,40.5C7,40.6,7,40.6,7,40.5z"/>
					<polygon fill="#313234" points="10.8,43.3 10.8,43.4 10.8,43.3 					"/>
					<path fill="#313234" d="M9.8,40.2C9.8,40.1,9.8,40.1,9.8,40.2C9.7,40.1,9.8,40.1,9.8,40.2z"/>
					<path fill="#313234" d="M12.9,40L12.9,40C12.9,40,12.9,40,12.9,40C12.9,40,12.9,40,12.9,40z"/>
					<path fill="#313234" d="M13.8,40.1C13.8,40.1,13.8,40.1,13.8,40.1L13.8,40.1C13.8,40.1,13.8,40.1,13.8,40.1z"/>
					<path fill="#313234" d="M13.1,40.1c0,0,0.1,0,0.1,0c0,0,0,0,0,0C13.2,40.1,13.1,40.1,13.1,40.1z"/>
					<path fill="#313234" d="M13.2,40.1C13.2,40.1,13.2,40.1,13.2,40.1C13.3,40.1,13.2,40.1,13.2,40.1z"/>
					<path fill="#313234" d="M12.4,40.1C12.4,40.1,12.4,40.1,12.4,40.1C12.4,40,12.2,40.2,12.4,40.1z"/>
					<polygon fill="#313234" points="13.1,40.2 13.1,40.2 13.1,40.2 					"/>
					<path fill="#313234" d="M12.6,40.3l0.1,0c0,0,0,0,0,0C12.7,40.3,12.6,40.3,12.6,40.3z"/>
					<path fill="#313234" d="M12.7,40.3C12.8,40.3,12.8,40.3,12.7,40.3C12.8,40.3,12.8,40.3,12.7,40.3z"/>
					<polygon fill="#313234" points="13,40.3 13,40.3 12.9,40.3 					"/>
					<path fill="#313234" d="M11.4,40.3l-0.1,0C11.3,40.3,11.3,40.3,11.4,40.3C11.4,40.3,11.4,40.3,11.4,40.3z"/>
					<path fill="#313234" d="M11.8,40.5C11.7,40.4,11.7,40.4,11.8,40.5L11.8,40.5L11.8,40.5z"/>
					<path fill="#313234" d="M11.4,40.4C11.4,40.5,11.2,40.5,11.4,40.4C11.4,40.5,11.5,40.5,11.4,40.4z"/>
					<polygon fill="#313234" points="9.7,39.9 9.7,39.9 9.7,39.8 					"/>
					<path fill="#313234" d="M8.1,39.5c0.1,0.1,0.1,0,0.2,0c0,0-0.1-0.1,0-0.1C8.2,39.4,8.1,39.4,8.1,39.5z"/>
					<path fill="#313234" d="M8.2,39.5C8.3,39.5,8.3,39.5,8.2,39.5C8.3,39.5,8.3,39.5,8.2,39.5z"/>
					<path fill="#313234" d="M17.5,38.9c0,0-0.1-0.1-0.1-0.1C17.5,38.7,17.5,38.8,17.5,38.9L17.5,38.9z"/>
					<path fill="#313234" d="M17.3,38.7L17.3,38.7l-0.1-0.1C17.2,38.6,17.3,38.7,17.3,38.7z"/>
					<path fill="#313234" d="M8.3,42L8.3,42C8.3,42,8.3,42,8.3,42L8.3,42z"/>
					<polygon fill="#313234" points="9.2,42.7 9.2,42.7 9.2,42.8 					"/>
					<path fill="#313234" d="M10.1,43.1c0,0-0.1,0-0.1,0C10.1,43.1,10.1,43.1,10.1,43.1z"/>
				</g>
			</g>
		</g>
	</g>
</g>
<path fill="#3D76DE" d="M8.2,36.8c0,0.1-0.1,0.1-0.2,0c-0.5-0.3-2.4-1.3-2.6-2.3c-0.1-0.6,0.3-1.3,0.9-1.4c0.5-0.1,0.9,0.1,1.2,0.5
	c0.1-0.4,0.5-0.8,0.9-0.9c0.6-0.1,1.2,0.3,1.4,0.9C10,34.7,8.6,36.4,8.2,36.8z"/>
<path fill="#3D76DE" d="M15.5,36.8c0,0.1,0.1,0.1,0.2,0c0.5-0.3,2.4-1.3,2.6-2.3c0.1-0.6-0.3-1.3-0.9-1.4c-0.5-0.1-0.9,0.1-1.2,0.5
	c-0.1-0.4-0.5-0.8-0.9-0.9c-0.6-0.1-1.2,0.3-1.4,0.9C13.7,34.7,15.2,36.4,15.5,36.8z"/>
<g>
	<g>
		<g>
			<g>
				<g>
					<path fill="#313234" d="M38.1,46.8C38,46.8,38.1,46.8,38.1,46.8C38.2,46.7,38.1,46.7,38.1,46.8z"/>
					<polygon fill="#313234" points="39.4,45.7 39.4,45.7 39.6,45.6 					"/>
					<path fill="#313234" d="M40.6,44.8c-0.2,0-0.4,0.4-0.7,0.5l0,0l-0.1,0.1C40.1,45.2,40.4,44.9,40.6,44.8z"/>
					<path fill="#313234" d="M41.4,44.3c-0.1,0,0.1-0.1-0.2,0.1c0,0,0,0,0,0C41.3,44.4,41.3,44.4,41.4,44.3z"/>
					<path fill="#313234" d="M41.3,44.5C41.1,44.6,41.3,44.4,41.3,44.5L41.3,44.5z"/>
					<path fill="#313234" d="M41.8,44l-0.2,0.2C41.7,44.1,41.9,44,41.8,44C42,43.9,41.9,43.9,41.8,44z"/>
					<path fill="#313234" d="M41.9,43.8L41.9,43.8C41.9,43.9,41.9,43.8,41.9,43.8z"/>
					<path fill="#313234" d="M41.7,44l0.2-0.2C41.8,43.9,41.8,43.9,41.7,44C41.8,43.9,41.8,44,41.7,44z"/>
					<path fill="#313234" d="M41.6,44.1C41.5,44.2,41.4,44.3,41.6,44.1C41.2,44.4,41.3,44.4,41.6,44.1z"/>
					<path fill="#313234" d="M40.6,44.6l-0.1,0.1l-0.1,0.1C40.5,44.8,40.7,44.7,40.6,44.6z"/>
					<path fill="#313234" d="M42.9,43.1c0,0-0.1,0-0.1,0l-0.1,0.1C42.7,43.2,42.8,43.1,42.9,43.1z"/>
					<path fill="#313234" d="M42.8,43.1l0.2-0.2C42.8,43.1,42.7,43.1,42.8,43.1z"/>
					<polygon fill="#313234" points="41.9,43.7 41.7,44 42,43.6 					"/>
					<polygon fill="#313234" points="43.5,42.5 43.5,42.6 43.6,42.4 					"/>
					<path fill="#313234" d="M44,42C43.9,42.1,44.1,42,44,42c0.2-0.1,0.3-0.2,0.3-0.3C44.2,41.8,44.1,41.9,44,42z"/>
					<path fill="#313234" d="M44.4,41.5c0,0-0.1,0.1-0.1,0.2C44.3,41.6,44.4,41.6,44.4,41.5z"/>
					<path fill="#313234" d="M43.2,42.6c0,0,0.1,0,0.2-0.1L43.2,42.6C43.3,42.6,43.2,42.6,43.2,42.6z"/>
					<path fill="#313234" d="M43.3,42.6L43.3,42.6c0.1-0.1,0.1-0.1,0.2-0.1C43.4,42.5,43.4,42.5,43.3,42.6z"/>
					<path fill="#313234" d="M43.2,42.7L43.2,42.7C43.2,42.6,43.2,42.6,43.2,42.7z"/>
					<path fill="#313234" d="M42.4,43.3c0.1-0.1,0.3-0.3,0.1-0.2C42.4,43.2,42.6,43.1,42.4,43.3z"/>
					<path fill="#313234" d="M43.1,42.7l-0.2,0.2c0,0,0.1,0,0,0L43.1,42.7z"/>
					<polygon fill="#313234" points="43.2,42.6 43.1,42.7 43.2,42.6 					"/>
					<path fill="#313234" d="M44.1,41.8c0.1-0.1,0.1-0.2,0.2-0.3C44.2,41.6,44.1,41.7,44.1,41.8C44,41.9,44,41.9,44.1,41.8z"/>
					<path fill="#313234" d="M43.7,42.2L43.7,42.2C43.7,42.2,43.7,42.2,43.7,42.2z"/>
					<polygon fill="#313234" points="45.2,40.5 45.2,40.5 45.2,40.5 					"/>
					<path fill="#313234" d="M44,41.8c-0.1,0.1-0.1,0.1-0.2,0.2C43.9,42,44,41.9,44,41.8C44,41.8,44,41.8,44,41.8z"/>
					<path fill="#313234" d="M44.7,41.2c-0.1,0-0.1,0.1-0.1,0.1C44.6,41.3,44.7,41.3,44.7,41.2z"/>
					<path fill="#313234" d="M43.7,42.1C43.7,42.2,43.7,42.2,43.7,42.1C43.8,42.1,43.8,42.1,43.7,42.1z"/>
					<path fill="#313234" d="M43.7,42.1c0,0,0.1-0.1,0.1-0.1C43.8,42.1,43.8,42.1,43.7,42.1C43.7,42.2,43.7,42.2,43.7,42.1z"/>
					<path fill="#313234" d="M45.3,40c0,0-0.1,0.3-0.3,0.4c-0.1,0.2,0.1,0.2,0.3,0.1c0,0,0,0,0.1-0.2c-0.1,0.1-0.4,0.4-0.3,0.2
						c0.2-0.3,0.2-0.2,0.3-0.3c-0.1,0.1,0.2-0.4,0.1-0.4L45.3,40C45.3,40.1,45.3,40,45.3,40z"/>
					<path fill="#313234" d="M44.9,40.9L44.9,40.9c0,0,0.1-0.1,0.2-0.2c0.1-0.1,0.1-0.2,0.1-0.2L44.9,40.9L44.9,40.9z"/>
					<path fill="#313234" d="M44.5,41.3c0-0.1,0.2-0.3,0-0.2c-0.2,0.2-0.1,0.2-0.2,0.3C44.6,41.1,44.2,41.6,44.5,41.3
						c-0.1,0.1-0.1,0.1-0.2,0.2C44.4,41.5,44.4,41.4,44.5,41.3L44.5,41.3L44.5,41.3L44.5,41.3C44.5,41.4,44.5,41.4,44.5,41.3
						L44.5,41.3C44.5,41.3,44.5,41.3,44.5,41.3C44.6,41.2,44.5,41.3,44.5,41.3L44.5,41.3L44.5,41.3l0.3-0.3
						C44.7,41.1,44.7,41.2,44.5,41.3z"/>
					<path fill="#313234" d="M42.6,42.9C42.6,42.9,42.6,42.9,42.6,42.9C42.6,42.9,42.7,42.9,42.6,42.9z"/>
					<path fill="#313234" d="M42.8,42.8c0,0,0,0.1-0.1,0.1c-0.1,0.1,0,0,0,0c0,0.1-0.2,0.2,0,0.1l0,0c0.2-0.1,0.4-0.3,0.4-0.2
						C42.9,42.7,42.9,42.7,42.8,42.8z"/>
					<path fill="#313234" d="M43.7,42.1l0.3-0.3l-0.2,0.1l0,0C43.6,42,43.7,42,43.7,42.1z"/>
					<polygon fill="#313234" points="45.3,40.5 45.3,40.6 45.4,40.4 					"/>
					<polygon fill="#313234" points="45.6,40.1 45.6,40.1 45.7,40 					"/>
					<path fill="#313234" d="M31.6,27.8l-0.1,0C31.6,27.9,31.6,27.8,31.6,27.8z"/>
					<path fill="#313234" d="M32.5,27.9L32.5,27.9C32.4,27.9,32.4,27.9,32.5,27.9z"/>
					<path fill="#313234" d="M45.3,28.4c-0.1-0.1-0.3-0.3-0.3-0.2l0,0.1C45.1,28.3,45.2,28.3,45.3,28.4z"/>
					<path fill="#313234" d="M37.4,30.3L37.4,30.3c0-0.1,0.1-0.1,0.1-0.2C37.5,30.1,37.4,30.2,37.4,30.3z"/>
					<path fill="#313234" d="M37.5,30.5c0,0-0.1,0.2-0.1,0.2C37.4,30.6,37.4,30.5,37.5,30.5z"/>
					<path fill="#313234" d="M27.7,29.8L27.7,30C27.8,29.8,27.7,29.9,27.7,29.8z"/>
					<path fill="#313234" d="M48.1,35.2c0-0.1,0.1-0.3,0.1-0.4C48.1,35,48.1,35.2,48.1,35.2z"/>
					<path fill="#313234" d="M32,27.4c-0.1,0-0.1,0-0.1,0C32,27.4,32,27.4,32,27.4z"/>
					<path fill="#313234" d="M48.3,34.4C48.3,34.4,48.3,34.5,48.3,34.4c0,0.2,0,0.3-0.1,0.4C48.2,34.7,48.3,34.6,48.3,34.4z"/>
					<path fill="#313234" d="M32.6,43.8C32.6,43.8,32.6,43.8,32.6,43.8C32.7,43.8,32.6,43.8,32.6,43.8z"/>
					<path fill="#313234" d="M36.5,47c-0.1,0-0.1,0-0.2-0.1C36.3,47,36.3,47,36.5,47z"/>
					<path fill="#313234" d="M46.9,38.3C46.8,38.4,46.9,38.4,46.9,38.3L46.9,38.3z"/>
					<path fill="#313234" d="M46.4,38.7C46.4,38.7,46.4,38.7,46.4,38.7C46.4,38.7,46.4,38.7,46.4,38.7z"/>
					<path fill="#313234" d="M48,33.3L48,33.3C48,33.3,48,33.3,48,33.3z"/>
					<path fill="#313234" d="M46.8,38.5c0,0,0.1-0.1,0.1-0.1C46.8,38.4,46.8,38.4,46.8,38.5z"/>
					<path fill="#313234" d="M46.8,38.5C46.8,38.5,46.7,38.5,46.8,38.5C46.7,38.6,46.7,38.6,46.8,38.5z"/>
					<path fill="#313234" d="M46.9,38.2c0,0.1-0.1,0.1-0.1,0.2c0,0,0,0,0,0C46.9,38.3,46.9,38.3,46.9,38.2z"/>
					<path fill="#313234" d="M26.7,37C26.7,37,26.7,37,26.7,37C26.8,37.1,26.7,37,26.7,37z"/>
					<polygon fill="#313234" points="42.4,27.8 42.4,27.8 42.4,27.8 					"/>
					<path fill="#313234" d="M42,27.8c0.2-0.1,0.3,0,0.4,0l-0.1-0.1L42,27.8z"/>
					<path fill="#313234" d="M29.7,28.3l0.3-0.1c-0.3,0.2-0.5,0.3-0.2,0.2c0-0.2,1-0.4,1-0.5l0.2,0c0,0-0.1,0-0.1,0
						c0.3,0,0.2-0.1,0.7-0.2c0.2,0,0.3,0,0.2,0c0,0,0.3,0,0.3,0c0.1,0,0.1,0,0,0c0,0,0.5,0,0.5,0l0,0c0.1,0,0.3,0,0.3,0
						c0.1,0-0.1,0,0,0c0,0,0.3,0,0.3,0c0.1,0.1-0.1,0-0.3,0c0.2,0.2,0.3,0,0.8,0.3c0,0-0.3-0.1-0.3-0.1c0.1,0.1,0.4,0.2,0.6,0.3
						c0-0.1-0.5-0.3-0.2-0.3c0.1,0,0.2,0.1,0.4,0.1c0,0,0.1,0.1,0.3,0.2l0,0c0.2,0.1,0.2,0.1,0.3,0.1c0.2,0.1,0.2,0.2,0.2,0.3
						c0.3,0.3-0.2-0.2,0.2,0c0.2,0.2,0.4,0.4,0.7,0.7c0.1,0.2-0.1,0,0,0.1l0.2,0.1c0,0,0,0,0,0c0.1,0.1,0.1,0,0.2,0.2
						c0.1,0,0.1,0.1,0.2,0.3c0.1,0.1,0.2,0.5,0.3,0.7c0,0.2,0,0,0,0.1c0.1,0.3,0.2,0.4,0.3,0.5c0.1-0.2,0.1-0.3,0.2-0.7l0.2-0.4
						c-0.2,0.3,0-0.2,0.1-0.4c-0.1,0.1-0.1,0.1-0.2,0.2c0,0,0.2-0.4,0.2-0.4c0,0,0,0,0,0.1c0,0,0-0.1,0-0.1c0.1-0.1,0.1,0,0.1,0.1
						l-0.1,0.1c0,0.1,0,0.2,0,0.2c0,0,0-0.1,0.1-0.1c0,0,0,0.1,0,0c0,0,0-0.1,0-0.1l0.1,0l0,0c0,0,0.1-0.1,0.2-0.2
						c0.1-0.1,0.2-0.2,0.2-0.2c0.2-0.3,0.4-0.7,0.9-1.1c-0.1,0.1,0,0.1,0,0.1c-0.2,0.1-0.4,0.3-0.6,0.5c0.1-0.1,0.1-0.1,0.1,0
						c0,0,0.1-0.1,0.2-0.2c0.1-0.1,0.2-0.2,0.2-0.2c0,0.1,0.1-0.1,0.3-0.1c-0.2,0,0.3-0.3,0.5-0.4c0,0,0,0.1-0.3,0.2
						c0.3-0.1,0.3-0.3,0.6-0.4c-0.1,0-0.1,0-0.1,0.1c0.1-0.1,0.5-0.2,0.5-0.2l-0.1,0c0.5-0.2,1.4-0.3,1.5-0.4c0,0-0.1,0.1-0.1,0.1
						c0,0,0.9-0.3,0.9-0.3c-0.1,0.1,0.2,0.3-0.2,0.3c0.1,0,0.2,0,0.5,0.1c-0.1,0-0.2-0.1-0.1-0.1c0.3,0.1,0.2,0.1,0.5,0.2
						c-0.1,0,0-0.1,0.2-0.1c0,0,0,0.1-0.1,0.1c0,0,0.1,0,0.2,0c0.1,0,0.2,0,0.2,0c-0.1,0-0.1,0.1,0,0.2c0,0,0.4,0.2,0.5,0.2
						l-0.2-0.1c0.4,0.3,0.5,0.1,1,0.4c-0.1,0-0.2,0,0,0.2c0.1,0,0.6,0.1,1,0.5l0,0.1l0.3,0.3c-0.2-0.1-0.8-0.5-1.1-0.6
						c0.1,0.1,0,0.1,0.2,0.3c0.1,0.1-0.1-0.1-0.2-0.1c0,0,0.1,0.1,0.2,0.2c0.1,0.1,0.2,0.3,0.2,0.3c0-0.1,0.4,0.3,0.4,0.3l-0.5-0.5
						c0-0.1,0.4,0.2,0.7,0.6c0.1,0.1-0.1,0-0.2,0c0.1,0,0.3,0.3,0.3,0.4l-0.1-0.1c0.1,0.2,0.3,0.3,0.4,0.6c0.1,0.1,0.1,0.3,0.1,0.3
						c0-0.2,0.2-0.3,0.3-0.3c0,0,0.2,0.6,0.2,0.7c0,0.2-0.2-0.2-0.2,0c0,0,0.1,0.1,0.1,0.1c0,0.1-0.1,0,0,0.2c0.1,0,0.1,0.5,0.1,0.1
						c0.1,0.2,0.1,0.3,0.1,0.5c0-0.1,0.2,0.2,0.3,0.5c0,0,0,0,0,0.1c0,0.5,0,0.8-0.1,1.3c0,0-0.1,0.3-0.1,0.2c0,0.1,0,0.1,0,0.3
						c-0.1,0.3,0-0.3-0.1-0.1c0,0,0,0.4,0,0.6c0.1,0,0.1-0.5,0.1-0.7c0.1,0,0.1,0.4,0,0.9c-0.1,0.4-0.1,0.2-0.1,0.2
						c-0.3,0.7-0.1,0.7-0.4,1.2c-0.2,0.2-0.1,0-0.2,0c0.1-0.3,0.2-0.5,0.3-0.7l-0.1,0.2c0-0.1,0.1-0.3,0.2-0.4
						c-0.1,0.2-0.5,1.2-0.9,1.7c0,0.1-0.1,0.3-0.1,0.2l0.1-0.2c0.1-0.1-0.1,0.3,0,0.1c-0.1,0.2-0.2,0.5-0.4,0.8l-0.1,0
						c0,0,0.2-0.2,0.2-0.3c-0.1,0.1-0.4,0.4-0.4,0.6l0.2-0.2c-0.1,0.2-0.2,0.5-0.5,0.8c0.1-0.1,0-0.1,0.2-0.2
						c-0.2,0.1,0.5-0.7,0.2-0.5c0.2-0.1,0.3-0.3,0.5-0.5c0,0-0.1,0.1,0.1-0.1c0,0,0,0,0-0.1l0,0c0,0,0,0,0,0c0,0,0,0,0,0
						c0,0-0.1,0.1-0.1,0.1c0-0.1,0.2-0.5,0.3-0.6c0.1-0.1,0,0.1,0,0l0.1-0.2c0,0,0.3-0.3,0.1,0l0.2-0.3c0.1-0.2,0.2-0.4,0.3-0.6
						c0.1-0.1,0.1-0.4,0.1-0.2c0,0,0.2-0.5,0.2-0.5l0,0c0.2-0.5,0.2-1.1,0.4-1.6c0-0.2,0-0.4,0-0.7l0-0.1c0-0.2,0-0.7-0.1-0.8
						c0.1-0.3-0.2-1.1-0.4-1.5l-0.1,0c-0.1-0.3-0.2-0.5-0.4-0.8l0,0c-0.2-0.2-0.4-0.7-0.7-1c0,0,0.1,0.1,0.2,0.2
						c-0.3-0.5-0.8-0.8-1.2-1.2c-0.1-0.1-0.2-0.1-0.2-0.2c0,0,0,0,0,0c0,0,0,0,0,0c0,0-0.1-0.1-0.1-0.1c0,0,0.1,0.1,0.1,0.1
						c-0.1-0.1-0.2-0.1-0.3-0.2l0-0.1c0,0,0,0,0,0c-0.1-0.1-0.1,0-0.1,0c-0.1,0-0.1-0.1-0.2-0.1c-0.1-0.1-0.3-0.2-0.5-0.3
						c-0.1,0-0.7-0.2-0.8-0.2c0,0,0,0,0,0c-0.2-0.1-0.3-0.1-0.5-0.1L43,27.5l-0.4,0c-0.2-0.1-0.3-0.1-0.1-0.1c-0.5,0-0.4,0-0.8,0.1
						l0,0c-0.2,0-0.4,0.1-0.5,0.1c-0.4-0.1-1.7,0.4-2.4,0.9c0.2,0-0.4,0.2-0.3,0.3c-0.1,0-0.2,0.1-0.1,0c-0.3,0.3-0.5,0.4-0.7,0.7
						c-0.1,0,0-0.1,0-0.1c0,0-0.1,0.1-0.1,0.2c0,0,0-0.1,0.1-0.1c-0.3,0.4-0.2,0.5-0.2,0.5c-0.2,0.2-0.2,0.3-0.3,0.4
						c-0.1,0.1-0.2,0.2,0-0.1c-0.1,0.2-0.3,0.5-0.3,0.6l0,0c0-0.1-0.1-0.1-0.1-0.1c-0.1-0.2-0.1-0.2-0.2-0.5l0,0.1
						c-0.1-0.1-0.2-0.3-0.3-0.5l0,0c-0.4-0.6-0.2-0.2-0.6-0.7l0,0.1c-0.1,0-0.4-0.5-0.7-0.6l0.1,0.1c-0.2-0.1-0.4-0.4-0.6-0.6
						c0,0,0.1,0,0.1,0c-0.5-0.3-0.1,0-0.5-0.2c-0.1-0.1,0.1,0-0.1-0.2c-0.1-0.1-0.8-0.2-1.1-0.3c0.1,0,0.1,0.1,0,0.1
						c-0.3-0.1-0.8-0.2-1-0.1c0,0-0.1,0-0.1,0c-0.2,0-0.7,0.1-0.8,0.1c-0.1-0.1-0.5,0-0.8,0.1c-0.3,0.1-0.6,0.2-0.6,0.2
						c0,0-0.2,0.1-0.3,0.1c-0.2,0.1-0.3,0.2-0.3,0.2l0,0c-0.4,0.2-0.5,0.3-0.6,0.4c-0.1,0.1,0,0,0,0c-0.5,0.4-0.6,0.4-0.9,0.8
						l-0.1,0c-0.1,0.1-0.7,0.6-1,1.2c0,0,0,0,0-0.1c-0.3,0.6-0.9,1.5-0.7,1.8c0,0-0.1,0.5-0.1,0.5c0.1-0.6,0.1,0.1,0.1-0.1
						c0,0.2-0.2,0.6-0.1,0.3l0,0c0-0.1-0.1,0.1-0.1,0.3c0,0.2,0,0.4-0.1,0.4c-0.1,1.2,0.2,2.3,0.6,3.3l0-0.1l0.1,0.3
						c0,0.1,0,0.1-0.1-0.1c0,0.2,0.2,0.4,0.2,0.4c0.2,0.5-0.2-0.1-0.1,0l0.1,0.2l0,0c0.1,0.1,0.1,0.1,0.3,0.4c0.1,0.2,0,0.1,0.1,0.2
						c0,0,0,0,0.1,0.1l0.2,0.4l-0.1-0.2c0.1,0.2,0.2,0.4,0.2,0.2c0.1,0.3,1,1.5,1.1,1.6c0.2,0.2,0.4,0.4,0.6,0.7
						c-0.1-0.1,0-0.2,0.2,0.1c-0.2,0,0.3,0.5,0.4,0.7c-0.1-0.2,0.6,0.6,0.4,0.3c0.2,0.2,0,0,0.1,0.2c0.5,0.4,1,1,1.5,1.4
						c0,0-0.1-0.1,0.1,0l0.2,0.3c0.1,0.1,0.2,0,0.3,0.2c0,0-0.1-0.1,0,0c1.1,1,2.4,1.8,3.6,2.8c-0.2-0.1-0.1-0.1,0.1,0
						c-0.1,0,0,0,0-0.1c0,0,0.6,0.2,0.7,0.2c0.1,0,0.7-0.1,0.8-0.2L37.5,47c0.2-0.1-0.4-0.1-0.4-0.2c-0.3,0.1-0.7-0.1-1.1-0.3
						c-0.1-0.1,0.1,0,0.1,0c-0.1,0-0.3-0.1-0.5-0.3l0,0c-0.6-0.4-0.9-0.7-1.6-1.2l0,0.1c-0.1-0.1-0.2-0.2-0.2-0.2
						c-0.2-0.1,0.4,0.3,0.2,0.3c-0.1-0.2-1-0.8-1.1-1c-0.2-0.2,0,0.1-0.2-0.1l0-0.1l-0.1,0c-0.1-0.1-0.2-0.2-0.2-0.2
						c0,0,0.1,0.1,0.1,0.1c-0.2-0.2-0.5-0.4-0.6-0.5l0.2,0.2c-0.6-0.5-1.3-1.2-1.9-1.7l0,0.1c-0.4-0.4-0.3-0.3-0.8-0.8l0,0
						c-0.1-0.1-0.2-0.2-0.3-0.3c0.1,0.1-0.2-0.3,0-0.1c-0.4-0.4-0.2-0.2-0.6-0.5l0-0.1c-0.1-0.1-0.1-0.1-0.3-0.3
						c0.2,0.2-0.1-0.2,0.1,0c-0.3-0.6-0.7-0.7-0.7-1.1c-0.3-0.2,0.3,0.5,0.2,0.4c0.1,0.1-0.2-0.2-0.3-0.3c-0.1-0.2-0.1-0.4-0.4-0.8
						c0,0,0,0.1,0.1,0.1c-0.1-0.2-0.2-0.3-0.3-0.6c-0.1-0.1-0.1-0.3-0.2-0.3l0.2,0.4c-0.1-0.2-0.4-0.4-0.5-0.9c0,0,0.1,0.1,0.1,0.2
						c0-0.1-0.1-0.2-0.1-0.4c0.1,0,0.2,0.5,0.4,0.8c0-0.1-0.3-0.5-0.2-0.4c-0.2-0.1-0.2-0.5-0.4-0.8l0.1,0c0-0.1-0.1-0.2-0.1-0.3
						l0.1,0.2c-0.1-0.3-0.1-0.5-0.2-0.8c0.1,0.6,0,0.1,0,0.4c-0.2-0.7,0-0.4-0.1-1.2c0,0.1,0,0.4,0,0.2c0-0.1,0-0.3,0-0.4
						c0-0.5,0,0.1-0.1-0.1c0.1-0.2-0.1-0.3-0.1-0.5l0,0c0.1-0.6-0.1-0.2,0-0.7c0,0,0,0.2,0,0.2c0,0,0-0.3,0-0.3l0,0.1
						c0-0.3,0-0.4,0.1-0.7c-0.1,0.1-0.1-0.1,0-0.3c0.1-0.2,0,0.1,0.1-0.2c0,0.1,0,0.2-0.1,0.3c0,0,0,0.1,0,0.1
						c0.1-0.3,0.2-0.5,0.2-0.6c0,0,0,0.1-0.1,0.1c0,0,0.1-0.5,0.2-0.5c0.1-0.1,0,0,0,0.1c0-0.1,0.1-0.2,0.1-0.3c0,0.1,0.1,0.1,0,0.3
						l0.2-0.5c0,0,0.2-0.2,0.2-0.1c0.2-0.2,0.3-0.6,0.6-0.9c0,0,0-0.1,0.1-0.1c0.2-0.3,0.5-0.4,0.8-0.7l0.2-0.1
						c0.3-0.2-0.3,0.1,0.1-0.2c0.3-0.2,0.2,0,0.3-0.1c0.1-0.1,0.4-0.3,0.8-0.4C29.9,28.2,29.8,28.2,29.7,28.3z M33.7,28.2
						c-0.1,0-0.2,0-0.3-0.1C33.5,28.1,33.5,28.1,33.7,28.2z M37.8,29.8c0,0.1-0.1,0.1-0.2,0.2C37.7,29.9,37.8,29.9,37.8,29.8z
						 M47.4,37.2L47.4,37.2C47.5,37,47.5,37.1,47.4,37.2z M47.2,37.6C47.2,37.6,47.2,37.6,47.2,37.6c0,0,0-0.1,0.1-0.2
						C47.3,37.4,47.3,37.4,47.2,37.6z M27,38.2L27,38.2C27,38.2,27,38.2,27,38.2z"/>
					<path fill="#313234" d="M37.5,30.4C37.5,30.4,37.5,30.4,37.5,30.4C37.4,30.5,37.5,30.5,37.5,30.4z"/>
					<path fill="#313234" d="M27.8,29.8C27.8,29.8,27.7,29.8,27.8,29.8C27.7,29.8,27.7,29.8,27.8,29.8L27.8,29.8z"/>
					<path fill="#313234" d="M47.5,31.9c0-0.1,0-0.1,0-0.1C47.4,31.7,47.4,31.8,47.5,31.9z"/>
					<path fill="#313234" d="M46.2,39.3l0.1-0.2C46.3,39.2,46.3,39.3,46.2,39.3C46.2,39.3,46.3,39.3,46.2,39.3z"/>
					<path fill="#313234" d="M44.7,40.8C44.6,40.8,44.6,40.8,44.7,40.8L44.7,40.8C44.7,40.8,44.8,40.7,44.7,40.8z"/>
					<path fill="#313234" d="M46,39.4c0,0-0.1,0.1-0.2,0.3l0,0C45.8,39.7,45.9,39.6,46,39.4z"/>
					<path fill="#313234" d="M45.7,39.7c0,0-0.1,0.1-0.1,0.1C45.6,39.9,45.7,39.8,45.7,39.7z"/>
					<path fill="#313234" d="M47,38c-0.1,0.1,0,0.1,0,0.1C47,38.2,47.2,37.6,47,38z"/>
					<polygon fill="#313234" points="45.8,39.5 45.9,39.4 45.9,39.3 					"/>
					<path fill="#313234" d="M46.6,38.4l-0.2,0.2c0,0,0,0,0,0.1C46.5,38.5,46.6,38.4,46.6,38.4z"/>
					<path fill="#313234" d="M46.4,38.7c0,0.1-0.1,0.1-0.1,0.2C46.3,38.8,46.3,38.7,46.4,38.7z"/>
					<polygon fill="#313234" points="46,39.1 46,39.1 46.2,38.9 					"/>
					<path fill="#313234" d="M47.8,35.7l0.1-0.3c0,0,0,0-0.1,0.2C47.8,35.6,47.8,35.8,47.8,35.7z"/>
					<path fill="#313234" d="M47.4,36.5c0-0.1,0.1-0.1,0.1-0.1l-0.1,0L47.4,36.5z"/>
					<path fill="#313234" d="M47.6,35.7C47.6,35.7,47.7,35.3,47.6,35.7C47.6,35.7,47.6,36,47.6,35.7z"/>
					<polygon fill="#313234" points="47.4,31.4 47.5,31.5 47.6,31.4 					"/>
					<path fill="#313234" d="M44.8,28.7c0.3,0.2,0.1,0,0.3,0.2c0.1,0-0.2-0.2-0.1-0.1C44.8,28.6,44.7,28.6,44.8,28.7z"/>
					<path fill="#313234" d="M45,28.7C45,28.7,45.1,28.8,45,28.7C45,28.8,45,28.7,45,28.7z"/>
					<polygon fill="#313234" points="37.4,47.1 37.6,47 37.5,47.1 					"/>
					<path fill="#313234" d="M37.8,46.8L37.8,46.8l0.2-0.1C37.9,46.8,37.9,46.8,37.8,46.8z"/>
					<path fill="#313234" d="M34.1,28.6L34.1,28.6c0,0,0-0.1-0.1-0.1L34.1,28.6z"/>
					<polygon fill="#313234" points="31.4,27.9 31.4,27.9 31.3,27.9 					"/>
					<path fill="#313234" d="M29.1,28.7c0.1-0.1,0.2-0.1,0.3-0.2C29.2,28.7,29.1,28.7,29.1,28.7z"/>
				</g>
			</g>
		</g>
	</g>
</g>
<path fill="#3D76DE" d="M41.8,35.4c0,0.8-0.6,1.4-1.4,1.4c-0.8,0-1.4-0.6-1.4-1.4c0-0.8,0.6-1.4,1.4-1.4
	C41.1,34,41.8,34.6,41.8,35.4z"/>
<path fill="#3D76DE" d="M34.8,35.4c0,0.8-0.6,1.4-1.4,1.4c-0.8,0-1.4-0.6-1.4-1.4c0-0.8,0.6-1.4,1.4-1.4
	C34.1,34,34.8,34.6,34.8,35.4z"/>
<g>
	<g>
		<g>
			<g>
				<g>
					<path fill="#313234" d="M40.4,40.6C40.4,40.6,40.4,40.6,40.4,40.6C40.5,40.5,40.4,40.6,40.4,40.6z"/>
					<polygon fill="#313234" points="40.1,40 40.1,40 40,40 					"/>
					<path fill="#313234" d="M39.7,40.1c0.1,0.1,0.1-0.1,0.2-0.1l0,0l0-0.1C39.8,40,39.7,40.1,39.7,40.1z"/>
					<path fill="#313234" d="M39.4,40C39.4,40,39.4,40,39.4,40L39.4,40C39.5,40,39.4,40,39.4,40z"/>
					<path fill="#313234" d="M39.5,40C39.5,40,39.4,40,39.5,40L39.5,40z"/>
					<path fill="#313234" d="M39.3,40.1L39.3,40.1C39.3,40,39.3,40,39.3,40.1C39.3,40,39.3,40,39.3,40.1z"/>
					<path fill="#313234" d="M39.3,40.1L39.3,40.1C39.3,40.1,39.3,40.1,39.3,40.1z"/>
					<path fill="#313234" d="M39.3,40.1L39.3,40.1C39.3,40.1,39.3,40.1,39.3,40.1C39.3,40.1,39.3,40.1,39.3,40.1z"/>
					<path fill="#313234" d="M39.4,40.1C39.4,40.1,39.4,40.1,39.4,40.1C39.5,40.1,39.5,40,39.4,40.1z"/>
					<path fill="#313234" d="M39.7,40.2L39.7,40.2L39.7,40.2C39.7,40.1,39.7,40.1,39.7,40.2z"/>
					<path fill="#313234" d="M39,40.1C39,40.1,39,40.2,39,40.1L39,40.1C39.1,40.1,39,40.1,39,40.1z"/>
					<path fill="#313234" d="M39,40.2L39,40.2C39.1,40.2,39.1,40.2,39,40.2z"/>
					<polygon fill="#313234" points="39.3,40.2 39.4,40.1 39.3,40.2 					"/>
					<polygon fill="#313234" points="38.8,40.2 38.8,40.1 38.8,40.2 					"/>
					<path fill="#313234" d="M38.7,40.2C38.7,40.2,38.6,40.2,38.7,40.2c-0.1,0-0.1,0-0.1,0C38.6,40.2,38.6,40.2,38.7,40.2z"/>
					<path fill="#313234" d="M38.6,40.3C38.6,40.3,38.6,40.3,38.6,40.3C38.6,40.2,38.6,40.3,38.6,40.3z"/>
					<path fill="#313234" d="M38.9,40.2C38.9,40.2,38.9,40.2,38.9,40.2L38.9,40.2L38.9,40.2z"/>
					<path fill="#313234" d="M38.9,40.2L38.9,40.2C38.9,40.2,38.9,40.2,38.9,40.2C38.9,40.3,38.9,40.2,38.9,40.2z"/>
					<path fill="#313234" d="M38.9,40.2L38.9,40.2C38.9,40.2,38.9,40.2,38.9,40.2z"/>
					<path fill="#313234" d="M39.2,40.2C39.1,40.2,39.1,40.3,39.2,40.2C39.2,40.3,39.1,40.3,39.2,40.2z"/>
					<path fill="#313234" d="M39,40.3L39,40.3C39,40.3,39,40.2,39,40.3L39,40.3z"/>
					<polygon fill="#313234" points="38.9,40.3 39,40.3 38.9,40.3 					"/>
					<path fill="#313234" d="M38.7,40.3C38.6,40.3,38.6,40.3,38.7,40.3C38.6,40.3,38.6,40.3,38.7,40.3
						C38.7,40.3,38.7,40.3,38.7,40.3z"/>
					<path fill="#313234" d="M38.8,40.3L38.8,40.3C38.8,40.3,38.8,40.3,38.8,40.3z"/>
					<polygon fill="#313234" points="38.3,40.4 38.3,40.4 38.3,40.4 					"/>
					<path fill="#313234" d="M38.7,40.3C38.7,40.3,38.7,40.3,38.7,40.3C38.7,40.3,38.7,40.3,38.7,40.3
						C38.7,40.3,38.7,40.3,38.7,40.3z"/>
					<path fill="#313234" d="M38.5,40.3L38.5,40.3C38.5,40.3,38.5,40.3,38.5,40.3z"/>
					<path fill="#313234" d="M38.8,40.3L38.8,40.3C38.8,40.3,38.8,40.3,38.8,40.3z"/>
					<path fill="#313234" d="M38.8,40.3C38.7,40.3,38.7,40.3,38.8,40.3C38.7,40.3,38.8,40.3,38.8,40.3
						C38.8,40.3,38.8,40.3,38.8,40.3z"/>
					<path fill="#313234" d="M38.3,40.7c0,0,0.1-0.1,0.1-0.1c0,0,0-0.2-0.1-0.2c0,0,0,0,0,0.1c0,0,0.1,0,0.1,0.1c-0.1,0-0.1,0-0.1,0
						C38.3,40.6,38.2,40.6,38.3,40.7L38.3,40.7C38.3,40.7,38.2,40.7,38.3,40.7z"/>
					<path fill="#313234" d="M38.4,40.4L38.4,40.4C38.4,40.4,38.4,40.4,38.4,40.4c-0.1,0-0.1,0-0.1,0L38.4,40.4L38.4,40.4z"/>
					<path fill="#313234" d="M38.5,40.4c0,0-0.1,0.1,0,0.1C38.6,40.4,38.5,40.4,38.5,40.4C38.5,40.4,38.6,40.4,38.5,40.4
						C38.5,40.3,38.6,40.3,38.5,40.4C38.6,40.3,38.5,40.3,38.5,40.4L38.5,40.4L38.5,40.4L38.5,40.4C38.5,40.3,38.5,40.3,38.5,40.4
						L38.5,40.4L38.5,40.4C38.5,40.4,38.5,40.3,38.5,40.4L38.5,40.4L38.5,40.4l-0.1,0C38.4,40.4,38.5,40.4,38.5,40.4z"/>
					<path fill="#313234" d="M39.1,40.4C39.1,40.4,39.1,40.4,39.1,40.4C39.1,40.4,39.1,40.4,39.1,40.4z"/>
					<path fill="#313234" d="M39.1,40.4C39.1,40.4,39.1,40.4,39.1,40.4C39.1,40.4,39.1,40.4,39.1,40.4
						C39.1,40.4,39.2,40.4,39.1,40.4L39.1,40.4C39,40.4,39,40.3,39.1,40.4C39,40.4,39,40.4,39.1,40.4z"/>
					<path fill="#313234" d="M38.8,40.4L38.8,40.4L38.8,40.4L38.8,40.4C38.8,40.4,38.8,40.4,38.8,40.4z"/>
					<polygon fill="#313234" points="38.3,40.4 38.3,40.3 38.2,40.4 					"/>
					<polygon fill="#313234" points="38.2,40.4 38.2,40.4 38.1,40.4 					"/>
					<path fill="#313234" d="M35,41.8L35,41.8C35,41.8,35,41.8,35,41.8z"/>
					<path fill="#313234" d="M34.8,41.7L34.8,41.7C34.8,41.7,34.8,41.7,34.8,41.7z"/>
					<path fill="#313234" d="M35.3,40.3C35.3,40.3,35.2,40.2,35.3,40.3L35.3,40.3C35.3,40.3,35.3,40.3,35.3,40.3z"/>
					<polygon fill="#313234" points="33.7,40.6 33.7,40.6 33.7,40.6 					"/>
					<polygon fill="#313234" points="33.9,40.6 33.9,40.6 33.9,40.7 33.9,40.6 					"/>
					<path fill="#313234" d="M35.8,42.3L35.8,42.3C35.8,42.3,35.9,42.3,35.8,42.3z"/>
					<path fill="#313234" d="M37,40.5C36.9,40.5,36.9,40.5,37,40.5C36.9,40.5,37,40.6,37,40.5z"/>
					<path fill="#313234" d="M34.6,42.2C34.6,42.2,34.6,42.2,34.6,42.2C34.6,42.1,34.6,42.1,34.6,42.2z"/>
					<path fill="#313234" d="M36.8,40.5L36.8,40.5C36.8,40.5,36.9,40.5,36.8,40.5C36.9,40.5,36.8,40.5,36.8,40.5z"/>
					<path fill="#313234" d="M39.2,41.5L39.2,41.5C39.2,41.5,39.2,41.5,39.2,41.5z"/>
					<path fill="#313234" d="M40.2,40.9C40.2,40.9,40.2,40.9,40.2,40.9C40.2,40.9,40.2,40.9,40.2,40.9z"/>
					<path fill="#313234" d="M37.7,40.5C37.7,40.5,37.7,40.5,37.7,40.5L37.7,40.5z"/>
					<path fill="#313234" d="M37.8,40.6C37.8,40.6,37.8,40.6,37.8,40.6C37.8,40.6,37.8,40.6,37.8,40.6z"/>
					<path fill="#313234" d="M36.5,40.8L36.5,40.8C36.5,40.8,36.5,40.8,36.5,40.8z"/>
					<path fill="#313234" d="M37.7,40.5L37.7,40.5C37.7,40.5,37.7,40.5,37.7,40.5z"/>
					<path fill="#313234" d="M37.7,40.5C37.7,40.5,37.7,40.5,37.7,40.5C37.7,40.4,37.7,40.4,37.7,40.5z"/>
					<path fill="#313234" d="M37.7,40.5C37.7,40.5,37.7,40.5,37.7,40.5C37.7,40.5,37.7,40.5,37.7,40.5
						C37.7,40.5,37.7,40.5,37.7,40.5z"/>
					<path fill="#313234" d="M37.5,42.6L37.5,42.6C37.5,42.6,37.5,42.6,37.5,42.6z"/>
					<polygon fill="#313234" points="34.5,40.6 34.5,40.6 34.5,40.6 					"/>
					<path fill="#313234" d="M34.4,40.6c0.1,0,0.1,0,0.1,0l0-0.1L34.4,40.6z"/>
					<path fill="#313234" d="M35.3,42.1L35.3,42.1c0.1-0.1,0.1,0,0.1-0.1c-0.1,0.1-0.2-0.1-0.3,0l0,0c0,0,0,0,0,0c0-0.1-0.1,0-0.2,0
						c0,0,0-0.1,0-0.1l-0.1,0c0,0,0,0,0,0l-0.1-0.1l0,0c0,0-0.1,0-0.1,0c0,0,0,0,0,0l-0.1,0c0,0,0.1,0,0.1,0c0-0.1-0.1,0-0.1-0.2
						l0.1,0c0-0.1,0-0.1,0-0.2c0,0,0,0.2-0.1,0.2c0,0,0,0-0.1-0.1c0,0,0-0.1,0-0.1l0.1,0c0,0-0.1,0-0.1,0c0,0,0-0.1,0-0.1
						c0-0.1,0,0.1-0.1,0c0-0.1-0.1-0.1-0.2-0.2c0-0.1,0,0,0,0l-0.1,0c0,0,0,0,0,0c0,0-0.1,0-0.1,0c-0.1,0,0-0.2-0.1-0.2
						c0,0,0,0,0.1,0c-0.1-0.1-0.1,0-0.2-0.1l0-0.1c0,0-0.1,0-0.1,0c0,0-0.1,0-0.1-0.1c0,0,0,0,0,0l-0.1-0.1c0,0,0,0,0.1,0l0,0
						c0,0,0.1,0,0.1,0l0,0c0.1,0,0.1,0,0.2,0c0,0,0,0,0,0c0,0,0,0,0,0c0,0,0,0,0,0l0.1,0l0,0c0,0,0,0,0,0c-0.1-0.1-0.2-0.3-0.1-0.4
						c0,0.1,0.1,0.1,0.1,0.2c-0.1-0.1,0,0.1-0.1,0.1c0,0,0.1,0,0.1,0c0,0,0-0.1,0-0.1c0.1,0.1,0.1,0,0.1,0.1c-0.1-0.1,0-0.1,0-0.1
						c0,0,0,0.1,0,0.1c0.1,0.1,0-0.1,0.1,0c0,0,0,0,0,0c0,0,0.1,0,0.1,0.1l0,0c0,0,0.1,0,0.1,0c0.1,0,0.1,0,0.2,0c0,0,0,0.1-0.1,0.1
						l0.3-0.2c0,0.1,0,0.3-0.1,0.3c0,0,0.1,0,0.1,0c0,0,0-0.1,0-0.1c0,0.1,0,0.1,0.1,0.1c0,0,0-0.1,0.1-0.1c0,0,0,0.1,0,0.1l0.1-0.1
						c0,0,0,0.1,0,0.1c0,0,0.1,0,0.1,0l0,0c0.1,0,0.2-0.1,0.3-0.1c0,0-0.1,0.1,0,0.2c0,0,0.2-0.2,0.3-0.3l0,0l0.1,0
						c-0.1,0.1-0.2,0.2-0.3,0.3c0,0,0,0,0.1,0.1c0,0,0,0-0.1,0l0.2,0.1c0-0.1,0.1,0,0.1-0.1l-0.2,0c0-0.1,0.1-0.2,0.3-0.1
						c0,0,0,0.1,0,0.1c0,0,0.1,0,0.1,0l-0.1,0c0.1,0,0.1-0.1,0.2,0c0,0,0.1,0.1,0.1,0.1c0-0.1,0-0.3,0-0.4c0,0,0.1,0.1,0.2,0.1
						c0,0.1-0.1,0.1,0,0.2c0,0,0,0,0,0c0,0,0,0.1,0,0.1c0-0.1,0.1,0,0-0.1c0.1,0,0.1,0,0.1,0c0,0,0.1-0.1,0.1-0.2c0,0,0,0,0,0.1
						c0.1,0,0.2,0,0.3,0c0,0,0.1,0,0,0.1c0,0,0,0,0.1,0c0.1,0.1-0.1,0,0,0.1c0,0,0.1-0.1,0.1-0.1c0-0.1-0.1,0-0.2,0
						c0-0.1,0.1-0.2,0.2-0.2c0.1,0,0,0.1,0.1,0c0.2,0,0.1-0.2,0.3-0.1c0.1,0,0,0.1,0,0.1c-0.1,0-0.1,0-0.2,0l0.1,0c0,0-0.1,0-0.1,0
						c0.1,0,0.3,0,0.4,0c0,0,0.1,0,0-0.1l0,0c0,0,0.1-0.1,0-0.1c0.1,0,0.1-0.1,0.2-0.1l0,0.1c0,0-0.1,0-0.1,0c0,0,0.1,0.1,0.2,0
						l-0.1,0c0.1,0,0.1-0.1,0.2-0.1c0-0.1,0,0-0.1-0.1c0.1,0.1-0.2,0-0.1,0.1c-0.1-0.1-0.1,0-0.2-0.1c0,0,0,0,0,0l0,0l0,0l0,0l0,0
						c0,0,0,0,0,0c0,0-0.1,0.1-0.1,0.1c0,0,0,0,0,0l0,0c0,0-0.1-0.1,0-0.1l-0.1,0c0,0-0.1,0-0.1,0c0,0-0.1,0.1-0.1,0l-0.1,0l0,0
						c-0.1,0-0.2,0.1-0.4,0c0,0-0.1,0-0.1,0l0,0c0,0-0.1,0-0.2,0c0-0.1-0.2,0-0.3-0.1l0,0c-0.1,0-0.1,0-0.2,0l0,0
						c-0.1,0-0.2-0.1-0.3-0.1c0,0,0,0,0.1,0c-0.1-0.1-0.3,0-0.4-0.1c0,0,0,0-0.1,0l0,0c0,0,0,0,0,0l0,0c0,0,0,0,0,0c0,0-0.1,0-0.1,0
						l0,0l0,0c0,0,0,0,0,0.1c0,0,0,0,0,0c0-0.1-0.1,0-0.1-0.1c0,0-0.2,0-0.2,0.1c0,0,0,0,0,0c0,0-0.1,0-0.1,0l0-0.1l-0.1,0.1
						c0-0.1,0-0.1,0-0.1c-0.1,0-0.1,0-0.2,0l0,0c0,0-0.1,0-0.1,0c0-0.1-0.2-0.1-0.3-0.1C34,40,33.8,39.9,33.7,40
						c0.1,0.1-0.1,0-0.1,0.1c0,0-0.1,0-0.1,0c-0.1,0.1-0.2,0.2-0.1,0.3c0,0,0,0-0.1,0c0,0,0,0.1,0,0.1c0,0,0,0,0-0.1
						c0,0.1,0.1,0.2,0.2,0.2c0,0.1,0,0.1,0.1,0.1l0,0c0,0,0,0,0,0c0,0,0,0,0,0c0,0,0,0,0,0c0,0.1,0.1,0.3,0.2,0.2c0,0,0,0.1,0,0.1
						c0,0.1,0,0.1,0.1,0.2l0,0c0.1,0,0.1,0,0.1,0.1l0,0c0,0.2,0.1,0,0.1,0.2l0,0c0.1-0.1,0,0.1,0.1,0.2l0,0c0.1,0,0,0.2,0,0.2
						c0,0,0,0,0,0c0,0.1,0.1,0,0.1,0c0,0-0.1,0,0,0.1c0,0,0.2,0.1,0.2,0.2c0,0,0-0.1,0.1,0c0.1,0,0.1,0.2,0.2,0.2c0,0,0,0,0,0
						c0.1,0,0.2,0.1,0.2,0.1c-0.1,0.2,0.3,0.1,0.2,0.2l0.1,0.1l0,0c0.1,0.1,0.1,0,0.2,0c0,0,0,0,0,0c0.1,0.1,0.1,0.1,0.3,0.1l0,0.1
						c0,0,0.2,0.2,0.3,0.1c0,0,0,0,0,0c0.2,0,0.4,0.2,0.5,0.1l0.1,0c-0.1,0,0-0.1,0-0.1c0.1,0,0.1,0.1,0.1,0.1l0,0
						c0,0.1,0.2,0.1,0.2,0.1c0.3,0,0.5,0,0.8,0l0-0.1l0.1,0c0,0,0,0,0,0.1c0,0,0.1-0.1,0.1-0.1c0.1,0,0,0.1,0,0.1l0.1,0l0,0
						c0,0,0-0.1,0.1-0.1c0.1,0,0,0,0.1,0c0,0,0,0,0,0l0.1,0l-0.1,0c0,0,0.1,0,0-0.1c0.1,0.1,0.4-0.1,0.5-0.1c0-0.1,0.1-0.1,0.2-0.1
						c0,0-0.1-0.1,0-0.1c0,0.1,0.1,0,0.2,0c-0.1,0,0.2-0.1,0-0.2c0.1,0,0,0,0.1,0c0.1-0.1,0.3-0.2,0.4-0.3c0,0-0.1,0,0-0.1l0.1,0
						c0,0,0-0.1,0-0.1c0,0,0,0,0,0c0.3-0.2,0.4-0.6,0.7-0.8c-0.1,0,0,0,0,0c0,0,0,0-0.1,0l0.1-0.1c0-0.1,0.1-0.1,0-0.2l0,0
						c0-0.1-0.2,0-0.3,0c0,0.1-0.2,0.1-0.1,0.2c0,0,0,0,0,0c0,0,0,0.1,0,0.1l0,0c-0.1,0.2-0.2,0.2-0.3,0.3l0,0c0,0,0,0-0.1,0
						c0,0.1,0.1-0.1,0.1,0c-0.1,0-0.2,0.2-0.3,0.2c0,0,0.1,0,0,0.1l0,0l0,0c0,0-0.1,0-0.1,0c0,0,0,0,0,0c-0.1,0-0.1,0.1-0.1,0.1
						l0.1,0c-0.1,0.1-0.3,0.2-0.4,0.4l0,0c-0.1,0.1-0.1,0-0.2,0.1l0,0c0,0,0,0.1-0.1,0.1c0,0-0.1,0-0.1-0.1c-0.1,0.1,0,0.1-0.1,0.2
						l0,0c0,0,0,0.1-0.1,0.1c0-0.1-0.1,0,0-0.1c-0.2,0-0.2,0.2-0.3,0.1c0,0.1,0.1,0,0.1,0c0,0,0,0.1-0.1,0.1c0,0-0.1-0.1-0.2-0.1
						c0,0,0,0,0,0c0,0-0.1,0.1-0.1,0c0,0.1-0.1,0-0.1,0.1l0.1,0c-0.1,0-0.1,0.1-0.2,0.1c0,0,0,0,0-0.1c0,0-0.1,0-0.1,0
						c0-0.1,0.1,0,0.2-0.1c0,0-0.1,0.1-0.1,0c0,0.1-0.1,0-0.2,0.1l0,0c0,0,0,0-0.1,0l0-0.1c-0.1,0.1-0.1,0-0.2,0
						c0.1,0,0,0.1,0.1,0.1c-0.2,0.1-0.1-0.1-0.3-0.1c0,0,0.1,0,0.1,0c0,0-0.1,0-0.1,0c-0.1,0,0,0,0,0.1c0-0.1-0.1,0-0.1,0l0,0
						c-0.1,0,0,0.1-0.2,0.1l0.1-0.1l-0.1,0l0-0.1c-0.1,0-0.1,0-0.2,0c0,0,0,0.1-0.1,0.1c0,0,0,0-0.1-0.1c0,0,0.1-0.1,0.1,0
						c0,0,0,0,0,0c0,0-0.1,0-0.1,0c0,0,0,0,0,0l-0.1,0c0,0,0,0,0,0c0,0,0,0-0.1,0c0,0,0-0.1,0.1-0.1l-0.1,0c0,0,0-0.1,0-0.1
						c-0.1,0-0.2,0-0.2,0c0,0,0,0,0,0c-0.1,0-0.1-0.1-0.2-0.1l0-0.1c-0.1,0,0,0.1-0.1,0.1c-0.1,0,0-0.1,0-0.1
						C35.4,42.1,35.3,42.2,35.3,42.1C35.3,42.1,35.3,42.1,35.3,42.1z M34.6,41.5C34.6,41.5,34.7,41.6,34.6,41.5
						C34.6,41.6,34.6,41.6,34.6,41.5z M33.8,40.5C33.8,40.5,33.8,40.5,33.8,40.5C33.8,40.5,33.8,40.5,33.8,40.5z M37.4,40.5
						L37.4,40.5C37.4,40.5,37.4,40.5,37.4,40.5z M37.5,40.5C37.5,40.5,37.5,40.5,37.5,40.5C37.5,40.5,37.5,40.5,37.5,40.5
						C37.5,40.5,37.5,40.6,37.5,40.5z M37.9,42.9L37.9,42.9C37.9,42.8,37.9,42.8,37.9,42.9z"/>
					<path fill="#313234" d="M33.9,40.6L33.9,40.6C33.9,40.6,33.9,40.6,33.9,40.6z"/>
					<polygon fill="#313234" points="35.8,42.3 35.8,42.3 35.8,42.3 					"/>
					<path fill="#313234" d="M36.2,40.9C36.1,40.9,36.1,40.9,36.2,40.9C36.1,40.9,36.1,40.9,36.2,40.9z"/>
					<path fill="#313234" d="M37.9,40.4L37.9,40.4C37.9,40.4,37.9,40.4,37.9,40.4C37.9,40.4,37.9,40.4,37.9,40.4z"/>
					<path fill="#313234" d="M38.5,40.6C38.5,40.6,38.5,40.6,38.5,40.6L38.5,40.6C38.4,40.6,38.4,40.6,38.5,40.6z"/>
					<path fill="#313234" d="M38,40.6C38,40.6,38.1,40.6,38,40.6C38.1,40.6,38.1,40.6,38,40.6C38.1,40.5,38.1,40.5,38,40.6z"/>
					<path fill="#313234" d="M38.1,40.6C38.1,40.6,38.1,40.6,38.1,40.6C38.1,40.5,38.1,40.5,38.1,40.6z"/>
					<path fill="#313234" d="M37.6,40.5C37.6,40.5,37.6,40.5,37.6,40.5C37.6,40.4,37.5,40.5,37.6,40.5z"/>
					<polygon fill="#313234" points="38.1,40.7 38,40.6 38,40.7 					"/>
					<path fill="#313234" d="M37.8,40.7L37.8,40.7C37.8,40.7,37.8,40.7,37.8,40.7C37.8,40.7,37.8,40.7,37.8,40.7z"/>
					<path fill="#313234" d="M37.8,40.7C37.9,40.7,37.9,40.7,37.8,40.7C37.9,40.7,37.9,40.7,37.8,40.7z"/>
					<polygon fill="#313234" points="38,40.7 38,40.7 37.9,40.7 					"/>
					<path fill="#313234" d="M37.1,40.7L37.1,40.7C37,40.8,37,40.8,37.1,40.7C37.1,40.8,37.1,40.7,37.1,40.7z"/>
					<path fill="#313234" d="M37.3,40.9C37.3,40.8,37.3,40.8,37.3,40.9L37.3,40.9L37.3,40.9z"/>
					<path fill="#313234" d="M37.1,40.9C37.1,40.9,37,40.9,37.1,40.9C37.1,40.9,37.2,40.9,37.1,40.9z"/>
					<polygon fill="#313234" points="36.1,40.8 36.1,40.8 36.1,40.7 					"/>
					<path fill="#313234" d="M35.1,40.8c0.1,0,0-0.1,0.1,0C35.2,40.8,35.2,40.8,35.1,40.8C35.1,40.8,35.1,40.8,35.1,40.8z"/>
					<path fill="#313234" d="M35.2,40.8C35.2,40.8,35.2,40.8,35.2,40.8C35.2,40.8,35.2,40.8,35.2,40.8z"/>
					<polygon fill="#313234" points="40.3,40.7 40.4,40.7 40.3,40.7 					"/>
					<path fill="#313234" d="M40.3,40.6L40.3,40.6L40.3,40.6C40.3,40.6,40.3,40.6,40.3,40.6z"/>
					<path fill="#313234" d="M34.6,41.4L34.6,41.4C34.6,41.4,34.6,41.4,34.6,41.4L34.6,41.4z"/>
					<polygon fill="#313234" points="35,41.8 35,41.8 35,41.9 					"/>
					<path fill="#313234" d="M35.5,42.1C35.5,42.1,35.5,42.1,35.5,42.1C35.5,42.1,35.5,42.1,35.5,42.1z"/>
				</g>
			</g>
		</g>
	</g>
</g>
</svg>
