<?xml version="1.0" encoding="utf-8"?>
<!-- Generator: Adobe Illustrator 18.0.0, SVG Export Plug-In . SVG Version: 6.00 Build 0)  -->
<!DOCTYPE svg PUBLIC "-//W3C//DTD SVG 1.1//EN" "http://www.w3.org/Graphics/SVG/1.1/DTD/svg11.dtd">
<svg version="1.1" id="Layer_1" xmlns="http://www.w3.org/2000/svg" xmlns:xlink="http://www.w3.org/1999/xlink" x="0px" y="0px"
	 viewBox="0 0 50 50" enable-background="new 0 0 50 50" xml:space="preserve">
<g>
	<g>
		<g>
			<g>
				<g>
					<g>
						<path fill="#313234" d="M6.4,24.5c0.1-0.2,0-0.2-0.1-0.2C6.3,24.7,6.4,24.5,6.4,24.5z"/>
						<polygon fill="#313234" points="6.1,28.3 6,28.3 6.1,28.8 						"/>
						<path fill="#313234" d="M6.3,31.9c0.1-0.2,0-0.5-0.1-0.9c0-0.4-0.1-0.8-0.1-1.1l0-0.1L6,29.6C6.1,30.4,6.2,31.4,6.3,31.9z"/>
						<path fill="#313234" d="M6.3,33.9c0-0.1,0.2,0.4-0.1-0.4c0,0,0,0.1,0,0.1C6.2,33.6,6.2,33.7,6.3,33.9z"/>
						<path fill="#313234" d="M6.2,33.5C6.1,33.2,6.2,33.8,6.2,33.5L6.2,33.5z"/>
						<path fill="#313234" d="M6.7,35.2c0,0-0.2-0.5-0.2-0.5c0,0.1,0.1,0.5,0,0.4C6.7,35.7,6.7,35.5,6.7,35.2z"/>
						<path fill="#313234" d="M7,35.7l-0.1-0.2C6.9,35.5,6.9,35.5,7,35.7z"/>
						<path fill="#313234" d="M6.6,34.9l0.2,0.5c0-0.1,0-0.1-0.1-0.2C6.8,35.2,6.7,35.1,6.6,34.9z"/>
						<path fill="#313234" d="M6.6,34.6c0-0.3-0.1-0.6,0.1-0.2C6.4,33.5,6.3,33.7,6.6,34.6z"/>
						<path fill="#313234" d="M6.5,32.1l0-0.4l-0.1-0.3C6.4,31.6,6.4,32.1,6.5,32.1z"/>
						<path fill="#313234" d="M7.9,38.2c0,0,0-0.2,0-0.3l-0.2-0.3C7.8,37.8,7.9,38.2,7.9,38.2z"/>
						<path fill="#313234" d="M7.9,37.9c0,0,0.3,0.5,0.3,0.5C8,38,7.9,37.9,7.9,37.9z"/>
						<polygon fill="#313234" points="7.2,35.7 6.8,34.9 7.3,35.8 						"/>
						<path fill="#313234" d="M9,40.1l-0.2-0.2c0,0,0.4,0.4,0.4,0.4L9,40.1z"/>
						<path fill="#313234" d="M9.8,41.2c-0.2-0.1,0.1,0.3-0.1,0.2c0.2,0.3,0.5,0.5,0.8,0.7C10.3,41.8,10,41.6,9.8,41.2z"/>
						<path fill="#313234" d="M10.9,42.4c-0.1-0.1-0.3-0.2-0.4-0.3C10.6,42.2,10.8,42.3,10.9,42.4z"/>
						<path fill="#313234" d="M8.7,39.2c0,0,0,0.1,0.1,0.4l0-0.2C8.8,39.4,8.7,39.3,8.7,39.2z"/>
						<path fill="#313234" d="M8.8,39.4L8.8,39.4C8.9,39.6,9,39.8,9,39.8C9,39.8,8.9,39.7,8.8,39.4z"/>
						<path fill="#313234" d="M8.6,39.2L8.6,39.2C8.7,39.2,8.7,39.2,8.6,39.2z"/>
						<path fill="#313234" d="M7.6,37.1c0.2,0.3,0.5,0.9,0.3,0.2C7.8,37.1,7.9,37.5,7.6,37.1z"/>
						<path fill="#313234" d="M8.6,38.9l-0.3-0.5c0,0,0,0.1-0.1,0L8.6,38.9z"/>
						<polygon fill="#313234" points="8.8,39.1 8.6,38.9 8.7,39.1 						"/>
						<path fill="#313234" d="M10.3,41.5c0.2,0.2,0.4,0.4,0.6,0.6c-0.2-0.3-0.4-0.5-0.7-0.8C10.2,41.3,10,41.3,10.3,41.5z"/>
						<path fill="#313234" d="M9.5,40.5L9.5,40.5C9.6,40.5,9.5,40.5,9.5,40.5z"/>
						<polygon fill="#313234" points="13.2,44.3 13.1,44.2 13.1,44.2 						"/>
						<path fill="#313234" d="M10.2,41.3c-0.1-0.2-0.2-0.3-0.4-0.4C10,41,10.1,41.2,10.2,41.3C10.3,41.4,10.3,41.4,10.2,41.3z"/>
						<path fill="#313234" d="M11.5,43c-0.1-0.1-0.2-0.2-0.3-0.4C11.3,42.7,11.5,43,11.5,43z"/>
						<path fill="#313234" d="M9.6,40.7L9.6,40.7C9.6,40.7,9.6,40.7,9.6,40.7z"/>
						<path fill="#313234" d="M9.6,40.7c0.1,0.1,0.2,0.2,0.3,0.2C9.8,40.8,9.7,40.7,9.6,40.7C9.6,40.6,9.6,40.6,9.6,40.7z"/>
						<path fill="#313234" d="M14.3,44.3c-0.1,0.1-0.7-0.3-1.1-0.7c-0.5-0.3-0.4,0.2-0.1,0.6c0,0,0.1,0,0.6,0.3
							c-0.1-0.2-1-0.9-0.5-0.6c0.6,0.4,0.5,0.4,0.7,0.7c-0.2-0.3,0.9,0.4,0.8,0.2C14.8,44.7,14.2,44.4,14.3,44.3
							C14.2,44.3,14.4,44.4,14.3,44.3z"/>
						<path fill="#313234" d="M12.3,43.5l-0.2-0.2c0.2,0.2,0.3,0.4,0.5,0.7c0.3,0.2,0.4,0.2,0.5,0.2c0,0-0.2-0.2-0.5-0.4
							C12.4,43.7,12.2,43.4,12.3,43.5L12.3,43.5z"/>
						<path fill="#313234" d="M11.3,42.6c0.2,0.1,0.7,0.4,0.5,0.1c-0.5-0.5-0.4-0.3-0.7-0.6C11.9,43,10.8,41.9,11.3,42.6
							c-0.2-0.2-0.3-0.3-0.4-0.5C11,42.3,11.1,42.5,11.3,42.6L11.3,42.6L11.3,42.6L11.3,42.6C11.2,42.5,11.2,42.5,11.3,42.6
							L11.3,42.6C11.3,42.6,11.3,42.6,11.3,42.6C11.5,42.9,11.3,42.7,11.3,42.6C11.3,42.6,11.2,42.6,11.3,42.6L11.3,42.6
							c-0.1,0,0.8,0.7,0.8,0.7C12,43.2,11.7,43,11.3,42.6z"/>
						<path fill="#313234" d="M8.4,37.7C8.4,37.8,8.4,37.8,8.4,37.7C8.5,37.8,8.5,37.9,8.4,37.7z"/>
						<path fill="#313234" d="M8.6,38.2c-0.1-0.1-0.1-0.1-0.2-0.3c-0.1-0.2,0,0,0.1,0c-0.1-0.1-0.3-0.5-0.1,0l0,0.1
							c0.1,0.4,0.4,1,0.3,0.9C8.7,38.6,8.7,38.5,8.6,38.2z"/>
						<path fill="#313234" d="M9.8,40.5l0.6,0.7l-0.2-0.4l0,0.1C9.9,40.4,9.9,40.5,9.8,40.5z"/>
						<polygon fill="#313234" points="13.2,44.4 13.1,44.4 13.6,44.6 						"/>
						<path fill="#313234" d="M14.2,45.1L14.2,45.1c-0.1,0.1,0.2,0.2,0.2,0.2S14.2,45.1,14.2,45.1z"/>
						<path fill="#313234" d="M35.3,18.6l-0.2,0.2C35.2,18.7,35.2,18.6,35.3,18.6z"/>
						<path fill="#313234" d="M36.7,17L36.7,17C36.7,17,36.7,17.1,36.7,17z"/>
						<path fill="#313234" d="M41.1,39.7c0.3-0.3,0.6-0.6,0.5-0.6l-0.2,0.1C41.3,39.4,41.2,39.5,41.1,39.7z"/>
						<path fill="#313234" d="M39.9,28l-0.1,0.1c0,0.1,0,0.2,0,0.3C39.9,28.3,39.9,28.2,39.9,28z"/>
						<path fill="#313234" d="M39.6,27.6l0.2-0.5C39.7,27.3,39.7,27.4,39.6,27.6z"/>
						<path fill="#313234" d="M26.4,14.3L26.3,14C26.4,14.5,26.4,14.3,26.4,14.3z"/>
						<path fill="#313234" d="M26.3,48.3c0.4,0,0.6,0,0.9,0C26.7,48.3,26.4,48.2,26.3,48.3z"/>
						<path fill="#313234" d="M35.1,17.2C35,17.4,35,17.4,35,17.4C35.1,17.3,35.2,17.2,35.1,17.2z"/>
						<path fill="#313234" d="M28.2,48.2c-0.1,0-0.1,0-0.2,0c-0.3,0.1-0.5,0.1-0.8,0.1C27.5,48.3,27.8,48.3,28.2,48.2z"/>
						<path fill="#313234" d="M13.2,22.2L13.2,22.2C13.2,22.3,13.2,22.3,13.2,22.2z"/>
						<path fill="#313234" d="M9.5,26.5c0.1,0.1,0.2,0.2,0.3,0.3C9.8,26.8,9.7,26.7,9.5,26.5z"/>
						<path fill="#313234" d="M18.7,47.4C18.4,47.3,18.6,47.4,18.7,47.4L18.7,47.4z"/>
						<path fill="#313234" d="M17.6,46.6c0.1,0,0.1,0,0.1,0C17.7,46.6,17.7,46.6,17.6,46.6z"/>
						<path fill="#313234" d="M30.5,47L30.5,47C30.5,47,30.5,47,30.5,47z"/>
						<path fill="#313234" d="M18.3,47.2c0.1,0,0.2,0.1,0.3,0.1C18.6,47.3,18.5,47.3,18.3,47.2z"/>
						<path fill="#313234" d="M18.3,47.3c-0.1,0-0.2-0.1-0.2-0.1C18.1,47.2,18.1,47.2,18.3,47.3z"/>
						<path fill="#313234" d="M19,47.5c-0.1-0.1-0.3-0.1-0.4-0.2c0,0,0.1,0,0.1,0C18.7,47.4,18.8,47.4,19,47.5z"/>
						<path fill="#313234" d="M22.3,4.7C22.3,4.7,22.3,4.7,22.3,4.7C22,4.8,22.1,4.8,22.3,4.7z"/>
						<polygon fill="#313234" points="42.7,33.2 42.7,33.2 42.7,33.2 						"/>
						<path fill="#313234" d="M42.8,32.3c0.1,0.4,0,0.6-0.1,0.9l0.4-0.2L42.8,32.3z"/>
						<path fill="#313234" d="M30.3,19.4c0,0,0.2,0.1,0.3,0.2c0.2,0.1,0.3,0.1,0.3,0.1c-0.9-0.1-1.5-0.6-0.9-0.1
							c0.1-0.1,0.8,0.2,1.5,0.3c0.7,0.1,1.5-0.1,1.5-0.2c0,0,0.5-0.1,0.5-0.1c-0.1,0-0.2,0.1-0.3,0.1c0.5-0.1,0.6-0.2,0.8-0.3
							c0.2-0.1,0.3-0.3,0.8-0.6c0.3-0.2,0.6-0.4,0.4-0.2c0,0,0.6-0.7,0.6-0.7c0.2-0.2,0.2-0.1,0,0.1c0,0,0.9-1,0.8-1.1l0,0
							c0-0.1,0.1-0.2,0.2-0.4c0-0.1,0.1-0.2,0.1-0.2c0,0,0-0.1,0-0.1c0.1-0.1,0,0.1,0,0.1l0.1-0.4c0.1,0,0,0.3-0.1,0.5
							c0.2,0,0.2,0,0.2-0.2c0-0.1,0-0.1,0.1-0.2c0,0,0-0.1,0.1-0.1c0,0.1,0.1,0.2,0.1,0.3c0,0-0.2-0.2-0.1-0.1
							c0.1,0.3,0.2,0.4,0.2,0.7c0,0,0-0.2,0-0.3c0-0.2-0.1-0.4,0.1-0.3c0.1,0.1,0.1,0.2,0.3,0.4c0,0.1,0,0.1,0,0.2
							c0.1,0.1,0.2,0.3,0.3,0.5l-0.1,0c0.3,0.4,0.3,0.4,0.5,0.6c0.2,0.5,0.2,0.7,0.1,0.9c0.3,0.9-0.1-0.7,0.4,0.3
							c0.1,0.4,0.2,0.7,0.3,1c0.1,0.3,0.3,0.7,0.4,1.1c0,0.5-0.1-0.1-0.1,0.1l0.2,0.4c0,0.1,0,0.1,0,0.1c0.1,0.4,0.2,0,0.3,0.6
							c0.1,0.1,0.1,0.4,0,0.8c0,0.4-0.1,0.9,0,1.3c0,0.2-0.1-0.1-0.1,0c0,1.1,0,0.9,0,1.8c0,0-0.1,0.2-0.1,0.4
							c-0.1,0.2-0.1,0.4-0.1,0.4c0.2-0.5,0.2,0.2,0.1,0.9c0.1-0.2,0.2-0.3,0.3-0.4c0,0,0,0.3-0.1,0.5c-0.1,0.3-0.1,0.5-0.1,0.5
							c-0.1,0.1-0.1,0-0.1-0.2c0,0.1,0,0.1,0,0.2c-0.2,0.3-0.2,0.1-0.2-0.2l0.2-0.3c0-0.3,0-0.5-0.1-0.5c0,0.1,0,0.2-0.1,0.3
							c0-0.1,0-0.1,0-0.1c0,0,0,0.1,0,0.3l-0.2,0.2l0,0.1c0,0-0.1,0.3-0.3,0.6c-0.1,0.2-0.2,0.5-0.3,0.6c-0.1,0.2-0.2,0.3-0.2,0.3
							c-0.1,0.3-0.2,0.6-0.4,0.9c0.1,0,0.1,0.1,0.2,0.1l0.4,0c0.3,0,0.5-0.1,0.8-0.1c0.5-0.1,1-0.3,1.5-0.6c-0.3,0.3,0,0.2,0.1,0.4
							c-0.1,0-0.2,0-0.4,0.1c-0.2,0.1-0.4,0.1-0.6,0.2c-0.5,0.1-1,0.2-1.5,0.1c0.5,0.1,0.4,0.1,0.2,0.1c0,0,0.5,0,1-0.1
							c0.5-0.1,1-0.3,1-0.3c0,0.1,0.3,0,0.7-0.2c-0.2,0,0.1-0.2,0.4-0.4c0.1-0.1,0.4-0.3,0.5-0.3c0.1-0.1,0.2-0.2,0.3-0.3
							c0,0,0,0.1,0,0.2c0,0-0.1,0.1-0.1,0.1c-0.1,0.1-0.1,0.1-0.2,0.2c0.2-0.1,0.2-0.1,0.3-0.2c0.1-0.1,0.1-0.1,0.1-0.2
							c0.1-0.2,0.3-0.5,0.4-0.5c-0.1,0.1-0.1,0.1-0.2,0.2c0.1-0.1,0.1-0.2,0.2-0.3l0.1-0.2c0,0,0,0.1,0,0.2c0,0.1,0,0.2-0.1,0.2
							l0-0.1c0,0.2,0,0.4,0,0.6c0,0.2,0,0.5,0,0.7c0,0.7-0.1,1.3,0,1.4c0,0-0.2-0.2-0.2-0.3c0,0,0.1,0.5,0.2,1
							c0.1,0.3,0.1,0.5,0.1,0.7c0,0.2,0,0.3,0,0.3c-0.1-0.2-0.7,0.3-0.5-0.6c-0.1,0.2-0.2,0.6-0.3,1.1c0.1-0.2,0.3-0.4,0.3-0.1
							c-0.3,0.6-0.2,0.4-0.7,1.2c0.1-0.2,0.3,0.1,0.1,0.5c0-0.1-0.3-0.1-0.2-0.2c0,0,0,0.3-0.1,0.5c0,0.3-0.1,0.5-0.1,0.5
							c0.1-0.3-0.2-0.1-0.4,0c0.1-0.1-0.4,0.8-0.5,1.1l0.3-0.4c-0.6,1-0.3,1.2-0.9,2.2c0-0.1-0.1-0.5-0.5,0
							c-0.1,0.3-0.2,1.4-0.9,2.3l-0.2,0.1c0,0-0.5,0.7-0.5,0.7c0.1-0.2,0.3-0.7,0.6-1.2c0.1-0.2,0.2-0.5,0.4-0.7
							c0.1-0.2,0.2-0.5,0.3-0.6c-0.3,0.3-0.1,0.1-0.5,0.6c-0.2,0.1,0.2-0.3,0.3-0.5c0,0-0.2,0.3-0.5,0.6c-0.3,0.3-0.5,0.6-0.5,0.6
							c0.1,0-0.1,0.3-0.3,0.5c-0.2,0.2-0.4,0.5-0.3,0.5c0,0,0.1-0.1,0.2-0.2c0.1-0.1,0.2-0.3,0.4-0.5c0.3-0.3,0.5-0.7,0.5-0.7
							c0.1,0-0.3,1.1-1.2,1.8c-0.3,0.1,0-0.4-0.1-0.4c-0.1,0.1-0.7,0.8-0.8,0.8c0,0,0.3-0.4,0.3-0.4c-0.5,0.4-0.7,0.8-1.3,1.1
							c-0.2,0.2-0.7,0.3-0.7,0.4c0.4-0.1,0.8,0.3,0.7,0.6c-0.1,0-1.3,0.6-1.6,0.6c-0.2,0-0.1-0.1,0-0.3c0.1-0.2,0.2-0.3,0-0.3
							c0,0-0.2,0.2-0.3,0.3c-0.3,0.1,0-0.2-0.5,0.1c0,0.2-1.1,0.5-0.2,0.2c-0.5,0.3-0.6,0.3-1.2,0.5c0.2,0-0.4,0.5-1,0.8
							c0-0.1-0.1-0.1-0.2-0.1c-1.2,0.3-1.8,0.4-2.9,0.5c-0.1,0-0.6,0-0.4-0.1c-0.2,0-0.3,0.1-0.6,0.2c-0.7-0.1,0.8-0.1,0.2-0.2
							c0,0.1-0.9,0.2-1.3,0.3c0.2,0.1,1.1,0,1.6-0.1c0,0.2-0.8,0.5-2,0.6c-0.9,0-0.4-0.1-0.6-0.1c-1.7-0.1-1.5,0.3-3-0.1
							c-0.6-0.2,0-0.2-0.1-0.4c0.8,0.1,1.1,0.3,1.6,0.3l-0.6-0.2c0.2,0,0.7,0,1,0.1c-0.3-0.1-1-0.2-1.8-0.3c-0.4,0-0.8-0.2-1.3-0.3
							c-0.4-0.1-0.8-0.2-1.1-0.4c-0.2,0-0.6-0.1-0.5,0l0.4,0.1c0.3,0.2-0.8-0.1-0.3,0.1c-0.6-0.1-1.2-0.2-1.9-0.6L17,46.2
							c0,0,0.4,0.3,0.7,0.4c-0.3-0.1-1-0.7-1.5-0.7l0.5,0.3c-0.6-0.2-1.3-0.4-1.9-0.8c0.2,0.3,0.2,0.1,0.5,0.5
							c-0.1-0.2,0.3,0,0.6,0.3c0.4,0.2,0.8,0.4,0.5,0.1c0.4,0.4,0.8,0.5,1.4,0.9c0-0.1-0.2-0.2,0.4,0.1c0,0,0.1,0,0.1,0c0,0,0,0,0,0
							l0,0c0,0,0,0,0,0C18.1,47.1,18,47,18,47c0.3,0,1.2,0.4,1.6,0.4c0.3,0.1-0.2,0,0,0.1l0.5,0c0,0.1,0.9,0.4,0,0.3l0.8,0.2
							c0.4,0.2,1.1,0.3,1.4,0.3c0.4,0.1,0.9,0,0.6,0.1c0,0,0.3,0,0.6,0c0.3,0,0.6,0,0.6,0l0,0c0.3,0,0.6,0,0.9,0
							c0.3,0,0.6-0.1,0.9-0.1c0.3,0,0.6,0,1-0.1c0.3,0,0.7-0.1,1-0.1c0.4-0.1,0.8-0.2,1.5-0.3l0.1,0.1c0.2-0.1,0.6-0.2,1-0.2
							c0.3-0.1,0.6-0.2,0.7-0.3c0.3,0,0.9-0.2,1.5-0.5c0.6-0.3,1.3-0.6,1.7-0.9l0-0.1c0.5-0.3,1.1-0.6,1.7-1.1L36,44.7
							c0.2-0.2,0.6-0.5,1-0.7c0.4-0.3,0.8-0.6,1.2-1c0,0.1-0.2,0.3-0.4,0.4c0.3-0.2,0.5-0.4,0.8-0.6c0.2-0.2,0.4-0.5,0.6-0.8
							c0.2-0.3,0.4-0.5,0.6-0.8c0.2-0.3,0.4-0.5,0.6-0.7c0.1-0.3,0.3-0.4,0.4-0.6c0,0,0,0,0,0.1c0,0,0-0.1,0.1-0.1
							c0.1-0.1,0.2-0.2,0.3-0.3c-0.1,0.1-0.2,0.2-0.2,0.3c0.1-0.2,0.3-0.5,0.4-0.8l0.2-0.1c0,0,0,0,0-0.1c0.2-0.3,0.1-0.2-0.1-0.1
							c0.1-0.1,0.1-0.3,0.2-0.4c0.3-0.1,0.3-0.8,0.7-1c0-0.1,0.2-0.5,0.3-0.9c0.1-0.4,0.2-0.8,0.1-0.9c0,0,0.1-0.1,0,0.1
							c0.1-0.3,0.3-0.7,0.3-1l0.2-0.1l0-0.8c0.2-0.4,0.3-0.6,0.3-0.1c0.1-1.2,0.1-0.9,0.1-1.9l0.1,0.1c0.1-0.3,0-0.9,0.1-1.1
							c0-0.1,0.1-0.2,0.1-0.5c0-0.3,0.1-0.6,0.1-0.9c0-0.3,0-0.7,0-1.2c0-0.2,0-0.4,0-0.6c0-0.3-0.1-0.2-0.1-0.3
							c-0.6,0.7-1.1,1.4-1.7,1.8c-0.3,0.3-0.4,0.3-0.7,0.5c-0.2,0.1-0.4,0.2-0.6,0.3c0.2,0,0,0.1-0.2,0.2c-0.2,0-0.2,0.1-0.3,0.1
							c-0.1,0-0.1,0-0.1,0.1c-0.1-0.1-0.1-0.1,0-0.2C40.1,30,40,30,39.9,30c0,0-0.1,0-0.1,0c-0.1,0,0-0.1,0-0.1c0-0.1,0-0.1,0-0.2
							c0.1-0.1,0.1,0,0.1,0c0,0,0-0.1,0-0.1c0.1,0,0,0,0.1,0.1c0-0.1,0-0.1,0-0.2c0,0,0-0.1,0-0.1c0-0.1,0-0.1,0-0.2
							c0-0.2-0.1-0.3-0.2-0.3c0.3-0.5,0.3-0.7,0.3-1.1c0.1-0.2,0.2-0.4,0.1,0.2c0.1-0.3,0.6-2.2,0.4-2.3c0-0.1,0.1-0.5,0.1-0.6
							c0.1-0.8,0.1-0.9,0-1.7l0,0.2c-0.2-0.3-0.1-0.7-0.2-1.3l0,0c-0.1-0.7-0.1-0.9-0.1-1.1c0-0.2-0.1-0.3-0.2-1l-0.1,0.1
							c-0.1,0-0.2-0.4-0.3-0.8c-0.1-0.4-0.2-0.9-0.4-1.3l0.1,0.3c-0.1-0.2-0.2-0.5-0.2-0.9c-0.1-0.3-0.1-0.7-0.2-0.9
							c0-0.1,0.1,0.1,0.2,0.2c-0.5-1.2-0.2-0.1-0.7-0.9c-0.1-0.3,0.4,0.2-0.2-0.6c-0.1-0.2-0.6-0.8-1-1.3l-0.3-0.4
							c-0.1,0.2-0.2,0.4-0.3,0.6c-0.2,0.4-0.3,0.7-0.5,1c0.2-0.2,0.3-0.4,0.1,0.2c-0.2,0.5-0.5,0.7-0.7,1c-0.3,0.3-0.5,0.6-0.7,0.8
							c-0.1,0-0.1,0-0.1,0c-0.3,0.4-1.1,1-1.3,1.1c-0.3-0.1-0.9,0.2-1.5,0.2c-0.6,0.1-1.2-0.1-1.2-0.3c0,0-0.1,0-0.2-0.1
							c-0.1,0-0.3-0.1-0.4-0.2c-0.3-0.2-0.6-0.4-0.6-0.4l0.1,0c-0.7-0.6-0.9-0.8-1.2-1c-0.1-0.2,0-0.1,0-0.1
							c-0.7-1.2-0.7-1.3-1.2-2.3l0.1-0.1c-0.2-0.3-0.3-1.9-0.5-3.3c0,0,0,0,0.1,0.1c-0.3-1.5,0.4-3.6,0-4.2c0,0,0-0.3,0-0.5
							c0-0.3,0-0.5,0-0.5c-0.2,1.3-0.2-0.2-0.3,0.3c0.1-0.5,0.3-1.3,0.3-0.7l0,0.1c0.2,0.3,0.4-1.6,0.5-1.5l0.1-0.5l0.2-0.7l0.3-1.3
							c0.2-0.3-0.2-0.1-0.4-0.1l-0.6,0.2l-1.3,0.3c-1.2,0.4-2.4,0.8-3.5,1.5l0.3,0l-0.8,0.4c-0.2,0.1-0.3,0,0.2-0.3
							c-0.3,0.1-0.8,0.6-0.8,0.7c-1,0.6,0.3-0.4,0-0.2l-0.4,0.3l0.1,0c-0.3,0.3-0.3,0.4-0.9,0.8c-0.4,0.3-0.3,0.1-0.4,0.2
							c0,0-0.1,0-0.2,0.2c0,0-0.8,0.7-0.8,0.7l0.4-0.2c-0.3,0.4-0.7,0.7-0.3,0.5C18.6,6.8,18.3,7,18,7.3c-0.3,0.3-0.6,0.7-0.9,1.1
							c-0.6,0.8-1.1,1.6-1.2,1.8c-0.3,0.6-0.6,1.2-0.9,2c0.1-0.2,0.3-0.2,0,0.4c-0.2-0.4-0.7,1.1-1,1.6c0.2-0.2,0,0.3-0.1,0.7
							c-0.1,0.5-0.2,0.9,0,0.5c-0.2,0.6-0.1,0-0.3,0.4c-0.3,1.4-0.9,3-1.1,4.7c0,0,0.1-0.2,0.1,0.1l-0.3,0.9c0,0.3,0.2,0.3,0,0.9
							c0-0.1,0.1-0.2,0.1,0c-0.2,1.1-0.2,2.2-0.2,3.4c0,0.6,0,1.1,0,1.7l0.1,1c0,0.1,0,0-0.1,0L12,28.5l-0.2-0.2
							c-0.1-0.1-0.3-0.2-0.4-0.3c-0.4-0.3-0.9-0.7-1.2-1.1c0.3,0.3,0.1,0.2-0.2-0.1c0.2,0.2-0.1,0.1-0.1,0.1c0,0-0.2-0.3-0.5-0.5
							c-0.2-0.3-0.5-0.5-0.5-0.5c-0.3-0.1-1-1.1-1.2-1.1L8,25.1c-0.5-0.3,0.3,0.9,0.1,1c0.6,0.4,1.1,1.5,2.2,2
							c0.2,0.2-0.2-0.1-0.1,0c0.1,0,0.3,0.1,0.5,0.2c0.2,0.1,0.3,0.2,0.7,0.5l-0.1,0c0.4,0.2,0.7,0.5,1,0.7c0.2,0.1,0.3,0.2,0.5,0.3
							l0.2,0.1L13,30c0,0,0,0,0.1,0c-0.1-1.1-0.2-2.6-0.1-3.6l-0.1,0.1c0-0.4,0-0.5,0.1-0.7c-0.2-0.5,0,1.2-0.2,0.7
							c0.2-0.6,0-3,0.4-3.3c0-0.6-0.1,0.2-0.1-0.5l0.1-0.2L13,22.4c0.1-0.4,0.2-0.6,0.2-0.6c0,0.1,0,0.3,0,0.4
							c0.1-0.5,0.1-1.5,0.2-1.7l-0.1,0.6c0.1-1.8,0.7-3.9,1.1-5.5l-0.1,0.1c0.3-1.3,0.4-1,0.9-2.3l0,0.1c0.1-0.3,0.2-0.7,0.4-1
							c-0.1,0.3,0.4-0.6,0.3-0.1c0.5-1.3,0.2-0.7,0.5-1.6l0.2-0.1c0.1-0.3,0.1-0.4,0.5-1c-0.3,0.5,0.4-0.3,0.1,0.3
							c1-1.1,1.2-1.9,1.8-2.2c0.3-0.7-1,0.9-0.7,0.6c-0.3,0.2,0.2-0.5,0.6-0.9C19,7,19.4,7,20.3,6.2c-0.1,0.1-0.1,0.1-0.2,0.2
							c0.4-0.2,0.6-0.6,1.1-0.9c0.2-0.3,0.6-0.4,0.6-0.6L21,5.6c0.5-0.4,0.8-0.9,1.8-1.3c-0.1,0.1-0.3,0.3-0.5,0.4
							c0.3-0.1,0.5-0.3,0.8-0.4c0,0.2-1.2,0.7-1.6,1.2c0.3-0.1,1-0.8,0.8-0.5c0.3-0.4,1-0.6,1.7-1.1l0,0.1C24,4,24.3,3.8,24.5,3.7
							L24.1,4c0.5-0.4,1.2-0.4,1.8-0.6c-1.2,0.4-0.3,0-0.9,0.1c0.7-0.3,1-0.4,1.2-0.3c0.2,0,0.2,0.1,0.5,0c-0.1,0-0.3,0-0.1-0.1
							c0.1,0,0.1,0,0.2,0c0,0,0,0,0,0.1c0,0,0,0.1-0.1,0.1c0,0.2,0,0.1,0.1,0.1c0.1-0.1,0.1-0.2,0.1-0.1c-0.1,0.1-0.1,0.2-0.1,0.3
							c0,0.1,0.1,0.1,0,0.4l-0.1,0c-0.4,1.4,0.1,0.4-0.2,1.7l-0.1-0.6l-0.1,0.7l-0.1-0.2c0,0.7-0.1,1-0.2,1.7
							c0.1-0.2,0.2,0.1,0.1,0.7c-0.1,0.4-0.1-0.3-0.1,0.6c-0.1-0.2-0.1-0.4,0-0.8c0,0,0-0.2-0.1-0.3c-0.1,0.5-0.1,1.2-0.1,1.5
							c0-0.1,0-0.3,0-0.4c0,0,0,0.3,0,0.7c0,0.3,0.1,0.7,0.1,0.7c0,0.2-0.1,0-0.1-0.1c0,0.3,0,0.4,0.1,0.8c-0.1-0.1-0.2-0.1-0.2-0.6
							c0,0,0,0.3,0.1,0.6c0,0.3,0.1,0.6,0.1,0.6c0,0.1-0.1,0.7-0.1,0.5c0,0.7,0.4,1.7,0.6,2.6c0,0,0.1,0.1,0.1,0.3
							c0.2,0.8,0.5,1.6,1.1,2.5c0,0,0.2,0.6,0.2,0.6c0.6,0.6-0.4-0.8,0.6,0.3c0.8,0.7,0.2,0.4,0.4,0.6c0.5,0.3,1.3,0.6,2.2,1
							C30.8,19.6,30.6,19.5,30.3,19.4z M37.6,16.2c-0.1-0.1-0.2-0.1-0.2-0.2C37.4,15.8,37.5,16,37.6,16.2z M39.2,29.3
							c0-0.2,0.1-0.4,0.3-0.6C39.4,28.9,39.4,29,39.2,29.3z M21.5,48L21.5,48C21.9,48.1,21.8,48.1,21.5,48z M20.6,47.8
							C20.5,47.8,20.5,47.8,20.6,47.8c0,0,0.2,0.1,0.4,0.1C21,47.9,20.9,47.8,20.6,47.8z M19.6,5.6l0.2-0.1
							C19.5,5.8,19.6,5.7,19.6,5.6z"/>
						<path fill="#313234" d="M39.6,27.7C39.7,27.6,39.7,27.6,39.6,27.7C39.7,27.5,39.7,27.5,39.6,27.7z"/>
						<path fill="#313234" d="M26.5,14.4L26.5,14.4C26.5,14.3,26.4,14.3,26.5,14.4L26.5,14.4z"/>
						<path fill="#313234" d="M33.5,45.2c0.2-0.1,0.3-0.1,0.3-0.1C33.8,45.1,33.7,45.1,33.5,45.2z"/>
						<path fill="#313234" d="M16.1,46.3l0.5,0.2C16.4,46.4,16.3,46.4,16.1,46.3C16.2,46.3,16.3,46.4,16.1,46.3z"/>
						<path fill="#313234" d="M12.5,43c-0.1,0-0.1-0.1-0.2-0.2l0,0.1C12.6,43.1,12.8,43.2,12.5,43z"/>
						<path fill="#313234" d="M15.9,45.8c0-0.1-0.3-0.3-0.7-0.4l0.1,0C15.1,45.4,15.5,45.6,15.9,45.8z"/>
						<path fill="#313234" d="M15.1,45.3c-0.1-0.1-0.2-0.1-0.3-0.2C14.7,45.1,14.9,45.2,15.1,45.3z"/>
						<path fill="#313234" d="M19.5,47.6c-0.2-0.1-0.2,0.1-0.2,0C19,47.7,20.5,47.8,19.5,47.6z"/>
						<polygon fill="#313234" points="15.7,45.3 15.8,45.5 16,45.5 						"/>
						<path fill="#313234" d="M18.5,46.7l-0.6-0.2c0,0-0.1,0-0.2,0C18.1,46.6,18.5,46.7,18.5,46.7z"/>
						<path fill="#313234" d="M17.7,46.4c-0.2-0.1-0.4-0.2-0.5-0.2C17.4,46.3,17.6,46.4,17.7,46.4z"/>
						<polygon fill="#313234" points="16.5,45.7 16.6,45.8 17,46 						"/>
						<path fill="#313234" d="M25,47.9l0.7-0.1c0.1,0-0.1-0.1-0.4,0C25.2,47.9,24.9,47.9,25,47.9z"/>
						<path fill="#313234" d="M23,47.5c0.2,0.1,0.2,0.1,0.3,0.1l0-0.1C23.3,47.5,23,47.5,23,47.5z"/>
						<path fill="#313234" d="M24.9,47.6c0.1,0,1-0.2,0.1-0.1C25,47.5,24.3,47.5,24.9,47.6z"/>
						<polygon fill="#313234" points="34.6,45.1 34.4,45.2 34.6,45.3 						"/>
						<path fill="#313234" d="M40.4,38.5c-0.4,0.6,0,0.2-0.4,0.8c0,0.2,0.3-0.5,0.3-0.3C40.4,38.6,40.6,38.4,40.4,38.5z"/>
						<path fill="#313234" d="M40.2,39c0,0.1-0.1,0.1-0.1,0.2C40.2,39.1,40.2,39.1,40.2,39z"/>
						<polygon fill="#313234" points="8.3,25.2 8,24.7 8.2,25 						"/>
						<path fill="#313234" d="M7.6,24.5l0-0.2l-0.3-0.1C7.4,24.3,7.6,24.5,7.6,24.5z"/>
						<path fill="#313234" d="M37.8,17.1L37.8,17.1c0.1-0.1,0-0.2-0.1-0.3C37.7,16.7,37.8,17.1,37.8,17.1z"/>
						<polygon fill="#313234" points="34.8,19.1 34.9,19 34.6,19 						"/>
						<path fill="#313234" d="M28.4,18.4c0.2,0.2,0.4,0.4,0.7,0.6C28.6,18.7,28.5,18.3,28.4,18.4z"/>
					</g>
				</g>
			</g>
		</g>
	</g>
	<path fill="#3D76DE" d="M16.8,39.7c0,4.5,3.7,8.2,8.2,8.2s8.2-3.7,8.2-8.2c0-2.4-1-4.6-2.7-6.1c-3.2,4.3-7.6-2.2-4.1-7
		C26.3,26.6,16.8,27.8,16.8,39.7z"/>
</g>
</svg>
