<?xml version="1.0" encoding="utf-8"?>
<!-- Generator: Adobe Illustrator 18.0.0, SVG Export Plug-In . SVG Version: 6.00 Build 0)  -->
<!DOCTYPE svg PUBLIC "-//W3C//DTD SVG 1.1//EN" "http://www.w3.org/Graphics/SVG/1.1/DTD/svg11.dtd">
<svg version="1.1" id="Layer_1" xmlns="http://www.w3.org/2000/svg" xmlns:xlink="http://www.w3.org/1999/xlink" x="0px" y="0px"
	 viewBox="0 0 50 50" enable-background="new 0 0 50 50" xml:space="preserve">
<g>
	<defs>
		<rect id="SVGID_1_" width="50" height="50"/>
	</defs>
	<clipPath id="SVGID_2_">
		<use xlink:href="#SVGID_1_"  overflow="visible"/>
	</clipPath>
	<g clip-path="url(#SVGID_2_)">
		<g>
			<g>
				<g>
					<path fill="none" d="M19.9,42.4c0.8,1.4,0.3,3.1-1,3.9c-1.4,0.8-3.1,0.3-3.9-1l-5.3-9.1l5-2.9C14.7,33.3,19.9,42.4,19.9,42.4
						L19.9,42.4z M19.9,42.4"/>
					<path fill="none" stroke="#353535" stroke-width="0.1" stroke-miterlimit="10" d="M19.9,42.4"/>
					<g>
						<g>
							<g>
								<path fill="#393939" d="M20.1,42.2C20.1,42.2,20.1,42.2,20.1,42.2C20.1,42.2,20.1,42.2,20.1,42.2L20.1,42.2L20.1,42.2
									L20.1,42.2L20.1,42.2L20.1,42.2c0,0.1-0.1,0.1-0.1,0.1L20.1,42.2L20.1,42.2L20.1,42.2L20.1,42.2L20.1,42.2L20.1,42.2
									L20.1,42.2L20.1,42.2C20.1,42.2,20.1,42.2,20.1,42.2C20.1,42.2,20.1,42.2,20.1,42.2C20.1,42.2,20.1,42.2,20.1,42.2z"/>
								<polygon fill="#393939" points="19.6,41.5 19.6,41.5 19.5,41.4 								"/>
								<path fill="#393939" d="M19.2,40.8c0,0.1,0.2,0.3,0.2,0.4l0,0l0.1,0C19.3,41.1,19.2,40.9,19.2,40.8z"/>
								<path fill="#393939" d="M19.1,40.3C19.1,40.4,19,40.3,19.1,40.3C19.1,40.4,19.1,40.4,19.1,40.3
									C19.1,40.4,19.1,40.4,19.1,40.3z"/>
								<path fill="#393939" d="M19.1,40.4C19.2,40.5,19.1,40.4,19.1,40.4L19.1,40.4z"/>
								<path fill="#393939" d="M18.9,40.1L18.9,40.1C19,40.1,18.9,40,18.9,40.1C18.9,40,18.9,40,18.9,40.1z"/>
								<path fill="#393939" d="M18.8,40L18.8,40C18.8,40,18.8,40,18.8,40z"/>
								<path fill="#393939" d="M18.9,40.2L18.9,40.2C18.8,40.1,18.8,40.1,18.9,40.2C18.8,40.1,18.9,40.1,18.9,40.2z"/>
								<path fill="#393939" d="M18.9,40.2C19,40.3,19,40.4,18.9,40.2C19,40.5,19.1,40.4,18.9,40.2z"/>
								<path fill="#393939" d="M19.1,40.8L19.1,40.8l0.1,0.1C19.1,40.9,19.1,40.8,19.1,40.8z"/>
								<path fill="#393939" d="M18.6,39.4C18.6,39.5,18.6,39.5,18.6,39.4l0,0.1C18.6,39.5,18.6,39.5,18.6,39.4z"/>
								<path fill="#393939" d="M18.5,39.5L18.5,39.5C18.5,39.5,18.5,39.5,18.5,39.5z"/>
								<polygon fill="#393939" points="18.7,40 18.9,40.2 18.7,40 								"/>
								<polygon fill="#393939" points="18.3,39 18.4,39.1 18.3,39 								"/>
								<path fill="#393939" d="M18.2,38.8C18.2,38.8,18.2,38.7,18.2,38.8c0-0.1-0.1-0.2-0.1-0.2C18.1,38.6,18.1,38.7,18.2,38.8z"/>
								<path fill="#393939" d="M18,38.5C18,38.5,18,38.5,18,38.5C18,38.5,18,38.5,18,38.5z"/>
								<path fill="#393939" d="M18.4,39.2c0,0,0,0,0-0.1L18.4,39.2L18.4,39.2z"/>
								<path fill="#393939" d="M18.3,39.2L18.3,39.2C18.3,39.1,18.3,39.1,18.3,39.2C18.3,39.1,18.3,39.1,18.3,39.2z"/>
								<path fill="#393939" d="M18.4,39.2L18.4,39.2C18.4,39.2,18.4,39.2,18.4,39.2z"/>
								<path fill="#393939" d="M18.6,39.7c-0.1-0.1-0.2-0.2-0.1,0C18.5,39.7,18.5,39.7,18.6,39.7z"/>
								<path fill="#393939" d="M18.4,39.3l0.1,0.1c0,0,0,0,0,0L18.4,39.3z"/>
								<polygon fill="#393939" points="18.3,39.3 18.4,39.3 18.3,39.3 								"/>
								<path fill="#393939" d="M18.1,38.7c0,0-0.1-0.1-0.1-0.2C18,38.6,18,38.7,18.1,38.7C18.1,38.7,18.1,38.8,18.1,38.7z"/>
								<path fill="#393939" d="M18.2,38.9L18.2,38.9C18.2,38.9,18.2,38.9,18.2,38.9z"/>
								<polygon fill="#393939" points="17.6,37.9 17.6,37.9 17.6,37.9 								"/>
								<path fill="#393939" d="M18,38.7C18.1,38.8,18.1,38.8,18,38.7C18.1,38.8,18.1,38.8,18,38.7C18,38.7,18,38.7,18,38.7z"/>
								<path fill="#393939" d="M17.9,38.3C17.9,38.3,17.9,38.4,17.9,38.3C17.9,38.4,17.9,38.3,17.9,38.3z"/>
								<path fill="#393939" d="M18.2,38.9L18.2,38.9C18.2,38.9,18.2,38.9,18.2,38.9z"/>
								<path fill="#393939" d="M18.2,38.9C18.2,38.9,18.1,38.9,18.2,38.9C18.1,38.9,18.2,38.9,18.2,38.9L18.2,38.9z"/>
								<path fill="#393939" d="M17.3,37.9c0,0,0.1,0.1,0.2,0.2c0.1,0.1,0.2,0,0.2-0.2c0,0,0,0-0.1-0.1c0,0.1,0.1,0.3,0,0.2
									c-0.1-0.1-0.1-0.1-0.1-0.2c0,0.1-0.2-0.2-0.2-0.1L17.3,37.9C17.3,37.9,17.2,37.8,17.3,37.9z"/>
								<path fill="#393939" d="M17.7,38.2L17.7,38.2c0,0,0-0.1,0-0.1c-0.1-0.1-0.1-0.1-0.1-0.1L17.7,38.2L17.7,38.2z"/>
								<path fill="#393939" d="M17.9,38.4c-0.1,0-0.1-0.1-0.1,0c0.1,0.1,0.1,0.1,0.2,0.2C17.7,38.3,17.9,38.6,17.9,38.4
									c0,0.1,0.1,0.1,0.1,0.1C17.9,38.5,17.9,38.5,17.9,38.4L17.9,38.4L17.9,38.4L17.9,38.4C17.9,38.4,17.9,38.4,17.9,38.4
									L17.9,38.4C17.9,38.4,17.9,38.4,17.9,38.4C17.8,38.3,17.9,38.4,17.9,38.4L17.9,38.4L17.9,38.4l-0.1-0.2
									C17.8,38.3,17.8,38.3,17.9,38.4z"/>
								<path fill="#393939" d="M18.3,39.6C18.3,39.6,18.3,39.6,18.3,39.6C18.3,39.6,18.3,39.6,18.3,39.6z"/>
								<path fill="#393939" d="M18.3,39.5C18.3,39.5,18.3,39.5,18.3,39.5C18.4,39.7,18.3,39.6,18.3,39.5
									C18.4,39.6,18.4,39.7,18.3,39.5L18.3,39.5c0,0,0-0.2,0-0.2C18.3,39.4,18.3,39.5,18.3,39.5z"/>
								<path fill="#393939" d="M18.1,39l-0.1-0.2l0,0.1L18.1,39C18,39,18,39,18.1,39z"/>
								<polygon fill="#393939" points="17.6,37.9 17.7,37.9 17.5,37.8 								"/>
								<polygon fill="#393939" points="17.5,37.7 17.5,37.6 17.4,37.6 								"/>
								<path fill="#393939" d="M12.2,40.1L12.2,40.1L12.2,40.1z"/>
								<path fill="#393939" d="M12,39.7L12,39.7C12,39.7,12,39.7,12,39.7z"/>
								<path fill="#393939" d="M13.1,33.8c-0.1,0-0.2,0-0.2,0l0,0C13,33.9,13.1,33.8,13.1,33.8z"/>
								<polygon fill="#393939" points="9.9,36.6 9.9,36.5 9.9,36.5 								"/>
								<path fill="#393939" d="M10.1,36.5l0,0.1C10.1,36.6,10.1,36.6,10.1,36.5z"/>
								<path fill="#393939" d="M13.5,42.2L13.5,42.2C13.5,42.1,13.5,42.2,13.5,42.2z"/>
								<path fill="#393939" d="M16,35.2c0-0.1,0-0.1-0.1-0.2C16,35.1,16,35.2,16,35.2z"/>
								<path fill="#393939" d="M11.7,40.1C11.7,40.2,11.8,40.2,11.7,40.1C11.7,40.1,11.7,40.1,11.7,40.1z"/>
								<path fill="#393939" d="M15.8,34.8C15.8,34.8,15.8,34.9,15.8,34.8c0,0.1,0.1,0.1,0.1,0.2C15.9,35,15.9,34.9,15.8,34.8z"/>
								<path fill="#393939" d="M19.5,45.4L19.5,45.4C19.5,45.4,19.5,45.4,19.5,45.4z"/>
								<path fill="#393939" d="M20.4,43c0,0,0,0.1,0,0.1C20.4,43.1,20.4,43.1,20.4,43z"/>
								<path fill="#393939" d="M16.9,36.7C17,36.7,16.9,36.7,16.9,36.7L16.9,36.7z"/>
								<path fill="#393939" d="M16.9,37C16.9,37,16.9,37,16.9,37C16.9,37,16.9,37,16.9,37z"/>
								<path fill="#393939" d="M15.3,34.5L15.3,34.5C15.3,34.5,15.3,34.5,15.3,34.5z"/>
								<path fill="#393939" d="M16.9,36.8C16.9,36.7,16.9,36.7,16.9,36.8C16.9,36.7,16.9,36.7,16.9,36.8z"/>
								<path fill="#393939" d="M17,36.7C17,36.8,17,36.8,17,36.7C17,36.8,17,36.8,17,36.7z"/>
								<path fill="#393939" d="M16.9,36.6C16.9,36.6,16.9,36.7,16.9,36.6C16.9,36.7,16.9,36.7,16.9,36.6
									C16.9,36.7,16.9,36.6,16.9,36.6z"/>
								<path fill="#393939" d="M15.5,45.8C15.5,45.8,15.5,45.8,15.5,45.8C15.6,45.8,15.5,45.8,15.5,45.8z"/>
								<polygon fill="#393939" points="12,35 12,35 12,35 								"/>
								<path fill="#393939" d="M11.9,35.1C11.9,35,12,35,12,35l-0.1-0.1L11.9,35.1z"/>
								<path fill="#393939" d="M12.8,41l0-0.1c0.1,0.1,0.2,0.2,0.2,0.1c-0.1,0-0.3-0.5-0.4-0.4l0-0.1l0,0c0-0.2-0.2-0.1-0.3-0.3
									c0-0.1,0-0.1,0-0.1l-0.1-0.1c0,0,0,0,0,0L12,39.7l0,0c0,0-0.1-0.1-0.1-0.1c0-0.1,0,0,0,0l-0.1-0.1c0-0.1,0.1,0,0.1,0.1
									c0-0.2-0.1-0.1-0.2-0.4l0.1,0.1c0-0.1-0.1-0.2-0.1-0.4c0,0,0.1,0.4,0,0.2c0,0,0-0.1-0.1-0.2c0,0,0-0.1-0.1-0.2l0.1,0
									c-0.1-0.1-0.1-0.1-0.2-0.1c-0.1-0.1,0-0.2,0-0.2c-0.1-0.2,0,0.2-0.1,0c-0.1-0.2-0.2-0.3-0.3-0.4c0-0.1,0,0,0,0l-0.1-0.1
									c0,0,0,0,0,0c-0.1-0.1-0.1,0-0.2-0.1c-0.1,0-0.1-0.3-0.2-0.4c0,0,0,0,0.1,0c-0.2-0.2-0.1-0.2-0.3-0.3l-0.1-0.2
									c0,0.1-0.1,0-0.2-0.1c0,0.1,0,0.1,0,0.1l-0.1-0.2c0,0,0,0,0.1,0l0,0c0-0.1,0-0.1,0.1,0l0,0.1c0.1,0,0.1,0.1,0.2,0
									c0,0,0,0-0.1-0.1c0,0,0,0,0,0c0,0,0,0-0.1,0l0-0.1l0,0c0,0,0-0.1,0-0.1l-0.1,0c0-0.1,0.1-0.2,0.3-0.4c0,0.1,0,0.1,0.1,0.1
									c-0.1,0-0.3,0.2-0.3,0.2c0.1,0,0.1,0,0.1,0c0,0,0,0,0.1-0.1c0.1-0.1,0.1-0.1,0.1-0.1c0,0,0.1,0,0.2,0
									c-0.1-0.1,0.2-0.2,0.3-0.3c0,0,0,0.1-0.1,0.1c0.2,0,0.1-0.2,0.3-0.2c0,0-0.1,0-0.1,0c0.1-0.1,0.3-0.2,0.2-0.1l0,0
									c0.2-0.1,0.7-0.4,0.7-0.5c0,0,0,0.1,0,0.1l0.3-0.5c0,0.1,0.2,0.2,0.1,0.3c0.1,0,0.1,0,0.2-0.1c0,0-0.1,0-0.1-0.1
									c0.2,0,0.1,0,0.3-0.1c-0.1,0-0.1-0.1,0-0.2c0,0,0.1,0.1,0,0.1l0.2-0.2c0,0,0,0.1,0.1,0.1c0,0,0.2-0.1,0.2-0.1l-0.1,0
									c0.3-0.1,0.2-0.3,0.4-0.4c0,0,0,0.2,0.1,0.1c0-0.1,0.1-0.4,0.3-0.5l0.1,0l0.1-0.1c-0.1,0.1-0.3,0.5-0.4,0.6
									c0.1,0,0,0,0.2-0.1c0.1,0-0.1,0.1-0.1,0.1l0.3-0.2c0-0.1,0.2-0.2,0.2-0.2L13.9,34c0,0,0.1-0.3,0.3-0.4c0.1,0,0,0.1,0,0.1
									c0,0,0.1-0.1,0.1-0.1c0,0,0.1,0,0.1,0l0,0.1c0,0,0.1-0.1,0.2-0.1c0,0,0,0,0,0c0,0,0,0.2,0,0.1c0-0.1,0.1-0.4,0.2-0.4
									c0,0,0,0.1,0.1,0.2c0,0.1,0,0.2,0,0.2c0,0.1-0.2-0.1-0.2,0c0,0,0.1,0,0.1,0c0,0.1-0.1,0,0,0.1c0.1,0,0.1,0.2,0.1,0
									c0.1,0.1,0.1,0.1,0.1,0.3c0-0.1,0.2,0,0.3,0.2c0,0,0,0,0,0.1c0.1,0.2,0.2,0.4,0.3,0.6c0,0,0,0.1,0,0.1c0,0,0.1,0,0.1,0.1
									c0,0.2-0.1-0.1-0.1,0c0,0,0.1,0.2,0.2,0.2c0-0.1-0.1-0.2-0.2-0.3c0.1,0,0.2,0.1,0.4,0.3c0.1,0.2,0,0.1,0,0.1
									c0.2,0.4,0.3,0.2,0.4,0.5c0,0.1-0.1,0.1-0.1,0.1c-0.1-0.1-0.1-0.2-0.2-0.3l0.1,0.1c0,0-0.1-0.1-0.1-0.2
									c0,0.1,0.3,0.6,0.4,0.9c0,0,0.1,0.1,0.1,0.1l-0.1-0.1c0-0.1,0.1,0.1,0.1,0c0.1,0.1,0.2,0.2,0.3,0.4l0,0.1c0,0,0-0.1-0.1-0.2
									c0.1,0.1,0.1,0.3,0.2,0.3l0-0.1c0.1,0.1,0.2,0.2,0.3,0.4c0-0.1,0,0,0-0.2c0,0.1-0.2-0.4-0.2-0.2c0-0.1-0.1-0.2-0.1-0.4
									c0,0,0,0.1-0.1-0.1c0,0,0,0,0,0l0,0l0,0c0,0,0,0,0,0c0,0,0,0.1,0,0.1c-0.1,0-0.2-0.2-0.2-0.3c0-0.1,0,0,0,0l-0.1-0.1
									c0,0,0-0.2,0.1-0.1l-0.1-0.2c0-0.1-0.1-0.2-0.2-0.3c0-0.1-0.1-0.2-0.1-0.1l-0.2-0.2l0,0c-0.1-0.2-0.3-0.4-0.4-0.7
									c-0.1-0.1-0.1-0.1-0.2-0.3l0,0c-0.1-0.1-0.1-0.3-0.2-0.3c0-0.2-0.3-0.5-0.3-0.7l0,0c-0.1-0.1-0.2-0.4-0.4-0.6l0,0.1
									c0,0,0,0,0,0c-0.2,0.1-0.5,0.3-0.7,0.4c0,0,0.1,0,0.1-0.1c-0.3,0.1-0.5,0.4-0.7,0.4c0,0-0.1,0.1-0.1,0.1c0,0,0,0,0,0l0,0
									c0,0-0.1,0-0.1,0c0,0,0.1,0,0.1,0c0,0-0.1,0.1-0.2,0.1l-0.1,0c0,0,0,0,0,0c-0.1,0,0,0,0,0.1c0,0-0.1,0.1-0.1,0.1
									c-0.1,0-0.2,0.1-0.3,0.1c0,0.1-0.3,0.2-0.3,0.3c0,0,0,0,0,0c-0.1,0-0.2,0.1-0.2,0.1l-0.1,0L12,34.7c-0.1,0-0.2,0-0.1-0.1
									c-0.2,0.2-0.2,0.1-0.3,0.3l0,0c-0.1,0-0.2,0.2-0.2,0.1c-0.2,0-0.8,0.4-1.2,0.6c0.1,0.1-0.2,0.1-0.2,0.1c0,0-0.1,0,0,0
									c-0.2,0.1-0.5,0.2-0.6,0.3c0,0,0,0,0.1,0.1c0,0-0.1-0.1-0.1-0.1c0,0,0.1,0.1,0.1,0.1c0,0-0.1-0.1-0.1-0.1
									c0.2,0.4,0.3,0.4,0.4,0.4c0,0.1,0.1,0.2,0.2,0.2c0,0,0,0.1-0.1,0c0,0.1,0.2,0.5,0.3,0.4c0,0,0.1,0.1,0.1,0.1
									c0.1,0.2,0.1,0.2,0.2,0.3l0,0c0.1,0,0.1,0.1,0.2,0.2l0,0c0.1,0.3,0.1,0.1,0.2,0.4l0,0c0.1,0,0.1,0.3,0.2,0.4l0-0.1
									c0.1,0.1,0,0.3,0.1,0.4c0,0,0,0-0.1,0c0.1,0.3,0.1,0,0.2,0.2c0,0-0.1,0,0,0.1c0,0.1,0.3,0.3,0.3,0.5c0,0,0-0.1,0.1,0
									c0.1,0.1,0.1,0.4,0.3,0.5c0,0,0,0,0,0c0.1,0.1,0.2,0.3,0.3,0.3c-0.1,0.2,0.4,0.6,0.3,0.6l0.2,0.3l0,0
									c0.1,0.2,0.2,0.2,0.2,0.3c0,0,0,0,0,0c0.1,0.3,0.2,0.3,0.4,0.5l0,0c0.1,0,0.2,0.4,0.4,0.7c0,0,0,0,0,0
									c0.2,0.3,0.3,0.8,0.5,0.8l0.2,0.2c-0.1-0.3,0.1,0,0.1-0.1c0.1,0.1,0.1,0.3,0,0.2l0,0c-0.1,0,0.2,0.3,0.1,0.4
									c0.3,0.5,0.5,1.1,0.9,1.5l0-0.1l0.1,0.1c0,0.1,0,0.1-0.1,0c0,0.1,0.2,0.1,0.2,0.1c0.2,0.2-0.1,0-0.1,0.1l0.1,0.1l0,0
									c0.1,0,0.1,0,0.3,0.1c0.1,0.1,0,0.1,0.1,0.1c0,0,0,0,0.1,0c0,0,0.2,0.1,0.2,0.1L16,46.5c0.1,0,0.2,0.1,0.1,0
									c0.1,0.2,0.9,0.3,1,0.3c0.2,0,0.3,0,0.5,0c0,0-0.1-0.1,0.1-0.1c0,0.1,0.3,0,0.5,0.1c-0.1,0,0.5-0.2,0.2-0.2c0.1,0,0,0,0.1,0
									c0.3-0.2,0.7-0.3,1-0.6c0,0-0.1,0,0-0.1c0,0,0.2-0.1,0.2-0.1c0-0.1,0-0.1,0.1-0.2c0,0-0.1,0,0,0c0.6-0.6,0.6-1.6,0.6-2.4
									c0,0.1,0,0,0,0c0,0.1,0,0-0.1,0l0-0.4c-0.1,0-0.1-0.3-0.2-0.3l0.1,0.1c-0.1-0.1-0.1,0.2-0.2,0.3c0.1,0.1,0,0.4,0.2,0.6
									c0,0.1,0,0-0.1,0c0.1,0.1,0.1,0.1,0.1,0.3l0,0c0,0.4,0,0.6-0.2,0.9l0.1,0c0,0.1-0.1,0.1-0.1,0.1c0,0.1,0.1-0.2,0.1-0.1
									c-0.1,0.1-0.3,0.6-0.4,0.6c-0.1,0.1,0.1,0,0,0.1l0,0l0,0.1c-0.1,0.1-0.1,0.1-0.1,0.1c0,0,0-0.1,0-0.1
									c-0.1,0.1-0.2,0.3-0.2,0.3l0.1-0.1c-0.2,0.3-0.7,0.5-1,0.7l0,0c-0.3,0.1-0.2,0.1-0.5,0.1l0,0c-0.1,0-0.1,0.1-0.2,0.1
									c0.1,0-0.2,0-0.1-0.1c-0.3,0.1-0.1,0-0.4,0.1l0,0c-0.1,0-0.1,0-0.2,0c0.1,0-0.1-0.1,0.1-0.1c-0.3-0.1-0.5,0-0.6-0.2
									c-0.2,0,0.2,0.2,0.2,0.1c0.1,0.1-0.1,0-0.2,0c-0.1,0-0.1-0.2-0.3-0.3c0,0,0,0,0,0C16,46,15.9,46,15.8,45.9
									c-0.1,0-0.1-0.1-0.2-0.1c0,0,0.2,0.1,0.2,0.1c-0.1-0.1-0.3-0.1-0.4-0.3c0,0,0.1,0,0.1,0.1c0-0.1-0.1-0.1-0.1-0.1
									c0.1,0,0.2,0.2,0.4,0.2c0-0.1-0.2-0.1-0.1-0.2c-0.1,0-0.2-0.2-0.3-0.3l0,0c0,0-0.1,0-0.1-0.1l0.1,0
									c-0.1-0.1-0.1-0.2-0.2-0.4c0.2,0.3,0,0.1,0,0.2c-0.2-0.3,0-0.2-0.2-0.6c0,0,0.1,0.2,0,0.1c0-0.1-0.1-0.2-0.1-0.2
									c-0.2-0.2,0,0.1-0.1,0c0-0.1-0.1-0.1-0.2-0.2l0,0c-0.1-0.3-0.1,0-0.2-0.3l0.1,0.1l-0.1-0.1l0.1,0c-0.1-0.1-0.1-0.2-0.2-0.3
									c0,0-0.1,0-0.2-0.1c0-0.1,0.1,0,0-0.1c0,0,0.1,0,0.1,0.1c0,0,0,0,0.1,0c0-0.1-0.1-0.2-0.2-0.3c0,0,0,0.1,0,0.1l-0.2-0.2
									c0,0,0,0,0.1,0c0,0-0.1-0.1-0.1-0.1c0,0,0.1,0,0.2,0.1l-0.2-0.2c0,0,0-0.1,0-0.1c-0.1-0.1-0.3-0.3-0.3-0.5c0,0,0,0-0.1-0.1
									c-0.1-0.2-0.1-0.3-0.3-0.5l0-0.1c-0.1-0.1,0,0.2-0.2,0c-0.1-0.2,0-0.1,0-0.2c-0.1-0.1-0.2-0.2-0.3-0.4
									C12.7,40.9,12.7,40.9,12.8,41z M11.6,39.1c0,0,0.1,0.1,0.1,0.1C11.6,39.2,11.6,39.2,11.6,39.1z M9.9,36.3
									C9.9,36.3,9.9,36.3,9.9,36.3C9.9,36.3,9.9,36.3,9.9,36.3z M16.6,36.1L16.6,36.1C16.5,36,16.5,36.1,16.6,36.1z M16.6,36.3
									C16.7,36.3,16.7,36.3,16.6,36.3C16.6,36.3,16.6,36.3,16.6,36.3C16.6,36.3,16.6,36.3,16.6,36.3z M15.8,46.4L15.8,46.4
									C15.9,46.4,15.8,46.4,15.8,46.4z"/>
								<path fill="#393939" d="M10.1,36.5C10.1,36.5,10.1,36.6,10.1,36.5C10.1,36.6,10.1,36.6,10.1,36.5z"/>
								<polygon fill="#393939" points="13.5,42.2 13.5,42.2 13.5,42.2 								"/>
								<path fill="#393939" d="M14.8,33.9C14.7,33.8,14.7,33.8,14.8,33.9C14.7,33.8,14.7,33.8,14.8,33.9z"/>
								<path fill="#393939" d="M17.2,37.2l-0.1-0.1C17.2,37.1,17.2,37.2,17.2,37.2C17.2,37.2,17.2,37.2,17.2,37.2z"/>
								<path fill="#393939" d="M17.5,38.3C17.6,38.3,17.6,38.3,17.5,38.3L17.5,38.3C17.5,38.3,17.5,38.2,17.5,38.3z"/>
								<path fill="#393939" d="M17.2,37.4c0,0,0,0.1,0.1,0.2c0,0,0,0,0,0C17.3,37.5,17.2,37.5,17.2,37.4z"/>
								<path fill="#393939" d="M17.2,37.6C17.3,37.6,17.3,37.6,17.2,37.6C17.3,37.6,17.3,37.6,17.2,37.6z"/>
								<path fill="#393939" d="M16.8,36.5C16.8,36.6,16.9,36.5,16.8,36.5C16.9,36.6,16.7,36.3,16.8,36.5z"/>
								<polygon fill="#393939" points="17.1,37.5 17.1,37.5 17.1,37.4 								"/>
								<path fill="#393939" d="M16.8,36.9l0.1,0.1c0,0,0,0,0,0C16.8,37,16.8,36.9,16.8,36.9z"/>
								<path fill="#393939" d="M16.9,37C16.9,37.1,16.9,37.1,16.9,37C16.9,37.1,16.9,37.1,16.9,37z"/>
								<polygon fill="#393939" points="17,37.3 17,37.3 16.9,37.2 								"/>
								<path fill="#393939" d="M16,35.5l-0.1-0.1C15.9,35.4,15.9,35.5,16,35.5C16,35.5,16,35.6,16,35.5z"/>
								<path fill="#393939" d="M16.1,36C16.1,36,16.1,36,16.1,36L16.1,36L16.1,36z"/>
								<path fill="#393939" d="M15.9,35.6C15.9,35.6,15.7,35.5,15.9,35.6C15.9,35.6,15.9,35.8,15.9,35.6z"/>
								<polygon fill="#393939" points="14.8,33.6 14.8,33.6 14.9,33.5 								"/>
								<path fill="#393939" d="M13.3,34.4c0.2-0.1,0-0.1,0.2-0.1c0,0-0.1,0-0.1,0C13.3,34.3,13.2,34.3,13.3,34.4z"/>
								<path fill="#393939" d="M13.3,34.2C13.3,34.2,13.4,34.2,13.3,34.2C13.4,34.2,13.3,34.2,13.3,34.2z"/>
								<polygon fill="#393939" points="20.3,42.6 20.2,42.4 20.2,42.5 								"/>
								<path fill="#393939" d="M20.1,42.4L20.1,42.4L20.1,42.4C20.1,42.3,20.1,42.3,20.1,42.4z"/>
								<path fill="#393939" d="M11.6,38.7L11.6,38.7C11.6,38.8,11.6,38.8,11.6,38.7L11.6,38.7z"/>
								<polygon fill="#393939" points="12.3,40.2 12.3,40.1 12.3,40.2 								"/>
								<path fill="#393939" d="M13.1,41.3c0,0-0.1-0.1-0.1-0.1C13.1,41.2,13,41.3,13.1,41.3z"/>
							</g>
						</g>
					</g>
				</g>
			</g>
			<g>
				<g>
					<path fill="none" d="M40.2,24.6c0.7,1.3-0.2,2.8-1.6,2.9l-1.1,0.2l0-0.1L25.2,6.3l-0.1-0.1l0.7-0.9c0.8-1.2,2.6-1.2,3.3,0
						C48.2,38.4,24.1-3.3,40.2,24.6L40.2,24.6z M40.2,24.6"/>
					<path fill="none" stroke="#353535" stroke-width="0.1" stroke-miterlimit="10" d="M40.2,24.6"/>
					<g>
						<g>
							<g>
								<path fill="#393939" d="M40.4,24.4C40.5,24.5,40.5,24.5,40.4,24.4C40.4,24.3,40.4,24.4,40.4,24.4z"/>
								<polygon fill="#393939" points="39.5,23 39.5,23.1 39.4,22.9 								"/>
								<path fill="#393939" d="M38.7,21.7c0,0.2,0.3,0.5,0.4,0.7l0,0l0.1,0.1C39.1,22.3,38.8,21.9,38.7,21.7z"/>
								<path fill="#393939" d="M38.5,20.9c0,0.1-0.1-0.1,0.1,0.2c0,0,0,0,0,0C38.5,21,38.5,21,38.5,20.9z"/>
								<path fill="#393939" d="M38.5,21.1C38.6,21.2,38.5,21,38.5,21.1L38.5,21.1z"/>
								<path fill="#393939" d="M38.2,20.4l0.1,0.2C38.3,20.5,38.2,20.4,38.2,20.4C38.1,20.3,38.1,20.3,38.2,20.4z"/>
								<path fill="#393939" d="M38,20.3L38,20.3C38.1,20.3,38.1,20.3,38,20.3z"/>
								<path fill="#393939" d="M38.2,20.6l-0.1-0.2c0,0,0,0,0.1,0.1C38.1,20.4,38.1,20.5,38.2,20.6z"/>
								<path fill="#393939" d="M38.3,20.7C38.3,20.8,38.4,20.9,38.3,20.7C38.5,21.1,38.5,21,38.3,20.7z"/>
								<path fill="#393939" d="M38.6,21.7l0.1,0.1l0.1,0.1C38.7,21.9,38.7,21.7,38.6,21.7z"/>
								<path fill="#393939" d="M37.5,19.3c0,0,0,0.1,0,0.1l0.1,0.1C37.6,19.4,37.5,19.3,37.5,19.3z"/>
								<path fill="#393939" d="M37.5,19.4l-0.1-0.2C37.5,19.3,37.5,19.4,37.5,19.4z"/>
								<polygon fill="#393939" points="37.9,20.3 38.2,20.6 37.9,20.2 								"/>
								<polygon fill="#393939" points="37.1,18.5 37.2,18.6 37,18.4 								"/>
								<path fill="#393939" d="M36.8,18C36.8,18,36.7,17.8,36.8,18c0-0.2-0.1-0.3-0.2-0.4C36.6,17.7,36.7,17.8,36.8,18z"/>
								<path fill="#393939" d="M36.4,17.4c0,0,0.1,0.1,0.1,0.2C36.5,17.5,36.5,17.4,36.4,17.4z"/>
								<path fill="#393939" d="M37.2,18.8c0,0,0-0.1-0.1-0.2L37.2,18.8C37.1,18.8,37.2,18.8,37.2,18.8z"/>
								<path fill="#393939" d="M37.1,18.7L37.1,18.7c0-0.1-0.1-0.2-0.1-0.2C37,18.6,37.1,18.6,37.1,18.7z"/>
								<path fill="#393939" d="M37.2,18.8L37.2,18.8C37.2,18.8,37.2,18.8,37.2,18.8z"/>
								<path fill="#393939" d="M37.6,19.7c-0.1-0.1-0.3-0.3-0.1-0.1C37.6,19.7,37.5,19.6,37.6,19.7z"/>
								<path fill="#393939" d="M37.2,19l0.1,0.2c0,0,0-0.1,0,0L37.2,19z"/>
								<polygon fill="#393939" points="37.1,18.9 37.2,19 37.2,18.9 								"/>
								<path fill="#393939" d="M36.6,17.8c-0.1-0.1-0.1-0.2-0.2-0.3C36.5,17.6,36.5,17.7,36.6,17.8C36.6,17.9,36.7,17.9,36.6,17.8z
									"/>
								<path fill="#393939" d="M36.9,18.2L36.9,18.2C36.8,18.2,36.8,18.3,36.9,18.2z"/>
								<polygon fill="#393939" points="35.7,16.3 35.7,16.4 35.8,16.4 								"/>
								<path fill="#393939" d="M36.6,17.9c0,0.1,0.1,0.1,0.1,0.2C36.7,18,36.6,17.9,36.6,17.9C36.6,17.9,36.6,17.9,36.6,17.9z"/>
								<path fill="#393939" d="M36.2,17.1c0,0.1,0,0.1,0.1,0.2C36.3,17.2,36.2,17.1,36.2,17.1z"/>
								<path fill="#393939" d="M36.8,18.2C36.8,18.2,36.8,18.2,36.8,18.2C36.8,18.2,36.8,18.2,36.8,18.2z"/>
								<path fill="#393939" d="M36.8,18.2c0,0-0.1-0.1-0.1-0.1C36.8,18.1,36.8,18.2,36.8,18.2C36.8,18.2,36.8,18.2,36.8,18.2z"/>
								<path fill="#393939" d="M35.3,16.1c0,0,0.2,0.2,0.3,0.5c0.1,0.2,0.2,0,0.1-0.2c0,0,0,0-0.2-0.2c0,0.1,0.2,0.5,0.1,0.3
									c-0.2-0.3-0.1-0.2-0.2-0.4c0,0.1-0.3-0.3-0.3-0.2L35.3,16.1C35.3,16.1,35.3,16.1,35.3,16.1z"/>
								<path fill="#393939" d="M36,16.8L36,16.8c0,0,0-0.1-0.1-0.2c-0.1-0.1-0.1-0.2-0.1-0.2L36,16.8L36,16.8z"/>
								<path fill="#393939" d="M36.3,17.3c-0.1,0-0.2-0.3-0.2-0.1c0.2,0.3,0.1,0.2,0.2,0.3C36.1,17.1,36.4,17.6,36.3,17.3
									c0.1,0.1,0.1,0.2,0.1,0.2C36.4,17.4,36.3,17.3,36.3,17.3L36.3,17.3L36.3,17.3L36.3,17.3C36.3,17.3,36.3,17.3,36.3,17.3
									L36.3,17.3C36.3,17.3,36.3,17.3,36.3,17.3C36.2,17.1,36.3,17.2,36.3,17.3L36.3,17.3L36.3,17.3L36,16.9
									C36.1,16.9,36.1,17.1,36.3,17.3z"/>
								<path fill="#393939" d="M37.3,19.5C37.3,19.4,37.3,19.4,37.3,19.5C37.3,19.4,37.3,19.4,37.3,19.5z"/>
								<path fill="#393939" d="M37.2,19.3c0,0,0.1,0,0.1,0.1c0,0.1,0,0,0,0c0,0.1,0.1,0.2,0.1,0l0,0c-0.1-0.2-0.2-0.4-0.1-0.4
									C37.2,19.1,37.2,19.1,37.2,19.3z"/>
								<path fill="#393939" d="M36.7,18.3l-0.2-0.3l0.1,0.2l0,0C36.7,18.3,36.7,18.2,36.7,18.3z"/>
								<polygon fill="#393939" points="35.7,16.3 35.8,16.3 35.6,16.1 								"/>
								<polygon fill="#393939" points="35.5,15.8 35.5,15.8 35.4,15.7 								"/>
								<path fill="#393939" d="M26.3,7.7L26.3,7.7C26.4,7.7,26.3,7.7,26.3,7.7z"/>
								<path fill="#393939" d="M25.9,6.9L25.9,6.9C25.9,6.9,25.9,6.9,25.9,6.9z"/>
								<path fill="#393939" d="M34.2,13.7c-0.1-0.2-0.1-0.4-0.1-0.3l0,0.1C34.1,13.5,34.2,13.6,34.2,13.7z"/>
								<path fill="#393939" d="M29.6,6.2L29.6,6.2c0,0.1,0.1,0.1,0.1,0.1C29.7,6.3,29.6,6.2,29.6,6.2z"/>
								<path fill="#393939" d="M29.4,6.2L29.3,6C29.3,6,29.3,6.1,29.4,6.2z"/>
								<path fill="#393939" d="M28.7,11.7l0.1,0.1C28.7,11.6,28.7,11.7,28.7,11.7z"/>
								<path fill="#393939" d="M35.9,17.6c0.1,0.1,0.1,0.2,0.2,0.3C36,17.7,36,17.6,35.9,17.6z"/>
								<path fill="#393939" d="M25.7,7.6C25.8,7.7,25.8,7.7,25.7,7.6C25.8,7.6,25.7,7.6,25.7,7.6z"/>
								<path fill="#393939" d="M36.3,18.3C36.3,18.2,36.3,18.2,36.3,18.3c-0.1-0.2-0.2-0.3-0.2-0.4C36.1,18,36.2,18.2,36.3,18.3z"
									/>
								<path fill="#393939" d="M37.1,26.4C37.2,26.4,37.2,26.4,37.1,26.4C37.2,26.4,37.2,26.4,37.1,26.4z"/>
								<path fill="#393939" d="M40.6,26c0,0.1,0,0.1-0.1,0.2C40.6,26.2,40.6,26.2,40.6,26z"/>
								<path fill="#393939" d="M34.2,14.8C34.2,14.7,34.2,14.7,34.2,14.8L34.2,14.8z"/>
								<path fill="#393939" d="M34.6,14.6C34.5,14.5,34.5,14.5,34.6,14.6C34.5,14.5,34.5,14.5,34.6,14.6z"/>
								<path fill="#393939" d="M36.8,18.6L36.8,18.6C36.8,18.7,36.8,18.7,36.8,18.6z"/>
								<path fill="#393939" d="M34.2,14.6c0,0,0,0.1,0.1,0.1C34.2,14.7,34.2,14.7,34.2,14.6z"/>
								<path fill="#393939" d="M34.2,14.6C34.1,14.6,34.1,14.6,34.2,14.6C34.1,14.5,34.1,14.5,34.2,14.6z"/>
								<path fill="#393939" d="M34.3,14.9c0-0.1-0.1-0.1-0.1-0.2c0,0,0,0,0,0C34.3,14.8,34.3,14.8,34.3,14.9z"/>
								<path fill="#393939" d="M32.5,18.6C32.5,18.6,32.5,18.6,32.5,18.6C32.6,18.7,32.6,18.7,32.5,18.6z"/>
								<polygon fill="#393939" points="32.4,11.4 32.4,11.4 32.4,11.4 								"/>
								<path fill="#393939" d="M32.2,11.1c0.1,0.1,0.2,0.2,0.2,0.3l0-0.2L32.2,11.1z"/>
								<path fill="#393939" d="M27.4,9.4l-0.1-0.3c0.2,0.3,0.3,0.5,0.2,0.2c-0.1,0-0.6-0.9-0.7-0.9l-0.1-0.2c0,0,0,0.1,0.1,0.1
									c-0.1-0.3-0.2-0.2-0.4-0.6c-0.1-0.1-0.1-0.3,0-0.2l-0.2-0.3c0-0.1,0-0.1,0,0l-0.3-0.5l0,0c-0.1-0.1-0.2-0.2-0.2-0.3
									c-0.1-0.1,0,0.1,0,0l-0.2-0.2c0-0.1,0.1,0.1,0.2,0.3c0-0.3-0.1-0.2-0.3-0.6c0,0-0.1-0.1-0.1-0.1c0,0.1,0,0.2,0,0.3
									c0,0,0.1-0.1,0.1-0.1l-0.1,0.1l0-0.4l0.1,0.1l0,0l0,0c0,0-0.1-0.1-0.1-0.1l0.1,0.4c0.1-0.1,0.2-0.3,0.4-0.4
									c-0.1,0-0.5,0.4-0.3,0.2c0.1-0.1,0.1-0.2,0.2-0.3c0,0,0.1-0.1,0.3-0.3l0,0.1c0,0,0,0,0-0.1l0,0c0.1-0.1,0-0.1,0.1-0.2
									c0.2-0.2,0.2-0.2,0.3-0.2c0.3-0.2-0.3,0.1,0.1-0.2c0.3-0.1,0.5-0.2,0.8-0.3c0.2,0,0,0,0,0.1c0,0,0.2,0,0.2,0c0,0,0,0,0,0
									c0.2,0,0-0.1,0.3,0C28,4.6,28.4,4.9,28.7,5c0,0.1-0.1,0-0.1,0c0.3,0.3,0.3,0.2,0.5,0.6L29.3,6c-0.1-0.2,0.1,0,0.3,0.2
									c0-0.1,0-0.2-0.1-0.2l0.3,0.4c0,0.1,0,0-0.1,0c0,0,0,0,0.1,0.1c0.1,0.1,0,0.1-0.1,0c0-0.1,0-0.1,0-0.2
									c-0.1-0.1-0.2-0.1-0.2-0.1c0,0,0.1,0.1,0.1,0.1c0,0,0,0,0,0c0,0,0,0,0.1,0.1l0,0.1l0,0L29.8,7c0.3,0.3,0.5,0.6,0.9,1.1
									c-0.1-0.1-0.1,0-0.1,0c0-0.2-0.3-0.4-0.4-0.7c0.1,0.2,0,0.1,0,0.1L30.5,8c-0.1,0,0,0.1,0.1,0.3c0-0.2,0.3,0.4,0.4,0.6
									c0,0-0.1,0-0.2-0.3c0.1,0.3,0.3,0.3,0.4,0.6c0-0.1-0.1-0.1-0.1-0.1c0.1,0.1,0.3,0.5,0.2,0.4l0-0.1c0.2,0.4,0.7,1.3,0.9,1.3
									c0,0-0.1,0-0.2,0l0.7,0.6c-0.1,0-0.1,0.3-0.3,0c0,0.1,0.1,0.2,0.3,0.4c0-0.1,0-0.2,0.1-0.1c0.1,0.3,0.1,0.2,0.2,0.6
									c0-0.1,0.1-0.1,0.2,0.1c0,0-0.1,0.1-0.1,0l0.3,0.4c-0.1-0.1-0.1,0-0.1,0.1c0-0.1,0.2,0.4,0.3,0.5l-0.1-0.2
									c0.3,0.5,0.4,0.4,0.7,0.8c-0.1,0-0.2-0.1-0.1,0.2c0.1,0.1,0.5,0.3,0.8,0.7l0,0.1l0.2,0.3c-0.2-0.2-0.7-0.6-0.9-0.9
									c0.1,0.2,0,0.1,0.1,0.3c0,0.1-0.1-0.1-0.2-0.2l0.3,0.6c0-0.1,0.3,0.4,0.4,0.4l-0.4-0.6c0-0.1,0.4,0.3,0.6,0.7
									c0,0.1-0.2,0-0.2,0c0.1,0,0.3,0.4,0.3,0.4L35,15.9c0.1,0.3,0.3,0.3,0.4,0.7c0.1,0.1,0.1,0.3,0.1,0.3c0-0.2,0.2-0.3,0.3-0.3
									c0,0,0.2,0.6,0.3,0.7c0,0.2-0.3-0.2-0.2,0c0,0,0.1,0.1,0.1,0.1c0,0.1-0.1,0,0.1,0.2c0.1,0,0.3,0.5,0.1,0.1
									c0.1,0.2,0.1,0.2,0.3,0.5c0-0.1,0.3,0.2,0.4,0.4c0,0,0,0.1,0,0.1c0,0.1,0.1,0.1,0.1,0.2c0,0,0,0.1,0.1,0l0-0.1
									c0-0.1-0.1-0.2-0.1-0.3c-0.1-0.2-0.2-0.3-0.3-0.6c0,0-0.1-0.3,0-0.2c0-0.1-0.1-0.1-0.2-0.2c-0.1-0.3,0.2,0.3,0.1,0.1
									c0,0-0.2-0.3-0.4-0.5c0,0.1,0.2,0.4,0.4,0.6c-0.1,0-0.3-0.2-0.6-0.7c-0.2-0.3,0-0.2-0.1-0.2c-0.4-0.7-0.5-0.5-0.7-1.1
									c-0.1-0.2,0.1-0.1,0.1-0.1c0.2,0.3,0.2,0.5,0.3,0.6L35.3,16c0.1,0.1,0.2,0.3,0.2,0.4c-0.1-0.2-0.6-1.1-0.9-1.6
									c-0.1-0.1-0.2-0.2-0.1-0.1l0.1,0.2c0,0.2-0.2-0.3-0.1-0.1c0,0-0.1-0.1-0.1-0.2l-0.1-0.1l0,0l0,0c0,0,0,0,0,0l0.2-0.1l0,0
									l0,0l0,0l0,0l0,0l0,0c0.1,0.1,0.2,0.3,0.2,0.4l0,0.1c0,0-0.1-0.2-0.1-0.3c0.1,0.1,0.2,0.5,0.3,0.6l-0.1-0.2
									c0.2,0.2,0.4,0.4,0.5,0.7c0-0.2,0-0.1-0.1-0.3c0,0.2-0.4-0.7-0.3-0.4c0-0.2-0.2-0.4-0.3-0.6c0,0,0,0,0,0c0,0,0,0,0,0
									c0,0,0,0,0,0l0,0l0,0l0,0l0,0l0,0l-0.5,0.2l0,0l0,0l0,0l0,0c0,0,0,0,0,0l0,0l0,0c0,0,0,0,0,0l0-0.1c0,0,0,0,0,0l0.4-0.2l0,0
									l0,0l0,0l0,0l0,0l0,0l0,0l0,0l0,0l0,0l0,0l0,0l0,0l-0.3,0.2c0-0.1,0,0,0,0l0,0l0.1,0.1c0,0.1,0.1,0.1,0.1,0.2
									c0.1,0.1,0.1,0.2,0.2,0.3c0.1,0.1-0.1,0,0,0l0.1,0.2c0,0,0.1,0.4-0.1,0.1l0.2,0.3c0.1,0.2,0.2,0.4,0.3,0.5
									c0.1,0.1,0.2,0.3,0.1,0.2l0.3,0.4l0,0c0.2,0.4,0.6,0.9,0.8,1.4c0.1,0.1,0.2,0.3,0.3,0.5l0,0.1c0,0.1,0.1,0.1,0.1,0.2l0,0
									l0,0l0,0l0,0l0.5-0.3l0,0l0,0l0,0l0,0l0-0.1l-0.1-0.1c-0.1-0.1-0.1-0.2-0.2-0.3c0-0.3-0.5-0.9-0.7-1.3l-0.1,0
									c-0.1-0.2-0.3-0.4-0.5-0.7l0,0c-0.2-0.2-0.3-0.6-0.6-1c0,0,0.1,0.1,0.1,0.2c-0.2-0.5-0.6-0.9-0.8-1.4
									c-0.1-0.1-0.1-0.2-0.1-0.3c0,0,0,0,0,0c0,0,0,0,0,0c0-0.1,0-0.1-0.1-0.2c0,0,0,0.1,0,0.1c0-0.1-0.1-0.2-0.2-0.3l0-0.1
									c0,0,0,0,0,0c-0.1-0.1-0.1-0.1-0.1,0c0-0.1-0.1-0.1-0.1-0.1c0-0.1-0.2-0.3-0.2-0.5c-0.1-0.1-0.4-0.6-0.5-0.6c0,0,0,0,0,0
									c-0.1-0.1-0.1-0.3-0.2-0.4l0-0.1l-0.2-0.3c-0.1-0.2-0.1-0.3,0-0.1c-0.3-0.4-0.2-0.3-0.5-0.7l0,0c-0.1-0.1-0.2-0.3-0.3-0.4
									C32,9.9,31.3,8.8,30.9,8c0,0.2-0.2-0.4-0.2-0.4c0-0.1,0-0.2,0-0.1c-0.2-0.4-0.3-0.6-0.5-0.8c0-0.1,0.1,0.1,0.1,0
									c0,0-0.1-0.1-0.1-0.2c0,0,0.1,0,0.1,0.1c-0.2-0.4-0.3-0.4-0.4-0.4c-0.1-0.2-0.1-0.3-0.3-0.4c0-0.1-0.1-0.2,0.1,0
									c-0.1-0.1-0.4-0.8-0.5-0.8C29.1,5.1,29,5,29,5c-0.3-0.3-0.3-0.3-0.6-0.5l0.1,0.1c-0.2,0-0.3-0.1-0.6-0.2l0,0
									c-0.3-0.1-0.4-0.1-0.5-0.1c-0.1,0-0.1,0-0.5,0l0,0c0,0.1-0.6,0.1-0.9,0.4l0.1-0.1c-0.1,0.1-0.5,0.3-0.6,0.5l0,0c0,0,0,0,0,0
									c0,0,0,0,0,0l0,0l0.1-0.1c0,0,0,0.1-0.1,0.1l0,0c-0.3,0.3,0.1,0-0.2,0.3c-0.1,0,0-0.1-0.2,0.1c-0.1,0-0.2,0.3-0.3,0.5
									l-0.1,0.2L25,6.4c0,0,0,0,0.1,0c0,0.1,0.2,0.2,0.2,0.4c0-0.1,0-0.2,0.1,0c0.1,0.2,0.3,0.7,0.5,0.9c0,0,0,0,0,0.1
									c0.1,0.2,0.4,0.6,0.5,0.7c0,0.3,0.7,1.1,0.6,1.2l0.3,0.6l0,0c0.2,0.4,0.3,0.5,0.4,0.6c0,0.1,0,0,0,0c0.3,0.5,0.3,0.6,0.6,1
									l0,0.1c0.1,0.1,0.4,0.8,0.7,1.3c0,0,0,0-0.1,0c0.4,0.6,0.7,1.5,1,1.6l0.3,0.4c-0.3-0.5,0.1,0,0-0.2c0.1,0.2,0.2,0.5,0.1,0.3
									l0,0c-0.1,0,0.3,0.6,0.3,0.7c0.5,1,1.1,2,1.6,2.9l0-0.1l0.2,0.3c0,0.1,0,0.1-0.1-0.1c0,0.1,0.3,0.4,0.3,0.4
									c0.2,0.5-0.2-0.1-0.1,0l0.1,0.2l0,0c0.1,0.1,0.1,0.1,0.3,0.4c0.1,0.2,0,0.1,0,0.2c0,0,0,0,0.1,0.1l0.2,0.4l0-0.2
									c0.1,0.2,0.2,0.4,0.2,0.2c0.1,0.3,0.8,1.5,0.9,1.7c0.2,0.2,0.3,0.5,0.5,0.8c0-0.1,0-0.2,0.1,0.1c-0.2,0,0.2,0.5,0.3,0.8
									c-0.1-0.2,0.4,0.7,0.4,0.4c0.1,0.2,0,0,0,0.2c0.3,0.5,0.6,1.2,1,1.8c0,0,0-0.1,0.1,0l0.1,0.4c0.1,0.1,0.2,0.1,0.2,0.3
									c0,0,0-0.1,0,0c0.1,0.2,0.2,0.3,0.3,0.5l0.1,0.2c0.1,0.1,0.1,0.3,0.1,0.4c0.1,0,0.4-0.1,0.5-0.1l0.4-0.1
									c0.1,0,0.3-0.1,0.4-0.1c0.2,0,0.3,0,0.4-0.1c0.6-0.2,1.1-0.6,1.4-1.2c-0.1,0.2-0.1,0.1,0-0.1c0,0.1,0,0-0.1,0
									c0,0,0.2-0.6,0.2-0.6c0-0.1-0.1-0.7-0.2-0.8l0.1,0.2c-0.1-0.2-0.1,0.4-0.2,0.4c0.1,0.3-0.1,0.7-0.3,1.1
									c-0.1,0.1,0-0.1,0-0.1c0,0.1-0.1,0.2-0.3,0.4l0,0c-0.3,0.2-0.5,0.3-0.8,0.4c-0.1,0-0.2,0-0.4,0c-0.2,0-0.3,0.1-0.6,0.1
									l0.1,0c-0.2,0-0.2,0-0.3,0c0,0,0,0,0.1,0c0.1,0,0.3,0,0.2,0c-0.1,0-0.1,0-0.3,0c-0.1,0-0.2,0-0.2,0c0-0.1,0-0.1-0.1-0.1
									c0-0.1-0.1-0.1-0.1-0.2c-0.1-0.1-0.1-0.2-0.1-0.3c-0.1-0.2,0,0.1-0.1-0.1l0-0.1l-0.1,0c-0.1-0.2-0.1-0.3-0.1-0.3
									c0,0,0.1,0.1,0.1,0.1c-0.1-0.2-0.4-0.6-0.4-0.7l0.1,0.2c-0.4-0.7-0.9-1.5-1.3-2.1l0,0.1c-0.3-0.5-0.2-0.4-0.5-0.9l0,0
									c-0.1-0.1-0.2-0.2-0.3-0.4c0.1,0.1-0.1-0.3,0-0.1c-0.4-0.5-0.2-0.2-0.5-0.6l0-0.1c-0.1-0.1-0.1-0.1-0.3-0.4
									c0.2,0.2-0.1-0.2,0.1,0c-0.3-0.6-0.6-0.8-0.6-1.1c-0.2-0.2,0.2,0.5,0.1,0.4c0,0.1-0.2-0.2-0.3-0.4c-0.1-0.2-0.1-0.4-0.3-0.8
									c0,0,0,0.1,0.1,0.1c-0.1-0.2-0.2-0.3-0.3-0.6c-0.1-0.1-0.2-0.3-0.2-0.3l0.3,0.4c-0.2-0.2-0.4-0.4-0.6-0.8
									c0,0,0.1,0.1,0.2,0.2c0-0.1-0.1-0.2-0.2-0.3c0.1,0,0.3,0.5,0.5,0.7c0-0.1-0.3-0.5-0.2-0.4c-0.2-0.1-0.2-0.5-0.5-0.7l0.1,0
									c0,0-0.1-0.1-0.2-0.2l0.1,0.1c-0.2-0.2-0.2-0.5-0.4-0.7c0.3,0.5,0,0.1,0.1,0.4c-0.4-0.6-0.1-0.4-0.5-1.1
									c0.1,0.1,0.2,0.4,0.1,0.2c-0.1-0.1-0.2-0.3-0.2-0.4c-0.3-0.5,0,0.1-0.1-0.1c0-0.2-0.2-0.2-0.3-0.4l0,0
									c-0.3-0.5-0.2-0.1-0.4-0.6l0.2,0.2l-0.2-0.2l0.1,0c-0.2-0.2-0.2-0.3-0.4-0.6c0,0.1-0.1,0-0.2-0.2c-0.1-0.2,0.1,0.1-0.1-0.3
									c0.1,0.1,0.1,0.1,0.2,0.3c0,0,0.1,0.1,0.1,0.1c-0.1-0.2-0.2-0.4-0.3-0.6c0,0,0.1,0.1,0.1,0.1l-0.3-0.4c0-0.1,0,0,0.1,0
									c-0.1-0.1-0.1-0.2-0.2-0.3c0.1,0,0.1,0,0.2,0.2l-0.3-0.4c0,0-0.1-0.3,0-0.2c-0.1-0.3-0.4-0.6-0.6-0.9c0,0,0,0-0.1-0.1
									c-0.2-0.3-0.3-0.6-0.6-1L28,10.3c-0.2-0.3,0.1,0.3-0.2-0.1c-0.2-0.3,0-0.2-0.1-0.3c-0.1-0.2-0.4-0.4-0.5-0.8
									C27.3,9.2,27.3,9.3,27.4,9.4z M25.5,6.1c0,0.1-0.1,0.2-0.2,0.2c0-0.1,0-0.2,0-0.3c0,0,0,0,0,0c0,0,0,0,0,0l0,0.3
									C25.3,6.2,25.4,6.2,25.5,6.1z M29.8,6.8c0,0-0.1-0.1-0.1-0.2C29.7,6.6,29.8,6.7,29.8,6.8z M34.9,15.8L34.9,15.8
									C35,16,34.9,15.9,34.9,15.8z M34.7,15.5C34.7,15.4,34.7,15.4,34.7,15.5c0,0,0,0.1,0.1,0.2C34.8,15.6,34.8,15.5,34.7,15.5z
									 M32.8,19.8L32.8,19.8C32.9,19.8,32.8,19.8,32.8,19.8z"/>
								<path fill="#393939" d="M29.4,6.2C29.4,6.1,29.4,6.1,29.4,6.2C29.4,6.1,29.4,6.1,29.4,6.2z"/>
								<path fill="#393939" d="M28.7,11.7C28.7,11.7,28.7,11.7,28.7,11.7C28.7,11.7,28.7,11.7,28.7,11.7L28.7,11.7z"/>
								<path fill="#393939" d="M35.9,17.4c0-0.1,0-0.1-0.1-0.1C35.8,17.3,35.8,17.3,35.9,17.4z"/>
								<path fill="#393939" d="M35,15l-0.1-0.2C35,14.9,35,14.9,35,15C35,15,35,14.9,35,15z"/>
								<path fill="#393939" d="M35.8,16.9C35.8,17,35.8,17,35.8,16.9L35.8,16.9C35.8,16.9,35.7,16.8,35.8,16.9z"/>
								<path fill="#393939" d="M35,15.3c0,0,0.1,0.2,0.2,0.3l0,0C35.2,15.6,35.1,15.4,35,15.3z"/>
								<path fill="#393939" d="M35.2,15.6c0,0,0.1,0.1,0.1,0.1C35.3,15.7,35.2,15.7,35.2,15.6z"/>
								<path fill="#393939" d="M34.4,15.1C34.4,15,34.4,15,34.4,15.1C34.3,14.9,34.7,15.4,34.4,15.1z"/>
								<polygon fill="#393939" points="34.9,15.4 35,15.4 34.9,15.3 								"/>
								<path fill="#393939" d="M34.4,14.5C34.4,14.5,34.3,14.5,34.4,14.5L34.4,14.5L34.4,14.5L34.4,14.5L34.4,14.5l0-0.1l0,0l0,0
									l0,0l0,0L34.4,14.5C34.4,14.5,34.4,14.5,34.4,14.5c0.1,0,0.1,0,0.1,0.1c0-0.1-0.1-0.1-0.1-0.2l0,0l0,0L34.4,14.5L34.4,14.5
									L34.4,14.5L34.4,14.5L34.4,14.5L34.4,14.5L34.4,14.5L34.4,14.5C34.3,14.5,34.4,14.5,34.4,14.5z"/>
								<path fill="#393939" d="M34.5,14.6c0,0.1,0.1,0.1,0.1,0.2C34.6,14.7,34.5,14.6,34.5,14.6z"/>
								<polygon fill="#393939" points="34.8,15.1 34.7,15.1 34.6,14.9 								"/>
								<path fill="#393939" d="M35.8,17l0.2,0.2C36,17.3,35.9,17.2,35.8,17C35.8,17,35.8,16.9,35.8,17z"/>
								<path fill="#393939" d="M35.5,16.2c0,0.1,0,0.1,0,0.1l0.1,0L35.5,16.2z"/>
								<path fill="#393939" d="M35.9,16.9C35.9,16.9,36.2,17.2,35.9,16.9C35.9,16.9,35.8,16.7,35.9,16.9z"/>
								<polygon fill="#393939" points="35.8,17 35.8,17 35.9,17 								"/>
								<path fill="#393939" d="M33.6,13.7c0.2,0.3,0.1,0,0.2,0.3c0.1,0.1-0.1-0.2,0-0.2C33.7,13.7,33.6,13.6,33.6,13.7z"/>
								<path fill="#393939" d="M33.8,13.9C33.8,13.9,33.9,13.9,33.8,13.9C33.8,13.9,33.8,13.9,33.8,13.9z"/>
								<path fill="#393939" d="M40.7,25.1c0,0,0-0.3,0-0.3L40.7,25.1L40.7,25.1z"/>
								<path fill="#393939" d="M40.5,24.7L40.5,24.7l-0.1-0.2C40.4,24.6,40.5,24.7,40.5,24.7z"/>
								<path fill="#393939" d="M26,5.7L26,5.7c0,0-0.1,0-0.1,0.1L26,5.7z"/>
								<polygon fill="#393939" points="26.5,7.9 26.5,7.8 26.5,7.9 								"/>
								<path fill="#393939" d="M27.8,10c-0.1-0.1-0.1-0.2-0.2-0.3C27.8,10,27.8,10.1,27.8,10z"/>
							</g>
						</g>
					</g>
				</g>
			</g>
			<path fill="#3D76DE" d="M37.2,11.7l1.9,3.3l-2.4,3.6L32.9,12L37.2,11.7z M37.2,11.7"/>
			<g>
				<g>
					<path fill="none" d="M37.5,27.6l0,0.1l-18.6,3.7l-5.7-9.9L25.2,6.2l0.1,0.1L37.5,27.6z M37.5,27.6"/>
					<path fill="none" stroke="#353535" stroke-width="0.1" stroke-miterlimit="10" d="M37.5,27.6"/>
					<g>
						<g>
							<g>
								<path fill="#393939" d="M37.7,27.4C37.8,27.5,37.8,27.4,37.7,27.4C37.7,27.3,37.7,27.4,37.7,27.4z"/>
								<polygon fill="#393939" points="36.7,25.8 36.7,25.9 36.6,25.7 								"/>
								<path fill="#393939" d="M35.9,24.4c0,0.2,0.3,0.5,0.4,0.8l0,0.1l0.1,0.1C36.2,25,36,24.6,35.9,24.4z"/>
								<path fill="#393939" d="M35.5,23.5c0,0.1-0.1-0.2,0.1,0.2c0,0,0,0,0,0C35.6,23.6,35.6,23.6,35.5,23.5z"/>
								<path fill="#393939" d="M35.6,23.7C35.7,23.8,35.6,23.5,35.6,23.7L35.6,23.7z"/>
								<path fill="#393939" d="M35.2,23l0.1,0.2C35.3,23.1,35.2,22.9,35.2,23C35.1,22.8,35.2,22.8,35.2,23z"/>
								<path fill="#393939" d="M35,22.8l0.1,0.1C35.1,22.9,35.1,22.8,35,22.8z"/>
								<path fill="#393939" d="M35.3,23.1l-0.1-0.2c0,0,0,0.1,0.1,0.1C35.2,23,35.2,23,35.3,23.1z"/>
								<path fill="#393939" d="M35.3,23.2C35.4,23.4,35.5,23.5,35.3,23.2C35.6,23.7,35.6,23.6,35.3,23.2z"/>
								<path fill="#393939" d="M35.8,24.3l0.1,0.2l0.1,0.1C35.9,24.6,35.8,24.3,35.8,24.3z"/>
								<path fill="#393939" d="M34.5,21.7c0,0,0,0.1,0,0.1l0.1,0.1C34.6,21.8,34.5,21.7,34.5,21.7z"/>
								<path fill="#393939" d="M34.5,21.8l-0.2-0.2C34.5,21.8,34.5,21.8,34.5,21.8z"/>
								<polygon fill="#393939" points="35,22.8 35.2,23.1 34.9,22.7 								"/>
								<polygon fill="#393939" points="34,20.8 34.1,20.9 33.9,20.7 								"/>
								<path fill="#393939" d="M33.7,20.2C33.7,20.3,33.6,20.1,33.7,20.2c-0.1-0.2-0.2-0.3-0.2-0.4C33.5,19.9,33.6,20,33.7,20.2z"
									/>
								<path fill="#393939" d="M33.3,19.6c0,0,0.1,0.1,0.1,0.2C33.4,19.7,33.3,19.7,33.3,19.6z"/>
								<path fill="#393939" d="M34.1,21.2c0,0,0-0.1-0.1-0.2L34.1,21.2C34.1,21.1,34.1,21.1,34.1,21.2z"/>
								<path fill="#393939" d="M34.1,21.1L34.1,21.1C34,21,34,20.9,34,20.9C34,20.9,34,21,34.1,21.1z"/>
								<path fill="#393939" d="M34.1,21.2L34.1,21.2C34.1,21.2,34.1,21.2,34.1,21.2z"/>
								<path fill="#393939" d="M34.6,22.2c-0.1-0.1-0.3-0.4-0.2-0.1C34.6,22.2,34.5,22,34.6,22.2z"/>
								<path fill="#393939" d="M34.2,21.3l0.1,0.2c0,0,0-0.1,0,0L34.2,21.3z"/>
								<polygon fill="#393939" points="34.1,21.2 34.2,21.3 34.1,21.2 								"/>
								<path fill="#393939" d="M33.5,20c-0.1-0.1-0.1-0.2-0.2-0.3C33.3,19.9,33.4,20,33.5,20C33.5,20.1,33.6,20.2,33.5,20z"/>
								<path fill="#393939" d="M33.8,20.5L33.8,20.5C33.8,20.5,33.8,20.6,33.8,20.5z"/>
								<polygon fill="#393939" points="32.5,18.4 32.5,18.5 32.6,18.5 								"/>
								<path fill="#393939" d="M33.5,20.1c0.1,0.1,0.1,0.2,0.1,0.2C33.6,20.3,33.5,20.2,33.5,20.1C33.5,20.1,33.5,20.1,33.5,20.1z"
									/>
								<path fill="#393939" d="M33.1,19.3c0,0.1,0.1,0.1,0.1,0.2C33.1,19.4,33.1,19.3,33.1,19.3z"/>
								<path fill="#393939" d="M33.7,20.5L33.7,20.5C33.7,20.5,33.7,20.5,33.7,20.5z"/>
								<path fill="#393939" d="M33.7,20.5c0,0-0.1-0.1-0.1-0.1C33.7,20.4,33.7,20.5,33.7,20.5C33.8,20.5,33.7,20.5,33.7,20.5z"/>
								<path fill="#393939" d="M32.1,18.2c0,0,0.2,0.3,0.3,0.5c0.2,0.2,0.2,0,0.1-0.2c0,0,0,0-0.2-0.2c0,0.1,0.3,0.6,0.1,0.4
									c-0.2-0.3-0.1-0.3-0.2-0.4c0,0.2-0.3-0.4-0.3-0.3L32.1,18.2C32.1,18.2,32,18.1,32.1,18.2z"/>
								<path fill="#393939" d="M32.8,18.9L32.8,18.9c0,0,0-0.1-0.1-0.3c-0.1-0.2-0.1-0.2-0.2-0.2L32.8,18.9L32.8,18.9z"/>
								<path fill="#393939" d="M33.1,19.4c-0.1-0.1-0.2-0.3-0.2-0.1c0.2,0.3,0.1,0.2,0.3,0.3C32.9,19.2,33.3,19.8,33.1,19.4
									c0.1,0.1,0.1,0.2,0.2,0.2C33.2,19.6,33.2,19.5,33.1,19.4L33.1,19.4L33.1,19.4L33.1,19.4C33.2,19.5,33.2,19.5,33.1,19.4
									L33.1,19.4C33.1,19.5,33.1,19.5,33.1,19.4C33,19.3,33.1,19.4,33.1,19.4L33.1,19.4L33.1,19.4L32.9,19
									C32.9,19.1,33,19.2,33.1,19.4z"/>
								<path fill="#393939" d="M34.3,21.9C34.3,21.9,34.3,21.9,34.3,21.9C34.2,21.8,34.2,21.8,34.3,21.9z"/>
								<path fill="#393939" d="M34.2,21.7c0,0,0.1,0.1,0.1,0.2c0,0.1,0,0,0,0c0,0.1,0.2,0.2,0.1,0l0,0c-0.1-0.2-0.2-0.5-0.2-0.4
									C34.1,21.5,34.1,21.5,34.2,21.7z"/>
								<path fill="#393939" d="M33.6,20.6l-0.2-0.4l0.1,0.2l0,0C33.6,20.6,33.6,20.5,33.6,20.6z"/>
								<polygon fill="#393939" points="32.5,18.4 32.6,18.4 32.4,18.2 								"/>
								<polygon fill="#393939" points="32.2,17.9 32.3,17.9 32.2,17.8 								"/>
								<path fill="#393939" d="M13.6,21.2l-0.1,0.1C13.6,21.3,13.6,21.3,13.6,21.2z"/>
								<path fill="#393939" d="M14.2,20.5L14.2,20.5C14.2,20.5,14.2,20.5,14.2,20.5z"/>
								<path fill="#393939" d="M24.6,6.4c-0.2,0.1-0.3,0.3-0.3,0.3l0.1,0C24.5,6.6,24.6,6.5,24.6,6.4z"/>
								<path fill="#393939" d="M18.8,14.3L18.8,14.3c0.1-0.1,0.1-0.1,0.1-0.2C18.9,14.2,18.9,14.2,18.8,14.3z"/>
								<path fill="#393939" d="M18.9,14.5l-0.2,0.2C18.8,14.6,18.8,14.6,18.9,14.5z"/>
								<path fill="#393939" d="M15.8,25.4l0.1,0.1C15.8,25.3,15.9,25.4,15.8,25.4z"/>
								<path fill="#393939" d="M29.3,12.8c-0.1-0.2-0.1-0.3-0.2-0.4C29.2,12.6,29.2,12.7,29.3,12.8z"/>
								<path fill="#393939" d="M13.5,20.7c0,0.1-0.1,0.1,0,0.1C13.5,20.7,13.5,20.7,13.5,20.7z"/>
								<path fill="#393939" d="M28.8,12C28.9,12,28.9,12,28.8,12c0.1,0.2,0.2,0.3,0.2,0.4C29,12.3,28.9,12.1,28.8,12z"/>
								<path fill="#393939" d="M30.7,28.8C30.7,28.8,30.7,28.8,30.7,28.8C30.8,28.8,30.7,28.8,30.7,28.8z"/>
								<path fill="#393939" d="M36.2,28.2c-0.1,0-0.1,0-0.2,0C36,28.2,36,28.2,36.2,28.2z"/>
								<path fill="#393939" d="M31.1,15.9C31.2,16,31.1,15.9,31.1,15.9L31.1,15.9z"/>
								<path fill="#393939" d="M31.2,16.5C31.2,16.4,31.2,16.4,31.2,16.5C31.2,16.4,31.2,16.4,31.2,16.5z"/>
								<path fill="#393939" d="M28,11.1L28,11.1C28,11.1,28,11.1,28,11.1z"/>
								<path fill="#393939" d="M31.2,16c0,0,0-0.1-0.1-0.1C31.1,15.9,31.1,16,31.2,16z"/>
								<path fill="#393939" d="M31.2,16C31.2,16,31.2,16.1,31.2,16C31.2,16.1,31.2,16.1,31.2,16z"/>
								<path fill="#393939" d="M31,15.7c0,0.1,0.1,0.1,0.1,0.2c0,0,0,0,0,0C31.1,15.8,31,15.8,31,15.7z"/>
								<path fill="#393939" d="M20.9,30.8C20.9,30.8,20.9,30.8,20.9,30.8C21,30.8,21,30.8,20.9,30.8z"/>
								<polygon fill="#393939" points="23,9.2 23,9.2 23,9.2 								"/>
								<path fill="#393939" d="M22.8,9.6c0.1-0.2,0.1-0.3,0.2-0.4l-0.2,0L22.8,9.6z"/>
								<path fill="#393939" d="M14.4,22.9l-0.1-0.3c0.2,0.3,0.4,0.5,0.3,0.3c-0.1,0-0.6-1-0.8-1l-0.1-0.2c0,0,0,0.1,0.1,0.1
									c-0.1-0.2-0.1-0.2-0.2-0.3c0,0-0.1,0-0.1-0.1c0,0,0-0.1,0.1-0.1c0.1-0.1,0.2-0.2,0.1-0.1l0.2-0.3c0.1-0.1,0.1-0.1,0,0
									l0.4-0.5l0,0c0-0.1,0.1-0.3,0.2-0.3c0.1-0.1,0,0.1,0,0l0.2-0.3c0.1-0.1,0,0.2-0.2,0.3c0.3-0.2,0.1-0.2,0.6-0.7l-0.2,0.3
									c0.2-0.1,0.3-0.3,0.6-0.6c-0.1,0.1-0.5,0.5-0.3,0.2c0.1-0.1,0.2-0.2,0.3-0.3c0,0,0.1-0.1,0.3-0.3l0,0.1
									c0.1-0.2,0.1-0.2,0.2-0.4c0.2-0.2,0.3-0.2,0.3-0.3c0.3-0.4-0.3,0.2,0.1-0.2c0.3-0.3,0.4-0.5,0.7-0.9c0.2-0.2,0,0.1,0.1,0
									l0.1-0.2c0,0,0,0,0,0c0.1-0.2,0-0.1,0.1-0.3c0-0.1,0.5-0.4,0.7-0.8c0.1-0.1,0,0.1,0,0.1c0.3-0.5,0.3-0.4,0.5-0.8l0.3-0.3
									c-0.2,0.2,0-0.1,0.1-0.4c-0.1,0.1-0.2,0.1-0.2,0.2l0.3-0.4c0,0,0,0,0,0.1c0,0,0-0.1,0-0.1c0.1-0.1,0.1,0,0.1,0.1l-0.1,0.1
									c0,0.1-0.1,0.2,0,0.2c0,0,0-0.1,0.1-0.1c0,0,0,0.1,0,0c0,0,0-0.1,0.1-0.1l0.1,0l0,0l0.4-0.5c0.2-0.4,0.4-0.8,0.8-1.4
									c-0.1,0.2,0,0.1,0.1,0.1c-0.2,0.1-0.3,0.5-0.6,0.8C20,13,20,13.1,20,13.1l0.4-0.6c0,0,0.1-0.1,0.2-0.2
									c-0.2,0,0.3-0.4,0.4-0.7c0,0,0,0.1-0.2,0.3c0.3-0.2,0.2-0.4,0.5-0.7c-0.1,0.1-0.1,0.1-0.1,0.1c0.1-0.2,0.4-0.5,0.4-0.4
									l0,0.1c0.3-0.4,1-1.3,1-1.4c0,0,0,0.1,0,0.2l0.4-0.9c0,0.1,0.3,0,0.1,0.3c0.1-0.1,0.2-0.2,0.3-0.4c-0.1,0.1-0.2,0.1-0.1,0
									c0.3-0.2,0.2-0.2,0.5-0.4c-0.1,0.1-0.1-0.1,0-0.3c0,0,0.1,0.1,0.1,0.1L24,7.7c-0.1,0.1,0.1,0.1,0.2,0
									c-0.1,0,0.3-0.4,0.4-0.5l-0.2,0.2c0.4-0.4,0.2-0.6,0.6-1c0,0.1,0,0.2,0.1,0.1c0,0,0-0.1,0.1-0.2c0,0,0.1,0,0.2,0
									c0.1,0,0.1,0.1,0.2,0.2c0.1,0.1,0.2,0.2,0.2,0.3l0,0.1L26,7.4c-0.1-0.1-0.3-0.3-0.5-0.4c-0.2-0.2-0.3-0.3-0.4-0.3
									c0,0.1,0,0.1,0.1,0.2c0,0-0.1,0-0.1,0c0,0,0,0,0.1,0.1c0.1,0.2,0.2,0.3,0.2,0.3c0-0.1,0.4,0.5,0.4,0.4l-0.5-0.7
									c0-0.1,0.4,0.3,0.7,0.8c0,0.1-0.2,0-0.2,0c0.1,0,0.3,0.4,0.3,0.5L26,8c0.1,0.3,0.3,0.4,0.5,0.7c0.1,0.1,0.1,0.4,0.2,0.4
									c0-0.2,0.1-0.4,0.3-0.3c0,0,0.3,0.6,0.3,0.8c0.1,0.2-0.3-0.2-0.2,0c0,0,0.1,0.1,0.1,0.1c0.1,0.1-0.1,0,0.1,0.2
									c0.1,0,0.3,0.5,0.1,0.1c0.2,0.2,0.1,0.3,0.3,0.5c0-0.1,0.3,0.2,0.4,0.4c0,0,0,0.1,0,0.1c0.3,0.5,0.4,0.8,0.7,1.2
									c0,0.1,0.1,0.3,0,0.2c0,0.1,0.1,0.1,0.2,0.3c0.1,0.3-0.2-0.3-0.1-0.1c0,0,0.3,0.3,0.4,0.5c0-0.1-0.3-0.5-0.4-0.7
									c0.1,0,0.4,0.3,0.7,0.7c0.2,0.4,0,0.2,0.1,0.3c0.4,0.7,0.5,0.5,0.8,1.2c0.1,0.3-0.1,0.1-0.1,0.1c-0.2-0.3-0.2-0.5-0.4-0.7
									l0.1,0.3c-0.1-0.1-0.2-0.3-0.3-0.4c0.1,0.2,0.7,1.2,1,1.8c0.1,0.1,0.2,0.3,0.2,0.2l-0.1-0.2c-0.1-0.2,0.2,0.3,0.1,0.1
									c0.2,0.2,0.4,0.5,0.5,0.8l0,0.1c0,0-0.1-0.2-0.2-0.3c0.1,0.1,0.2,0.6,0.4,0.7l-0.1-0.3c0.2,0.2,0.4,0.5,0.5,0.8
									c0-0.2,0-0.1-0.1-0.3c0,0.2-0.4-0.8-0.3-0.4c-0.1-0.3-0.2-0.4-0.3-0.7c0,0,0,0.1-0.1-0.1c0,0,0,0,0,0l0,0l0,0c0,0,0,0,0,0
									c0,0.1,0,0.1,0,0.1c-0.1-0.1-0.3-0.5-0.4-0.6c-0.1-0.2,0.1,0.1,0,0l-0.1-0.2c0,0-0.2-0.4,0.1-0.1l-0.2-0.3
									c-0.1-0.2-0.2-0.5-0.3-0.6c-0.1-0.2-0.3-0.3-0.2-0.2l-0.3-0.5l0,0c-0.3-0.5-0.6-1-0.9-1.6c-0.1-0.2-0.2-0.3-0.4-0.6l0-0.1
									c-0.1-0.2-0.3-0.6-0.4-0.7c0-0.3-0.6-1-0.8-1.4l-0.1,0C27.1,9,27,8.8,26.8,8.5l0,0c-0.2-0.3-0.4-0.7-0.6-1.1
									c0,0,0.1,0.1,0.1,0.2c-0.1-0.3-0.3-0.5-0.4-0.8c-0.2-0.2-0.4-0.7-0.7-0.9C25,6,25,6.1,24.9,6.2c0,0,0,0,0,0c0,0,0,0-0.1,0.1
									c-0.1,0.1-0.1,0.1-0.2,0.2c0.1-0.1,0.1-0.1,0.2-0.2c0,0.1-0.1,0.1-0.2,0.2c0,0.1-0.1,0.1-0.1,0.2l-0.1,0c0,0,0,0,0,0
									c-0.1,0.1-0.1,0.1,0,0.1c0,0.1-0.1,0.1-0.1,0.2c-0.1,0-0.2,0.3-0.4,0.4c0,0.1-0.5,0.6-0.4,0.7c0,0,0,0,0,0
									c-0.1,0.1-0.2,0.3-0.3,0.4l-0.1,0l-0.2,0.3c-0.2,0.2-0.2,0.2-0.1,0c-0.3,0.5-0.3,0.4-0.5,0.8l0,0C22.2,9.7,22.1,10,22,10
									c-0.3,0.2-1.1,1.4-1.8,2.1c0.2-0.1-0.3,0.3-0.3,0.4c-0.1,0-0.1,0.1-0.1,0c-0.3,0.4-0.5,0.5-0.6,0.9c-0.1,0,0-0.1,0-0.1
									c0,0-0.1,0.1-0.1,0.2c0,0,0-0.1,0.1-0.1c-0.3,0.4-0.3,0.5-0.2,0.6c-0.2,0.2-0.3,0.3-0.3,0.4c-0.1,0.1-0.2,0.2,0-0.1
									c-0.1,0.1-0.7,0.8-0.6,0.9c0,0-0.2,0.2-0.2,0.2c-0.2,0.3-0.3,0.3-0.5,0.6l0.1-0.1c0,0.2-0.2,0.3-0.4,0.5l0,0
									c-0.5,0.5-0.2,0.3-0.6,0.8l0.1,0c0,0.1-0.4,0.4-0.6,0.8l0.1-0.1c-0.1,0.2-0.5,0.4-0.6,0.6c0,0,0-0.1,0.1-0.1
									c-0.4,0.4,0,0.1-0.3,0.4c-0.1,0,0-0.1-0.2,0.1c-0.1,0.1-0.4,0.7-0.7,1c0.1-0.1,0.1-0.1,0,0.1c-0.2,0.2-0.6,0.6-0.7,0.9
									c0,0,0,0-0.1,0c-0.1,0.2-0.3,0.4-0.4,0.6c0.1,0.1,0.2,0.2,0.2,0.3c0,0.3,0.8,1.2,0.7,1.3l0.4,0.6l0,0
									c0.2,0.4,0.3,0.5,0.4,0.6c0,0.1,0,0,0,0c0.3,0.6,0.3,0.7,0.7,1.1l0,0.1c0.1,0.1,0.4,0.9,0.8,1.4c0,0,0,0-0.1-0.1
									c0.4,0.6,0.8,1.6,1.1,1.8l0.3,0.4c-0.3-0.6,0.1,0,0-0.2c0.1,0.2,0.3,0.6,0.1,0.3l0,0c-0.1-0.1,0.4,0.7,0.3,0.7
									c0.3,0.6,0.7,1.2,1,1.8c0.6-0.1,1.3-0.2,1.9-0.3l-0.1,0l0.4-0.1c0.1,0,0.2,0-0.1,0.1c0.2,0,0.5-0.1,0.5-0.1
									c0.6-0.1-0.2,0.1,0,0.1l0.2-0.1l-0.1,0c0.2-0.1,0.2-0.1,0.5-0.2c0.2,0,0.1,0,0.2,0c0,0,0,0,0.1,0l0.5-0.1l-0.2,0
									c0.2-0.1,0.5-0.1,0.2-0.1c0.4,0,1.9-0.3,2.1-0.3c0.3-0.1,0.6-0.2,1-0.2c-0.1,0-0.2,0,0.2-0.1c-0.1,0.2,0.6-0.1,0.9,0
									c-0.3,0,0.9-0.2,0.5-0.2c0.3,0,0,0,0.2,0c0.6-0.2,1.5-0.3,2.3-0.4c0,0-0.1,0,0-0.1l0.4,0c0.2,0,0.1-0.1,0.4-0.1
									c0,0-0.1,0,0,0c1.6-0.2,3.2-0.7,4.9-0.9c-0.2,0-0.1,0,0.1-0.1c-0.1,0,0,0,0-0.1l0.7-0.1c0.1-0.1,0.7-0.1,0.8-0.2l-0.2,0.1
									c0.3-0.1-0.4-0.1-0.4-0.2c-0.3,0.1-0.9,0-1.4,0.3c-0.1,0,0.1,0,0-0.1c-0.1,0.1-0.3,0.1-0.6,0.1l0,0
									c-0.8,0.2-1.2,0.2-2.1,0.4l0.1,0c-0.2,0-0.2,0-0.3,0c-0.2,0.1,0.6-0.1,0.4,0c-0.3,0-1.4,0.3-1.6,0.2c-0.3,0.1,0.1,0-0.2,0.1
									l-0.1,0l-0.1,0.1c-0.2,0-0.3,0-0.3,0c0,0,0.1,0,0.2,0c-0.3,0-0.7,0.2-0.8,0.2l0.3,0c-0.8,0.2-1.9,0.4-2.7,0.6l0.1,0
									c-0.6,0.2-0.5,0.1-1.2,0.2l0,0c-0.1,0-0.3,0.1-0.5,0.1c0.2-0.1-0.3,0-0.1-0.1C25.1,30,25.5,29.9,25,30l-0.1,0
									c-0.1,0.1-0.2,0.1-0.5,0.2c0.3-0.1-0.2,0,0.1-0.1c-0.7,0.1-1,0.3-1.4,0.2c-0.3,0.2,0.6-0.1,0.5,0c0.2,0-0.3,0.1-0.5,0.2
									c-0.2,0-0.4-0.1-1,0.1c0,0,0.1,0,0.1,0c-0.2,0-0.4,0.1-0.7,0.1c-0.1,0.1-0.3,0.1-0.4,0.1l0.5-0.1c-0.3,0.1-0.6,0.2-1.1,0.3
									c0,0,0.2-0.1,0.3-0.1c-0.1,0-0.3,0.1-0.4,0.1c0-0.1,0.6-0.1,0.9-0.3c-0.2,0-0.6,0.2-0.5,0.1c-0.2,0.2-0.6,0.1-0.9,0.3l0-0.1
									c-0.1,0-0.2,0.1-0.3,0.1l0.2-0.1c-0.2,0.1-0.3,0.1-0.5,0.1c-0.1,0-0.3,0-0.3,0c0.1,0,0.1,0,0.2,0c0,0,0.1,0,0.1,0
									c0,0-0.1,0.1,0.1,0c-0.3,0.1-0.3,0.1-0.4,0.1c0-0.1,0-0.1,0-0.1c0-0.1-0.1-0.2-0.2-0.5c0.1,0.1,0.2,0.4,0.1,0.3
									c-0.1-0.2-0.2-0.4-0.2-0.5c-0.3-0.5,0,0.1-0.1-0.1c-0.1-0.2-0.2-0.2-0.3-0.5l0,0c-0.3-0.6-0.2-0.1-0.4-0.6l0.2,0.2L17.8,29
									l0.1,0c-0.2-0.3-0.3-0.4-0.4-0.7c0,0.1-0.1,0-0.2-0.3c-0.1-0.2,0.1,0.1-0.1-0.3c0.1,0.1,0.2,0.1,0.2,0.3
									c0,0,0.1,0.1,0.1,0.1c-0.1-0.2-0.3-0.5-0.3-0.6c0,0.1,0.1,0.1,0.1,0.1l-0.4-0.5c0-0.1,0,0,0.1,0c-0.1-0.1-0.1-0.2-0.2-0.3
									c0.1,0,0.1,0,0.2,0.2l-0.3-0.5c0,0-0.1-0.3-0.1-0.2c-0.1-0.3-0.5-0.7-0.7-1c0,0,0-0.1-0.1-0.1c-0.2-0.4-0.3-0.7-0.6-1.1
									L15,23.9c-0.2-0.3,0.1,0.4-0.2-0.2c-0.2-0.4,0-0.2-0.1-0.3c-0.1-0.2-0.4-0.5-0.5-0.8C14.2,22.7,14.3,22.8,14.4,22.9z
									 M15.1,19.4c0,0.1-0.1,0.2-0.2,0.3C14.9,19.5,15,19.5,15.1,19.4z M19.3,13.8c0,0.1-0.1,0.1-0.2,0.2
									C19.2,13.9,19.2,13.9,19.3,13.8z M30.4,14.7L30.4,14.7C30.3,14.5,30.3,14.6,30.4,14.7z M30.6,15.1
									C30.6,15.1,30.6,15.1,30.6,15.1c0,0,0-0.1-0.1-0.2C30.5,14.9,30.5,15,30.6,15.1z M22.2,30.9L22.2,30.9
									C22.3,30.9,22.3,30.9,22.2,30.9z"/>
								<path fill="#393939" d="M18.9,14.5C18.9,14.5,18.8,14.5,18.9,14.5C18.8,14.5,18.8,14.5,18.9,14.5z"/>
								<path fill="#393939" d="M15.8,25.4L15.8,25.4C15.8,25.4,15.8,25.4,15.8,25.4L15.8,25.4z"/>
								<path fill="#393939" d="M27,9.7c0-0.1-0.1-0.1-0.1-0.2C26.9,9.6,26.9,9.6,27,9.7z"/>
								<path fill="#393939" d="M31.7,17l-0.1-0.2C31.7,16.8,31.7,16.9,31.7,17C31.7,16.9,31.7,16.9,31.7,17z"/>
								<path fill="#393939" d="M32.6,19.1c0,0.1,0,0.1,0.1,0.1L32.6,19.1C32.6,19,32.6,18.9,32.6,19.1z"/>
								<path fill="#393939" d="M31.7,17.2c0,0,0.1,0.2,0.2,0.3l0,0C32,17.6,31.8,17.4,31.7,17.2z"/>
								<path fill="#393939" d="M31.9,17.6c0,0.1,0.1,0.1,0.1,0.1C32,17.8,32,17.7,31.9,17.6z"/>
								<path fill="#393939" d="M30.9,15.5C30.9,15.6,30.9,15.6,30.9,15.5C31,15.7,30.6,15.1,30.9,15.5z"/>
								<polygon fill="#393939" points="31.7,17.4 31.7,17.4 31.6,17.3 								"/>
								<path fill="#393939" d="M31,16.2l0.1,0.3c0,0,0,0,0.1,0.1C31.1,16.3,31,16.1,31,16.2z"/>
								<path fill="#393939" d="M31.2,16.5c0,0.1,0.1,0.2,0.1,0.2C31.3,16.6,31.2,16.6,31.2,16.5z"/>
								<polygon fill="#393939" points="31.5,17.1 31.4,17 31.3,16.8 								"/>
								<path fill="#393939" d="M29.4,13.4l-0.2-0.3c0,0,0,0.1,0.1,0.2C29.3,13.3,29.4,13.4,29.4,13.4z"/>
								<path fill="#393939" d="M29.8,14.3c0-0.1,0-0.1,0-0.1l-0.1,0L29.8,14.3z"/>
								<path fill="#393939" d="M29.3,13.5C29.2,13.5,29,13.1,29.3,13.5C29.2,13.5,29.4,13.7,29.3,13.5z"/>
								<polygon fill="#393939" points="26.9,9.2 26.9,9.3 27,9.2 								"/>
								<path fill="#393939" d="M24.9,7C25,6.9,25,6.8,25,6.8c0,0,0-0.1,0.1-0.1c0,0,0,0,0,0c0,0-0.1,0.1-0.1,0
									C24.8,7,24.7,7,24.9,7z"/>
								<path fill="#393939" d="M24.9,6.8C25,6.7,25,6.7,24.9,6.8C25,6.7,25,6.7,24.9,6.8z"/>
								<polygon fill="#393939" points="37.1,28 37.3,28 37.1,28 								"/>
								<path fill="#393939" d="M37.5,27.9L37.5,27.9L37.5,27.9l0.3-0.1l-0.1-0.1l-0.1-0.1c0,0,0,0.1,0,0.1l0,0.2L37.5,27.9
									C37.6,27.9,37.5,27.9,37.5,27.9z"/>
								<path fill="#393939" d="M15.6,18.9L15.6,18.9c0,0-0.1,0-0.1,0.1L15.6,18.9z"/>
								<polygon fill="#393939" points="13.6,21.4 13.6,21.4 13.5,21.4 								"/>
								<path fill="#393939" d="M14.9,23.6c-0.1-0.1-0.1-0.2-0.2-0.3C14.8,23.5,14.8,23.7,14.9,23.6z"/>
							</g>
						</g>
					</g>
				</g>
			</g>
			<path fill="#3D76DE" d="M13.2,21.4l5.7,9.9c-2.6,1.5-5.6,3.3-8.3,4.8c-2.7,1.6-6.3,0.6-7.8-2.1c-1.6-2.7-0.7-6.2,2.1-7.8
				L13.2,21.4z M13.2,21.4"/>
		</g>
		<g>
			<g>
				<g>
					<g>
						<g>
							<path fill="#393939" d="M37.1,10.4C37.1,10.5,37.1,10.5,37.1,10.4C37.1,10.5,37.1,10.4,37.1,10.4z"/>
							<polygon fill="#393939" points="37.1,10.2 37.1,10.2 37.1,10.2 							"/>
							<path fill="#393939" d="M37.2,10.1C37.1,10.1,37.2,10.1,37.2,10.1L37.2,10.1l0,0.1C37.2,10.1,37.2,10.1,37.2,10.1z"/>
							<path fill="#393939" d="M37.4,10.1C37.4,10.1,37.4,10,37.4,10.1L37.4,10.1C37.4,10.1,37.4,10.1,37.4,10.1z"/>
							<path fill="#393939" d="M37.4,10.1C37.4,10.1,37.4,10.1,37.4,10.1L37.4,10.1z"/>
							<path fill="#393939" d="M37.4,10L37.4,10C37.4,10,37.5,10,37.4,10C37.5,10,37.5,10,37.4,10z"/>
							<path fill="#393939" d="M37.4,9.9L37.4,9.9C37.4,10,37.4,10,37.4,9.9z"/>
							<path fill="#393939" d="M37.4,10L37.4,10C37.4,10,37.4,10,37.4,10C37.4,10,37.4,10,37.4,10z"/>
							<path fill="#393939" d="M37.4,10C37.4,10,37.3,10,37.4,10C37.3,10,37.4,10.1,37.4,10z"/>
							<path fill="#393939" d="M37.2,10L37.2,10L37.2,10C37.1,10,37.2,10,37.2,10z"/>
							<path fill="#393939" d="M37.5,9.9C37.5,9.9,37.5,9.9,37.5,9.9L37.5,9.9C37.5,9.9,37.5,9.9,37.5,9.9z"/>
							<path fill="#393939" d="M37.5,9.9L37.5,9.9C37.4,9.8,37.5,9.8,37.5,9.9z"/>
							<polygon fill="#393939" points="37.3,9.9 37.3,10 37.3,9.9 							"/>
							<polygon fill="#393939" points="37.6,9.8 37.6,9.8 37.6,9.8 							"/>
							<path fill="#393939" d="M37.6,9.7C37.6,9.7,37.7,9.7,37.6,9.7C37.7,9.7,37.7,9.7,37.6,9.7C37.6,9.7,37.6,9.7,37.6,9.7z"/>
							<path fill="#393939" d="M37.6,9.6C37.6,9.6,37.6,9.7,37.6,9.6C37.6,9.7,37.6,9.6,37.6,9.6z"/>
							<path fill="#393939" d="M37.5,9.8C37.5,9.8,37.5,9.8,37.5,9.8L37.5,9.8L37.5,9.8z"/>
							<path fill="#393939" d="M37.5,9.8L37.5,9.8C37.5,9.8,37.5,9.7,37.5,9.8C37.5,9.7,37.5,9.8,37.5,9.8z"/>
							<path fill="#393939" d="M37.5,9.8L37.5,9.8C37.5,9.8,37.5,9.8,37.5,9.8z"/>
							<path fill="#393939" d="M37.4,9.9C37.4,9.8,37.4,9.8,37.4,9.9C37.3,9.8,37.4,9.8,37.4,9.9z"/>
							<path fill="#393939" d="M37.4,9.8L37.4,9.8C37.4,9.8,37.4,9.8,37.4,9.8L37.4,9.8z"/>
							<polygon fill="#393939" points="37.4,9.7 37.4,9.8 37.4,9.8 							"/>
							<path fill="#393939" d="M37.6,9.7C37.6,9.6,37.6,9.6,37.6,9.7C37.6,9.6,37.5,9.6,37.6,9.7C37.5,9.7,37.6,9.7,37.6,9.7z"/>
							<path fill="#393939" d="M37.5,9.7L37.5,9.7C37.5,9.7,37.5,9.7,37.5,9.7z"/>
							<polygon fill="#393939" points="37.6,9.5 37.6,9.5 37.6,9.5 							"/>
							<path fill="#393939" d="M37.5,9.6C37.5,9.7,37.5,9.7,37.5,9.6C37.5,9.7,37.5,9.7,37.5,9.6C37.5,9.6,37.5,9.6,37.5,9.6z"/>
							<path fill="#393939" d="M37.6,9.6L37.6,9.6C37.6,9.6,37.6,9.6,37.6,9.6z"/>
							<path fill="#393939" d="M37.5,9.7L37.5,9.7C37.6,9.7,37.5,9.7,37.5,9.7z"/>
							<path fill="#393939" d="M37.5,9.7C37.5,9.7,37.5,9.7,37.5,9.7C37.5,9.7,37.5,9.7,37.5,9.7L37.5,9.7z"/>
							<path fill="#393939" d="M37.4,9.3C37.4,9.3,37.5,9.4,37.4,9.3c0,0.1,0.1,0.2,0.2,0.2c0,0,0,0,0-0.1c0,0-0.1,0-0.1,0
								c0,0,0,0,0.1,0C37.5,9.4,37.5,9.3,37.4,9.3L37.4,9.3C37.4,9.3,37.4,9.3,37.4,9.3z"/>
							<path fill="#393939" d="M37.6,9.5L37.6,9.5C37.6,9.5,37.6,9.5,37.6,9.5C37.7,9.5,37.6,9.5,37.6,9.5L37.6,9.5L37.6,9.5z"/>
							<path fill="#393939" d="M37.6,9.6C37.5,9.6,37.5,9.5,37.6,9.6C37.5,9.5,37.5,9.6,37.6,9.6C37.5,9.5,37.5,9.6,37.6,9.6
								C37.6,9.6,37.6,9.6,37.6,9.6L37.6,9.6L37.6,9.6L37.6,9.6L37.6,9.6C37.6,9.6,37.6,9.6,37.6,9.6L37.6,9.6L37.6,9.6
								C37.6,9.6,37.6,9.6,37.6,9.6L37.6,9.6L37.6,9.6L37.6,9.6C37.6,9.5,37.6,9.6,37.6,9.6z"/>
							<path fill="#393939" d="M37.3,9.7L37.3,9.7C37.3,9.7,37.3,9.7,37.3,9.7z"/>
							<path fill="#393939" d="M37.3,9.7C37.3,9.7,37.3,9.7,37.3,9.7C37.3,9.8,37.3,9.7,37.3,9.7C37.3,9.7,37.3,9.8,37.3,9.7
								L37.3,9.7c0,0,0.1,0,0.1,0C37.4,9.7,37.3,9.7,37.3,9.7z"/>
							<path fill="#393939" d="M37.4,9.6L37.4,9.6L37.4,9.6L37.4,9.6C37.4,9.6,37.4,9.6,37.4,9.6z"/>
							<polygon fill="#393939" points="37.7,9.5 37.7,9.5 37.7,9.4 							"/>
							<polygon fill="#393939" points="37.7,9.4 37.7,9.4 37.7,9.4 							"/>
							<path fill="#393939" d="M38.4,6.1L38.4,6.1C38.4,6.1,38.4,6.1,38.4,6.1z"/>
							<path fill="#393939" d="M38.4,6.2L38.4,6.2C38.4,6.2,38.4,6.2,38.4,6.2z"/>
							<path fill="#393939" d="M38.3,8C38.3,8,38.4,8,38.3,8L38.3,8C38.3,8,38.3,8,38.3,8z"/>
							<polygon fill="#393939" points="38.4,7 38.4,7 38.4,7 							"/>
							<path fill="#393939" d="M38.2,6.9L38.2,6.9C38.2,6.9,38.2,6.9,38.2,6.9z"/>
							<path fill="#393939" d="M38.4,5.5L38.4,5.5C38.4,5.5,38.4,5.5,38.4,5.5z"/>
							<path fill="#393939" d="M37.9,8.8C37.9,8.8,38,8.8,37.9,8.8C37.9,8.8,37.9,8.8,37.9,8.8z"/>
							<path fill="#393939" d="M38.8,6.2C38.8,6.2,38.8,6.1,38.8,6.2C38.8,6.2,38.8,6.2,38.8,6.2z"/>
							<path fill="#393939" d="M38,8.8C38,8.8,38,8.8,38,8.8C38,8.8,38,8.8,38,8.8C38,8.8,38,8.8,38,8.8z"/>
							<path fill="#393939" d="M39.5,3.7L39.5,3.7C39.5,3.7,39.5,3.7,39.5,3.7z"/>
							<path fill="#393939" d="M40.2,3.6C40.2,3.6,40.2,3.6,40.2,3.6C40.2,3.6,40.2,3.6,40.2,3.6z"/>
							<path fill="#393939" d="M37.8,9.2C37.8,9.2,37.8,9.2,37.8,9.2L37.8,9.2z"/>
							<path fill="#393939" d="M37.6,9.2C37.6,9.2,37.6,9.2,37.6,9.2C37.6,9.2,37.6,9.2,37.6,9.2z"/>
							<path fill="#393939" d="M37.8,8.5L37.8,8.5C37.8,8.5,37.8,8.5,37.8,8.5z"/>
							<path fill="#393939" d="M37.8,9.2L37.8,9.2C37.8,9.2,37.8,9.2,37.8,9.2z"/>
							<path fill="#393939" d="M37.8,9.2C37.8,9.2,37.8,9.2,37.8,9.2C37.8,9.2,37.8,9.2,37.8,9.2z"/>
							<path fill="#393939" d="M37.8,9.2C37.8,9.2,37.8,9.2,37.8,9.2L37.8,9.2C37.8,9.2,37.8,9.2,37.8,9.2z"/>
							<path fill="#393939" d="M38.9,4.6L38.9,4.6C38.9,4.6,38.9,4.6,38.9,4.6z"/>
							<polygon fill="#393939" points="38,7.6 38,7.6 38,7.6 							"/>
							<path fill="#393939" d="M38,7.5C38,7.5,38,7.5,38,7.5l0.1,0.1L38,7.5z"/>
							<path fill="#393939" d="M38.4,5.8L38.4,5.8c-0.1,0-0.1,0-0.1,0c0.1,0,0,0.1,0.1,0.1l0,0c0,0,0,0,0,0c-0.1,0,0.1,0,0.1,0.1
								c0,0,0,0,0,0l0,0c0,0,0,0,0,0l0,0.1l0,0c0,0,0,0,0.1,0c0,0,0,0,0,0l0,0c0,0-0.1,0-0.1,0c-0.1,0,0,0-0.1,0.1l0,0
								c-0.1,0-0.1,0-0.1,0.1c0,0,0.1,0,0.2,0c0,0,0,0,0,0c0,0,0,0,0,0l-0.1,0c0,0,0,0,0.1,0.1c0,0-0.1,0-0.1,0c0,0,0.1,0,0.1,0
								c0,0,0,0.1,0,0.1c0,0,0,0-0.1,0l0,0c0,0,0,0,0,0c0,0,0.1,0,0.1,0.1c0.1,0-0.1,0-0.1,0.1c0,0,0,0-0.1,0c0,0.1,0,0.1,0.1,0.1
								l-0.1,0c0.1,0,0.1,0,0.1,0.1c0,0,0,0,0.1,0l0,0.1c0,0,0,0-0.1,0l0,0c0,0-0.1,0-0.1,0l0,0c0,0-0.1,0-0.1-0.1c0,0,0,0,0,0
								c0,0,0,0,0,0c0,0,0,0,0,0l-0.1,0l0,0l-0.1,0c0.1,0.1,0.1,0.1,0.1,0.2c0,0-0.1,0-0.1-0.1c0.1,0,0-0.1,0-0.1c0,0,0,0,0,0l0,0.1
								c0,0,0,0-0.1,0c0.1,0,0,0.1,0.1,0.1c0,0-0.1,0,0-0.1c-0.1,0,0.1,0.1,0,0.1c0,0,0,0,0,0c0,0,0,0.1,0,0l0,0c0,0-0.1,0.2,0,0.2
								c0,0-0.1,0-0.1-0.1l0.2,0.2c-0.1,0-0.2-0.1-0.3-0.1c0,0,0,0,0,0.1c0,0,0.1,0,0.1,0c-0.1,0,0,0-0.1,0c0,0,0.1,0,0.1,0.1
								c0,0-0.1,0-0.1-0.1L38,7.8c0,0-0.1,0-0.1,0c0,0,0,0,0,0.1l0,0C37.9,7.8,38,7.9,38,8c0,0-0.1-0.1-0.2,0c0,0,0.2,0.2,0.3,0.2
								l0,0l0,0.1C38,8.1,37.9,8,37.8,7.9c0,0,0,0,0,0c0,0,0,0,0,0l0,0.1c0.1,0,0,0.1,0.1,0.1l0-0.1c0.1,0,0.2,0.1,0.1,0.2
								c0,0-0.1-0.1-0.1-0.1c0,0,0,0.1,0,0.1l0,0c0,0,0.1,0.1,0,0.1c0,0-0.1,0-0.1,0c0.1,0,0.3,0.1,0.3,0.1c0,0-0.1,0-0.1,0
								c-0.1,0-0.1-0.1-0.2-0.1c0,0,0,0,0,0c0,0-0.1,0-0.1,0c0.1,0,0,0.1,0,0c0,0,0,0,0,0.1c0,0,0.1,0.1,0.1,0.1c0,0,0,0,0,0
								c0,0.1-0.1,0.1-0.1,0.1c0,0,0,0-0.1,0c0,0,0,0,0,0c-0.1,0,0,0-0.1,0c0,0,0,0.1,0,0.1c0.1,0,0,0,0-0.1c0.1,0,0.1,0.1,0.2,0.2
								c0,0.1-0.1,0-0.1,0c0,0.1,0.1,0.1,0,0.2c-0.1,0-0.1,0-0.1-0.1c0,0,0.1,0,0.1-0.1l0,0c0,0,0,0,0-0.1c-0.1,0-0.1,0.1-0.1,0.2
								c0,0,0,0,0,0l0,0c0,0,0,0.1,0.1,0c0,0,0,0.1,0,0.1l-0.1,0c0,0,0,0,0,0c0,0-0.1,0,0,0.1l0.1,0c0,0,0.1,0.1,0,0.1
								c0.1,0,0,0,0.1,0c-0.1,0,0-0.1-0.1-0.1c0.1,0,0.1,0,0.1,0c0,0,0,0,0,0c0,0,0,0,0,0l0,0l0,0l0,0c0,0,0,0,0,0c0,0,0-0.1,0-0.1
								c0,0,0,0,0,0l0,0c0,0,0.1,0,0.1,0l0,0c0,0,0.1,0,0-0.1c0,0,0-0.1,0,0l0-0.1l0,0c0-0.1,0-0.1,0.1-0.2c0,0,0,0,0-0.1l0,0
								c0,0,0.1-0.1,0-0.1c0.1,0,0.1-0.1,0.1-0.1l0,0c0,0,0-0.1,0-0.1l0,0c0,0,0.1-0.1,0.1-0.1c0,0,0,0,0,0c0.1,0,0-0.1,0.1-0.2
								c0,0,0,0,0,0l0,0l0,0l0,0c0,0,0,0,0,0c0,0,0,0,0,0l0,0l0,0c0,0,0,0-0.1,0c0,0,0,0,0,0c0.1,0,0,0,0.1,0c0,0,0-0.1-0.1-0.1
								c0,0,0,0,0,0c0,0,0,0,0-0.1l0.1,0l-0.1-0.1c0,0,0.1,0,0.1,0c0-0.1,0-0.1-0.1-0.1l0,0c0,0,0-0.1,0-0.1c0.1,0,0.1-0.2,0.2-0.3
								c-0.1,0,0.1,0,0-0.1c0,0,0,0,0.1,0c0-0.1,0.1-0.1,0-0.1c0,0,0,0,0.1,0c0,0,0,0,0,0c0,0,0,0,0,0c0-0.1-0.1-0.1-0.1-0.1
								c0,0,0,0,0-0.1c0,0,0.1,0,0.1,0c0,0,0.1-0.1,0-0.1c0,0,0,0,0,0c0,0,0,0,0-0.1l0,0c-0.1,0,0,0,0-0.1l0,0c0.1-0.1,0,0,0.1-0.1
								l0,0c-0.1,0,0.1,0,0.1-0.1l0,0c0,0,0.2,0,0.2-0.1c0,0,0,0,0,0c0.1,0-0.1,0-0.1-0.1c0,0,0.1,0,0.1,0c0,0-0.1-0.1,0-0.1
								c0,0-0.1,0-0.1,0c0,0,0.1-0.1,0-0.1c0,0,0,0,0,0c0,0,0-0.1-0.1-0.1c0.2,0-0.1-0.2,0.1-0.1l0-0.1l0,0c0,0,0-0.1-0.1-0.1
								c0,0,0,0,0,0c0-0.1,0-0.1,0-0.1l0,0c0,0,0.1-0.1,0.1-0.2c0,0,0,0,0,0c0-0.1,0.2-0.1,0-0.2l0-0.1c0,0.1-0.1,0-0.1,0
								c0,0,0.1,0,0.1,0l0,0c0.1,0,0.1-0.1,0.1,0c0-0.1,0.1-0.2,0.2-0.3l-0.1,0l0,0c0,0,0.1,0,0,0c0,0,0-0.1,0-0.1
								c0.1,0,0.1,0.1,0.1,0.1l0,0l0,0c0,0,0-0.1,0-0.1c0,0,0,0,0.1,0c0,0,0,0,0,0l0,0l-0.1,0c0,0,0,0,0-0.1c0.1,0,0.1-0.1,0.2-0.1
								c0-0.1,0-0.1,0-0.1c0,0-0.1,0,0-0.1c0.1,0.1,0.1,0,0.2,0c-0.1,0,0.1-0.1,0-0.1c0,0,0,0,0.1,0c0-0.1,0.1-0.1,0.2-0.2
								c0,0,0,0,0-0.1l0.1,0c0,0-0.1-0.1,0-0.1c0,0,0,0,0,0C40,3.9,40,3.7,40.2,3.6c0,0,0,0,0,0c0,0,0,0-0.1,0l0.1,0
								c0-0.1,0-0.1,0-0.1l0,0c0-0.1-0.2-0.1-0.2-0.1c0,0.1-0.2,0-0.1,0.1c0,0,0,0,0,0c0,0,0,0.1,0,0.1l0,0c0,0.1-0.1,0.1-0.2,0.1
								l0,0c0,0,0,0,0,0c0,0.1,0,0,0.1,0c-0.1,0-0.1,0.1-0.2,0.1c0,0,0,0,0,0.1l0,0l0,0c0,0-0.1,0-0.1,0c0,0,0,0,0,0
								c0,0,0,0.1-0.1,0.1l0,0c0,0.1-0.1,0.1-0.2,0.2l0,0c0,0.1-0.1,0-0.1,0.1l0,0c0,0,0,0,0,0.1c0,0-0.1,0-0.1,0c0,0.1,0,0.1,0,0.1
								l0,0c0,0,0,0,0,0.1c0,0-0.1,0-0.1-0.1c-0.1,0,0,0.1-0.1,0.1c0.1,0.1,0.1,0,0.1,0c0,0,0,0.1,0,0.1c0,0-0.1,0-0.2,0
								c0,0,0,0,0,0c0,0,0,0.1-0.1,0.1c0,0,0,0,0,0.1l0-0.1c0,0,0.1,0.1,0,0.1c0,0,0,0,0-0.1c0,0,0,0,0,0c-0.1,0,0-0.1,0-0.1
								c0,0,0,0.1-0.1,0c0.1,0.1,0,0,0,0.1l0,0c0,0,0,0,0,0l0-0.1c0,0.1-0.1,0-0.1,0.1c0-0.1,0.1,0,0.1,0c0,0.1-0.1,0-0.2,0.1
								c0,0,0,0,0.1,0c0,0,0,0-0.1,0c0,0.1,0,0,0.1,0c-0.1,0,0,0,0,0.1l0,0c-0.1,0.1,0.1,0.1,0,0.1L38.6,5l0,0l0,0
								c0,0.1,0,0.1,0,0.1c0,0,0.1,0,0.1,0.1c0,0,0,0,0,0c0,0-0.1,0,0,0l0,0c0,0,0,0.1,0,0.1c0,0,0,0,0,0l0,0.1c0,0,0,0,0,0
								c0,0,0,0,0,0.1c0,0-0.1,0-0.1-0.1l0,0.1c0,0-0.1,0-0.1,0c0,0,0.1,0.1,0,0.1c0,0,0,0,0,0c0,0-0.1,0.1,0,0.1l-0.1,0
								C38.4,5.7,38.4,5.7,38.4,5.8C38.5,5.8,38.4,5.7,38.4,5.8C38.4,5.8,38.5,5.8,38.4,5.8C38.4,5.8,38.4,5.8,38.4,5.8z M38.4,6.3
								C38.4,6.3,38.3,6.3,38.4,6.3C38.4,6.3,38.4,6.3,38.4,6.3z M38.3,7C38.2,7,38.3,7,38.3,7C38.3,7,38.3,7,38.3,7z M37.8,9.1
								L37.8,9.1C37.9,9,37.8,9,37.8,9.1z M37.8,9.1C37.8,9.1,37.8,9.1,37.8,9.1C37.8,9.1,37.8,9.1,37.8,9.1
								C37.8,9.1,37.8,9.1,37.8,9.1z M39.3,4.7L39.3,4.7C39.2,4.7,39.3,4.7,39.3,4.7z"/>
							<path fill="#393939" d="M38.2,6.9L38.2,6.9C38.2,6.9,38.2,6.9,38.2,6.9z"/>
							<polygon fill="#393939" points="38.4,5.5 38.4,5.5 38.4,5.5 							"/>
							<path fill="#393939" d="M37.7,8.3C37.7,8.3,37.7,8.3,37.7,8.3C37.7,8.3,37.7,8.3,37.7,8.3z"/>
							<path fill="#393939" d="M37.8,9.3L37.8,9.3C37.8,9.3,37.8,9.3,37.8,9.3C37.8,9.3,37.8,9.3,37.8,9.3z"/>
							<path fill="#393939" d="M37.4,9.4C37.4,9.4,37.4,9.4,37.4,9.4L37.4,9.4C37.4,9.4,37.4,9.4,37.4,9.4z"/>
							<path fill="#393939" d="M37.6,9.3C37.6,9.3,37.6,9.3,37.6,9.3C37.6,9.3,37.6,9.3,37.6,9.3C37.6,9.3,37.6,9.3,37.6,9.3z"/>
							<path fill="#393939" d="M37.6,9.3C37.6,9.3,37.6,9.3,37.6,9.3C37.6,9.3,37.6,9.3,37.6,9.3z"/>
							<path fill="#393939" d="M37.8,9.1C37.8,9.2,37.8,9.2,37.8,9.1C37.9,9.2,37.8,9.1,37.8,9.1z"/>
							<polygon fill="#393939" points="37.5,9.2 37.5,9.3 37.5,9.2 							"/>
							<path fill="#393939" d="M37.6,9.1L37.6,9.1C37.6,9.1,37.6,9.2,37.6,9.1C37.6,9.1,37.6,9.1,37.6,9.1z"/>
							<path fill="#393939" d="M37.6,9.2C37.6,9.2,37.6,9.2,37.6,9.2C37.6,9.2,37.6,9.2,37.6,9.2z"/>
							<polygon fill="#393939" points="37.5,9.2 37.5,9.2 37.5,9.2 							"/>
							<path fill="#393939" d="M37.7,8.8L37.7,8.8C37.7,8.8,37.7,8.8,37.7,8.8C37.7,8.8,37.7,8.8,37.7,8.8z"/>
							<path fill="#393939" d="M37.6,8.9C37.6,8.9,37.6,8.9,37.6,8.9L37.6,8.9L37.6,8.9z"/>
							<path fill="#393939" d="M37.6,8.8C37.6,8.7,37.6,8.7,37.6,8.8C37.6,8.7,37.6,8.8,37.6,8.8z"/>
							<polygon fill="#393939" points="37.9,8.3 37.9,8.3 37.9,8.4 							"/>
							<path fill="#393939" d="M37.8,7.8C37.8,7.8,37.9,7.8,37.8,7.8C37.8,7.9,37.8,7.8,37.8,7.8C37.8,7.8,37.9,7.8,37.8,7.8z"/>
							<path fill="#393939" d="M37.9,7.9L37.9,7.9C37.9,7.9,37.9,7.9,37.9,7.9z"/>
							<polygon fill="#393939" points="40.3,3.5 40.4,3.5 40.3,3.5 							"/>
							<path fill="#393939" d="M40.3,3.4L40.3,3.4L40.3,3.4C40.3,3.4,40.3,3.5,40.3,3.4z"/>
							<path fill="#393939" d="M38.2,6.3L38.2,6.3C38.3,6.3,38.3,6.3,38.2,6.3L38.2,6.3z"/>
							<polygon fill="#393939" points="38.3,6 38.3,6 38.4,6 							"/>
							<path fill="#393939" d="M38.3,5.7C38.3,5.7,38.3,5.7,38.3,5.7C38.3,5.7,38.4,5.7,38.3,5.7z"/>
						</g>
					</g>
				</g>
			</g>
		</g>
		<g>
			<g>
				<g>
					<g>
						<g>
							<path fill="#393939" d="M40.3,16.6C40.3,16.6,40.3,16.7,40.3,16.6C40.3,16.7,40.3,16.6,40.3,16.6z"/>
							<polygon fill="#393939" points="40.4,16.5 40.4,16.5 40.5,16.5 							"/>
							<path fill="#393939" d="M40.6,16.5C40.6,16.4,40.6,16.5,40.6,16.5l-0.1,0l0,0.1C40.5,16.5,40.6,16.5,40.6,16.5z"/>
							<path fill="#393939" d="M40.7,16.6C40.7,16.6,40.7,16.6,40.7,16.6L40.7,16.6C40.7,16.6,40.7,16.6,40.7,16.6z"/>
							<path fill="#393939" d="M40.7,16.6C40.7,16.6,40.7,16.7,40.7,16.6L40.7,16.6z"/>
							<path fill="#393939" d="M40.8,16.6L40.8,16.6C40.8,16.7,40.8,16.7,40.8,16.6C40.8,16.7,40.8,16.6,40.8,16.6z"/>
							<path fill="#393939" d="M40.8,16.6L40.8,16.6C40.8,16.6,40.8,16.6,40.8,16.6z"/>
							<path fill="#393939" d="M40.8,16.6L40.8,16.6C40.8,16.6,40.8,16.5,40.8,16.6C40.8,16.6,40.8,16.6,40.8,16.6z"/>
							<path fill="#393939" d="M40.8,16.6C40.7,16.6,40.7,16.6,40.8,16.6C40.7,16.6,40.7,16.6,40.8,16.6z"/>
							<path fill="#393939" d="M40.6,16.4L40.6,16.4L40.6,16.4C40.6,16.4,40.6,16.4,40.6,16.4z"/>
							<path fill="#393939" d="M40.9,16.6C40.9,16.6,40.9,16.6,40.9,16.6L40.9,16.6C40.9,16.6,40.9,16.6,40.9,16.6z"/>
							<path fill="#393939" d="M40.9,16.6L40.9,16.6C40.9,16.5,40.9,16.6,40.9,16.6z"/>
							<polygon fill="#393939" points="40.8,16.5 40.8,16.5 40.8,16.5 							"/>
							<polygon fill="#393939" points="41,16.6 41,16.7 41.1,16.6 							"/>
							<path fill="#393939" d="M41.1,16.6C41.1,16.7,41.1,16.7,41.1,16.6C41.1,16.7,41.2,16.7,41.1,16.6
								C41.1,16.6,41.1,16.6,41.1,16.6z"/>
							<path fill="#393939" d="M41.2,16.6C41.2,16.6,41.2,16.6,41.2,16.6C41.2,16.6,41.2,16.6,41.2,16.6z"/>
							<path fill="#393939" d="M41,16.6C41,16.6,41,16.6,41,16.6L41,16.6L41,16.6z"/>
							<path fill="#393939" d="M41,16.6L41,16.6C41,16.6,41,16.6,41,16.6C41,16.6,41,16.6,41,16.6z"/>
							<path fill="#393939" d="M41,16.6L41,16.6C41,16.6,41,16.5,41,16.6z"/>
							<path fill="#393939" d="M40.9,16.5C40.9,16.5,40.9,16.5,40.9,16.5C40.9,16.5,40.9,16.5,40.9,16.5z"/>
							<path fill="#393939" d="M41,16.5L41,16.5C41,16.5,41,16.5,41,16.5L41,16.5z"/>
							<polygon fill="#393939" points="41,16.5 41,16.5 41,16.5 							"/>
							<path fill="#393939" d="M41.1,16.6C41.1,16.5,41.2,16.5,41.1,16.6C41.2,16.5,41.1,16.5,41.1,16.6
								C41.1,16.5,41.1,16.6,41.1,16.6z"/>
							<path fill="#393939" d="M41.1,16.6L41.1,16.6C41.1,16.6,41.1,16.5,41.1,16.6z"/>
							<polygon fill="#393939" points="41.3,16.5 41.3,16.5 41.3,16.5 							"/>
							<path fill="#393939" d="M41.1,16.5C41.1,16.5,41.1,16.5,41.1,16.5C41.1,16.5,41.1,16.5,41.1,16.5
								C41.1,16.5,41.1,16.5,41.1,16.5z"/>
							<path fill="#393939" d="M41.2,16.6L41.2,16.6C41.2,16.6,41.2,16.6,41.2,16.6z"/>
							<path fill="#393939" d="M41.1,16.6L41.1,16.6C41.1,16.6,41.1,16.6,41.1,16.6z"/>
							<path fill="#393939" d="M41.1,16.6C41.1,16.6,41.1,16.5,41.1,16.6L41.1,16.6L41.1,16.6z"/>
							<path fill="#393939" d="M41.4,16.3C41.4,16.3,41.3,16.3,41.4,16.3c-0.1,0.1-0.1,0.2,0,0.3c0,0,0,0,0-0.1c0,0-0.1,0,0-0.1
								c0,0,0,0,0.1,0C41.3,16.4,41.4,16.3,41.4,16.3L41.4,16.3C41.4,16.3,41.4,16.3,41.4,16.3z"/>
							<path fill="#393939" d="M41.3,16.5L41.3,16.5C41.3,16.5,41.3,16.5,41.3,16.5C41.3,16.6,41.3,16.5,41.3,16.5L41.3,16.5
								L41.3,16.5z"/>
							<path fill="#393939" d="M41.2,16.5c0,0,0-0.1,0-0.1C41.2,16.4,41.2,16.5,41.2,16.5C41.2,16.5,41.2,16.5,41.2,16.5
								C41.2,16.5,41.2,16.5,41.2,16.5L41.2,16.5L41.2,16.5L41.2,16.5L41.2,16.5C41.2,16.5,41.2,16.5,41.2,16.5L41.2,16.5L41.2,16.5
								C41.2,16.5,41.2,16.5,41.2,16.5L41.2,16.5L41.2,16.5L41.2,16.5C41.2,16.5,41.2,16.5,41.2,16.5z"/>
							<path fill="#393939" d="M40.9,16.3L40.9,16.3C40.9,16.3,40.9,16.3,40.9,16.3z"/>
							<path fill="#393939" d="M40.9,16.4C40.9,16.4,40.9,16.4,40.9,16.4C40.9,16.4,40.9,16.4,40.9,16.4
								C40.9,16.4,40.9,16.4,40.9,16.4L40.9,16.4c0,0,0,0.1,0,0.1C41,16.4,41,16.4,40.9,16.4z"/>
							<path fill="#393939" d="M41.1,16.4L41.1,16.4L41.1,16.4L41.1,16.4C41.1,16.4,41.1,16.4,41.1,16.4z"/>
							<polygon fill="#393939" points="41.3,16.5 41.3,16.6 41.3,16.5 							"/>
							<polygon fill="#393939" points="41.4,16.5 41.4,16.6 41.4,16.6 							"/>
							<path fill="#393939" d="M44.9,16.3L44.9,16.3C44.9,16.3,44.9,16.3,44.9,16.3z"/>
							<path fill="#393939" d="M44.8,16.2L44.8,16.2C44.8,16.2,44.8,16.2,44.8,16.2z"/>
							<path fill="#393939" d="M42.9,16.5C42.9,16.6,42.9,16.6,42.9,16.5L42.9,16.5C42.9,16.6,42.9,16.5,42.9,16.5z"/>
							<polygon fill="#393939" points="43.9,16.3 43.9,16.3 43.9,16.4 							"/>
							<path fill="#393939" d="M43.9,16.2L43.9,16.2C43.9,16.2,43.9,16.2,43.9,16.2z"/>
							<path fill="#393939" d="M45.4,16.4L45.4,16.4C45.4,16.3,45.4,16.3,45.4,16.4z"/>
							<path fill="#393939" d="M42,16.5C42,16.5,42,16.5,42,16.5C42,16.5,42,16.5,42,16.5z"/>
							<path fill="#393939" d="M44.7,16.7C44.7,16.7,44.7,16.7,44.7,16.7C44.7,16.7,44.7,16.7,44.7,16.7z"/>
							<path fill="#393939" d="M42.1,16.5C42.1,16.5,42.1,16.5,42.1,16.5C42.1,16.5,42.1,16.5,42.1,16.5
								C42.1,16.6,42.1,16.6,42.1,16.5z"/>
							<path fill="#393939" d="M47.2,16.1L47.2,16.1C47.2,16.1,47.2,16.1,47.2,16.1z"/>
							<path fill="#393939" d="M47.8,16.4C47.8,16.4,47.8,16.4,47.8,16.4C47.8,16.4,47.8,16.4,47.8,16.4z"/>
							<path fill="#393939" d="M41.6,16.6C41.6,16.6,41.6,16.6,41.6,16.6L41.6,16.6z"/>
							<path fill="#393939" d="M41.6,16.4C41.6,16.4,41.6,16.4,41.6,16.4C41.6,16.4,41.6,16.4,41.6,16.4z"/>
							<path fill="#393939" d="M42.2,16.3L42.2,16.3C42.2,16.3,42.2,16.3,42.2,16.3z"/>
							<path fill="#393939" d="M41.6,16.5L41.6,16.5C41.6,16.5,41.6,16.5,41.6,16.5z"/>
							<path fill="#393939" d="M41.6,16.6C41.6,16.6,41.6,16.5,41.6,16.6C41.6,16.6,41.6,16.6,41.6,16.6z"/>
							<path fill="#393939" d="M41.6,16.5C41.6,16.5,41.6,16.5,41.6,16.5L41.6,16.5C41.6,16.6,41.6,16.5,41.6,16.5z"/>
							<path fill="#393939" d="M46.2,16.5L46.2,16.5C46.2,16.5,46.2,16.5,46.2,16.5z"/>
							<polygon fill="#393939" points="43.2,16.1 43.2,16.1 43.2,16.1 							"/>
							<path fill="#393939" d="M43.3,16.1C43.2,16.1,43.2,16.1,43.3,16.1l0,0.2L43.3,16.1z"/>
							<path fill="#393939" d="M45.1,16.3L45.1,16.3c0-0.1,0.1-0.1,0-0.1c0,0.1-0.1,0-0.2,0.1l0,0c0,0,0,0,0,0
								c0-0.1-0.1,0.1-0.1,0.1c0,0,0,0,0,0l-0.1,0c0,0,0,0,0,0l-0.1,0l0,0c0,0,0,0-0.1,0.1c0,0,0,0,0,0l0,0c0,0,0-0.1,0.1-0.1
								c0-0.1,0,0-0.1-0.1l0,0c0-0.1,0-0.1-0.1-0.1c0,0,0.1,0.1,0,0.2c0,0,0,0,0,0c0,0,0,0,0,0l0-0.1c0,0,0,0-0.1,0.1
								c0,0,0-0.1,0-0.1c0,0,0,0.1,0,0.1c0,0-0.1,0-0.1,0c0,0,0,0,0-0.1l0,0c0,0,0,0,0,0c0,0,0,0.1,0,0.1c0,0.1-0.1-0.1-0.1,0
								c0,0,0,0,0-0.1c-0.1,0-0.1,0-0.1,0.1l0,0c0,0.1,0,0.1-0.1,0.1c0,0,0,0,0,0.1l-0.1,0c0,0,0,0,0-0.1l0,0c0,0,0-0.1,0-0.1l0,0
								c0,0,0-0.1,0-0.1c0,0,0,0,0,0c0,0,0,0,0,0c0,0,0,0,0,0l0-0.1l0,0l-0.1-0.1c-0.1,0.1-0.1,0.2-0.2,0.2c0-0.1,0-0.1,0-0.1
								c0,0.1,0.1,0,0.1,0c0,0,0,0,0,0l-0.1,0.1c0-0.1,0,0,0-0.1c0,0.1-0.1,0.1-0.1,0.1c0,0,0-0.1,0-0.1c0-0.1-0.1,0.1-0.1,0
								c0,0,0,0,0,0c0,0-0.1,0-0.1,0l0,0c-0.1,0-0.2,0-0.2,0.1c0,0,0-0.1,0-0.1l-0.1,0.3c0-0.1,0-0.2,0-0.3c0,0,0,0-0.1,0
								c0,0,0,0.1,0,0.1c0-0.1,0,0-0.1-0.1c0,0,0,0.1,0,0.1c0,0,0-0.1,0-0.1L43,16.2c0,0,0-0.1,0-0.1c0,0,0,0-0.1,0l0,0
								c-0.1,0-0.1,0.2-0.1,0.1c0,0,0-0.1,0-0.2c0,0.1-0.1,0.3-0.1,0.3l0,0l0,0c0-0.1,0.1-0.3,0.1-0.3c0,0,0,0,0,0c0,0,0,0,0,0
								l-0.1,0c0,0.1-0.1,0.1-0.1,0.1l0.1-0.1c0,0.1-0.1,0.2-0.1,0.2c0,0,0-0.1,0-0.1c0,0-0.1,0-0.1,0l0,0c0,0-0.1,0.1-0.1,0
								c0,0,0-0.1,0,0c0,0.1,0,0.3,0,0.4c0,0-0.1-0.1-0.1-0.1c0-0.1,0-0.1,0-0.2c0,0,0,0,0,0c0,0,0-0.1,0,0c0,0.1-0.1,0,0,0.1
								c0,0,0,0-0.1,0c0,0,0,0.1-0.1,0.2c0,0,0,0,0-0.1c-0.1,0-0.1,0-0.1,0c0,0,0,0,0-0.1c0,0,0,0,0,0c0-0.1,0,0,0-0.1
								c0,0,0,0.1-0.1,0.1c0,0.1,0.1,0,0.1,0c0,0.1,0,0.2-0.1,0.2c0,0,0-0.1,0,0c-0.1,0-0.1,0.1-0.1,0.1c0-0.1,0-0.1,0-0.1
								c0,0,0.1,0,0.1,0l0,0c0,0,0,0,0.1,0c0,0-0.1,0-0.2-0.1c0,0,0,0,0,0.1l0,0c0,0,0,0.1,0,0.1c0,0-0.1,0.1-0.1,0.1l0-0.1
								c0,0,0,0,0,0c0,0-0.1-0.1-0.1,0l0,0c0,0-0.1,0.1-0.1,0.1c0,0.1,0,0,0,0.1c0-0.1,0.1,0,0.1-0.1c0,0.1,0,0,0.1,0.1c0,0,0,0,0,0
								c0,0,0,0,0,0l0,0l0,0l0,0c0,0,0,0,0,0c0,0,0.1,0,0.1-0.1c0,0,0,0,0,0l0,0c0,0,0,0.1,0,0.1l0,0c0,0,0.1,0,0.1,0c0,0,0,0,0,0
								l0.1,0l0,0c0.1,0,0.1-0.1,0.2,0c0,0,0,0,0.1,0l0,0c0,0,0.1,0,0.1,0c0,0.1,0.1,0,0.2,0l0-0.1c0,0,0.1,0,0.1,0l0,0
								c0,0,0.1,0,0.1,0c0,0,0,0,0,0c0.1,0.1,0.1-0.1,0.2,0c0,0,0,0,0,0l0,0l0,0l0,0c0,0,0,0,0,0c0,0,0,0,0,0l0,0l0,0c0,0,0,0,0-0.1
								c0,0,0,0,0,0c0,0.1,0,0,0.1,0.1c0,0,0.1,0,0.1-0.1c0,0,0,0,0,0c0,0,0,0,0.1,0l0,0.1l0-0.1c0,0,0,0.1,0,0.1
								c0.1-0.1,0,0,0.1-0.1l0,0c0,0,0-0.1,0.1,0c0,0.1,0.2,0,0.3,0.1c0-0.1,0,0.1,0.1,0c0,0,0,0,0,0.1c0.1,0,0.1,0.1,0.1,0
								c0,0,0,0,0,0.1c0,0,0,0,0,0c0,0,0,0,0,0c0,0,0.1-0.1,0.1-0.2c0,0,0,0,0.1,0c0,0,0,0.1,0,0.1c0,0,0.1,0,0.1,0c0,0,0,0,0,0
								c0,0,0,0,0.1,0l0,0c0-0.1,0,0,0.1,0l0,0c0.1,0.1,0,0,0.1,0l0,0c0-0.1,0.1,0.1,0.1,0l0,0c0,0,0,0.1,0.1,0.2c0,0,0,0,0,0
								c0,0.1,0-0.1,0.1-0.1c0,0,0,0.1,0,0.1c0,0,0.1-0.1,0.1,0c0,0,0-0.1,0-0.1c0,0,0.1,0.1,0.1,0c0,0,0,0,0,0c0,0,0.1,0,0.1-0.1
								c0,0.2,0.2,0,0.1,0.1l0.1,0l0,0c0,0,0.1,0,0.1,0c0,0,0,0,0,0c0.1,0,0.1,0,0.1,0l0,0c0,0,0.1,0.1,0.2,0.1c0,0,0,0,0,0
								c0.1,0,0.2,0.2,0.2,0l0.1,0c-0.1,0,0-0.1,0-0.1c0,0,0.1,0.1,0,0.1l0,0c0,0.1,0.1,0,0.1,0.1c0.1,0,0.3,0,0.4,0l0-0.1l0,0
								c0,0,0,0.1,0,0.1c0,0,0,0,0-0.1c0.1,0,0,0.1,0,0.1l0,0l0,0c0,0,0-0.1,0-0.1c0,0,0,0,0,0c0,0,0,0,0,0l0.1,0l0-0.1
								c0,0,0.1,0,0-0.1c0.1,0.1,0.2,0,0.2,0c0,0,0.1-0.1,0.1-0.1c0,0,0-0.1,0-0.1c0,0.1,0.1,0,0.1,0.1c0-0.1,0.1,0,0-0.1
								c0,0,0,0,0,0.1c0.1-0.1,0.2,0,0.2-0.1c0,0,0,0,0-0.1l0.1,0.1c0,0,0-0.1,0-0.1c0,0,0,0,0,0c0.2,0,0.3-0.2,0.5-0.1c0,0,0,0,0,0
								c0,0,0,0,0-0.1l0.1,0c0-0.1,0.1,0,0.1-0.1l0,0c0-0.1-0.1-0.2-0.1-0.2c0,0.1-0.1-0.1-0.1,0c0,0,0,0,0-0.1c0,0,0,0.1-0.1,0l0,0
								c-0.1,0-0.1,0-0.2,0l0,0c0,0,0,0,0,0c0,0.1,0.1,0,0.1,0.1c-0.1-0.1-0.1,0-0.2,0c0,0,0,0,0,0.1l0,0l0,0c0,0,0,0-0.1-0.1
								c0,0,0,0,0,0c0,0-0.1,0-0.1,0l0,0c-0.1,0.1-0.2,0.1-0.3,0.1l0,0c0,0.1-0.1,0-0.1,0l0,0c0,0,0,0,0,0c0,0,0,0,0-0.1
								c-0.1,0.1,0,0,0,0.1l0,0c0,0,0,0.1,0,0.1c0,0,0,0,0-0.1c-0.1-0.1-0.1,0.1-0.1,0c0,0.1,0.1,0,0.1,0.1c0,0,0,0.1,0,0.1
								c0,0-0.1-0.1-0.1-0.1c0,0,0,0,0,0c0,0,0,0-0.1,0c0,0.1,0,0,0,0.1l0,0c0,0,0,0.1-0.1,0.1c0,0,0,0,0-0.1c0,0,0,0,0,0
								c0-0.1,0.1,0,0.1-0.1c0,0,0,0.1,0,0c0,0.1-0.1,0-0.1,0.1l0,0c0,0,0,0,0,0l0-0.1c0,0.1-0.1,0-0.1,0c0.1,0,0,0.1,0,0.1
								c-0.1,0.1-0.1-0.1-0.1-0.1c0,0,0,0,0,0c0,0,0,0,0-0.1c-0.1,0,0,0,0,0.1c0-0.1,0,0-0.1,0l0,0c-0.1,0,0,0.1-0.1,0.1l0-0.1l0,0
								l0-0.1c0,0,0,0-0.1,0c0,0,0,0.1,0,0.1c0,0,0,0,0,0c0,0,0-0.1,0,0l0,0c0,0,0,0-0.1,0c0,0,0,0,0,0l-0.1,0.1c0,0,0,0,0,0
								c0,0,0,0,0,0c0,0,0-0.1,0-0.1l-0.1,0c0,0,0-0.1,0-0.1c0,0-0.1,0.1-0.1,0c0,0,0,0,0,0c0,0-0.1-0.1-0.1,0l0-0.1
								C45.2,16.3,45.2,16.4,45.1,16.3C45.1,16.4,45.2,16.3,45.1,16.3C45.1,16.3,45.1,16.4,45.1,16.3C45.1,16.3,45.1,16.3,45.1,16.3
								z M44.6,16.2C44.6,16.2,44.6,16.2,44.6,16.2C44.6,16.3,44.6,16.2,44.6,16.2z M43.8,16.2C43.8,16.2,43.8,16.2,43.8,16.2
								C43.8,16.3,43.8,16.3,43.8,16.2z M41.8,16.5L41.8,16.5C41.8,16.5,41.8,16.5,41.8,16.5z M41.7,16.5
								C41.7,16.5,41.7,16.5,41.7,16.5C41.7,16.5,41.7,16.5,41.7,16.5C41.7,16.5,41.7,16.5,41.7,16.5z M46.4,16.8L46.4,16.8
								C46.4,16.8,46.4,16.8,46.4,16.8z"/>
							<path fill="#393939" d="M43.9,16.2L43.9,16.2C43.9,16.2,43.9,16.2,43.9,16.2z"/>
							<polygon fill="#393939" points="45.4,16.4 45.4,16.4 45.4,16.4 							"/>
							<path fill="#393939" d="M42.4,16.1C42.4,16.1,42.4,16.1,42.4,16.1C42.4,16.1,42.4,16.1,42.4,16.1z"/>
							<path fill="#393939" d="M41.5,16.6L41.5,16.6C41.5,16.6,41.5,16.6,41.5,16.6C41.5,16.6,41.5,16.6,41.5,16.6z"/>
							<path fill="#393939" d="M41.2,16.3C41.2,16.3,41.2,16.3,41.2,16.3L41.2,16.3C41.3,16.3,41.3,16.3,41.2,16.3z"/>
							<path fill="#393939" d="M41.5,16.4C41.5,16.4,41.4,16.4,41.5,16.4L41.5,16.4C41.4,16.5,41.4,16.4,41.5,16.4z"/>
							<path fill="#393939" d="M41.4,16.4C41.4,16.4,41.4,16.4,41.4,16.4C41.4,16.4,41.4,16.4,41.4,16.4z"/>
							<path fill="#393939" d="M41.7,16.5C41.7,16.5,41.7,16.6,41.7,16.5C41.7,16.6,41.7,16.5,41.7,16.5z"/>
							<polygon fill="#393939" points="41.4,16.3 41.5,16.3 41.5,16.3 							"/>
							<path fill="#393939" d="M41.6,16.3L41.6,16.3C41.6,16.3,41.6,16.3,41.6,16.3C41.6,16.3,41.6,16.3,41.6,16.3z"/>
							<path fill="#393939" d="M41.6,16.3C41.6,16.3,41.5,16.3,41.6,16.3C41.5,16.3,41.6,16.3,41.6,16.3z"/>
							<polygon fill="#393939" points="41.5,16.3 41.5,16.3 41.5,16.3 							"/>
							<path fill="#393939" d="M41.9,16.3L41.9,16.3C42,16.3,42,16.3,41.9,16.3C41.9,16.3,41.9,16.3,41.9,16.3z"/>
							<path fill="#393939" d="M41.8,16.2C41.8,16.2,41.8,16.2,41.8,16.2L41.8,16.2L41.8,16.2z"/>
							<path fill="#393939" d="M41.9,16.2C41.9,16.2,42,16.1,41.9,16.2C41.9,16.1,41.9,16.2,41.9,16.2z"/>
							<polygon fill="#393939" points="42.4,16.3 42.4,16.3 42.4,16.4 							"/>
							<path fill="#393939" d="M42.9,16C42.9,16,42.9,16.1,42.9,16C42.9,16.1,42.9,16.1,42.9,16C42.9,16.1,42.9,16.1,42.9,16z"/>
							<path fill="#393939" d="M42.9,16.1L42.9,16.1C42.9,16.1,42.9,16.1,42.9,16.1z"/>
							<polygon fill="#393939" points="47.9,16.4 48,16.4 47.9,16.4 							"/>
							<path fill="#393939" d="M48,16.3L48,16.3L48,16.3C48,16.3,48,16.3,48,16.3z"/>
							<path fill="#393939" d="M44.6,16.1L44.6,16.1C44.5,16.1,44.6,16.1,44.6,16.1L44.6,16.1z"/>
							<polygon fill="#393939" points="44.9,16.2 44.9,16.2 44.9,16.3 							"/>
							<path fill="#393939" d="M45.2,16.2C45.2,16.2,45.2,16.2,45.2,16.2C45.2,16.2,45.2,16.3,45.2,16.2z"/>
						</g>
					</g>
				</g>
			</g>
		</g>
		<g>
			<g>
				<g>
					<g>
						<g>
							<path fill="#393939" d="M41,12.1C41,12.1,41.1,12.1,41,12.1C41.1,12.1,41,12.1,41,12.1z"/>
							<polygon fill="#393939" points="41.1,12 41.1,12 41.1,12 							"/>
							<path fill="#393939" d="M41.2,11.9C41.2,11.9,41.2,11.9,41.2,11.9L41.2,11.9L41.2,11.9C41.2,12,41.2,11.9,41.2,11.9z"/>
							<path fill="#393939" d="M41.3,12C41.3,12,41.3,11.9,41.3,12L41.3,12C41.3,12,41.3,12,41.3,12z"/>
							<path fill="#393939" d="M41.3,12C41.3,12,41.3,12,41.3,12L41.3,12z"/>
							<path fill="#393939" d="M41.3,11.9L41.3,11.9C41.3,12,41.3,12,41.3,11.9C41.3,11.9,41.3,11.9,41.3,11.9z"/>
							<path fill="#393939" d="M41.3,11.9L41.3,11.9C41.3,11.9,41.3,11.9,41.3,11.9z"/>
							<path fill="#393939" d="M41.3,11.9L41.3,11.9C41.3,11.9,41.3,11.9,41.3,11.9C41.3,11.9,41.3,11.9,41.3,11.9z"/>
							<path fill="#393939" d="M41.3,11.9C41.3,11.9,41.3,11.9,41.3,11.9C41.2,11.9,41.3,11.9,41.3,11.9z"/>
							<path fill="#393939" d="M41.2,11.9L41.2,11.9L41.2,11.9C41.1,11.9,41.2,11.9,41.2,11.9z"/>
							<path fill="#393939" d="M41.4,11.9C41.4,11.9,41.4,11.9,41.4,11.9L41.4,11.9C41.4,11.9,41.4,11.9,41.4,11.9z"/>
							<path fill="#393939" d="M41.4,11.9L41.4,11.9C41.3,11.9,41.3,11.9,41.4,11.9z"/>
							<polygon fill="#393939" points="41.3,11.9 41.3,11.9 41.3,11.9 							"/>
							<polygon fill="#393939" points="41.4,11.9 41.4,11.9 41.4,11.9 							"/>
							<path fill="#393939" d="M41.5,11.9C41.5,11.9,41.5,11.9,41.5,11.9C41.5,11.9,41.5,11.9,41.5,11.9
								C41.5,11.9,41.5,11.9,41.5,11.9z"/>
							<path fill="#393939" d="M41.5,11.8C41.5,11.8,41.5,11.8,41.5,11.8C41.5,11.8,41.5,11.8,41.5,11.8z"/>
							<path fill="#393939" d="M41.4,11.9C41.4,11.9,41.4,11.9,41.4,11.9L41.4,11.9L41.4,11.9z"/>
							<path fill="#393939" d="M41.4,11.9L41.4,11.9C41.4,11.9,41.4,11.8,41.4,11.9C41.4,11.8,41.4,11.8,41.4,11.9z"/>
							<path fill="#393939" d="M41.4,11.9L41.4,11.9L41.4,11.9z"/>
							<path fill="#393939" d="M41.3,11.9C41.3,11.8,41.3,11.8,41.3,11.9C41.3,11.8,41.3,11.8,41.3,11.9z"/>
							<path fill="#393939" d="M41.4,11.8L41.4,11.8C41.3,11.8,41.4,11.8,41.4,11.8L41.4,11.8z"/>
							<polygon fill="#393939" points="41.4,11.8 41.4,11.8 41.4,11.8 							"/>
							<path fill="#393939" d="M41.5,11.8C41.5,11.8,41.5,11.8,41.5,11.8C41.5,11.8,41.4,11.8,41.5,11.8
								C41.4,11.8,41.4,11.8,41.5,11.8z"/>
							<path fill="#393939" d="M41.4,11.8L41.4,11.8L41.4,11.8z"/>
							<polygon fill="#393939" points="41.5,11.8 41.5,11.8 41.5,11.8 							"/>
							<path fill="#393939" d="M41.4,11.8C41.4,11.8,41.4,11.8,41.4,11.8L41.4,11.8L41.4,11.8z"/>
							<path fill="#393939" d="M41.5,11.8L41.5,11.8C41.5,11.8,41.5,11.8,41.5,11.8z"/>
							<path fill="#393939" d="M41.4,11.8L41.4,11.8C41.4,11.8,41.4,11.8,41.4,11.8z"/>
							<path fill="#393939" d="M41.4,11.8C41.4,11.8,41.4,11.8,41.4,11.8L41.4,11.8L41.4,11.8z"/>
							<path fill="#393939" d="M41.5,11.6C41.5,11.6,41.5,11.7,41.5,11.6c0,0.1,0,0.1,0,0.1c0,0,0,0,0,0
								C41.5,11.7,41.5,11.7,41.5,11.6C41.5,11.7,41.5,11.7,41.5,11.6C41.5,11.7,41.5,11.7,41.5,11.6L41.5,11.6
								C41.5,11.6,41.5,11.6,41.5,11.6z"/>
							<path fill="#393939" d="M41.5,11.8L41.5,11.8C41.5,11.8,41.5,11.8,41.5,11.8C41.5,11.8,41.5,11.8,41.5,11.8L41.5,11.8
								L41.5,11.8z"/>
							<path fill="#393939" d="M41.5,11.8C41.5,11.8,41.5,11.8,41.5,11.8C41.4,11.7,41.5,11.8,41.5,11.8
								C41.5,11.8,41.4,11.8,41.5,11.8C41.5,11.8,41.5,11.8,41.5,11.8C41.5,11.8,41.5,11.8,41.5,11.8L41.5,11.8L41.5,11.8L41.5,11.8
								L41.5,11.8L41.5,11.8L41.5,11.8C41.5,11.8,41.5,11.8,41.5,11.8L41.5,11.8L41.5,11.8L41.5,11.8C41.5,11.8,41.5,11.8,41.5,11.8
								z"/>
							<path fill="#393939" d="M41.3,11.8L41.3,11.8L41.3,11.8z"/>
							<path fill="#393939" d="M41.3,11.8C41.3,11.8,41.3,11.8,41.3,11.8C41.3,11.8,41.3,11.8,41.3,11.8
								C41.3,11.8,41.3,11.8,41.3,11.8L41.3,11.8C41.3,11.8,41.3,11.8,41.3,11.8C41.3,11.8,41.3,11.8,41.3,11.8z"/>
							<path fill="#393939" d="M41.4,11.8L41.4,11.8L41.4,11.8L41.4,11.8C41.4,11.8,41.4,11.8,41.4,11.8z"/>
							<polygon fill="#393939" points="41.5,11.8 41.6,11.8 41.5,11.8 							"/>
							<polygon fill="#393939" points="41.6,11.8 41.6,11.8 41.6,11.8 							"/>
							<path fill="#393939" d="M43.2,10.8L43.2,10.8L43.2,10.8z"/>
							<path fill="#393939" d="M43.1,10.8L43.1,10.8C43.1,10.8,43.1,10.8,43.1,10.8z"/>
							<path fill="#393939" d="M42.3,11.4C42.3,11.4,42.3,11.4,42.3,11.4L42.3,11.4C42.3,11.4,42.3,11.4,42.3,11.4z"/>
							<polygon fill="#393939" points="42.7,11 42.7,11 42.7,11.1 							"/>
							<path fill="#393939" d="M42.7,11L42.7,11L42.7,11z"/>
							<path fill="#393939" d="M43.5,10.7L43.5,10.7C43.5,10.7,43.5,10.7,43.5,10.7z"/>
							<path fill="#393939" d="M41.9,11.6C41.9,11.6,41.9,11.6,41.9,11.6C41.9,11.6,41.9,11.6,41.9,11.6z"/>
							<path fill="#393939" d="M43.2,11C43.2,11,43.2,11,43.2,11C43.2,11,43.2,11,43.2,11z"/>
							<path fill="#393939" d="M41.9,11.6L41.9,11.6C41.9,11.6,41.9,11.6,41.9,11.6C41.9,11.6,41.9,11.6,41.9,11.6z"/>
							<path fill="#393939" d="M44.3,10.1L44.3,10.1L44.3,10.1z"/>
							<path fill="#393939" d="M44.7,10.1L44.7,10.1C44.7,10.1,44.7,10.1,44.7,10.1z"/>
							<path fill="#393939" d="M41.7,11.7C41.7,11.7,41.7,11.7,41.7,11.7L41.7,11.7z"/>
							<path fill="#393939" d="M41.6,11.6C41.6,11.6,41.6,11.6,41.6,11.6C41.6,11.6,41.6,11.6,41.6,11.6z"/>
							<path fill="#393939" d="M41.9,11.4L41.9,11.4C41.9,11.4,41.9,11.4,41.9,11.4z"/>
							<path fill="#393939" d="M41.7,11.7L41.7,11.7L41.7,11.7z"/>
							<path fill="#393939" d="M41.7,11.7L41.7,11.7C41.7,11.7,41.7,11.7,41.7,11.7z"/>
							<polygon fill="#393939" points="41.7,11.7 41.7,11.7 41.7,11.7 							"/>
							<path fill="#393939" d="M43.9,10.6L43.9,10.6C43.9,10.6,43.9,10.6,43.9,10.6z"/>
							<polygon fill="#393939" points="42.4,11.1 42.4,11.1 42.4,11.1 							"/>
							<path fill="#393939" d="M42.4,11.1C42.4,11.1,42.4,11.1,42.4,11.1L42.4,11.1L42.4,11.1z"/>
							<path fill="#393939" d="M43.3,10.7L43.3,10.7C43.3,10.7,43.3,10.7,43.3,10.7C43.3,10.7,43.2,10.7,43.3,10.7L43.3,10.7
								L43.3,10.7c-0.1,0-0.1,0.1-0.1,0.1c0,0,0,0,0,0l0,0c0,0,0,0,0,0l0,0l0,0c0,0,0,0,0,0c0,0,0,0,0,0l0,0c0,0,0,0,0,0
								c0-0.1,0,0-0.1,0l0,0c0,0,0,0-0.1,0c0,0,0.1,0.1,0,0.1c0,0,0,0,0,0c0,0,0,0,0,0l0,0c0,0,0,0,0,0.1c0,0,0,0,0,0c0,0,0,0,0,0.1
								c0,0,0,0-0.1,0c0,0,0,0,0,0l0,0l0,0c0,0,0,0,0,0c0,0-0.1,0-0.1,0c0,0,0,0,0,0c0,0,0,0,0,0.1l0,0c0,0,0,0.1,0,0.1c0,0,0,0,0,0
								l0,0c0,0,0,0,0,0l0,0c0,0,0,0,0-0.1l0,0c0,0,0,0,0-0.1l0,0c0,0,0,0,0,0s0,0,0,0l0,0l0,0l0,0c0,0,0,0.1,0,0.1c0,0,0,0,0-0.1
								c0,0,0,0,0,0c0,0,0,0,0,0l0,0c0,0,0,0,0,0c0,0,0,0,0,0.1c0,0,0,0,0,0c0,0,0,0.1,0,0c0,0,0,0,0,0c0,0,0,0,0,0l0,0
								c0,0-0.1,0-0.1,0.1c0,0,0-0.1,0-0.1l0,0.2c0,0-0.1-0.1-0.1-0.1c0,0,0,0,0,0c0,0,0,0,0,0.1c0,0,0,0-0.1,0c0,0,0,0.1,0,0.1
								c0,0,0-0.1,0-0.1l0,0.1c0,0,0,0,0-0.1c0,0,0,0,0,0l0,0c0,0,0,0.1,0,0.1c0,0,0-0.1,0-0.1c0,0,0,0.2,0,0.2l0,0l0,0
								c0,0,0-0.2,0-0.2c0,0,0,0,0,0c0,0,0,0,0,0l0,0c0,0,0,0,0,0.1l0-0.1c0,0,0,0.1,0,0.1c0,0,0-0.1,0-0.1c0,0,0,0,0,0l0,0
								c0,0,0,0.1,0,0c0,0,0,0,0,0c0,0,0.1,0.1,0.1,0.2c0,0-0.1,0-0.1,0c0,0,0-0.1,0-0.1c0,0,0,0,0,0c0,0,0,0,0,0c0,0,0,0,0,0
								c0,0,0,0,0,0c0,0,0,0.1,0,0.1c0,0,0,0,0,0c0,0-0.1,0-0.1,0c0,0,0,0,0,0c0,0,0,0,0,0c0,0,0,0,0,0c0,0,0,0,0,0.1c0,0,0,0,0,0
								c0,0,0,0.1,0,0.1c0,0,0,0,0,0c0,0,0,0.1,0,0.1c0,0,0-0.1,0-0.1c0,0,0,0,0,0l0,0c0,0,0,0,0,0c0,0-0.1,0-0.1,0c0,0,0,0,0,0l0,0
								c0,0,0,0,0,0c0,0,0,0.1,0,0.1l0,0c0,0,0,0,0,0c0,0-0.1,0,0,0l0,0c0,0,0,0.1,0,0.1c0,0,0,0,0,0c0,0,0,0,0-0.1c0,0,0,0,0.1,0
								c0,0,0,0,0,0l0,0l0,0l0,0l0,0l0,0c0,0,0,0,0-0.1c0,0,0,0,0,0l0,0c0,0,0,0,0,0l0,0c0,0,0,0,0,0c0,0,0,0,0,0l0,0l0,0
								c0,0,0-0.1,0.1,0c0,0,0,0,0,0l0,0c0,0,0,0,0,0c0,0,0.1,0,0.1,0l0,0c0,0,0,0,0,0l0,0c0,0,0,0,0.1,0c0,0,0,0,0,0
								c0.1,0,0-0.1,0.1,0c0,0,0,0,0,0l0,0l0,0l0,0c0,0,0,0,0,0c0,0,0,0,0,0l0,0l0,0c0,0,0,0,0,0l0,0c0,0,0,0,0,0c0,0,0,0,0-0.1
								c0,0,0,0,0,0c0,0,0,0,0,0l0,0l0,0c0,0,0,0,0,0.1c0,0,0,0,0-0.1l0,0c0,0,0,0,0,0c0,0,0.1,0,0.2,0c0-0.1,0,0,0,0c0,0,0,0,0,0
								c0,0,0,0,0,0c0,0,0,0,0,0c0,0,0,0,0,0c0,0,0,0,0,0c0,0,0-0.1,0-0.1c0,0,0,0,0,0c0,0,0,0,0,0c0,0,0.1,0,0.1,0c0,0,0,0,0,0
								c0,0,0,0,0,0l0,0c0,0,0,0,0,0l0,0c0,0,0,0,0.1,0l0,0c0-0.1,0,0,0.1,0l0,0c0,0,0.1,0.1,0.1,0.1c0,0,0,0,0,0c0,0,0,0,0-0.1
								c0,0,0,0,0,0c0,0,0-0.1,0.1,0c0,0,0,0,0,0c0,0,0.1,0,0.1,0l0,0c0,0,0,0,0-0.1c0,0.1,0.1-0.1,0.1,0l0,0l0,0c0,0,0,0,0,0
								c0,0,0,0,0,0c0,0,0,0,0.1,0l0,0c0,0,0.1,0,0.1,0l0,0c0,0,0.1,0,0.1-0.1l0,0c0,0,0,0,0-0.1c0,0,0,0,0,0l0,0c0,0,0.1,0,0.1,0
								c0.1,0,0.1-0.1,0.2-0.1l0,0l0,0c0,0,0,0,0,0c0,0,0,0,0,0c0,0,0,0,0,0l0,0l0,0c0,0,0,0,0,0c0,0,0,0,0,0c0,0,0,0,0,0l0,0l0,0
								c0,0,0,0,0,0c0.1,0,0.1-0.1,0.1-0.1c0,0,0,0,0-0.1c0,0,0,0,0,0c0,0.1,0,0,0.1,0c0,0,0,0,0-0.1c0,0,0,0,0,0c0,0,0.1,0,0.1-0.1
								c0,0,0,0,0,0l0.1,0c0,0,0,0,0,0c0,0,0,0,0,0c0.1,0,0.1-0.2,0.2-0.2c0,0,0,0,0,0c0,0,0,0,0,0l0.1,0c0,0,0,0,0-0.1l0,0
								c0,0-0.1-0.1-0.1-0.1c0,0-0.1,0-0.1,0.1c0,0,0,0,0,0c0,0,0,0,0,0l0,0c0,0-0.1,0-0.1,0.1l0,0c0,0,0,0,0,0c0,0,0,0,0,0
								c0,0-0.1,0.1-0.1,0c0,0,0,0,0,0l0,0l0,0c0,0,0,0,0,0l0,0c0,0,0,0,0,0l0,0c0,0-0.1,0.1-0.1,0.1l0,0c0,0,0,0-0.1,0l0,0
								c0,0,0,0,0,0c0,0,0,0,0,0c0,0,0,0,0,0.1l0,0c0,0,0,0,0,0c0,0,0,0,0,0c-0.1,0,0,0.1-0.1,0c0,0.1,0,0,0,0c0,0,0,0,0,0
								c0,0-0.1,0-0.1,0l0,0c0,0,0,0,0,0c0,0,0,0,0,0l0,0c0,0,0,0.1,0,0.1c0,0,0,0,0,0c0,0,0,0,0,0c0,0,0,0,0-0.1c0,0,0,0,0,0
								c0,0.1,0,0,0,0.1l0,0c0,0,0,0,0,0l0,0c0,0,0,0,0,0c0,0,0,0,0,0c0,0.1-0.1,0-0.1,0c0,0,0,0,0,0c0,0,0,0,0,0c0,0,0,0,0,0
								c0,0,0,0,0,0l0,0c0,0,0,0.1,0,0l0,0l0,0l0,0c0,0,0,0,0,0c0,0,0,0,0,0.1c0,0,0,0,0,0c0,0,0,0,0,0l0,0c0,0,0,0,0,0l0,0l0,0
								c0,0,0,0,0,0c0,0,0,0,0,0c0,0,0,0,0-0.1l0,0c0,0,0,0,0,0c0,0,0,0.1-0.1,0c0,0,0,0,0,0C43.4,10.7,43.4,10.7,43.3,10.7
								L43.3,10.7C43.4,10.7,43.4,10.7,43.3,10.7C43.4,10.8,43.4,10.7,43.3,10.7C43.3,10.7,43.3,10.8,43.3,10.7
								C43.3,10.7,43.3,10.7,43.3,10.7z M43.1,10.8C43.1,10.8,43.1,10.8,43.1,10.8C43.1,10.8,43.1,10.8,43.1,10.8z M42.7,11
								C42.7,11,42.7,11,42.7,11C42.7,11,42.7,11,42.7,11z M41.7,11.6L41.7,11.6C41.8,11.6,41.8,11.6,41.7,11.6z M41.7,11.6
								L41.7,11.6C41.7,11.7,41.7,11.6,41.7,11.6C41.7,11.6,41.7,11.6,41.7,11.6z M44.1,10.7L44.1,10.7
								C44.1,10.7,44.1,10.7,44.1,10.7z"/>
							<path fill="#393939" d="M42.7,11C42.7,11,42.7,11,42.7,11C42.7,11,42.7,11,42.7,11z"/>
							<polygon fill="#393939" points="43.5,10.7 43.5,10.7 43.5,10.7 							"/>
							<path fill="#393939" d="M42,11.3L42,11.3C42,11.3,42,11.3,42,11.3z"/>
							<path fill="#393939" d="M41.6,11.7L41.6,11.7C41.6,11.7,41.6,11.7,41.6,11.7C41.6,11.7,41.6,11.7,41.6,11.7z"/>
							<path fill="#393939" d="M41.4,11.7L41.4,11.7L41.4,11.7C41.4,11.7,41.4,11.7,41.4,11.7z"/>
							<path fill="#393939" d="M41.6,11.7C41.6,11.7,41.6,11.7,41.6,11.7L41.6,11.7C41.6,11.7,41.6,11.7,41.6,11.7z"/>
							<path fill="#393939" d="M41.6,11.7L41.6,11.7C41.5,11.7,41.5,11.7,41.6,11.7z"/>
							<path fill="#393939" d="M41.7,11.7C41.7,11.7,41.7,11.7,41.7,11.7C41.7,11.7,41.7,11.6,41.7,11.7z"/>
							<polygon fill="#393939" points="41.5,11.6 41.6,11.6 41.5,11.6 							"/>
							<path fill="#393939" d="M41.6,11.6L41.6,11.6L41.6,11.6C41.6,11.6,41.6,11.6,41.6,11.6z"/>
							<path fill="#393939" d="M41.6,11.6C41.6,11.6,41.6,11.6,41.6,11.6C41.6,11.6,41.6,11.6,41.6,11.6z"/>
							<polygon fill="#393939" points="41.6,11.6 41.6,11.6 41.6,11.6 							"/>
							<path fill="#393939" d="M41.8,11.5L41.8,11.5C41.8,11.5,41.8,11.5,41.8,11.5C41.8,11.5,41.8,11.5,41.8,11.5z"/>
							<path fill="#393939" d="M41.7,11.5C41.7,11.5,41.7,11.5,41.7,11.5L41.7,11.5L41.7,11.5z"/>
							<path fill="#393939" d="M41.7,11.4C41.7,11.4,41.8,11.4,41.7,11.4C41.7,11.4,41.7,11.4,41.7,11.4z"/>
							<polygon fill="#393939" points="42,11.4 42,11.4 42,11.4 							"/>
							<path fill="#393939" d="M42.2,11.1C42.2,11.1,42.2,11.2,42.2,11.1C42.2,11.2,42.2,11.2,42.2,11.1
								C42.2,11.2,42.2,11.2,42.2,11.1z"/>
							<path fill="#393939" d="M42.2,11.2L42.2,11.2C42.2,11.2,42.2,11.2,42.2,11.2z"/>
							<polygon fill="#393939" points="44.7,10.1 44.7,10.1 44.7,10.1 							"/>
							<path fill="#393939" d="M44.7,10L44.7,10L44.7,10C44.7,10,44.7,10,44.7,10z"/>
							<path fill="#393939" d="M43,10.8L43,10.8C43,10.8,43,10.8,43,10.8L43,10.8z"/>
							<polygon fill="#393939" points="43.2,10.7 43.2,10.7 43.2,10.8 							"/>
							<path fill="#393939" d="M43.4,10.7C43.3,10.7,43.3,10.7,43.4,10.7C43.3,10.7,43.4,10.7,43.4,10.7z"/>
						</g>
					</g>
				</g>
			</g>
		</g>
	</g>
</g>
</svg>
