<?xml version="1.0" encoding="utf-8"?>
<!-- Generator: Adobe Illustrator 18.0.0, SVG Export Plug-In . SVG Version: 6.00 Build 0)  -->
<!DOCTYPE svg PUBLIC "-//W3C//DTD SVG 1.1//EN" "http://www.w3.org/Graphics/SVG/1.1/DTD/svg11.dtd">
<svg version="1.1" id="Layer_1" xmlns="http://www.w3.org/2000/svg" xmlns:xlink="http://www.w3.org/1999/xlink" x="0px" y="0px"
	 viewBox="0 0 1366 3743" enable-background="new 0 0 1366 3743" xml:space="preserve">
<path fill="#F2F9F9" d="M1450.8,606.1l422.6-317.6l-318.8-781.1L936.1-658.3l-739,257.5c0,0,147.9,661.1,499.7,509.4
	s322.8,274.6,322.8,274.6S1016.6,854.6,1450.8,606.1z"/>
<path fill="#B8D0F2" d="M298.4-318.7c0,0,83.1,433.8,426.2,263.5s337.1,256.9,337.1,256.9l0.5,40.1c0,0,4.1,363.7,347.3,193.3
	l252.8-393.7l-397.4-530.7l-612.7,12.8L298.4-318.7z"/>
<g>
	<path fill="#EBF2FF" d="M2013.3,2839.6c-58.8,24.9-120.8,50.4-184.4,43.8c-103.5-10.7-178.2-100.9-238.3-185.9
		s-126.8-178.5-228.2-202.1c-78.6-18.3-160,10.6-233.2,44.4c-63,29.1-125.2,62.9-173.2,112.9c-64.1,66.8-97.8,156.7-151.6,232.1
		c-105.3,147.7-282.6,230.5-461.2,262.1c-53.3,9.5-108.2,15.2-157.7,37.2c-64.3,28.6-113.7,82-160.8,134.3
		c-42.4,47.1-86,97.1-101.4,158.5c-9.3,37-7.6,75.9-14.2,113.5c-8.9,51.4-32.8,99.2-41.8,150.6c-13.8,78.5,8.2,159.1,40.4,232
		C-53.2,4061.3,6,4147,94.6,4185c36.5,15.6,76.1,22.3,115.4,27.7c126.2,17.3,254.1,22.2,381.3,14.7c66.7-4,133.7-11.4,197.5-31.5
		c74.7-23.5,143-63.4,210.5-103.1c145.4-85.4,292.4-172,412-290.9c70.5-70,130.4-150.3,202.4-218.7
		c113.8-108.1,254.6-183.6,375.9-283.2c121.3-99.7,227.7-236.6,230.8-393.6"/>
</g>
<g>
	<path fill="#2B65C1" d="M1747.3,4575.4c-59.2-24-121.1-49.8-161.4-99.4c-65.6-80.7-54.7-197.4-37.1-299.9
		c17.6-102.5,36.5-215.9-18.5-304.2c-42.6-68.5-120.6-105.6-196.3-133.5c-65.1-24-133-44-202.3-42.6c-92.6,1.9-180,41.6-271.3,56.9
		c-178.9,29.9-362.8-36.9-511.5-140.8c-44.4-31-87.2-65.8-137.8-85.2c-65.7-25.3-138.4-22.4-208.7-18.8
		c-63.3,3.3-129.4,7.8-183.8,40.4c-32.7,19.6-59,48.2-90.2,70.2c-42.6,30-93.3,47-136,76.9c-65.2,45.7-106.7,118.3-135.4,192.6
		c-34.8,89.9-53.5,192.4-17.7,281.9c14.7,36.9,38,69.6,62,101.2c77,101.5,164,195.4,259.2,280c50,44.4,102.7,86.5,161.9,117.4
		c69.4,36.3,146,56.2,221.8,76c163.2,42.4,328.4,85.1,497,85.7c99.4,0.3,198.5-14.1,297.8-11.5c157,4,309.8,50.2,466.1,65.5
		s328.3-6.3,441.5-115.1"/>
</g>
<g>
	<g>
		<g>
			<g>
				<g>
					<path fill="#363636" d="M978.8,3140.1c1-0.7,0.6-0.5,0.7-0.6C978,3140.7,978.9,3140.1,978.8,3140.1z"/>
					<polygon fill="#363636" points="963,3152.2 963.2,3152 960.8,3153.7 					"/>
					<path fill="#363636" d="M947.4,3162.5c1.5-0.9,5.7-3.6,8.6-5.3l0.5-0.3l1.2-0.9c-1.6,1.2-3.6,2.4-5.5,3.6
						C950.3,3160.6,948.6,3161.7,947.4,3162.5z"/>
					<path fill="#363636" d="M938.7,3167.4c0.6-0.3-1.9,1.1,2-1.1c-0.2,0.1-0.3,0.1-0.4,0.2C940,3166.6,939.5,3166.9,938.7,3167.4z"
						/>
					<path fill="#363636" d="M940.4,3166.5C942.1,3165.5,939.2,3167.1,940.4,3166.5L940.4,3166.5z"/>
					<path fill="#363636" d="M932.4,3170.9l2.3-1.3c-0.5,0.2-2.5,1.4-1.8,0.9C930.6,3171.8,931.1,3171.6,932.4,3170.9z"/>
					<path fill="#363636" d="M930.3,3172.1l1.2-0.7C931.3,3171.6,931,3171.7,930.3,3172.1z"/>
					<path fill="#363636" d="M934,3170.1l-2.5,1.4c0.3-0.2,0.4-0.2,1.1-0.6C932.4,3170.9,932.9,3170.7,934,3170.1z"/>
					<path fill="#363636" d="M935.4,3169.3c1.3-0.7,2.9-1.6,0.7-0.3C940.4,3166.6,939.7,3166.9,935.4,3169.3z"/>
					<path fill="#363636" d="M946.6,3163l1.7-1l1.4-0.9C949,3161.6,946.5,3163.1,946.6,3163z"/>
					<path fill="#363636" d="M918,3178.1c-0.1,0.1,0.8-0.3,1-0.4l1.7-0.9C919.8,3177.2,918.1,3178.1,918,3178.1z"/>
					<path fill="#363636" d="M919,3177.7c0,0-0.6,0.3-1.3,0.6c-0.3,0.2-0.6,0.3-0.9,0.4c-0.2,0.1-0.4,0.2-0.4,0.2
						C918.7,3177.9,919.1,3177.6,919,3177.7z"/>
					<path fill="#363636" d="M929.9,3172.4c0,0,0.3-0.1,0.6-0.4c0.4-0.2,0.9-0.5,1.4-0.8c1-0.6,2-1.2,2-1.2s-1.2,0.7-2.4,1.4
						C931,3171.8,930.4,3172.2,929.9,3172.4c-0.5,0.2-0.8,0.4-0.8,0.4L929.9,3172.4z"/>
					<polygon fill="#363636" points="908,3182.5 909.5,3181.9 906.9,3183.1 					"/>
					<path fill="#363636" d="M901.4,3185.4c1.1-0.5-1.6,0.5-0.4,0.1c-1.8,0.7-3.4,1.3-4.8,1.9
						C897.7,3186.8,899.3,3186.2,901.4,3185.4z"/>
					<path fill="#363636" d="M893.8,3188.3c0.7-0.3,1.5-0.6,2.4-0.9C895.4,3187.7,894.6,3188,893.8,3188.3z"/>
					<path fill="#363636" d="M912,3180.9c-0.2,0.1-0.6,0.2-2.1,0.9l1-0.4C911.2,3181.2,911.6,3181.1,912,3180.9z"/>
					<path fill="#363636" d="M911,3181.3L911,3181.3c-1.2,0.5-1.9,0.8-2.3,1C909,3182.2,909.7,3181.9,911,3181.3z"/>
					<path fill="#363636" d="M912.2,3180.8c-0.1,0-0.2,0.1-0.3,0.1C912.1,3180.9,912.1,3180.8,912.2,3180.8z"/>
					<path fill="#363636" d="M923.2,3175.7c-1.5,0.8-4.6,2.3-1.6,0.9C922.7,3176,920.9,3176.8,923.2,3175.7z"/>
					<path fill="#363636" d="M913.5,3180.3l2.8-1.2c-0.1,0-0.6,0.2,0.2-0.1L913.5,3180.3z"/>
					<polygon fill="#363636" points="912.2,3180.9 913.5,3180.3 912.5,3180.7 					"/>
					<path fill="#363636" d="M898.7,3186.5c-1.2,0.5-2.6,1-4.1,1.6c1.6-0.6,3.3-1.3,4.9-1.9C899.7,3186.1,900.4,3185.8,898.7,3186.5
						z"/>
					<path fill="#363636" d="M904.7,3184.1c-0.1,0-0.2,0.1-0.3,0.1C904.6,3184.1,904.7,3184.1,904.7,3184.1z"/>
					<path fill="#363636" d="M879.6,3193.4c0.1,0,0.2,0,0.2-0.1c0,0,0,0,0.1,0L879.6,3193.4z"/>
					<path fill="#363636" d="M899.8,3186.1c1.2-0.5,1.9-0.8,2.6-1c-0.9,0.4-1.9,0.7-2.9,1.1C899.4,3186.2,899.4,3186.2,899.8,3186.1
						z"/>
					<path fill="#363636" d="M889.7,3189.9c0.6-0.2,1.4-0.5,2.1-0.8C891.2,3189.4,889.9,3189.8,889.7,3189.9z"/>
					<path fill="#363636" d="M904,3184.4c0.1,0,0.1-0.1,0.2-0.1C903.8,3184.5,903.9,3184.4,904,3184.4z"/>
					<path fill="#363636" d="M904,3184.4c-0.6,0.3-1.1,0.5-1.6,0.7c0.7-0.3,1.4-0.6,2-0.9C904.3,3184.3,904.1,3184.3,904,3184.4z"/>
					<path fill="#363636" d="M875.1,3195.2c0.2-0.1,3.5-1.2,6.3-2.2c2.8-1,0.9-0.5-1.5,0.3c-0.1,0-0.1,0.1-2.9,1
						c1-0.3,6.3-2.1,3.9-1.2c-3.8,1.3-3.1,1-4.9,1.6c0.8-0.3-0.4,0.2-1.7,0.6c-1.3,0.4-2.7,0.8-2.3,0.8l3.3-1
						C875.3,3195.1,874.1,3195.5,875.1,3195.2z"/>
					<path fill="#363636" d="M885.2,3191.5l1.2-0.4c-1.3,0.4-2.3,0.7-4.1,1.3c-1.9,0.7-2.3,0.8-2.5,0.9l5.8-1.9L885.2,3191.5z"/>
					<path fill="#363636" d="M891.6,3189.2c-0.9,0.4-3.7,1.5-1.9,0.9c3.4-1.3,2.4-1,4.4-1.7C888.6,3190.5,895.6,3187.7,891.6,3189.2
						c1.1-0.4,2.1-0.8,3-1.2c-1,0.4-1.9,0.7-2.8,1.1c0,0,0.1,0,0.1,0l0,0l0,0c0.2-0.1,0.3-0.1,0,0c0,0-0.1,0-0.1,0
						C891.8,3189.1,891.7,3189.2,891.6,3189.2c-1.6,0.6-0.3,0.1,0.2-0.1c0,0,0,0,0.1,0l0,0c0,0-1.4,0.5-2.7,1.1
						c-1.4,0.5-2.8,1-2.8,1C887.6,3190.7,889.1,3190.3,891.6,3189.2z"/>
					<path fill="#363636" d="M918.9,3178c-0.2,0.1-0.2,0.1-0.2,0.1C918.3,3178.3,918.2,3178.3,918.9,3178z"/>
					<path fill="#363636" d="M916.7,3179.1c0.4-0.2,0.7-0.4,1.9-1c1.1-0.5,0,0,0.1,0c0.7-0.4,2.6-1.3,0.3-0.2l-0.4,0.2
						c-0.5,0.3-1.1,0.5-1.7,0.8c-0.6,0.2-1.1,0.5-1.6,0.7c-0.9,0.4-1.5,0.6-1.3,0.6C914.6,3179.9,915.2,3179.7,916.7,3179.1z"/>
					<path fill="#363636" d="M904.1,3184.5c0,0-0.3,0.1-0.7,0.3c-0.4,0.2-1,0.4-1.6,0.6c-1.1,0.4-2.3,0.9-2.3,0.9l2.3-0.9l-0.1,0
						C904.4,3184.5,903.8,3184.6,904.1,3184.5z"/>
					<polygon fill="#363636" points="879,3193.6 879.6,3193.3 877,3194.3 					"/>
					<polygon fill="#363636" points="873,3195.5 873.2,3195.4 871.6,3195.9 					"/>
					<path fill="#363636" d="M518.5,3186.3l-1.4-0.3C517.8,3186.2,518.2,3186.3,518.5,3186.3z"/>
					<path fill="#363636" d="M528.8,3188.3l0.3,0C528.5,3188.2,528.3,3188.2,528.8,3188.3z"/>
					<path fill="#363636" d="M718.9,3213.8c-2.1-0.1-4.4-0.2-4.2-0.2l0.6,0.1C716.8,3213.8,717.9,3213.8,718.9,3213.8z"/>
					<path fill="#363636" d="M612.7,3203.1c0.2,0,0.4,0.1,0.6,0.1c0.5,0.1,1,0.1,1.4,0.2C614.1,3203.3,613.4,3203.2,612.7,3203.1z"
						/>
					<path fill="#363636" d="M611.2,3203.1l-2.7-0.5C609.1,3202.7,609.9,3202.9,611.2,3203.1z"/>
					<path fill="#363636" d="M462.8,3175.6l-1.7-0.3C463.7,3175.8,462.6,3175.6,462.8,3175.6z"/>
					<path fill="#363636" d="M809.6,3209.5c-1.8,0.2-3.2,0.4-4.5,0.6C807.3,3209.9,809,3209.7,809.6,3209.5z"/>
					<path fill="#363636" d="M522.6,3186.6c-0.9-0.2-1.2-0.2-1.2-0.2C522.3,3186.6,522.8,3186.7,522.6,3186.6z"/>
					<path fill="#363636" d="M799.9,3210.8c0.3,0,0.6-0.1,0.9-0.1c1.3-0.1,2.6-0.4,4.2-0.6C803.5,3210.3,801.7,3210.6,799.9,3210.8z
						"/>
					<path fill="#363636" d="M260.5,3136.6c-0.1,0-0.3-0.1-0.5-0.1C260,3136.5,260.2,3136.5,260.5,3136.6z"/>
					<path fill="#363636" d="M201.7,3124.8c0.6,0.1,1.5,0.3,2.4,0.5C203.7,3125.2,203,3125,201.7,3124.8z"/>
					<path fill="#363636" d="M848.3,3202.2C849.7,3201.9,848.6,3202.2,848.3,3202.2L848.3,3202.2z"/>
					<path fill="#363636" d="M854.7,3200.8c-0.3,0.1-0.5,0.1-0.5,0.2C854.3,3200.9,854.5,3200.9,854.7,3200.8z"/>
					<path fill="#363636" d="M786.6,3212.5c0,0-0.1,0-0.1,0C786.9,3212.5,786.8,3212.5,786.6,3212.5z"/>
					<path fill="#363636" d="M850.3,3201.8c-0.5,0.1-1.1,0.3-1.7,0.4C848.9,3202.1,849.4,3202,850.3,3201.8z"/>
					<path fill="#363636" d="M850,3201.8c0.5-0.1,0.8-0.2,1.1-0.3C851.4,3201.5,851.2,3201.5,850,3201.8z"/>
					<path fill="#363636" d="M846.5,3202.7c0.7-0.2,1.4-0.4,2.1-0.5c-0.3,0.1-0.4,0.1-0.3,0.1C848,3202.3,847.4,3202.5,846.5,3202.7
						z"/>
					<path fill="#363636" d="M368.9,3157.4c-0.1,0-0.2,0-0.3-0.1C367.3,3157.1,367.9,3157.2,368.9,3157.4z"/>
					<path fill="#363636" d="M683.9,3212.2c0.1,0,0.1,0,0.2,0C684,3212.2,683.9,3212.2,683.9,3212.2L683.9,3212.2z"/>
					<path fill="#363636" d="M679,3211.8c2.1,0.1,3.2,0.3,4.8,0.4l-1.6-0.3L679,3211.8z"/>
					<path fill="#363636" d="M494.1,3181.6l3.3,0.7c-4-0.7-6.9-1.3-3.8-0.6c0.5,0,13,2.5,13.5,2.4l2.2,0.5c-0.6-0.1-0.7-0.1-1.4-0.3
						c4.3,0.9,3.2,0.5,8.7,1.6c1.9,0.4,3.3,0.7,1.9,0.4l4.3,0.8c1.2,0.2,0.9,0.2-0.3,0l6.5,1.2l0,0c0.9,0.2,3.1,0.5,4.1,0.7
						c1.7,0.3-0.8-0.1-0.4,0l3.6,0.7c1.5,0.3-1.5-0.2-4-0.7c3.4,0.8,3,0.5,10.3,2l-3.4-0.6c2.2,0.5,4.9,1,8.7,1.8
						c-0.9-0.2-7.7-1.6-3.8-0.9c1.1,0.2,2.6,0.5,4.7,0.9c0,0,0.1,0,0.4,0.1c0.2,0,0.6,0.1,1,0.2c0.8,0.2,2,0.4,3.3,0.6l-0.2,0
						c2.8,0.5,2.6,0.4,4.2,0.7c3.1,0.6,3.8,0.8,4.5,0.9c5,0.9-3.4-0.7,2.5,0.4c4.2,0.8,7.1,1.3,12.1,2.1c2.9,0.6-0.5-0.1,0.5,0.2
						l2.6,0.4c0.6,0.1,0.4,0.1,0.3,0.1c2.2,0.4,0.2,0,3.6,0.5c0.9,0.1,7,1.3,11.3,2c1,0.2-0.5,0-0.2,0c5.8,0.9,5,0.8,9.8,1.5
						l4.1,0.7c-3-0.5,0.8,0,4.2,0.5c-1.1-0.2-2-0.3-2.6-0.5l5.4,0.8c0.6,0.1,0.1,0-0.8-0.1c0.4,0.1,0.7,0.1,1,0.1
						c1.9,0.3,0.9,0.2-0.5,0c-0.6-0.1-1.3-0.2-1.9-0.3c-1.3-0.2-2.6-0.3-2.3-0.2c0.4,0.1,1,0.1,1.8,0.3c-0.3,0-0.6-0.1-0.4,0
						c0.2,0,0.7,0.1,1.6,0.2l1.2,0.3l0.3,0l7,1.1c5,0.7,9.5,1.2,17.4,2.3c-2-0.2-0.4,0-0.6,0.1c-2.2-0.3-6.2-0.8-10.3-1.4
						c2.2,0.3,1.7,0.3,1.1,0.2l7.4,1c-0.2,0,1.6,0.3,3.5,0.5c-1.4-0.3,5.5,0.6,8.5,1c0.2,0.1-0.5,0-4.2-0.5c4,0.6,5.2,0.6,9.2,1.1
						c-0.9-0.1-1.3-0.1-1.7-0.2c2.1,0.2,7.2,0.8,6,0.7l-0.9-0.1c3,0.3,7.5,0.9,11.4,1.3c3.9,0.4,7.2,0.7,7.6,0.7c0.1,0-0.8,0-1.2,0
						c0,0,2.7,0.2,5.3,0.4c1.3,0.1,2.7,0.2,3.7,0.2c1,0,1.7,0.1,1.7,0.1c-0.9,0,2.6,0.5-2.3,0.1c1.4,0.1,3.2,0.3,6.2,0.5
						c-1-0.1-2.4-0.3-1.1-0.2c3.7,0.3,2.5,0.2,7,0.7c-1.5-0.1,0.2-0.1,2.5,0c-0.4,0,0.2,0.1-0.7,0.1l5.7,0.2c-1.4-0.1-0.3,0.1,1,0.2
						c-0.6-0.1,4.9,0.3,6.5,0.4l-2.4-0.2c3.2,0.2,4.8,0.2,6.4,0.2c1.6,0,3.2,0,6.4,0.1c-0.8,0-1.9,0.1,1.3,0.2c0.8,0,2.4,0,4.6,0
						c2.2,0,4.9-0.1,7.7-0.1l1.1,0l4.4,0c-2.7,0-10.3,0.2-14.5,0.2c2.4,0.1,0.7,0.1,4.3,0.1c1.3,0-2,0-3,0l8.4,0.1
						c-0.4-0.1,6.5,0,6.1-0.1l-9.2,0c-0.4-0.1,5.3-0.1,11.3-0.1c1.5,0-1.1,0.1-1,0.2c0.8,0,5.7-0.1,6.2-0.1l-2.5,0.1
						c3.3,0,5.4-0.2,9.4-0.2c1.4,0,4.1-0.1,4.4-0.1c-2.3,0-2.7-0.2-1.2-0.3c0.5,0,7.2-0.2,8.8-0.3c2.3,0-3.4,0.3-1.5,0.3
						c0.1,0,1.3-0.1,1.9-0.1c1.5,0-0.6,0.1,2.6-0.1c0.5,0,6.4-0.5,1.5-0.1c3.1-0.2,3.3-0.2,6.9-0.5c-1.2,0,3.2-0.4,6.3-0.6
						c-0.2,0,0.5,0,0.8,0c6.3-0.7,9.7-1,15.5-1.6c0.5-0.1,3.4-0.4,2.2-0.2c0.8-0.1,1.6-0.2,3.4-0.5c3.5-0.4-4,0.6-1.3,0.3
						c0.2-0.1,4.6-0.7,7.2-1.1c-0.8,0.1-5.9,0.8-8.5,1.2c0,0,0.3-0.1,0.8-0.2c0.5-0.1,1.3-0.2,2.2-0.4c1.9-0.3,4.5-0.7,7.6-1.2
						c4.8-0.8,2.1-0.3,2.9-0.4c4.5-0.8,6.4-1.2,8.2-1.5c0.9-0.2,1.7-0.3,2.8-0.5c1.1-0.2,2.4-0.4,4.3-0.8c3-0.6,0.2,0.1,0.8,0
						c-1.9,0.4-3.4,0.7-4.8,0.9c-1.4,0.2-2.5,0.4-3.9,0.7l3.3-0.6c-1.2,0.2-3.9,0.7-5.3,0.9c1.2-0.2,5.1-0.8,9.5-1.7
						c4.4-0.9,9.3-2,12.7-2.7c1.2-0.3,3.3-0.9,2.3-0.6l-2.2,0.6c-2,0.4,4.1-1.1,1.3-0.4c2.9-0.8,6.2-1.6,10.3-2.6l0.8-0.1
						c-0.1,0-2.7,0.6-3.8,1c1.7-0.5,6.3-1.4,8.2-2.1c0,0-0.7,0.2-1.4,0.4c-0.7,0.2-1.4,0.4-1.4,0.4c2.9-0.8,6.5-2,10.1-3
						c-1.7,0.4-0.8,0.3-3.4,0.9c2.2-0.6-9.2,2.7-5.6,1.7c-2.8,0.7-4.6,1.1-8.1,1.9c0.1,0,1.2-0.3-1.8,0.5c-0.1,0-0.5,0.1-0.7,0.2
						c-0.1,0-0.1,0-0.2,0.1c0.1,0,0.1,0,0.2,0c-0.1,0-0.1,0,0.1,0c0.7-0.2,1.3-0.3,1.6-0.4c-1.5,0.4-6.4,1.7-8,2
						c-1.8,0.4,0.8-0.2-0.2,0l-2.5,0.6c-0.3,0-4.9,1-0.6,0l-3.9,0.8c-2.3,0.4-5.4,1.2-7.4,1.5c-1.8,0.3-4.6,0.9-3,0.6l-6.1,1.1
						l-0.1,0c-3,0.6-6.1,1-9.4,1.5c-3.2,0.4-6.6,1-10.1,1.4c-2.1,0.2-4.2,0.5-7.6,0.8l-0.7,0c-1.3,0.1-3.3,0.3-5.1,0.5
						c-1.8,0.1-3.4,0.3-4,0.3c-2.9,0.1-12.8,1-17.5,1.1l-0.2,0.1c-3.2,0.1-6.3,0.3-10.3,0.4l0.2,0c-3.4,0.1-8.8,0.1-14.3,0.2
						c0.4,0,1.7,0,2.7,0c-3.2,0-6.7-0.1-10-0.1c-3.3,0-6.6,0-9.6-0.1c-1.5,0-2.5-0.1-3.6-0.1c0.1,0,0.3,0,0.4,0c-0.2,0-0.4,0-0.6,0
						c-0.6,0-1.3-0.1-2-0.1c0.6,0,1.2,0.1,1.7,0.1c-1.1,0-2.8-0.1-4.5-0.1l-0.7-0.1c-0.1,0-0.2,0-0.4,0c-1.6-0.1-1.3,0-0.4,0
						c-0.8,0-1.6,0-2.2,0c-1.3-0.2-4.4-0.2-6.2-0.4c-1.1,0-8.4-0.4-9.3-0.4c-0.1,0-0.6-0.1,0.4,0c-1.9-0.2-3.7-0.3-5.4-0.4l-0.8-0.1
						l-4.1-0.2c-2.5-0.2-3.5-0.3-1-0.2c-6-0.4-4.8-0.4-9.9-0.8l0.3,0c-1.8-0.2-4.7-0.4-5.8-0.5c-4-0.4-20-2.2-30.3-3.7
						c1,0.2-0.2,0-1.7-0.2c-1.5-0.2-3.3-0.5-3.5-0.5c-0.6-0.1-2-0.3-0.4-0.1c-5.3-0.7-7.9-1.2-11.5-1.6c-0.6-0.1,1.1,0.1,0.6,0
						c-0.4-0.1-1.7-0.2-2.2-0.3c-0.5-0.1,0.8,0.1,1.6,0.2c-5.4-0.8-5.9-0.8-6.3-0.8c-2.7-0.5-4.1-0.7-6-0.9
						c-0.9-0.2-2.5-0.4,0.8,0.1c-0.9-0.1-3.8-0.6-6.4-1.1c-1.3-0.2-2.6-0.4-3.6-0.6c-1-0.2-1.6-0.2-1.6-0.2
						c-0.6-0.1-2.6-0.4-3.1-0.5c-4.2-0.7-4.6-0.8-8.7-1.5l1.1,0.2c-1.6-0.2-3.4-0.6-6.8-1.2l0.1,0c-7.6-1.4-3.3-0.6-10.8-2l0.4,0.1
						c-0.7,0-6.6-1.3-11-2l1.6,0.3c-2.4-0.4-6.6-1.4-9-1.8c-0.5-0.1,0.8,0.1,1.6,0.3c-6.2-1.2-0.8-0.1-5.5-0.9
						c-0.9-0.2,1.1,0.1-2-0.5c-1.6-0.3-9.1-1.6-13.4-2.5c0.9,0.2,1.9,0.4-0.3,0c-3.3-0.6-8.9-1.8-11.9-2.3c-0.4-0.1-0.6-0.1-0.6-0.1
						c-2.5-0.5-8.2-1.6-9.8-1.8c-1.2-0.3-5.1-1-8.7-1.7c-1.8-0.3-3.6-0.7-4.8-0.9c-0.6-0.1-1.2-0.2-1.5-0.3
						c-0.4-0.1-0.6-0.1-0.6-0.1l-7.8-1.5l0.2,0c-5-1-6.7-1.3-8.5-1.6c-1.1-0.2-0.3-0.1-0.2-0.1c-7.3-1.4-8-1.6-14.1-2.7l-0.6-0.2
						c-1.7-0.3-10.5-2.1-17.6-3.4c0.1,0,0.2,0,0.8,0.1c-8-1.5-19.2-3.8-22.2-4.2l-5.3-1c6.8,1.3-1-0.1,1.8,0.5
						c-2.7-0.5-7-1.4-3.6-0.8l0.5,0.1c1.2,0.1-8.5-1.7-8.3-1.7c-13.5-2.6-26.6-5.2-39.2-7.6l1.4,0.4l-4.4-0.9
						c-1.2-0.2-1.5-0.4,1.6,0.3c-0.8-0.2-2.1-0.4-3.3-0.6s-2.1-0.4-2.1-0.4c-6.1-1.2,2.4,0.4,0.5,0l-2.6-0.5l0.6,0.1
						c-2.1-0.4-2.3-0.4-6.1-1.1c-2.4-0.5-1.2-0.3-2.2-0.5c0,0-0.3-0.1-1.4-0.3l-5.5-1.1l2.2,0.5c-2.5-0.4-5.2-1-2.7-0.5
						c-3.7-0.8-20.7-4-23-4.5c-3.5-0.6-6.9-1.3-11.1-2.1c1,0.2,1.7,0.4-2-0.3c1.4,0.1-6.6-1.3-9.6-2c2.6,0.6-10.3-2-6.2-1.1
						c-3-0.6-0.2-0.1-2.5-0.6c-7.2-1.4-15.9-3.1-24.8-4.8c-0.1,0,1.3,0.3-0.6,0l-4.7-1c-1.8-0.3-1.6-0.2-4.8-0.9
						c0.5,0.1,1.1,0.3-0.1,0c-17.5-3.5-35.7-6.8-53.4-10.4c2.4,0.5,0.8,0.2-1-0.2c1.2,0.2,0,0,0.2,0.1l-7.4-1.5
						c-1.4-0.2-8-1.5-8.8-1.6l2.4,0.4c-3.1-0.5,4.3,1,3.9,1c3.5,0.6,9.2,1.9,15,2.9c1.3,0.3-1.1-0.2-0.4,0c1.5,0.2,3.2,0.6,6.5,1.2
						l-0.4-0.1c9.2,1.8,13.1,2.6,23.4,4.6l-0.8-0.2c2.2,0.4,2.7,0.5,3.7,0.7c2.6,0.4-6.2-1.2-3.9-0.8c2.9,0.7,15.6,3,17.6,3.5
						c3.4,0.7-1-0.2,2.4,0.4l0.9,0.2l0.9,0.1c2.2,0.4,3.3,0.7,3.4,0.7c-0.5-0.1-1.5-0.3-2.1-0.4c2.9,0.6,8.2,1.6,9.1,1.8l-3.3-0.6
						c9.3,1.8,20.6,3.9,29.6,5.7l-0.7-0.2c6.9,1.3,5.5,1.1,13,2.5l-0.3,0c1.5,0.3,3.5,0.7,5.6,1c-1.9-0.3,3.6,0.7,1.1,0.3
						c7.4,1.4,3.7,0.7,8.6,1.5l1.1,0.3c1.7,0.3,1.8,0.3,5.6,1c-3.1-0.6,2.4,0.5-1.1-0.1c7.9,1.6,11.7,2.2,15.3,3
						c3.6,0.6-6.8-1.4-4.8-1c-1.7-0.4,3,0.5,5.5,1c2.5,0.5,4.3,1,10.6,2.2c-0.6-0.1-0.7-0.1-1.3-0.2c2.4,0.5,4.7,0.9,7.6,1.5
						c1.6,0.3,3.8,0.7,4.3,0.7l-5.8-1.1c3.3,0.6,6.4,1.1,11.8,2.2c-0.4-0.1-2.1-0.4-3.2-0.6c1.6,0.3,3,0.6,4.7,0.9
						c-0.5,0-7.1-1.3-10.6-2c1.7,0.4,6.7,1.2,4.9,1c2.6,0.4,6.2,1.2,10.5,2l-0.3,0c0.7,0.1,2.1,0.4,3.3,0.6l-2.3-0.4
						c3.5,0.6,6.7,1.3,10,2c-7-1.3-1.6-0.4-4.5-1c8.6,1.6,4.9,1.1,14.6,2.9c-1.3-0.2-4.9-1-2.8-0.6c1.8,0.4,4.2,0.9,5.4,1.1
						c6.4,1.2-1-0.2,1.8,0.3c2.2,0.5,3.1,0.6,5.9,1.1l0,0.1c7.3,1.4,1.9,0.3,8.5,1.6l-2.8-0.5l3.4,0.6l-0.7-0.1
						c3.7,0.7,4.9,0.9,8.5,1.6c-0.8-0.2,0.5,0,3.7,0.6c2.2,0.5-1.2-0.2,3.3,0.7c-1-0.2-2.2-0.3-4.2-0.8c-0.2,0-1-0.2-1.2-0.2
						c2.4,0.5,5.9,1.2,7.6,1.5c-0.6-0.1-1.4-0.3-1.8-0.4l6.6,1.2c1,0.2,0.2,0.1-0.6-0.1c1.3,0.2,2.3,0.4,4.2,0.8
						c-0.5-0.1-0.4,0-3.2-0.5l6.3,1.2c0.4,0.1,3.2,0.7,2.4,0.5c3.5,0.7,8.6,1.6,13.2,2.5c0.3,0,0.7,0.1,1.7,0.3
						c4.4,0.8,8.2,1.6,13.4,2.6l2.9,0.6c4,0.8-3.9-0.9,2.8,0.4c4.8,0.9,1.8,0.4,3.4,0.7c2.4,0.4,6.5,1.1,10.9,2
						C496.6,3182.1,495.4,3181.9,494.1,3181.6z M544,3191.2c-1-0.2-2.9-0.5-3.6-0.7C541.5,3190.7,542.3,3190.8,544,3191.2z
						 M620,3204.4c-0.7-0.1-1.8-0.3-3.1-0.5C617.9,3204,618.9,3204.2,620,3204.4z M833.9,3205.4c0,0-0.1,0-0.1,0
						C831.7,3205.9,832.5,3205.7,833.9,3205.4z M838.4,3204.5c0.4-0.1,0.4-0.1,0.2-0.1c-0.3,0.1-1.3,0.3-2.4,0.5
						C836.5,3204.9,837.1,3204.8,838.4,3204.5z M354.8,3154.3l0.9,0.2C353.7,3154.1,354.3,3154.2,354.8,3154.3z"/>
					<path fill="#363636" d="M611.4,3203.1c-0.3-0.1-0.3-0.1-0.4-0.1C610.6,3202.9,610.6,3202.9,611.4,3203.1z"/>
					<path fill="#363636" d="M463.1,3175.7l-0.2,0c-0.1,0-0.1,0-0.2,0L463.1,3175.7z"/>
					<path fill="#363636" d="M768.5,3213.9c-0.9,0-1.5,0-1.8,0.1C766.6,3214,767.1,3214,768.5,3213.9z"/>
					<path fill="#363636" d="M861.8,3198.8c0,0-0.7,0.2-1.4,0.4c-0.7,0.2-1.4,0.4-1.4,0.4c1.4-0.3,1.9-0.5,2.5-0.7
						C861.5,3198.9,861,3199,861.8,3198.8z"/>
					<path fill="#363636" d="M886.1,3191.5c0.4-0.1,0.9-0.3,1.3-0.4l-0.1,0C885.5,3191.6,884.3,3192.1,886.1,3191.5z"/>
					<path fill="#363636" d="M864.5,3198.2c0.2,0,2-0.6,3.9-1.1c-0.1,0-0.2,0.1-0.3,0.1C868.6,3196.9,866.6,3197.5,864.5,3198.2z"/>
					<path fill="#363636" d="M868.9,3196.9c0.6-0.2,1.2-0.4,1.8-0.5C870.9,3196.3,870,3196.6,868.9,3196.9z"/>
					<path fill="#363636" d="M844,3203.3c1-0.2,0.6-0.2,1.1-0.3C846.2,3202.7,838.9,3204.4,844,3203.3z"/>
					<polygon fill="#363636" points="866.1,3197.8 865.4,3198 864.3,3198.3 					"/>
					<path fill="#363636" d="M850.5,3201.9l3.2-0.8c0,0,0.4-0.1,0.8-0.2c-1,0.2-2,0.5-2.8,0.7C851,3201.8,850.5,3201.9,850.5,3201.9
						z"/>
					<path fill="#363636" d="M854.5,3200.9c1-0.3,2-0.5,2.5-0.7C856.5,3200.4,855.3,3200.7,854.5,3200.9z"/>
					<path fill="#363636" d="M861.8,3199.1l-0.9,0.3l-2.2,0.6c0,0,0.8-0.2,1.6-0.4C861,3199.3,861.8,3199.1,861.8,3199.1z"/>
					<path fill="#363636" d="M816.1,3208.8l-3.5,0.5c-0.4,0.1,0.6-0.1,1.9-0.2C815.3,3208.9,816.6,3208.8,816.1,3208.8z"/>
					<path fill="#363636" d="M826.7,3207.1c-0.9,0.1-1,0.2-1.6,0.2l-0.1,0.1L826.7,3207.1z"/>
					<path fill="#363636" d="M816.5,3208.9c-0.3,0.1-5.1,0.8-0.6,0.1C816.2,3209,819.7,3208.4,816.5,3208.9z"/>
					<polygon fill="#363636" points="763,3214 763.9,3214 763.8,3213.9 					"/>
					<path fill="#363636" d="M715.6,3214.2c4.2,0.2,1,0,4.8,0.1c1,0-3.1-0.1-2.1-0.1C715.8,3214.2,714.5,3214.1,715.6,3214.2z"/>
					<path fill="#363636" d="M718.3,3214.3c0.4,0,0.8,0,1.3,0C718.9,3214.3,718.6,3214.3,718.3,3214.3z"/>
					<polygon fill="#363636" points="191.9,3122.8 189.3,3122.3 191,3122.7 					"/>
					<path fill="#363636" d="M186.8,3121.9l-0.6-0.2l-1.6-0.3C185.2,3121.6,186.3,3121.8,186.8,3121.9z"/>
					<path fill="#363636" d="M551.4,3192.7l0.2,0c-0.4-0.1-1-0.2-2.3-0.4L551.4,3192.7z"/>
					<polygon fill="#363636" points="515.2,3185.7 515.8,3185.8 514.6,3185.6 					"/>
					<path fill="#363636" d="M484.8,3179.9c1.2,0.2,2.7,0.5,3.9,0.8C486,3180.2,484.5,3179.8,484.8,3179.9z"/>
				</g>
			</g>
		</g>
	</g>
</g>
<g>
	<g>
		<g>
			<g>
				<g>
					<path fill="#363636" d="M368.4,3719.1c-0.1,1.8,0,1.2,0,1.4C368.5,3717.5,368.4,3719.2,368.4,3719.1z"/>
					<polygon fill="#363636" points="370.7,3689.5 370.7,3690 371.2,3685.6 					"/>
					<path fill="#363636" d="M375,3662c-0.1,0.7-0.3,1.6-0.6,2.7c-0.2,1.1-0.4,2.4-0.6,3.8c-0.5,2.8-1,5.8-1.4,8.3l-0.1,0.8
						c0,0-0.1,0.6-0.2,1.1c-0.1,0.6-0.1,1.1-0.1,1.1c0.4-3,1-6.4,1.5-9.6c0.3-1.6,0.5-3.1,0.7-4.5C374.5,3664.3,374.8,3663,375,3662
						z"/>
					<path fill="#363636" d="M378.2,3647.5c-0.2,0.9,0.7-3.1-0.8,3.4c0.1-0.3,0.1-0.4,0.2-0.6
						C377.7,3649.7,377.9,3648.9,378.2,3647.5z"/>
					<path fill="#363636" d="M377.6,3650.3C376.9,3653.1,378,3648.4,377.6,3650.3L377.6,3650.3z"/>
					<path fill="#363636" d="M380.7,3637.1c0,0-0.1,0.2-0.2,0.6c-0.1,0.4-0.2,0.8-0.3,1.3c-0.2,0.9-0.4,1.9-0.4,1.9
						c0.2-0.8,1-4.1,0.7-2.9C381.6,3634.2,381.4,3635,380.7,3637.1z"/>
					<path fill="#363636" d="M381.7,3633.6l-0.5,1.9C381.2,3635.2,381.4,3634.7,381.7,3633.6z"/>
					<path fill="#363636" d="M380.1,3639.6c0,0,0.2-1,0.5-2.1c0.3-1,0.6-2,0.6-2c-0.2,0.5-0.2,0.6-0.5,1.9
						C380.7,3637,380.5,3637.9,380.1,3639.6z"/>
					<path fill="#363636" d="M379.5,3641.9c-0.5,2.1-1.2,4.8-0.3,1C377.5,3650.2,377.8,3649.1,379.5,3641.9z"/>
					<path fill="#363636" d="M375.2,3660.6l-0.6,2.8c0,0-0.1,0.6-0.2,1.2c-0.1,0.6-0.2,1.2-0.2,1.2
						C374.3,3664.6,375.3,3660.4,375.2,3660.6z"/>
					<path fill="#363636" d="M387.6,3614.1c0.1-0.2-0.4,1.2-0.5,1.5l-0.8,2.7C386.6,3616.9,387.5,3614.3,387.6,3614.1z"/>
					<path fill="#363636" d="M387,3615.6l1.3-4.1C387.1,3615.1,386.9,3615.8,387,3615.6z"/>
					<path fill="#363636" d="M381.8,3632.9c0,0-0.5,1.7-0.9,3.4c-0.2,0.8-0.5,1.7-0.6,2.3c-0.1,0.6-0.2,1.1-0.2,1.1s0.4-2,1-4.1
						c0.5-2,1.1-4,1.1-4L381.8,3632.9z"/>
					<path fill="#363636" d="M392.9,3598.7l-0.8,2.3c0,0,0.3-1,0.7-2c0.2-0.5,0.3-1,0.5-1.4c0.1-0.4,0.2-0.6,0.2-0.6
						s-0.2,0.4-0.3,0.9C393.1,3598.3,392.9,3598.7,392.9,3598.7z"/>
					<path fill="#363636" d="M396.9,3588.6c-0.6,1.7,1-2.3,0.3-0.5c0.5-1.4,1-2.6,1.5-3.8c0.5-1.2,1-2.3,1.4-3.3
						c-0.5,1.1-1,2.2-1.5,3.5C398,3585.8,397.5,3587.1,396.9,3588.6z"/>
					<path fill="#363636" d="M401.5,3577.5c-0.5,1.1-1,2.2-1.5,3.5C400.5,3579.9,401,3578.7,401.5,3577.5z"/>
					<path fill="#363636" d="M390.7,3604.6c0.1-0.3,0.4-0.9,1.2-3.1l-0.6,1.6C391.1,3603.5,390.9,3604.1,390.7,3604.6z"/>
					<path fill="#363636" d="M391.3,3603.1L391.3,3603.1c0.6-1.8,1.1-3,1.2-3.5C392.3,3600.1,392,3601.1,391.3,3603.1z"/>
					<path fill="#363636" d="M390.6,3605c0.1-0.1,0.1-0.3,0.1-0.4C390.7,3604.8,390.6,3604.9,390.6,3605z"/>
					<path fill="#363636" d="M384.9,3622.2c0.7-2.4,2.3-7.4,0.7-2.6C385.1,3621.3,386,3618.5,384.9,3622.2z"/>
					<path fill="#363636" d="M389.8,3607c0,0-0.4,1.1-0.8,2.1c-0.2,0.5-0.4,1.1-0.5,1.5c-0.1,0.4-0.2,0.7-0.2,0.7
						c0-0.1,0.3-0.9-0.1,0.3c0,0,0.4-1.2,0.8-2.3C389.4,3608.1,389.8,3607,389.8,3607z"/>
					<polygon fill="#363636" points="390.6,3604.9 389.8,3607 390.4,3605.4 					"/>
					<path fill="#363636" d="M398.4,3584.6c0.8-1.8,1.6-3.8,2.6-6c-1,2.4-2.2,4.8-3.1,7.2C397.8,3586.2,397.4,3587.2,398.4,3584.6z"
						/>
					<path fill="#363636" d="M394.8,3593.6c0-0.1,0.1-0.3,0.2-0.4C394.9,3593.4,394.8,3593.6,394.8,3593.6z"/>
					<path fill="#363636" d="M411.1,3557.1c-0.1,0.1-0.1,0.2-0.2,0.3c0,0,0,0,0,0.1L411.1,3557.1z"/>
					<path fill="#363636" d="M397.7,3586.2c-0.7,1.8-1.1,2.9-1.5,3.9c0.5-1.4,1.1-2.8,1.7-4.3
						C397.9,3585.7,397.9,3585.6,397.7,3586.2z"/>
					<path fill="#363636" d="M404.2,3571.5c-0.4,0.9-0.9,2-1.4,3.1C403.2,3573.6,404,3571.8,404.2,3571.5z"/>
					<path fill="#363636" d="M395.2,3592.6c0,0.1-0.1,0.2-0.1,0.3C395.4,3592.3,395.3,3592.3,395.2,3592.6z"/>
					<path fill="#363636" d="M395.2,3592.6c0.4-0.9,0.6-1.7,0.9-2.4c-0.4,1.1-0.8,2.1-1.2,3C395.1,3593,395.2,3592.7,395.2,3592.6z"
						/>
					<path fill="#363636" d="M414.3,3550.6c-0.1,0.3-2.5,4.9-4.6,8.8c-0.9,2-1.1,2.3-0.7,1.8c0.3-0.6,1.1-2,2-3.7
						c0-0.1,0-0.1,2.1-4.1c-0.4,0.7-1.5,2.9-2.4,4.5c-0.9,1.6-1.3,2.6-0.5,0.9c2.7-5.3,2.3-4.3,3.6-6.8c-1.2,2.1,3.4-6.7,2.8-5.6
						l-2.4,4.6C414.1,3551,414.9,3549.4,414.3,3550.6z"/>
					<path fill="#363636" d="M407.2,3565.1l-0.8,1.7c0.9-1.9,1.6-3.2,2.8-5.7c1.3-2.8,1.6-3.3,1.7-3.5c0,0-0.3,0.5-0.7,1.3
						c-0.4,0.8-0.9,1.8-1.4,2.8c-1,2-2,4.1-2,4.1L407.2,3565.1z"/>
					<path fill="#363636" d="M402.9,3574.3c0.3-0.7,0.8-2,1.2-2.9c0.4-0.9,0.6-1.3,0,0c-2.2,4.9-1.5,3.5-2.8,6.4
						C404.8,3569.8,400.3,3580.1,402.9,3574.3c-0.7,1.6-1.3,3-1.9,4.4c0.6-1.4,1.3-2.8,1.8-4.1c0,0.1-0.1,0.1-0.1,0.2l0,0l0,0
						c-0.2,0.3-0.2,0.5,0,0.1c0,0,0.1-0.1,0.1-0.2C402.8,3574.6,402.8,3574.4,402.9,3574.3c1-2.3,0.2-0.4-0.1,0.4c0,0,0,0.1,0,0.1
						c0,0,0,0,0,0c0,0,0.2-0.5,0.5-1.3c0.3-0.7,0.7-1.8,1.2-2.7c0.9-2,1.9-3.9,1.9-3.9c-0.4,0.8-0.9,1.8-1.4,3c-0.3,0.6-0.6,1.3-1,2
						C403.7,3572.5,403.3,3573.3,402.9,3574.3z"/>
					<path fill="#363636" d="M386.9,3615.1c0.1-0.3,0.1-0.2,0.1-0.3C387.2,3614.3,387.2,3614.1,386.9,3615.1z"/>
					<path fill="#363636" d="M388,3611.7c-0.2,0.6-0.3,1.1-1,3.1c-0.6,1.7,0,0-0.1,0.1c-0.4,1.2-1.3,4.2-0.1,0.4l0.2-0.6
						c0.6-1.7,1.1-3.6,1.7-5c0.5-1.4,0.9-2.3,0.8-2C389.2,3608.6,388.8,3609.5,388,3611.7z"/>
					<path fill="#363636" d="M395.1,3592.6l2.7-6.8l-1.4,3.4l0.1-0.2C394.9,3592.9,395.3,3592.1,395.1,3592.6z"/>
					<polygon fill="#363636" points="411.5,3556.4 411.1,3557.3 413,3553.5 					"/>
					<path fill="#363636" d="M415.9,3548l-0.1,0.3c0,0,0.3-0.6,0.6-1.1c0.3-0.6,0.6-1.1,0.6-1.1s-0.3,0.5-0.5,0.9
						C416.2,3547.6,415.9,3548,415.9,3548z"/>
					<path fill="#363636" d="M866.8,3288.1l2-0.8C867.8,3287.7,867.2,3288,866.8,3288.1z"/>
					<path fill="#363636" d="M852.6,3294.3l-0.3,0.2C852.9,3294.1,853.1,3294,852.6,3294.3z"/>
					<path fill="#363636" d="M596.6,3420c3-0.7,6.4-1.5,6.1-1.5l-0.9,0.2C599.6,3419.3,597.9,3419.7,596.6,3420z"/>
					<path fill="#363636" d="M741.3,3355.2c-0.3,0.1-0.5,0.3-0.8,0.4c-0.6,0.4-1.3,0.8-1.8,1.1
						C739.5,3356.3,740.3,3355.7,741.3,3355.2z"/>
					<path fill="#363636" d="M743.1,3353.9l3.6-2C745.9,3352.4,744.7,3353,743.1,3353.9z"/>
					<path fill="#363636" d="M947.1,3261.6l2.4-0.8C945.7,3262,947.4,3261.5,947.1,3261.6z"/>
					<path fill="#363636" d="M473.3,3470.5c1.9-1.9,3.6-3.2,5-4.5c-1.2,1.1-2.3,2-3.2,2.8C474.2,3469.6,473.6,3470.2,473.3,3470.5z"
						/>
					<path fill="#363636" d="M861.3,3290.9c1.2-0.5,1.7-0.8,1.7-0.8C861.8,3290.7,861.1,3291,861.3,3290.9z"/>
					<path fill="#363636" d="M484.2,3461.1c-0.4,0.3-0.7,0.6-1.1,0.9c-1.5,1.3-3.1,2.5-4.8,4.1
						C480.1,3464.5,482.2,3462.8,484.2,3461.1z"/>
					<path fill="#363636" d="M1200.8,3094.4c0.2-0.2,0.4-0.3,0.5-0.5C1201.3,3093.8,1201.1,3094.1,1200.8,3094.4z"/>
					<path fill="#363636" d="M1258.3,3026.2c-0.5,0.7-1.3,1.9-2.1,3C1256.6,3028.7,1257.3,3027.8,1258.3,3026.2z"/>
					<path fill="#363636" d="M435.8,3515.6C434.7,3517.3,435.6,3515.9,435.8,3515.6L435.8,3515.6z"/>
					<path fill="#363636" d="M430.2,3523.6c0.2-0.4,0.4-0.6,0.4-0.7C430.5,3523.1,430.4,3523.3,430.2,3523.6z"/>
					<path fill="#363636" d="M500.5,3449.5c0.1,0,0.1-0.1,0.1-0.1C500.1,3449.7,500.2,3449.6,500.5,3449.5z"/>
					<path fill="#363636" d="M434.1,3518.1c0.4-0.6,0.9-1.3,1.4-2.1C435.3,3516.3,434.9,3517,434.1,3518.1z"/>
					<path fill="#363636" d="M434.3,3517.8c-0.4,0.6-0.7,1-1,1.5C433.2,3519.4,433.3,3519.3,434.3,3517.8z"/>
					<path fill="#363636" d="M437.4,3513.3c-0.6,0.9-1.2,1.8-1.8,2.7c0.2-0.3,0.3-0.5,0.3-0.4
						C436.1,3515.1,436.6,3514.4,437.4,3513.3z"/>
					<path fill="#363636" d="M1073.9,3198.5c0.1-0.1,0.2-0.2,0.4-0.2C1075.9,3197.1,1075.2,3197.6,1073.9,3198.5z"/>
					<path fill="#363636" d="M646.1,3403.6c-0.1,0-0.1,0.1-0.2,0.1C646,3403.6,646.1,3403.6,646.1,3403.6L646.1,3403.6z"/>
					<path fill="#363636" d="M652.7,3400.8c-2.8,1.2-4.4,1.9-6.6,2.8l2.3-0.8L652.7,3400.8z"/>
					<path fill="#363636" d="M901.7,3275.5l-4.8,1.5c5.8-2,10-3.2,5.5-1.9c-0.3,0.2-5,1.7-9.7,3.2c-4.7,1.6-9.3,3.3-9.6,3.4
						c0,0-0.8,0.3-1.6,0.6c-0.8,0.3-1.6,0.6-1.6,0.6c0.9-0.3,1-0.4,1.9-0.7c-3.1,1.1-4.2,1.6-5.5,2.1c-1.3,0.6-2.9,1.1-6.8,2.7
						c-2.7,1.1-4.6,1.8-2.8,1.1c0,0-1.5,0.6-3,1.2c-1.5,0.6-3,1.3-3,1.3c-1.7,0.8-1.3,0.5,0.4-0.2c0,0-2.3,1-4.5,2
						c-2.3,1-4.5,2-4.5,2l0.1,0c-1.3,0.6-4.2,2-5.6,2.6c-2.3,1,1.1-0.5,0.5-0.3c0,0-1.2,0.6-2.5,1.2c-1.2,0.6-2.5,1.2-2.5,1.2
						c-2,1,2-1.1,5.5-2.7c-2.4,1-3.4,1.5-5.1,2.3c-1.7,0.8-4.1,1.9-9,4.4c0,0,1.2-0.6,2.3-1.2c1.2-0.6,2.3-1.1,2.3-1.1
						c-3,1.4-6.6,3.2-11.9,5.8c1.2-0.6,10.5-5.1,5.2-2.5c-1.5,0.7-3.5,1.7-6.3,3.2c0,0-0.2,0.1-0.5,0.2c-0.3,0.2-0.8,0.4-1.4,0.7
						c-1.1,0.6-2.7,1.4-4.4,2.3l0.2-0.2c-3.7,2-3.4,1.9-5.6,3.1c-4.2,2.2-5,2.7-6,3.2c-6.6,3.6,4.6-2.4-3.2,1.9
						c-5.5,3-9.4,5.2-15.9,9c-3.8,2.2,0.7-0.4-0.7,0.4l-3.4,2c-0.8,0.5-0.6,0.3-0.4,0.2c-2.8,1.7-0.2,0.2-4.7,2.8
						c-1.2,0.8-9.2,5.2-14.7,8.5c-1.4,0.8,0.6-0.4,0.2-0.2c-7.5,4.5-6.5,3.8-12.7,7.5l-5.3,3.1c3.9-2.2-1,0.7-5.4,3.3
						c1.4-0.8,2.6-1.5,3.4-1.9l-7,4.1c-0.8,0.5-0.2,0.1,1-0.6c-0.5,0.3-0.9,0.5-1.3,0.8c-2.5,1.4-1.2,0.6,0.5-0.4
						c0.9-0.5,1.7-1,2.5-1.4c1.7-1,3.3-2,2.9-1.8c-0.5,0.3-1.3,0.8-2.3,1.3c0.4-0.3,0.7-0.4,0.5-0.3c-0.2,0.1-1,0.6-2.1,1.2
						l-1.6,0.9l-0.4,0.2l-9.2,5.2c-6.5,3.8-12.2,7.1-22.7,12.9c2.6-1.5,0.5-0.4,0.6-0.5c2.9-1.5,8.1-4.5,13.5-7.5
						c-2.8,1.6-2.2,1.2-1.5,0.8l-9.7,5.4c0.2-0.2-2.1,1.1-4.6,2.4c1-0.5-0.8,0.5-3.4,1.9c-2.6,1.4-5.9,3.1-7.9,4.2
						c-0.3,0.1,0.7-0.4,5.5-3c-2.7,1.4-4.4,2.3-6.1,3.2c-1.7,0.9-3.4,1.8-6.1,3.1c1.2-0.6,1.8-0.9,2.3-1.2c-1.4,0.7-3.8,2-5.7,2.9
						c-1.9,0.9-3.2,1.5-2.4,1.1l1.2-0.6c-2,1-4.5,2.2-7.2,3.5c-2.7,1.3-5.6,2.6-8.2,3.9c-5.3,2.4-9.7,4.4-10.4,4.7
						c-0.1,0,1-0.5,1.5-0.8c0,0-3.6,1.6-7.3,3.2c-1.8,0.8-3.7,1.6-5,2.1c-1.4,0.6-2.3,1-2.3,1c1.3-0.6-3.8,1.2,3.1-1.5
						c-2,0.7-4.4,1.8-8.6,3.3c1.4-0.5,3.4-1.1,1.6-0.5c-5.1,1.8-3.5,1.3-9.9,3.5c2.1-0.7-0.2,0.2-3.4,1.3c0.5-0.2-0.3,0,0.9-0.4
						c0,0-2,0.7-4,1.4c-1,0.4-2,0.7-2.8,0.9c-0.8,0.2-1.3,0.4-1.3,0.4c2-0.6,0.3-0.2-1.5,0.3c0.4-0.1-1.3,0.4-3.5,1.1
						c-2.1,0.7-4.7,1.3-5.8,1.6l3.5-0.9c-9.3,2.6-9.1,2.7-18.4,4.9c1.1-0.3,2.7-0.8-2,0.3c-2.2,0.6-9.6,2.4-17.8,4.2l-1.6,0.3
						l-6.3,1.4c3.9-1,15-3.5,21-4.9c-3.5,0.7-1,0.2-6.3,1.3c-1.9,0.4,2.9-0.7,4.4-1l-12.3,2.6c0.6-0.1-9.4,2.1-8.9,2.1l13.3-2.9
						c0.6,0-7.7,1.8-16.4,3.7c-2.2,0.5,1.6-0.5,1.4-0.5c-1.1,0.3-8.2,1.9-9,2.1l3.7-0.9c-4.8,1.1-7.9,2-13.6,3.5
						c-1,0.3-2.5,0.7-3.8,1c-1.3,0.4-2.3,0.7-2.5,0.8c3.2-0.9,3.9-0.8,1.8-0.2c-0.3,0.1-2.9,0.9-5.7,1.7c-2.8,0.9-5.7,1.9-6.8,2.3
						c-1.6,0.6-0.4,0.1,0.8-0.4c1.2-0.5,2.6-1,1.2-0.5c-0.2,0.1-1.9,0.7-2.6,1c-2,0.8,0.8-0.4-3.6,1.3c-0.7,0.4-8.8,3.7-2,0.9
						c-4.2,1.8-4.5,1.9-9.4,4.2c0.8-0.4-0.3,0.2-2,1.2c-0.9,0.5-1.9,1.1-3,1.6c-1.1,0.6-2.2,1.3-3.1,1.9c0.2-0.2-0.7,0.4-1.1,0.6
						c-4,2.4-7,4.5-9.9,6.5c-1.5,1-2.8,2.1-4.3,3.2c-0.7,0.6-1.5,1.1-2.3,1.8c-0.8,0.6-1.6,1.3-2.4,2c-0.3,0.3-1.3,1-2,1.6
						c-0.7,0.6-1.2,1-0.5,0.4c-0.9,0.8-1.8,1.6-3.8,3.4c-1.9,1.8-0.9,0.7,0.4-0.4c1.2-1.1,2.6-2.3,1.1-1c-0.3,0.2-5.2,4.7-7.9,7.5
						c0.8-0.8,6.4-6.2,9.3-8.7c0,0-0.1,0.1-0.2,0.2c-0.2,0.1-0.4,0.3-0.6,0.6c-0.6,0.5-1.4,1.3-2.4,2.2c-1,1-2.2,2.2-3.6,3.5
						c-1.4,1.3-2.9,2.9-4.5,4.5c-5,5.3-2.2,2.3-3.1,3.2c-4.7,5-6.5,7.3-8.2,9.3c-1.7,2-3.1,3.8-6.7,8.3c-2.8,3.5-0.2,0.1-0.9,0.9
						c1.8-2.4,3.3-4.1,4.5-5.7c1.3-1.6,2.5-2.9,3.8-4.5c0,0-0.8,0.9-1.6,1.9c-0.8,0.9-1.6,1.9-1.6,1.9c1.2-1.5,3.7-4.5,5.2-6.1
						c-1.3,1.4-5,5.8-9.1,11c-4.1,5.2-8.5,11.3-11.5,15.6c-1,1.6-2.8,4.3-2,3l1.9-2.8c1.8-2.5-3.5,5.2-1.1,1.8
						c-2.5,3.7-5.3,7.9-8.6,13.3l-0.7,1c0.1-0.1,2.2-3.5,3.1-5c-1.4,2.2-5.2,8.2-6.6,10.7l2.4-3.7c-2.4,3.8-5,8.7-7.9,13.5
						c1.3-2.2,0.6-1.1,2.7-4.5c-0.9,1.5,0.9-1.6,2.5-4.5c1.7-2.8,3.4-5.4,1.8-3.1c2.2-3.4,3.7-6,6.7-10.4c-0.1,0.1-1.1,1.5,1.5-2.3
						c0.1-0.2,0.4-0.6,0.6-0.9c0.1-0.1,0.1-0.2,0.2-0.3c-0.1,0.1-0.1,0.1-0.1,0.2c0.1-0.2,0.1-0.2-0.1,0.1c-0.6,0.9-1.1,1.7-1.4,2
						c1.3-1.9,5.4-8.2,6.9-10.2c1.6-2.3-0.7,1,0.2-0.3l2.2-3.1c0.2-0.3,4.5-5.9,0.6-0.6l3.5-4.7c1.1-1.4,2.3-3,3.6-4.6
						c1.2-1.6,2.5-3.1,3.4-4.2c1.7-2.2,4.5-5.4,2.9-3.5c0,0,0.4-0.4,0.9-1.1c0.6-0.7,1.3-1.6,2.1-2.4c1.5-1.7,3.1-3.5,3.1-3.5
						l0.1-0.1c6.2-6.7,13.1-13.5,21.2-20.1c1.2-1,2.4-1.9,3.9-3c0.7-0.6,1.5-1.1,2.3-1.8c0.9-0.6,1.8-1.3,2.9-2l0.8-0.5
						c0.4-0.3,0.9-0.6,1.3-0.9c0.5-0.3,1-0.7,1.6-1c1.1-0.7,2.3-1.5,3.4-2.2c2.3-1.4,4.4-2.6,5.1-3c1-0.5,2.5-1.3,4.3-2.3
						c0.5-0.2,1-0.5,1.5-0.8c0.5-0.2,1-0.5,1.6-0.7c1.1-0.5,2.2-1,3.4-1.6c1.2-0.5,2.4-1,3.6-1.5c1.2-0.5,2.3-1,3.5-1.4
						c2.3-0.9,4.4-1.7,6-2.2l0.2-0.1c2.3-0.8,4.5-1.5,6.9-2.3c2.4-0.8,4.9-1.5,7.7-2.3l-0.4,0.1c4.9-1.4,12.7-3.3,20.7-5
						c-0.6,0.1-2.5,0.6-4,0.9c9.5-2.1,19.9-4.3,28.5-6.2c2.1-0.5,3.7-0.8,5.2-1.2c-0.2,0-0.4,0.1-0.5,0.1c0.2-0.1,0.5-0.1,0.9-0.2
						c0.9-0.2,1.9-0.4,3-0.7c-0.9,0.2-1.8,0.4-2.5,0.6c1.6-0.4,4.1-1,6.6-1.6l1-0.2c0.2-0.1,0.4-0.1,0.6-0.1
						c2.4-0.6,1.9-0.5,0.6-0.2c1.2-0.3,2.3-0.7,3.2-0.9c1.9-0.5,6.3-1.7,9-2.5c0.8-0.3,3.8-1.2,6.8-2.1c2.9-1,5.8-2,6.5-2.3
						c0.1,0,0.8-0.2-0.5,0.2c2.7-0.9,5.3-1.8,7.6-2.7l1.1-0.4c0,0,1.4-0.5,2.9-1.1c1.4-0.6,2.8-1.2,2.8-1.2c3.5-1.3,4.9-1.9,1.5-0.5
						c4.1-1.7,5.8-2.3,7.3-3c1.5-0.6,2.8-1.2,6.3-2.7l-0.3,0.2c2.5-1.1,6.4-2.9,7.9-3.5c2.8-1.2,9.6-4.3,17.3-8.2
						c7.8-3.9,16.5-8.4,23.3-12.1c-2.7,1.3,6.4-3.4,6.9-3.8c0.8-0.4,2.7-1.4,0.5-0.2c6.9-3.8,10.4-5.8,15.1-8.5
						c0.8-0.4-1.5,0.9-0.7,0.5c0.5-0.3,2.2-1.3,2.9-1.7c0.7-0.4-1,0.6-2.1,1.2c7-4,7.7-4.5,8.2-4.9c3.6-2,5.3-3.1,7.9-4.6
						c1.2-0.7,3.3-1.9-1,0.7c1.2-0.7,5-2.9,8.4-4.9c1.7-1,3.4-2,4.6-2.7c1.2-0.7,2.1-1.2,2.1-1.3c0.8-0.5,3.4-2,4.1-2.4
						c5.5-3.2,6-3.5,11.3-6.6l-1.5,0.9c2.1-1.3,4.5-2.6,8.8-5.1l-0.1,0.1c10-5.7,4.3-2.5,14.2-8.1l-0.6,0.3
						c0.9-0.6,8.8-4.9,14.6-8.1l-2.1,1.1c3.1-1.8,8.9-4.7,12.1-6.3c0.7-0.4-1.1,0.6-2.1,1.1c8.4-4.4,1.1-0.6,7.3-3.9
						c1.2-0.6-1.4,0.8,2.8-1.3c1.1-0.5,4.1-2.1,7.7-3.9c3.5-1.8,7.6-3.7,10.5-5.1c-1.3,0.6-2.6,1.2,0.4-0.3c2.3-1,5.4-2.4,8.4-3.8
						c3.1-1.3,6.1-2.6,8.1-3.6c0.6-0.2,0.8-0.3,0.8-0.3c1.8-0.7,4.7-1.9,7.4-3c2.7-1.1,5.3-2.1,6.3-2.5c0.8-0.3,2.7-1,4.9-1.8
						c2.3-0.8,5-1.8,7.6-2.7c2.6-0.9,5.1-1.8,7-2.4c0.9-0.3,1.7-0.5,2.2-0.7c0.5-0.2,0.8-0.2,0.8-0.2c0,0,0.7-0.2,1.8-0.6
						c1.1-0.3,2.5-0.8,3.9-1.2c2.8-0.9,5.6-1.8,5.6-1.8l-0.3,0.1c7.2-2.2,9.7-3,12.3-3.8c1.7-0.5,0.5-0.1,0.3-0.1
						c10.6-3.1,11.6-3.4,20.5-6.2l0.9-0.2c2.4-0.7,15.3-4.6,25.5-8.3c-0.1,0-0.3,0.1-1.1,0.4c5.7-2,12.6-4.6,18.4-6.9
						c2.9-1.2,5.6-2.3,7.8-3.3c2.2-1,3.9-1.8,4.9-2.3c0,0,0.5-0.2,1.1-0.5c0.7-0.3,1.6-0.8,2.5-1.2c1.8-0.9,3.6-1.8,3.6-1.8
						c-9.4,4.5,1.4-0.7-2.5,1.1c0.9-0.4,2-0.9,3-1.4c1-0.5,1.9-0.9,2.6-1.3c1.3-0.7,1.7-0.8-0.6,0.3l-0.7,0.3
						c-0.8,0.5,2.1-1,5.1-2.5c3-1.6,6.2-3.3,6.1-3.2c18-9.7,34.9-20.4,50.7-31.2l-1.9,1.2l5.5-3.8c1.4-1,2-1.3-2,1.4
						c1-0.7,2.7-1.8,4.1-2.8c1.4-1,2.5-1.8,2.6-1.9c7.7-5.4-2.9,2.2-0.6,0.5l3.2-2.2l-0.7,0.5c2.5-1.9,2.8-2,7.4-5.4
						c2.9-2.1,1.5-1.1,2.7-1.9c0,0,0.4-0.3,1.8-1.3l6.8-5l-2.7,1.9c3-2.2,6.4-4.7,3.2-2.4c4.7-3.2,25.1-18.8,27.9-21
						c4.1-3.2,8.1-6.5,13.1-10.5c-1.2,1-2,1.5,2.3-1.9c-1.4,1.4,7.8-6.4,11.3-9.2c-1.6,1.2,1.5-1.2,4.2-3.6c2.7-2.4,5.3-4.6,2.9-2.6
						c3.5-3,0.2-0.1,2.9-2.4c8.3-7.2,18-16.1,27.8-25.4c0.1-0.2-1.5,1.4,0.6-0.6l5.1-5c1.9-1.9,1.7-1.8,5.2-5.2
						c-0.5,0.5-1.2,1.2,0-0.1c18.6-18.9,36.5-40.1,52.2-62c-2.2,2.9-0.7,1,0.9-1.3c-1,1.5,0-0.1-0.2,0.2l6.4-9.3
						c0.3-0.4,0.8-1.3,1.5-2.3c0.7-1.1,1.4-2.3,2.2-3.6c1.5-2.5,3-4.8,3.3-5.4l-1.9,3c2.5-4.1-3.7,5.5-3.4,4.9
						c-1.4,2.3-3.4,5.1-5.7,8.3c-1.1,1.6-2.3,3.3-3.5,5.1c-1.2,1.7-2.5,3.5-3.8,5.3c-1.2,1.5,0.9-1.3,0.3-0.5
						c-1.3,1.8-2.9,4-5.8,7.9l0.3-0.5c-4.2,5.5-7.4,9.4-10.6,13.4c-1.7,2-3.4,4-5.3,6.3c-1,1.1-2,2.3-3.1,3.6
						c-1.1,1.3-2.2,2.7-3.6,4.1l0.8-0.8c-2.3,2.5-2.7,3-3.8,4.2c-2.5,2.9,6.3-7,4-4.3c-1.5,1.6-5.5,6-9.3,10.3
						c-3.9,4.2-7.8,8.2-8.8,9.3c-3.6,3.7,1.1-1.1-2.5,2.7l-1,1l-0.9,0.9c-2.4,2.4-3.6,3.6-3.7,3.6c0.6-0.6,1.6-1.7,2.3-2.3
						c-3.1,3.1-8.7,8.8-9.9,9.8c0,0,0.2-0.2,0.6-0.5c0.3-0.3,0.8-0.7,1.2-1.2c0.9-0.9,1.8-1.7,1.8-1.7c-10,9.9-22.7,21.5-33,30.4
						l0.8-0.7c-7.8,6.9-6.3,5.4-15.1,12.7l0.3-0.3c-1.7,1.5-4.1,3.4-6.5,5.4c2.2-1.8-4.3,3.4-1.3,1c-8.8,7.1-4.3,3.6-10.1,8.2
						l-1.4,1c-2,1.6-2.1,1.7-6.6,5.2c3.7-2.9-2.9,2.2,1.2-1.1c-4.7,3.7-8.3,6.3-11.2,8.5c-2.9,2.2-5.1,3.9-7.4,5.5
						c-2.2,1.7-0.1,0.1,2.2-1.6c2.3-1.7,4.9-3.7,3.6-2.7c2.1-1.5-3.5,2.8-6.6,5c-3.1,2.2-5.3,3.8-13.1,9.4c0.8-0.6,0.8-0.6,1.6-1.2
						c-2.9,2.1-5.7,4.2-9.3,6.7c-2,1.5-4.7,3.3-5.2,3.8l7.2-5.1c-4.1,2.9-7.8,5.7-14.6,10.3c0.5-0.4,2.5-1.8,3.9-2.7
						c-2,1.4-3.8,2.6-5.9,4c0.5-0.5,8.8-6.1,13.1-9.2c-2.1,1.5-8.3,5.9-6.1,4.2c-3.1,2.3-7.8,5.4-13.2,9.1l0.3-0.3
						c-0.8,0.6-2.6,1.8-4.2,2.8l2.8-1.9c-2.2,1.5-4.3,2.9-6.4,4.2c-2.1,1.3-4.2,2.7-6.3,4c8.9-5.7,2-1.2,5.8-3.6
						c-5.5,3.5-7.1,4.5-8.9,5.6c-1.8,1.1-3.7,2.2-10,6c1.7-1,6.4-3.8,3.7-2.2c-1.2,0.7-2.6,1.5-3.9,2.3c-1.3,0.7-2.5,1.4-3.2,1.8
						c-8.4,4.8,1.3-0.7-2.2,1.4c-2.9,1.6-4.2,2.3-7.8,4.4l0,0c-4.9,2.6-5.5,2.9-6,3.2c-0.5,0.3-0.9,0.6-5.3,2.8l3.7-1.9l-4.6,2.3
						l0.9-0.5c-2.5,1.3-4.2,2.1-5.8,2.9c-1.7,0.8-3.3,1.6-5.8,2.7c1.2-0.5-0.6,0.4-5.1,2.4c-3.1,1.3,1.7-0.8-4.7,1.9
						c1.4-0.7,3-1.3,5.8-2.5c0.3-0.1,1.4-0.7,1.7-0.8c-3.3,1.5-8.3,3.6-10.6,4.5c0.9-0.4,2-0.8,2.5-1c0,0-2.3,1-4.6,1.9
						c-1.2,0.5-2.3,0.9-3.2,1.3c-0.9,0.3-1.5,0.6-1.5,0.6c-1.5,0.5-0.3,0.1,0.8-0.4c-1.9,0.7-3.2,1.2-6,2.3c0.7-0.3,0.5-0.3,4.5-1.8
						c0,0-2.2,0.8-4.5,1.7c-2.2,0.8-4.5,1.6-4.5,1.6c-0.6,0.2-4.6,1.6-3.5,1.2c-5,1.7-12.3,4.2-19,6.2c-0.4,0.1-1.1,0.3-2.5,0.8
						c-6.3,1.9-11.9,3.6-19.4,5.8l-4.3,1.2c-5.9,1.8,5.8-1.7-4,1.3c-6.9,2.1-2.6,0.7-5,1.4c-3.4,1.1-9.4,3-15.7,5
						C898.1,3276.7,899.7,3276.1,901.7,3275.5z M831.7,3304.2c1.3-0.7,3.9-2,4.9-2.5C835.1,3302.5,834,3303.1,831.7,3304.2z
						 M731.6,3360.7c0.9-0.6,2.4-1.4,4.1-2.3C734.5,3359,733.1,3359.8,731.6,3360.7z M448.6,3497.8c0,0,0.1-0.1,0.1-0.1
						C450.8,3495.1,450,3496,448.6,3497.8z M444.5,3503.2c-0.4,0.6-0.4,0.5-0.2,0.3c0.3-0.4,1.2-1.6,2.2-3
						C446.2,3500.8,445.7,3501.5,444.5,3503.2z M1091.6,3186.4l-1.1,0.8C1092.9,3185.4,1092.2,3185.9,1091.6,3186.4z"/>
					<path fill="#363636" d="M742.8,3354.1c0.4-0.2,0.5-0.3,0.6-0.3C743.9,3353.5,743.9,3353.5,742.8,3354.1z"/>
					<path fill="#363636" d="M946.7,3261.8l0.2-0.1c0.1,0,0.2-0.1,0.2-0.1L946.7,3261.8z"/>
					<path fill="#363636" d="M524.8,3437.6c1.3-0.5,2-0.8,2.5-0.9C527.4,3436.7,526.8,3436.9,524.8,3437.6z"/>
					<path fill="#363636" d="M424.6,3533.1l2.3-3.7c-1.1,1.8-1.5,2.4-2.1,3.3C424.8,3532.6,425.3,3531.9,424.6,3533.1z"/>
					<path fill="#363636" d="M406.4,3566.1c-0.3,0.6-0.6,1.2-0.9,1.8l0.1-0.1C406.9,3565.3,407.7,3563.6,406.4,3566.1z"/>
					<path fill="#363636" d="M422.4,3536.5c-0.2,0.3-1.6,2.7-3.1,5.3c0.1-0.2,0.2-0.3,0.3-0.5
						C419.2,3542.1,420.8,3539.3,422.4,3536.5z"/>
					<path fill="#363636" d="M419,3542.4c-0.5,0.8-0.9,1.6-1.4,2.4C417.4,3545.1,418.1,3543.8,419,3542.4z"/>
					<path fill="#363636" d="M439.5,3510.2c-0.8,1.2-0.5,0.8-1,1.4C437.6,3512.9,444.1,3503.7,439.5,3510.2z"/>
					<polygon fill="#363636" points="421,3538.5 421.6,3537.6 422.4,3536.1 					"/>
					<path fill="#363636" d="M433.8,3518.1l-2.7,4c0-0.1-0.3,0.5-0.7,1.1c0.8-1.3,1.7-2.6,2.4-3.5
						C433.4,3518.8,433.8,3518.1,433.8,3518.1z"/>
					<path fill="#363636" d="M430.4,3523.3c-0.8,1.3-1.6,2.6-2.1,3.3C428.8,3525.9,429.7,3524.3,430.4,3523.3z"/>
					<polygon fill="#363636" points="424.4,3532.8 425.2,3531.6 427,3528.6 					"/>
					<path fill="#363636" d="M466.2,3477.2l3.7-3.8c0.4-0.4-0.7,0.6-2.1,2C467,3476.4,465.6,3477.8,466.2,3477.2z"/>
					<path fill="#363636" d="M455.4,3489c0.9-1.1,1-1.1,1.5-1.8l0.1-0.2L455.4,3489z"/>
					<path fill="#363636" d="M465.7,3477.5c0.3-0.4,5.4-5.5,0.6-0.7C466,3477.1,462.4,3481,465.7,3477.5z"/>
					<polygon fill="#363636" points="532.6,3435.1 531.3,3435.5 531.5,3435.5 					"/>
					<path fill="#363636" d="M601.1,3418.4c-6.1,1.5-1.4,0.5-7,1.7c-1.4,0.4,4.5-1,3.1-0.7C600.9,3418.5,602.8,3418,601.1,3418.4z"
						/>
					<path fill="#363636" d="M597.2,3419.4c-0.6,0.1-1.2,0.3-1.9,0.5C596.4,3419.6,596.9,3419.5,597.2,3419.4z"/>
					<polygon fill="#363636" points="1266.6,3013.9 1268.7,3010.4 1267.3,3012.6 					"/>
					<path fill="#363636" d="M1270.6,3007.2l0.6-0.8l1.2-2.1C1272,3005.1,1271,3006.6,1270.6,3007.2z"/>
					<path fill="#363636" d="M821.7,3309.2l-0.3,0.2c0.6-0.3,1.4-0.7,3.1-1.6L821.7,3309.2z"/>
					<polygon fill="#363636" points="871.5,3286.1 870.6,3286.5 872.3,3285.9 					"/>
					<path fill="#363636" d="M915.1,3271.2c-1.8,0.6-3.9,1.2-5.7,1.8C913.3,3271.7,915.6,3271.1,915.1,3271.2z"/>
				</g>
			</g>
		</g>
	</g>
</g>
<g>
	
		<linearGradient id="SVGID_1_" gradientUnits="userSpaceOnUse" x1="69.5395" y1="7905.5503" x2="436.2047" y2="5826.0889" gradientTransform="matrix(0.6429 0 0 -0.6429 244.2857 5672.1489)">
		<stop  offset="0" style="stop-color:#5189BD"/>
		<stop  offset="1" style="stop-color:#FFFFFF"/>
	</linearGradient>
	<path fill="url(#SVGID_1_)" d="M-45.3,648.9c27.8,25.5,29.7,69.2,52.9,98.9c21.1,26.9,56.2,38.3,89.8,44.2
		c62,11.2,126.3,9.1,187.5-5.7c0,0,979.6-464,945,291.8c0,0-118,1246.9-605.9,594.3S94.6,1848.3,94.6,1848.3
		c-25.3,62.3-133.2-16.3-195.4-41.8c-49.9-20.4-99.6-43.9-139-80.7c-30-28-52.9-62.7-81.2-92.4c-19.3-20.4-41.3-38.4-58.8-60.2
		c-46.3-57.3-58.3-134.7-61.3-208.3c-6.8-166.9,24.7-335.3,91.5-488.5c37.1-85,93.3-172,182.3-198"/>
</g>
<g>
	<g>
		<path fill="none" stroke="#3F3B3C" stroke-width="2.8474" stroke-miterlimit="10" d="M816.3,661.7"/>
	</g>
</g>
<g>
	<g>
		<path fill="none" stroke="#3F3B3C" stroke-width="0.2" stroke-miterlimit="10" d="M432,324.1"/>
	</g>
</g>
<g>
	<g>
		<g>
			<g>
				<g>
					<path fill="#3F3F3F" d="M193.7,360.4c-0.7,1-0.4,0.7-0.4,0.8C194.4,359.5,193.7,360.4,193.7,360.4z"/>
					<polygon fill="#3F3F3F" points="205.5,344.8 205.2,345.1 207.2,342.9 					"/>
					<path fill="#3F3F3F" d="M219.8,331.8c-1.6,1-5.6,4.5-8.2,6.9l-0.5,0.4l-1,1.1c0.8-0.7,1.5-1.5,2.4-2.3c0.9-0.8,1.8-1.5,2.7-2.3
						c0.9-0.7,1.7-1.5,2.5-2.1C218.5,332.9,219.2,332.3,219.8,331.8z"/>
					<path fill="#3F3F3F" d="M228.8,325.6c-0.3,0.2,0.2-0.1,0.3-0.2c0.1,0-0.4,0.2-2.4,1.6c0.2-0.1,0.3-0.2,0.4-0.3
						C227.4,326.6,227.9,326.2,228.8,325.6z"/>
					<path fill="#3F3F3F" d="M227.1,326.8C225.3,328,228.2,326,227.1,326.8L227.1,326.8z"/>
					<path fill="#3F3F3F" d="M235.5,321.3c0,0-0.7,0.4-1.2,0.7c-0.3,0.2-0.6,0.4-0.9,0.5c-0.2,0.1-0.4,0.3-0.4,0.3
						c0.5-0.3,2.8-1.6,1.9-1.1C237.5,320.2,236.9,320.5,235.5,321.3z"/>
					<path fill="#3F3F3F" d="M237.8,319.9l-1.3,0.8C236.7,320.5,237.1,320.3,237.8,319.9z"/>
					<path fill="#3F3F3F" d="M233.8,322.3l2.8-1.6c-0.4,0.2-0.5,0.2-1.2,0.7C235.4,321.3,234.9,321.6,233.8,322.3z"/>
					<path fill="#3F3F3F" d="M232.3,323.3c-1.3,0.9-3.1,2-0.8,0.4C227,326.6,227.6,326.2,232.3,323.3z"/>
					<path fill="#3F3F3F" d="M220.5,331.1l-1.7,1.2l-1.4,1.1C218.1,332.9,220.7,331,220.5,331.1z"/>
					<path fill="#3F3F3F" d="M251.7,312.7c0.2-0.1-0.9,0.4-1.1,0.5l-2,1C249.6,313.7,251.5,312.8,251.7,312.7z"/>
					<path fill="#3F3F3F" d="M250.6,313.3c0,0,0.8-0.4,1.5-0.7c0.8-0.3,1.5-0.7,1.5-0.7c-1.4,0.6-2.2,1-2.6,1.2
						C250.6,313.2,250.5,313.3,250.6,313.3z"/>
					<polygon fill="#3F3F3F" points="238.2,319.5 233.6,322.3 239,319 					"/>
					<polygon fill="#3F3F3F" points="263.6,307.7 261.8,308.5 264.9,307.1 					"/>
					<path fill="#3F3F3F" d="M271.7,304.7c-1.3,0.5,1.9-0.6,0.5-0.1c2.3-0.8,4.2-1.4,5.9-2C276.1,303.2,274.2,303.8,271.7,304.7z"/>
					<path fill="#3F3F3F" d="M281,301.7c-0.5,0.1-0.9,0.3-1.4,0.5c-0.5,0.2-0.9,0.3-1.5,0.5c0.5-0.2,0.9-0.3,1.4-0.5
						C279.9,301.9,280.5,301.8,281,301.7z"/>
					<path fill="#3F3F3F" d="M258.8,309.5c0.3-0.1,0.8-0.3,2.6-0.9l-1.2,0.5C259.6,309.1,259.2,309.3,258.8,309.5z"/>
					<path fill="#3F3F3F" d="M260,309L260,309c1.4-0.5,2.3-0.9,2.8-1.1C262.4,308.1,261.5,308.4,260,309z"/>
					<path fill="#3F3F3F" d="M258.5,309.6c0.1-0.1,0.2-0.1,0.3-0.1C258.7,309.5,258.6,309.6,258.5,309.6z"/>
					<path fill="#3F3F3F" d="M245.7,315.5c1.7-0.9,5.3-2.7,1.8-1C246.2,315.2,248.2,314.2,245.7,315.5z"/>
					<path fill="#3F3F3F" d="M257,310.2l-3.2,1.4c0.1,0,0.7-0.3-0.2,0.1L257,310.2z"/>
					<polygon fill="#3F3F3F" points="258.5,309.5 257,310.2 258.2,309.7 					"/>
					<path fill="#3F3F3F" d="M274.9,303.5c1.5-0.5,3.1-1,5-1.6c-2,0.6-4.1,1.3-6.1,2C273.6,303.9,272.7,304.2,274.9,303.5z"/>
					<path fill="#3F3F3F" d="M267.6,306c0.1-0.1,0.2-0.1,0.3-0.1C267.7,306,267.5,306,267.6,306z"/>
					<path fill="#3F3F3F" d="M298.9,296.9c-0.1,0-0.2,0.1-0.3,0.1c0,0,0,0-0.1,0L298.9,296.9z"/>
					<path fill="#3F3F3F" d="M273.6,303.9c-1.5,0.5-2.4,0.9-3.2,1.1c1.1-0.4,2.3-0.9,3.5-1.2C273.9,303.8,274,303.8,273.6,303.9z"/>
					<path fill="#3F3F3F" d="M286.2,300.1c-0.8,0.2-1.7,0.5-2.7,0.7C284.3,300.6,285.9,300.2,286.2,300.1z"/>
					<path fill="#3F3F3F" d="M268.4,305.8c-0.1,0-0.1,0.1-0.2,0.1C268.6,305.7,268.6,305.7,268.4,305.8z"/>
					<path fill="#3F3F3F" d="M268.4,305.8c0.8-0.3,1.3-0.5,1.9-0.7c-0.9,0.3-1.7,0.7-2.5,0.9C268.1,305.8,268.3,305.8,268.4,305.8z"
						/>
					<path fill="#3F3F3F" d="M304.7,295.4c-0.1,0.1-1.2,0.3-2.8,0.6c-1.5,0.3-3.5,0.7-5.3,1.1c-3.5,0.9-1.1,0.5,2-0.1
						c0.1-0.1,0.1-0.1,3.7-0.9c-1.3,0.2-8.2,1.7-5,1c2.4-0.5,3.4-0.8,4.1-0.9c0.7-0.1,1-0.2,2.3-0.4c-2.1,0.3,6.2-1.2,5.1-1.2
						l-4.3,0.9C304.3,295.5,305.9,295.2,304.7,295.4z"/>
					<path fill="#3F3F3F" d="M291.7,298.6l-1.5,0.4c0.9-0.2,1.6-0.4,2.4-0.6c0.8-0.2,1.6-0.4,2.8-0.6c2.5-0.6,2.9-0.7,3.1-0.8
						c0,0-1.8,0.4-3.7,0.8c-0.9,0.2-1.8,0.5-2.5,0.6c-0.7,0.2-1.1,0.3-1.1,0.3L291.7,298.6z"/>
					<path fill="#3F3F3F" d="M283.7,300.7c1.1-0.4,4.6-1.4,2.4-0.9c-4.3,1.2-2.9,0.9-5.5,1.6C287.4,299.6,278.6,302.2,283.7,300.7
						c-1.4,0.4-2.7,0.8-3.8,1.1c1.2-0.3,2.5-0.7,3.6-1c-0.1,0-0.1,0-0.2,0.1l0,0l0,0c-0.3,0.1-0.4,0.1-0.1,0c0,0,0.1,0,0.2-0.1
						C283.4,300.9,283.5,300.8,283.7,300.7c2-0.6,0.3-0.1-0.3,0.1h-0.1l0,0c0,0,1.7-0.5,3.4-1c1.7-0.5,3.5-0.9,3.5-0.9
						C288.8,299.4,286.9,299.8,283.7,300.7z"/>
					<path fill="#3F3F3F" d="M250.6,312.8c0.2-0.1,0.2-0.1,0.2-0.1C251.2,312.5,251.4,312.5,250.6,312.8z"/>
					<path fill="#3F3F3F" d="M253.2,311.7c-0.5,0.2-0.9,0.4-2.3,1.1c-1.2,0.6,0,0-0.1,0c-0.9,0.5-3,1.5-0.3,0.2l0.4-0.2
						c2.5-1.2,5.8-2.5,5.4-2.3C255.6,310.7,254.9,311,253.2,311.7z"/>
					<path fill="#3F3F3F" d="M268.3,305.7c0,0,1.3-0.5,2.8-1c1.3-0.5,2.8-1,2.8-1s-0.8,0.2-1.4,0.5c-0.7,0.3-1.4,0.5-1.4,0.5h0.2
						C267.9,305.7,268.6,305.5,268.3,305.7z"/>
					<path fill="#3F3F3F" d="M299.7,296.8l-0.8,0.3c0,0,0.9-0.2,1.7-0.4c0.9-0.2,1.7-0.4,1.7-0.4s-0.2,0.1-0.4,0.1
						c-0.3,0.1-0.6,0.1-0.9,0.2C300.3,296.7,299.7,296.8,299.7,296.8z"/>
					<path fill="#3F3F3F" d="M307.4,295.3l-0.3,0.1c0,0,0.5-0.1,1-0.2c0.5-0.1,1-0.2,1-0.2s-0.5,0.1-0.9,0.1
						C307.8,295.2,307.4,295.3,307.4,295.3z"/>
					<path fill="#3F3F3F" d="M747.3,349l1.8-0.2C748.3,348.9,747.7,349,747.3,349z"/>
					<path fill="#3F3F3F" d="M734.1,350l-0.3,0.1C734.4,350,734.7,350,734.1,350z"/>
					<path fill="#3F3F3F" d="M494,328.7c2.4,0.8,5.1,1.6,4.8,1.5l-0.8-0.3C496.4,329.4,495,329,494,328.7z"/>
					<path fill="#3F3F3F" d="M625.8,350.6c-0.3,0-0.5-0.1-0.8-0.1c-0.7,0-1.2-0.1-1.8-0.1C624,350.5,624.9,350.5,625.8,350.6z"/>
					<path fill="#3F3F3F" d="M627.7,350.5l3.5,0.3C630.5,350.7,629.3,350.6,627.7,350.5z"/>
					<path fill="#3F3F3F" d="M818.4,340.1l2.1-0.4C817.3,340.3,818.7,340.1,818.4,340.1z"/>
					<path fill="#3F3F3F" d="M389.1,295c2.2,0.5,4,0.7,5.5,1.1c-1.3-0.3-2.5-0.5-3.4-0.7C390.2,295.2,389.5,295,389.1,295z"/>
					<path fill="#3F3F3F" d="M742.2,350c1.1-0.1,1.6-0.1,1.5-0.1C742.7,350,742,350,742.2,350z"/>
					<path fill="#3F3F3F" d="M401,297.5c-0.4-0.1-0.8-0.2-1.1-0.3c-1.6-0.3-3.2-0.7-5.1-1.2C396.6,296.5,398.8,297.1,401,297.5z"/>
					<path fill="#3F3F3F" d="M1062.4,274.8c0.2-0.1,0.4-0.1,0.6-0.2C1062.9,274.6,1062.7,274.7,1062.4,274.8z"/>
					<path fill="#3F3F3F" d="M1131.8,252.8c-0.7,0.2-1.8,0.5-2.8,0.9C1129.5,253.5,1130.3,253.2,1131.8,252.8z"/>
					<path fill="#3F3F3F" d="M339.4,291.8C337.7,291.8,339.2,291.8,339.4,291.8L339.4,291.8z"/>
					<path fill="#3F3F3F" d="M331.1,292c0.4-0.1,0.7-0.1,0.7-0.1C331.7,292,331.4,292,331.1,292z"/>
					<path fill="#3F3F3F" d="M416.9,301.7C416.9,301.7,417,301.7,416.9,301.7C416.5,301.5,416.6,301.6,416.9,301.7z"/>
					<path fill="#3F3F3F" d="M336.9,291.9c0.7-0.1,1.4-0.1,2.2-0.1C338.7,291.8,338,291.8,336.9,291.9z"/>
					<path fill="#3F3F3F" d="M337.2,291.9c-0.6,0-1,0.1-1.5,0.1C335.5,292,335.6,292,337.2,291.9z"/>
					<path fill="#3F3F3F" d="M341.8,291.7c-0.9,0.1-1.9,0-2.8,0.1c0.4,0,0.5,0,0.4,0C339.9,291.7,340.6,291.7,341.8,291.7z"/>
					<path fill="#3F3F3F" d="M934.6,315.2c0.1,0,0.2-0.1,0.4-0.1C936.5,314.6,935.8,314.8,934.6,315.2z"/>
					<path fill="#3F3F3F" d="M536.3,338.4c-0.1,0-0.1,0-0.2-0.1C536.2,338.4,536.3,338.4,536.3,338.4L536.3,338.4z"/>
					<path fill="#3F3F3F" d="M542.2,339.5c-2.6-0.5-4-0.7-5.9-1.1l1.9,0.5L542.2,339.5z"/>
					<path fill="#3F3F3F" d="M778.6,345.8l-4.3,0.4c5.1-0.6,8.8-1.1,4.8-0.7c-0.6,0.3-16.6,1.8-17.2,2.1c0,0-0.7,0.1-1.4,0.1
						c-0.7,0.1-1.4,0.1-1.4,0.1c0.9-0.1,0.9-0.1,1.7-0.2c-5.5,0.4-4.1,0.5-11.1,1.1c-2.5,0.2-4.2,0.3-2.6,0.2c0,0-1.3,0.1-2.8,0.3
						c-0.7,0.1-1.3,0.1-1.9,0.2c-0.5,0.1-0.9,0.1-0.9,0.1c-1.6,0.1-1.2,0.1,0.4-0.1l-8.4,0.6h0.1c-1.2,0.1-3.9,0.3-5.2,0.5
						c-2.2,0.1,1-0.1,0.5-0.1c0,0-1.1,0.1-2.4,0.2c-1.1,0.1-2.4,0.1-2.4,0.1c-1.9,0.1,2-0.2,5.2-0.4c-4.4,0.1-3.9,0.3-13.3,0.7
						l4.4-0.3c-2.8,0.1-6.3,0.3-11.3,0.4c1.1,0,10-0.3,4.9-0.1c-1.4,0.1-3.3,0.1-6.1,0.3c0,0-0.7,0-1.8,0c-1,0-2.6,0.1-4.3,0.1
						l0.2-0.1c-3.6,0.1-3.3,0.1-5.5,0.3c-4.1,0.1-4.8,0.1-5.8,0c-6.5,0.1,4.5,0.1-3.2,0.1c-5.4,0-9.1,0.1-15.6,0.1
						c-3.8-0.1,0.7-0.1-0.7-0.1h-3.3c-0.9,0-0.6,0-0.4-0.1c-2.8,0-0.2,0.1-4.7,0c-1.2,0.1-9.1-0.2-14.5-0.4c-1.3-0.1,0.7,0,0.3-0.1
						c-7.5-0.3-6.5-0.2-12.6-0.4l-5.2-0.4c3.8,0.3-1,0.1-5.4-0.1c1.3,0.1,2.6,0.2,3.3,0.3l-6.8-0.4c-0.9-0.1-0.1-0.1,1,0
						c-0.5,0-0.9-0.1-1.2-0.1c-2.5-0.2-1.1-0.1,0.6-0.1c0.9,0.1,1.7,0.1,2.5,0.2c1.7,0.1,3.3,0.1,2.9,0.1c-0.5,0-1.3-0.1-2.3-0.1
						c0.5,0,0.8,0,0.6,0s-0.9-0.1-2.1-0.1l-1.5-0.2H622c0,0-0.6-0.1-1.4-0.1c-0.9-0.1-2-0.1-3-0.3c-2.3-0.2-4.5-0.5-4.5-0.5
						c-3.2-0.3-6.2-0.5-9.7-0.7c-0.9-0.1-1.8-0.1-2.7-0.2c-0.9-0.1-1.9-0.2-2.9-0.3c-2.1-0.2-4.3-0.5-6.8-0.7
						c2.6,0.2,0.6-0.1,0.8-0.1c1.3,0.2,3.3,0.4,5.6,0.7c1.1,0.1,2.4,0.3,3.6,0.4s2.6,0.2,3.9,0.3c-2.8-0.3-2.1-0.3-1.4-0.2
						c0,0-2.4-0.1-4.7-0.5c-2.4-0.3-4.7-0.5-4.7-0.5c0.2-0.1-2-0.3-4.4-0.6c1.8,0.3-7-0.7-10.7-1.2c-0.2-0.1,0.7,0,5.3,0.7
						c-5-0.8-6.6-0.8-11.6-1.6c1.1,0.1,1.7,0.3,2.2,0.3c-2.7-0.3-9-1.2-7.5-1.1l1.1,0.1c-1.9-0.3-4.2-0.7-6.6-1
						c-2.5-0.4-5.1-0.9-7.5-1.2c-2.4-0.4-4.7-0.7-6.4-1c-1.7-0.3-2.8-0.5-3.1-0.5c-0.1,0,1,0.1,1.4,0.1l-13.2-2.2
						c1.2,0.1-3.1-1,2.9,0.2c-1.7-0.4-3.9-0.8-7.5-1.6c1.1,0.3,2.8,0.8,1.2,0.5c-4.4-1.1-3-0.8-8.4-2.1c1.7,0.4-0.3,0.1-3-0.5
						c0.5,0.1-0.2-0.2,0.9,0c0,0-1.7-0.4-3.5-0.7c-0.9-0.2-1.7-0.4-2.4-0.5c-0.7-0.1-1-0.3-1-0.3c1.7,0.4,0.4-0.1-1.1-0.5
						c0.7,0.2-5.9-1.6-7.7-2l2.8,0.8c-3.8-1-5.8-1.4-7.7-1.9c-1.9-0.5-3.8-1-7.5-2.1c0.9,0.3,2.4,0.5-1.4-0.7
						c-0.9-0.2-2.9-0.7-5.5-1.4c-0.7-0.2-1.3-0.3-2.1-0.5c-0.7-0.2-1.4-0.5-2.2-0.7c-1.5-0.5-3.1-1-4.7-1.5l-1.2-0.5l-5.3-1.4
						c1.6,0.5,4.7,1.4,7.9,2.4c1.6,0.5,3.2,1,4.8,1.5s3,0.9,4.3,1.2c-2.8-0.9-0.8-0.3-4.9-1.6c-0.8-0.3-0.2-0.1,0.8,0.2
						c0.9,0.3,2.2,0.7,2.8,0.9c0,0-0.6-0.2-1.5-0.5c-0.9-0.3-2.1-0.7-3.3-1.1c-2.4-0.8-4.8-1.6-4.8-1.6c0.4,0.2-7.5-2.4-7.1-2.2
						l10.5,3.4c0.4,0.2-6.3-1.8-13.1-4.1c-1.7-0.7,1.4,0.3,1.2,0.3c-0.9-0.3-6.5-2.2-7-2.5l2.8,1c-3.7-1.4-6.2-2.2-10.6-3.9
						c-1.5-0.6-4.6-1.8-4.8-1.9c2.5,1,2.8,1.5,0.9,0.9c-0.6-0.2-8-3.1-9.8-3.8c-2.5-1,4,1.2,1.8,0.4c-0.1,0-1.5-0.5-2.1-0.7
						c-1.6-0.6,0.8,0.2-2.8-1.1c-0.7-0.1-7.2-2.6-1.7-0.5c-3.5-1.2-3.7-1.4-7.8-2.8c1.2,0.5-3.8-1.1-7.4-2.2
						c0.2,0.1-0.6-0.3-0.9-0.4c-3.7-1.2-6.5-2-9.3-2.8c-1.4-0.6-2.8-0.9-4.3-1.3c-0.8-0.2-1.5-0.4-2.3-0.6c-0.9-0.2-1.6-0.4-2.6-0.6
						c-0.7-0.2-4.1-1-2.6-0.7c-1-0.2-2-0.5-4.3-0.9c-2.2-0.5-0.9-0.2,0.5,0.1s2.8,0.6,1.2,0.2c-0.2,0-1.6-0.3-3.4-0.6
						c-1.8-0.3-4-0.7-5.6-0.9c0.3,0.1,0.9,0.1,1.6,0.3c0.8,0.1,1.8,0.3,2.8,0.5c1,0.2,2.2,0.4,3.2,0.6c0.6,0.1,1,0.2,1.5,0.3
						s0.9,0.2,1.3,0.3c0,0.1-1.4-0.2-3.8-0.6c-1.1-0.2-2.6-0.5-4.2-0.7c-1.6-0.3-3.4-0.5-5.3-0.8c-1.5-0.2-2.5-0.3-3-0.5
						c-0.6-0.1-0.8-0.1-0.8-0.1s0.6,0,0,0c-2.8-0.3-4.9-0.5-6.5-0.7c-1.6-0.1-2.8-0.2-3.9-0.3c-2.3-0.1-4.2-0.3-9-0.5
						c-3.8-0.2-0.2-0.1-1-0.3c2.6,0.1,4.5,0.1,6.3,0.3c1.7,0.1,3.2,0.3,4.9,0.4l-4.1-0.2c1.6,0.1,5,0.3,6.8,0.5
						c-0.8-0.1-2.5-0.2-4.6-0.4c-1-0.1-2.3-0.2-3.5-0.3c-1.3-0.1-2.7-0.1-4.1-0.2c-1.4-0.1-2.8-0.1-4.4-0.1c-1.4,0-2.9,0-4.4,0
						c-2.8-0.1-5.6,0.1-7.9,0.1c-0.8,0-1.9,0.1-2.7,0.1c-0.8,0.1-1,0.1-0.5,0.1c0,0,0.2,0,0.5,0c0.3,0,0.7,0,0.9,0
						c0.8,0,1.4-0.1,1.4-0.1c2.7,0-5.4,0.2-1.7,0.1c-1.9,0.1-3.9,0.3-6.2,0.4c-2.2,0.1-4.7,0.4-7.3,0.6h-1c0.1,0,3.5-0.3,5-0.5
						c-1.1,0.1-3.1,0.3-5.2,0.5c-0.5,0.1-1,0.1-1.5,0.1c-0.5,0.1-1,0.1-1.4,0.2c-0.9,0.1-1.7,0.3-2.4,0.3l3.7-0.4
						c-1.9,0.3-4,0.5-6.3,0.9c-1.1,0.1-2.3,0.3-3.4,0.5c-1.1,0.2-2.3,0.3-3.5,0.5c2.2-0.3,1-0.2,4.4-0.6c-2.9,0.2,12-1.5,7.3-1
						c1.7-0.2,3.2-0.3,4.8-0.4c0.9-0.1,1.6-0.1,2.6-0.2s1.9-0.1,3-0.2c-0.2,0-1.6,0.1,2.4-0.2c0.2,0,0.6-0.1,0.9-0.1
						c0.1,0,0.2,0,0.3,0c-0.1,0-0.1,0-0.2,0c0.2,0,0.2,0-0.1,0c-0.9,0.1-1.7,0.1-2,0.1c0.9-0.1,3-0.2,5.1-0.4
						c2.1-0.1,4.3-0.1,5.3-0.2c2.4-0.1-0.9,0.1,0.3,0.1c0,0,0.8-0.1,1.6-0.1c0.4,0,0.8,0,1.1,0c0.3,0,0.5,0,0.5,0
						c0.3,0.1,6.4,0.1,0.8,0.1l5,0.1c1.5,0,3.2,0.1,4.9,0.2s3.3,0.1,4.6,0.2c2.4,0.2,6,0.4,3.9,0.3c0,0,0.5,0.1,1.2,0.1
						c0.8,0.1,1.7,0.1,2.7,0.2c2,0.2,3.9,0.4,3.9,0.4h0.1c0.9,0.1,1.9,0.2,2.9,0.3c0.9,0.1,1.9,0.3,2.9,0.4c0.9,0.1,2,0.3,2.9,0.4
						c0.5,0.1,1,0.1,1.5,0.2s1,0.2,1.5,0.3c2,0.4,4.1,0.7,6.1,1.1c2,0.5,4.1,1,6.3,1.4c2.5,0.6,5,1.2,9.1,2.4l0.8,0.3
						c3.1,0.9,9.2,2.9,10.5,3.3c1.6,0.6,5.3,1.8,9.2,3.2c3.9,1.4,8.1,2.9,10.6,3.9h0.3c3.6,1.3,7,2.6,11.5,4.3l-0.2-0.1
						c3.9,1.4,9.9,3.7,16,5.9c-0.5-0.1-2-0.7-3.1-1c3.6,1.4,7.6,2.6,11.5,3.9c1.9,0.7,3.8,1.2,5.7,1.8s3.7,1.1,5.4,1.6
						c1.7,0.5,2.9,0.9,4.2,1.2c-0.2-0.1-0.3-0.1-0.5-0.1c0.2,0.1,0.5,0.1,0.7,0.2c0.8,0.3,1.5,0.5,2.4,0.7c-0.8-0.2-1.4-0.5-2-0.7
						c1.3,0.4,3.3,1,5.3,1.6l0.8,0.3c0.2,0.1,0.3,0.1,0.5,0.1c2,0.5,1.6,0.4,0.6,0.1c1,0.3,2,0.5,2.7,0.7c1.5,0.5,5.3,1.4,7.4,2
						c0.7,0.1,3.2,0.8,5.7,1.4c2.6,0.6,5,1.1,5.6,1.2c0.1,0,0.7,0.2-0.5-0.1c2.3,0.5,4.6,1,6.5,1.5l0.9,0.3c0,0,1.2,0.3,2.5,0.5
						c0.7,0.1,1.2,0.3,1.7,0.3c0.5,0.1,0.8,0.1,0.8,0.1c3,0.7,4.3,0.9,1.2,0.4c7.3,1.4,6,1.1,12.2,2.3h-0.3c1.1,0.2,2.6,0.5,3.9,0.7
						c1.3,0.2,2.6,0.4,3.2,0.5c1.2,0.3,3.4,0.6,6.2,1.1c1.4,0.3,2.9,0.5,4.6,0.8c0.9,0.1,1.6,0.3,2.6,0.5c0.9,0.1,1.8,0.3,2.7,0.4
						c7.3,1,15.5,2.3,22,2.9c-2.5-0.5,6.1,0.8,6.6,0.7c0.8,0.1,2.6,0.3,0.5,0.1c3.3,0.4,5.9,0.6,8.2,0.8s4.3,0.4,6.6,0.5
						c0.8,0.1-1.4-0.1-0.8,0c0.6,0.1,2.2,0.1,2.8,0.3c0.7,0.1-0.9-0.1-2.1-0.1c3.4,0.3,5.3,0.5,6.5,0.5s1.4,0,1.7-0.1
						c3.5,0.3,5.2,0.4,7.8,0.5c1.2,0.1,3.2,0.3-1,0c1.2,0.1,4.8,0.3,8.3,0.5c1.7,0.1,3.3,0.1,4.6,0.2c1.2,0.1,2.1,0.1,2.1,0.1
						c0.8,0.1,3.4,0.1,4,0.1c2.8,0.1,4.2,0.2,5.6,0.3c0.8,0,1.4,0.1,2.4,0.1c0.9,0,1.9,0,3.2,0.1l-1.5-0.1c2.1-0.1,4.5,0.1,8.7,0.1
						H664c9.9,0.3,4.3,0.1,14,0.1l-0.6-0.1c0.5-0.1,2.6-0.1,5.3-0.1c2.8,0,6.1,0.1,8.9-0.1h-2c3-0.1,8.6-0.1,11.7-0.1
						c0.7,0-1,0.1-2,0.1c8.1-0.1,1-0.1,7.1-0.3c0.6,0,0.2,0.1,0.2,0.1s0.1,0,0.5,0c0.4,0,0.9,0,2-0.1c2-0.1,11.8-0.7,17.3-0.9
						c-1.2,0.1-2.5,0.1,0.4-0.1c4.3-0.3,11.6-0.7,15.5-1c0.6,0,0.8-0.1,0.8,0c3.2-0.3,10.5-1,12.5-1.2c0.8,0,2.4-0.1,4.5-0.3
						c2-0.2,4.5-0.5,6.7-0.8c2.4-0.3,4.6-0.5,6.2-0.7c1.6-0.2,2.8-0.3,2.8-0.2c0,0,2.5-0.3,4.9-0.6c2.5-0.3,4.9-0.7,4.9-0.7
						l-0.3,0.1c6.4-0.8,8.6-1.1,10.8-1.5c1.4-0.2,0.4,0,0.3,0c9.2-1.3,10.2-1.4,17.8-2.8l0.9-0.1c1-0.2,4.4-0.7,8.5-1.4
						c2.1-0.3,4.4-0.7,6.7-1.1c2.4-0.5,4.7-0.9,6.9-1.3c-0.1,0-0.3,0.1-0.9,0.2c10.1-1.8,24.1-4.5,27.7-5.4c0,0,0.4-0.1,1-0.2
						c0.6-0.1,1.4-0.3,2.3-0.5c1.6-0.4,3.2-0.7,3.2-0.7c-8.5,1.8,1.2-0.4-2.3,0.3c3.3-0.7,8.6-1.8,4.6-0.9l-0.7,0.1
						c-1.4,0.5,10.5-2.2,10.3-2.1c16.6-3.7,32.7-7.7,48-11.7l-1.8,0.4c0,0,1.3-0.3,2.7-0.7c1.3-0.3,2.7-0.7,2.7-0.7
						c1.4-0.4,1.9-0.5-1.9,0.6c1-0.3,2.6-0.7,3.9-1.1c1.3-0.4,2.5-0.7,2.5-0.7c7.4-2-2.8,0.9-0.6,0.3l3.1-0.9l-0.7,0.2
						c2.5-0.7,2.7-0.9,7.2-2.1c2.8-0.8,1.5-0.4,2.7-0.7c0,0,0.1,0,0.4-0.1s0.7-0.2,1.3-0.4l6.6-1.9l-2.2,0.8c2.9-0.9,6.3-1.8,3.1-1
						c1.1-0.3,3.2-0.9,5.9-1.6c2.6-0.8,5.6-1.6,8.5-2.6s5.9-1.8,8.3-2.5c2.4-0.7,4.1-1.2,4.7-1.5c4.1-1.3,8.1-2.6,13-4.1
						c-1.2,0.4-2,0.5,2.3-0.9c-1.4,0.7,7.9-2.5,11.4-3.5c-3.1,1,12.1-4,7.2-2.6c3.5-1.2,0.3,0,2.9-0.9c8.4-2.9,18.6-6.2,29-9.8
						c0.2-0.1-1.6,0.5,0.6-0.3l5.5-1.8c2-0.7,1.8-0.8,5.6-2c-0.6,0.1-1.3,0.4,0-0.1c20.4-6.9,41.5-14.2,62.7-20.4
						c-2.8,0.8-0.9,0.3,1.2-0.4c-1.4,0.4,0-0.1-0.3,0c0,0,2.2-0.7,4.5-1.3c1.1-0.3,2.2-0.7,3-0.9c0.9-0.3,1.4-0.4,1.4-0.4
						c0.8-0.3,3.1-1,5.5-1.6c2.3-0.7,4.6-1.2,4.9-1.4l-2.8,0.8c1.9-0.6,0.5-0.3-1.2,0.2c-1.7,0.5-3.9,1-3.6,0.9
						c-4.2,1.3-11.1,3.1-17.8,5.3c-1.5,0.5,1.2-0.5,0.5-0.2c-1.7,0.6-3.8,1.2-7.7,2.4l0.4-0.1c-5.4,1.7-9.2,2.9-13.3,4.2
						c-4,1.3-8.2,2.6-14.2,4.7l0.9-0.3c-2.6,0.9-3.1,1-4.4,1.4c-2.9,1,7.2-2.4,4.7-1.4c-3.5,1-18.2,6.2-20.6,6.8
						c-4,1.4,1.2-0.3-2.8,1l-1,0.3l-0.9,0.4c-2.6,0.9-3.9,1.3-4.1,1.3c0.7-0.2,1.8-0.6,2.5-0.9c-3.4,1.1-9.5,3.3-10.6,3.7l3.8-1.3
						c-10.7,3.7-24,8.2-34.4,11.7l0.9-0.3c-8,2.7-6.5,2.1-15.3,5l0.3-0.1c-1.7,0.6-4.1,1.4-6.5,2.2c2.2-0.7-4.3,1.3-1.3,0.3
						c-8.7,2.8-4.3,1.4-10.1,3.3l-1.3,0.4c-2,0.7-2.1,0.7-6.5,2.1c3.6-1.1-2.8,0.8,1.1-0.5c-9.4,2.7-13.9,4.3-18.2,5.4
						c-2.1,0.7-0.1,0.1,2.2-0.5c2.3-0.7,4.7-1.4,3.6-1c2-0.6-3.5,1.2-6.5,2c-3,0.9-5.2,1.3-12.8,3.5c0.8-0.2,0.8-0.3,1.5-0.5
						c-2.8,0.8-5.6,1.6-9.1,2.5c-1.9,0.6-4.6,1.2-5,1.5l7-2c-4,1.1-7.6,2.3-14.2,4c0.6-0.1,2.5-0.7,3.8-1c-1.9,0.5-3.7,1-5.7,1.5
						c0.3-0.1,2.4-0.7,5-1.4s5.6-1.6,7.8-2.2c-2.1,0.5-8,2.3-5.9,1.6c-2.9,1-7.6,2-12.7,3.5l0.3-0.1c-0.9,0.2-2.5,0.7-4,1.1l2.7-0.8
						c-2.1,0.6-4.1,1.1-6.2,1.6c-2,0.5-4.1,1-6.1,1.4c8.5-2.1,2-0.4,5.6-1.2c-10.4,2.7-6.1,1.4-17.8,4.3c1.6-0.3,6-1.4,3.5-0.8
						c-2.3,0.5-5.2,1.2-6.6,1.5c-7.9,1.8,1.2-0.2-2.1,0.6c-2.8,0.5-3.8,0.9-7.3,1.8l-0.1-0.1c-4.5,1-5.1,1.1-5.5,1.3
						c-0.5,0.1-0.9,0.3-4.9,1.1l3.4-0.9l-4.2,0.9l0.9-0.3c-4.6,1-6,1.4-10.5,2.3c1-0.2-0.6,0.2-4.6,1c-2.8,0.5,1.5-0.4-4.2,0.8
						c1.2-0.3,2.7-0.6,5.1-1c0.3-0.1,1.2-0.3,1.5-0.4c-2.9,0.5-7.4,1.4-9.5,1.9c0.8-0.1,1.7-0.3,2.3-0.5c0,0-2.1,0.5-4.1,0.9
						c-2.1,0.5-4.1,0.9-4.1,0.9c-1.3,0.2-0.3,0,0.8-0.2c-1.7,0.3-2.8,0.5-5.3,1c0.7-0.2,0.5-0.2,3.9-0.9l-7.9,1.5
						c-0.6,0.1-4.1,0.7-3,0.5c-1.1,0.2-2.3,0.4-3.6,0.7c-1.3,0.2-2.7,0.5-4.2,0.7c-2.8,0.5-5.9,1-8.8,1.5c-0.3,0.1-0.9,0.2-2.2,0.4
						c-2.8,0.5-5.3,0.8-8.1,1.2s-5.6,0.8-8.8,1.3c0,0-0.9,0.1-1.9,0.2c-0.9,0.1-1.9,0.2-1.9,0.2c-5.1,0.7,5.1-0.5-3.5,0.6
						c-6.1,0.8-2.3,0.2-4.5,0.5c-3,0.4-8.3,1.2-13.9,1.8C775.5,346.2,776.9,346,778.6,345.8z M714.5,351.1c1.2-0.1,3.7-0.3,4.7-0.3
						C717.7,351.1,716.7,351.1,714.5,351.1z M616.3,349.8c0.9,0.1,2.4,0.2,4,0.3C619.2,350.1,617.9,350,616.3,349.8z M358.1,291.6
						C358.2,291.6,358.2,291.6,358.1,291.6C361.1,291.8,360,291.7,358.1,291.6z M352.4,291.5c-0.6,0-0.6,0-0.3,0c0.4,0,1.7,0,3.2,0
						C354.8,291.5,354.1,291.5,352.4,291.5z M951.8,310.8l-1,0.3C953.1,310.4,952.5,310.6,951.8,310.8z"/>
					<path fill="#3F3F3F" d="M627.4,350.5c0.4,0.1,0.5,0.1,0.6,0.1C628.5,350.5,628.5,350.5,627.4,350.5z"/>
					<path fill="#3F3F3F" d="M818,340.3h0.2c0.1,0,0.2-0.1,0.2-0.1L818,340.3z"/>
					<path fill="#3F3F3F" d="M437.7,308.6c1,0.4,1.6,0.7,2,0.8C439.8,309.5,439.3,309.3,437.7,308.6z"/>
					<path fill="#3F3F3F" d="M321.8,293.2c0,0,0.9-0.1,1.8-0.3c0.5-0.1,0.9-0.1,1.2-0.1c0.4-0.1,0.6-0.1,0.6-0.1
						c-1.8,0.1-2.4,0.3-3.3,0.3C322.3,293.1,322.9,293.1,321.8,293.2z"/>
					<path fill="#3F3F3F" d="M290.6,298.6c-0.5,0.1-1,0.3-1.6,0.4h0.2C291.3,298.4,292.8,298,290.6,298.6z"/>
					<path fill="#3F3F3F" d="M318.4,293.4c-0.2,0-0.8,0.1-1.7,0.2c-0.9,0.1-2.1,0.3-3.4,0.5c0.2,0,0.3-0.1,0.5-0.1
						c-0.4,0.1,0.1,0,1-0.1c0.5-0.1,1-0.2,1.6-0.3C317,293.6,317.7,293.5,318.4,293.4z"/>
					<path fill="#3F3F3F" d="M312.7,294.2c-0.8,0.1-1.6,0.3-2.4,0.4C310,294.6,311.3,294.4,312.7,294.2z"/>
					<path fill="#3F3F3F" d="M345,291.6c-1.2,0-0.8,0.1-1.4,0.1C342.2,291.8,351.8,291.3,345,291.6z"/>
					<path fill="#3F3F3F" d="M316.3,293.5c0,0,0.2,0,0.5,0c0.2,0,0.5,0,0.5,0l1.4-0.3c0,0-0.6,0.1-1.1,0.1
						C316.9,293.5,316.3,293.5,316.3,293.5z"/>
					<path fill="#3F3F3F" d="M336.6,291.6l-4.2,0.2c0.1,0-0.5,0-1.1,0.1c1.2-0.1,2.7-0.1,3.6-0.2C336,291.6,336.7,291.6,336.6,291.6
						z"/>
					<path fill="#3F3F3F" d="M331.4,292c-1.3,0.1-2.6,0.3-3.3,0.3C328.8,292.2,330.3,292,331.4,292z"/>
					<path fill="#3F3F3F" d="M321.9,292.8l1.2-0.1c0,0,0.8-0.1,1.4-0.2c0.8-0.1,1.4-0.1,1.4-0.1s-1,0.1-2.1,0.2
						C322.9,292.7,321.9,292.8,321.9,292.8z"/>
					<path fill="#3F3F3F" d="M381.1,293.4l4.5,0.7c0.5,0.1-0.8-0.1-2.4-0.4C382.2,293.5,380.5,293.3,381.1,293.4z"/>
					<path fill="#3F3F3F" d="M367.6,291.8c1.2,0.1,1.3,0.1,2,0.2l0.2-0.1L367.6,291.8z"/>
					<path fill="#3F3F3F" d="M380.7,293.1c0.5,0.1,6.5,0.9,0.9,0.1C381.1,293.1,376.7,292.5,380.7,293.1z"/>
					<polygon fill="#3F3F3F" points="443.8,311.2 442.7,310.8 442.8,311 					"/>
					<path fill="#3F3F3F" d="M498.1,329.1c-4.9-1.5-1.2-0.3-5.7-1.6c-1.1-0.3,3.6,1.1,2.5,0.8C497.9,329.1,499.4,329.6,498.1,329.1z
						"/>
					<path fill="#3F3F3F" d="M494.8,328.3c-0.5-0.1-0.9-0.3-1.5-0.5C494.2,328.1,494.6,328.2,494.8,328.3z"/>
					<polygon fill="#3F3F3F" points="1143.5,249.4 1146.8,248.6 1144.7,249.1 					"/>
					<path fill="#3F3F3F" d="M1149.6,247.7l0.8-0.1l1.9-0.6C1151.6,247.1,1150.2,247.5,1149.6,247.7z"/>
					<path fill="#3F3F3F" d="M704.9,351.4h-0.3c0.6,0,1.3,0,2.9-0.1L704.9,351.4z"/>
					<polygon fill="#3F3F3F" points="751.6,348.5 750.8,348.6 752.4,348.6 					"/>
					<path fill="#3F3F3F" d="M790.4,344.1c-1.6,0.2-3.4,0.5-5,0.7C788.9,344.3,790.9,344.2,790.4,344.1z"/>
				</g>
			</g>
		</g>
	</g>
</g>
<g>
	<g>
		<g>
			<g>
				<g>
					<path fill="#3F3F3F" d="M531.9,345.4c0.6,0,0.4-0.1,0.5-0.1C531.4,345.3,531.9,345.4,531.9,345.4z"/>
					<polygon fill="#3F3F3F" points="522.6,345.7 522.7,345.6 521.4,345.8 					"/>
					<path fill="#3F3F3F" d="M513.9,345.9c0.9,0.1,3.1-0.1,4.7-0.1h0.3l0.7-0.1C517.7,345.8,515.2,345.9,513.9,345.9z"/>
					<path fill="#3F3F3F" d="M509.4,345.8c0.3,0-0.9,0.1,1,0c-0.1,0-0.1,0-0.2,0C510,345.8,509.7,345.8,509.4,345.8z"/>
					<path fill="#3F3F3F" d="M510.2,345.8C511.2,345.8,509.6,345.8,510.2,345.8L510.2,345.8z"/>
					<path fill="#3F3F3F" d="M506,345.8h1.2c-0.3,0-1.3,0-0.9-0.1C505.1,345.8,505.3,345.8,506,345.8z"/>
					<path fill="#3F3F3F" d="M504.9,345.9h0.7C505.4,345.9,505.2,345.9,504.9,345.9z"/>
					<path fill="#3F3F3F" d="M506.8,345.8h-1.3c0.2,0,0.2,0.1,0.6,0C506,345.9,506.2,345.9,506.8,345.8z"/>
					<path fill="#3F3F3F" d="M507.6,345.9c0.7,0,1.5,0.1,0.4,0.1C510.2,345.9,509.8,345.8,507.6,345.9z"/>
					<path fill="#3F3F3F" d="M513.5,346h0.9l0.8-0.1C514.8,346,513.4,346,513.5,346z"/>
					<path fill="#3F3F3F" d="M498.5,345.8c-0.1,0,0.4,0.1,0.5,0.1h0.9C499.5,345.8,498.6,345.8,498.5,345.8z"/>
					<path fill="#3F3F3F" d="M499,345.8l-1.3,0.1C498.9,345.9,499.1,345.9,499,345.8z"/>
					<polygon fill="#3F3F3F" points="504.7,346 506.8,346 504.2,346 					"/>
					<polygon fill="#3F3F3F" points="493.5,345.8 494.3,345.8 492.8,345.8 					"/>
					<path fill="#3F3F3F" d="M490.1,345.8c0.6-0.1-0.8-0.1-0.2-0.1c-0.9,0-1.7,0.1-2.4,0.1C488.3,345.8,489,345.8,490.1,345.8z"/>
					<path fill="#3F3F3F" d="M486.4,345.8c0.4,0,0.8,0,1.1-0.1C487.1,345.8,486.8,345.8,486.4,345.8z"/>
					<path fill="#3F3F3F" d="M495.4,345.9c-0.1,0-0.3-0.1-1-0.1l0.5,0.1C495.1,345.9,495.2,345.9,495.4,345.9z"/>
					<path fill="#3F3F3F" d="M494.9,345.9L494.9,345.9c-0.6,0-0.9,0-1.1,0C494,345.9,494.3,345.9,494.9,345.9z"/>
					<path fill="#3F3F3F" d="M495.6,345.9C495.5,345.9,495.5,345.9,495.6,345.9C495.5,345.9,495.5,345.9,495.6,345.9z"/>
					<path fill="#3F3F3F" d="M501.2,346c-0.8,0-2.4,0.1-0.9,0.1C500.9,346,500.1,346,501.2,346z"/>
					<path fill="#3F3F3F" d="M496.3,346h1.4c0,0-0.3-0.1,0.1-0.1L496.3,346z"/>
					<polygon fill="#3F3F3F" points="495.5,346 496.3,346 495.7,346 					"/>
					<path fill="#3F3F3F" d="M488.8,345.9c-0.6,0-1.2,0-2,0c0.9,0,1.6,0,2.5,0C489.3,345.9,489.6,345.9,488.8,345.9z"/>
					<path fill="#3F3F3F" d="M491.8,345.9L491.8,345.9L491.8,345.9z"/>
					<polygon fill="#3F3F3F" points="479.4,345.8 479.5,345.8 479.5,345.8 					"/>
					<path fill="#3F3F3F" d="M489.3,345.9c0.6,0,0.9,0,1.3,0C490.2,345.9,489.7,345.9,489.3,345.9
						C489.1,345.9,489.1,345.9,489.3,345.9z"/>
					<path fill="#3F3F3F" d="M484.3,345.8c0.3,0,0.7,0.1,1,0.1C485.1,345.8,484.4,345.8,484.3,345.8z"/>
					<path fill="#3F3F3F" d="M491.4,345.9C491.4,345.9,491.5,345.9,491.4,345.9C491.3,345.8,491.3,345.8,491.4,345.9z"/>
					<path fill="#3F3F3F" d="M491.4,345.9c-0.3,0-0.6,0-0.8,0.1c0.4,0,0.7,0,1,0C491.6,345.9,491.5,345.9,491.4,345.9z"/>
					<path fill="#3F3F3F" d="M477.1,346.1c0.1-0.1,1.7-0.1,3,0c1.3,0,0.5-0.2-0.7-0.3c0,0,0,0.1-1.4,0.1c0.5,0.1,3.1,0.1,1.9,0.1
						c-1.8,0-1.5-0.1-2.4-0.1c0.8,0.1-2.4,0.1-2,0.1h1.6C477.3,346,476.6,346,477.1,346.1z"/>
					<path fill="#3F3F3F" d="M482.1,345.8h0.6c-0.7,0-1.1-0.1-2-0.1s-1.1,0-1.2,0.1l2.8,0.1h-0.2V345.8z"/>
					<path fill="#3F3F3F" d="M485.2,345.9c-0.5,0.1-1.8,0.1-0.9,0.1c1.7,0,1.1-0.1,2.2-0.1C483.7,346,487.2,346,485.2,345.9
						c0.6,0,1,0,1.5,0C486.3,345.9,485.8,345.9,485.2,345.9c0.1-0.1,0.1,0,0.2,0l0,0l0,0c0.1,0,0.2,0,0,0
						C485.4,345.9,485.4,345.9,485.2,345.9C485.3,345.9,485.3,345.9,485.2,345.9C484.5,345.9,485.1,345.9,485.2,345.9L485.2,345.9
						L485.2,345.9c0.1,0-0.6,0-1.2,0c-0.7,0-1.3,0-1.3,0C483.3,345.9,484,345.9,485.2,345.9z"/>
					<path fill="#3F3F3F" d="M498.9,346.2C498.8,346.2,498.8,346.2,498.9,346.2C498.6,346.2,498.5,346.2,498.9,346.2z"/>
					<path fill="#3F3F3F" d="M497.8,346.2c0.2,0,0.4,0,1,0c0.6,0,0,0,0,0.1c0.4,0,1.3-0.1,0.1-0.1h-0.2c-1.1,0-2.5-0.1-2.3-0.1
						C496.7,346.1,497,346.1,497.8,346.2z"/>
					<path fill="#3F3F3F" d="M491.4,346h-2.3l1.2,0.1h-0.1C491.6,346.1,491.3,346.1,491.4,346z"/>
					<polygon fill="#3F3F3F" points="479.1,345.8 479.4,345.7 478.1,345.8 					"/>
					<polygon fill="#3F3F3F" points="476.1,345.7 476.2,345.6 475.5,345.6 					"/>
					<path fill="#3F3F3F" d="M312,330.1l-0.7-0.1C311.6,330,311.9,330.1,312,330.1z"/>
					<path fill="#3F3F3F" d="M316.7,331L316.7,331C316.6,331,316.5,330.9,316.7,331z"/>
					<path fill="#3F3F3F" d="M404.2,341.8c-0.9-0.1-2-0.3-1.9-0.3l0.3,0.1C403.2,341.7,403.7,341.8,404.2,341.8z"/>
					<path fill="#3F3F3F" d="M355.3,336.7c0.1,0,0.2,0.1,0.3,0.1c0.2,0,0.5,0,0.7,0.1C356,336.7,355.6,336.7,355.3,336.7z"/>
					<path fill="#3F3F3F" d="M354.5,336.8l-1.2-0.2C353.6,336.6,354,336.7,354.5,336.8z"/>
					<path fill="#3F3F3F" d="M286.7,325.2l-0.8-0.1C287,325.4,286.6,325.2,286.7,325.2z"/>
					<path fill="#3F3F3F" d="M446,344.6c-0.9-0.1-1.5-0.1-2.1-0.1C445,344.6,445.8,344.7,446,344.6z"/>
					<path fill="#3F3F3F" d="M314.1,329.8c-0.4-0.1-0.6-0.1-0.6-0.1C313.9,329.8,314.2,329.9,314.1,329.8z"/>
					<path fill="#3F3F3F" d="M441.6,344.5c0.2,0,0.3,0,0.5,0.1c0.6,0,1.2,0.1,2,0.1C443.3,344.5,442.4,344.5,441.6,344.5z"/>
					<path fill="#3F3F3F" d="M197.3,302.2c-0.1,0-0.1-0.1-0.2-0.1C197.1,302.1,197.2,302.1,197.3,302.2z"/>
					<path fill="#3F3F3F" d="M172.6,293.4c0.3,0.1,0.7,0.2,1,0.3C173.4,293.7,173,293.6,172.6,293.4z"/>
					<path fill="#3F3F3F" d="M464.4,345.4C464.9,345.4,464.5,345.4,464.4,345.4L464.4,345.4z"/>
					<path fill="#3F3F3F" d="M467.3,345.7c-0.1,0-0.2,0-0.3,0C467.1,345.7,467.2,345.7,467.3,345.7z"/>
					<path fill="#3F3F3F" d="M435.3,344.5L435.3,344.5C435.5,344.5,435.4,344.5,435.3,344.5z"/>
					<path fill="#3F3F3F" d="M465.3,345.4c-0.2,0-0.5,0-0.8-0.1C464.6,345.4,464.8,345.4,465.3,345.4z"/>
					<path fill="#3F3F3F" d="M465.1,345.4c0.2,0,0.4,0,0.6,0C465.8,345.4,465.7,345.4,465.1,345.4z"/>
					<path fill="#3F3F3F" d="M463.5,345.4c0.4,0,0.7,0,1,0c-0.1,0-0.2,0-0.1,0C464.2,345.4,463.9,345.4,463.5,345.4z"/>
					<path fill="#3F3F3F" d="M244.7,315.4C244.7,315.4,244.6,315.4,244.7,315.4C244,315.2,244.2,315.3,244.7,315.4z"/>
					<path fill="#3F3F3F" d="M387.9,340.8C388,340.8,388,340.8,387.9,340.8C388,340.8,387.9,340.8,387.9,340.8L387.9,340.8z"/>
					<path fill="#3F3F3F" d="M385.8,340.7c0.9,0.1,1.5,0.1,2.2,0.2l-0.7-0.3L385.8,340.7z"/>
					<path fill="#3F3F3F" d="M300.9,328.1l1.5,0.3c-1.9-0.3-3.2-0.5-1.8-0.2c0.3-0.1,5.9,1,6.2,0.9l0.9,0.2
						c-0.3-0.1-0.4-0.1-0.7-0.1c1.9,0.5,1.5,0.1,4,0.7c0.9,0.2,1.5,0.3,0.9,0.2l2,0.3c0.6,0.1,0.4,0.1-0.2,0l2.9,0.5l0,0
						c0.5,0.1,1.4,0.2,1.9,0.3c0.8,0.1-0.4-0.1-0.2,0l1.7,0.3c0.7,0.2-0.8-0.1-1.9-0.3c1.5,0.5,1.3,0.3,4.7,0.9l-1.6-0.2
						c0.9,0.3,2.2,0.4,4,0.8c-0.4-0.1-3.5-0.7-1.7-0.5c0.5,0.1,1.1,0.2,2.2,0.3c0,0.1,0.9,0.2,2.1,0.4l-0.1,0.1
						c1.3,0.2,1.2,0.1,2,0.2c1.4,0.3,1.7,0.3,2,0.5c2.3,0.4-1.5-0.3,1.1,0.1c1.9,0.3,3.2,0.5,5.5,0.9c1.3,0.3-0.3,0,0.2,0.1l1.2,0.1
						c0.3,0.1,0.2,0.1,0.1,0.1c1,0.1,0.1-0.1,1.7,0.1c0.2,0,1,0.1,2,0.3c0.9,0.2,2.2,0.4,3.1,0.5c0.5,0.1-0.3,0-0.1,0.1
						c2.7,0.3,2.3,0.3,4.6,0.5l1.9,0.3c-1.3-0.3,0.4-0.1,2,0.1c-0.5-0.1-0.9-0.2-1.1-0.3l2.5,0.3c0.3,0.1,0,0.1-0.4,0
						c0.2,0,0.3,0,0.5,0.1c0.9,0.1,0.4,0.1-0.3,0.1c-0.3-0.1-0.6-0.1-0.9-0.2c-0.7-0.1-1.2-0.1-1.1,0c0.2,0,0.5,0.1,0.9,0.1
						c-0.2,0-0.3,0-0.2,0c0.1,0,0.4,0.1,0.8,0.1l0.6,0.2h0.2l3.2,0.5c2.4,0.2,4.4,0.4,8.1,0.8c-0.9-0.1-0.2,0.1-0.3,0.1
						c-0.9-0.2-2.8-0.3-4.7-0.6c0.9,0.1,0.8,0.1,0.5,0.1l3.4,0.4c-0.1,0.1,0.7,0.1,1.6,0.3c-0.7-0.2,2.6,0.2,4,0.3
						c0.1,0.1-0.3,0.1-2-0.1c1.8,0.3,2.5,0.1,4.3,0.4c-0.4-0.1-0.7-0.1-0.8-0.1c0.9,0.1,3.3,0.4,2.8,0.3l-0.4-0.1
						c2.8,0.3,8.4,0.9,8.7,0.9c0,0-0.4,0.1-0.6,0.1l4.9,0.2c-0.5,0.1,1.1,0.5-1.1,0.3c0.7,0.1,1.4,0.2,2.8,0.3
						c-0.5-0.1-1-0.3-0.5-0.2c1.6,0.3,1.1,0.1,3.2,0.5c-0.7-0.1,0.1-0.1,1.1-0.1c-0.2,0,0.1,0.1-0.3,0.1l2.7,0.1
						c-0.7-0.1-0.1,0.1,0.5,0.2c-0.3-0.1,2.3,0.2,2.9,0.3l-1.2-0.5c2.9,0.3,2.9,0.1,5.9,0.3c-0.4,0-0.9,0.1,0.6,0.3
						c0.7,0,3.1-0.1,5.7,0.1l0.5,0.1c0,0,0.5,0.1,1,0.1c0.5,0.1,1,0.1,1,0.1c-1.2,0-4.8-0.1-6.7-0.1c1.1,0.1,0.3,0.1,2,0.2
						c0.6,0.1-0.9,0-1.4-0.1l3.9,0.4c-0.2-0.1,2.9,0.2,2.8,0.1c0,0-1-0.1-2.1-0.1s-2.1-0.1-2.1-0.1c-0.1-0.1,0.6-0.1,1.5,0
						c0.9,0.1,2.4,0.1,3.7,0.2c0.7,0.1-0.6,0.1-0.5,0.1c0.4,0,2.7,0.1,2.8,0.1h-1.1c1.5,0.1,2.6,0.1,4.4,0.3c0.7,0.1,1.9,0.3,2,0.2
						c-1-0.2-1.1-0.5-0.5-0.5c0.2,0,3.3,0.3,4.1,0.4c1,0.1-1.6,0.1-0.8,0.2c0,0,0.7,0,0.9,0c0.7,0.1-0.3,0.1,1.1,0.1
						c0.3-0.1,2.9,0.2,0.7,0c1.4,0.1,1.5,0.1,3.1,0.3c-0.6-0.1,1.5-0.1,2.9,0c-0.1,0,0.2,0.1,0.4,0.1c2.9,0.2,4.5,0.3,7.2,0.4
						c0.3,0.1,1.5,0.1,0.9,0.1c0.4,0,0.8,0,1.6,0c1.6,0.1-1.9-0.1-0.7,0.1c0.1-0.1,2.2,0,3.4,0.1c-0.4-0.1-2.8-0.1-4-0.1
						c0-0.1,2.1-0.1,4.9-0.1c2.3,0.1,0.9,0.1,1.3,0.1c4.3,0.2,3.6,0,7.1,0.2c1.4,0.1,0.1,0.1,0.4,0.2c-1.8-0.1-2.8-0.2-4.1-0.2
						l1.5,0.1c-0.6,0-1.8-0.1-2.5-0.1c0.6,0.1,2.4,0.1,4.5,0.3c2.1,0.1,4.4,0.2,6,0.3c0.6,0,1.6,0,1.1-0.1h-1
						c-0.9-0.1,2-0.1,0.7-0.1c1.4,0,2.9-0.1,4.9,0.1l0.4,0.1c0,0-1.2-0.1-1.8-0.1c0.9,0,3,0.2,3.9,0.1l-1.3-0.1c1.4,0,3.1-0.1,4.8,0
						c-0.8-0.1-0.4,0-1.6-0.1c1,0.1-4.5-0.1-2.8,0.1c-1.2-0.1-2.2-0.1-3.8-0.2c0.1,0,0.6,0.1-0.9,0c-0.1,0-0.2,0-0.3,0h-0.1h0.5
						c-0.1,0-0.1,0,0,0c0.4,0,0.7,0.1,0.8,0.1c-0.8,0.1-3,0-3.8,0c-0.9,0,0.4,0-0.1-0.1h-1.1c-0.1-0.1-2.3-0.2-0.3-0.1l-1.8-0.1
						c-1-0.1-2.6-0.1-3.5-0.2c-0.9-0.1-2.2-0.1-1.4-0.1l-2.8-0.1l0,0c-2.8-0.1-5.9-0.2-9.1-0.4c-0.9,0-1.9-0.1-3.5-0.1l-0.3-0.1
						c-1.2-0.1-3.7-0.3-4.2-0.3c-1.3-0.2-5.9-0.5-8.1-0.6l-0.1,0.1c-1.5-0.1-2.9-0.2-4.7-0.3l0.1,0.1c-1.6-0.1-4.1-0.3-6.5-0.5
						c0.2,0,0.9,0.1,1.2,0.1c-1.5-0.1-3-0.3-4.7-0.4c-1.5-0.1-3-0.2-4.4-0.4c-0.7-0.1-1.1-0.1-1.6-0.1c0.1,0,0.1,0,0.2,0
						c-0.1,0-0.2,0-0.3,0c-0.3-0.1-0.6-0.1-0.9-0.1c0.3,0.1,0.6,0.1,0.8,0.1c-0.5-0.1-1.3-0.1-2.1-0.2l-0.3-0.1c-0.1,0-0.1,0-0.2,0
						c-0.8-0.1-0.6,0-0.2,0.1c-0.4,0-0.8-0.1-1-0.1c-0.6-0.1-2-0.1-2.8-0.3c-0.6,0-3.9-0.3-4.4-0.3c0,0-0.3-0.1,0.2,0
						c-0.9-0.1-1.7-0.2-2.5-0.2l-0.4-0.1c0,0-0.5,0-0.9,0s-0.9-0.1-0.9-0.1c-1.1-0.2-1.6-0.3-0.5-0.2c-2.8-0.2-2.2-0.2-4.6-0.4
						l0.1-0.1c-0.9-0.1-2.2-0.2-2.7-0.3c-1.8-0.3-9.2-1-14-1.7c0.5,0.1-0.1,0.1-0.8-0.1c-0.7-0.1-1.5-0.3-1.6-0.2
						c-0.3-0.1-0.9-0.2-0.2-0.1c-2.5-0.3-3.6-0.5-5.3-0.7c-0.3-0.1,0.6,0,0.3-0.1c-0.2,0-0.8-0.1-1-0.1c-0.3-0.1,0.4,0,0.8,0.1
						c-2.5-0.3-2.8-0.3-2.9-0.2c-1.2-0.2-1.9-0.3-2.8-0.3c-0.4-0.1-1.1-0.2,0.4,0c-0.9-0.1-5.2-0.8-5.4-0.7
						c-0.3-0.1-1.2-0.2-1.4-0.2c-1.9-0.3-2.1-0.3-4-0.5l0.6,0.1c-0.8,0-1.6-0.2-3.1-0.5l0,0c-3.5-0.7-1.5-0.2-4.9-0.9l0.2,0.1
						c-0.4,0.1-3-0.6-5-0.9l0.7,0.1c-1.1-0.1-2.9-0.7-4.1-0.9c-0.2-0.1,0.4,0.1,0.8,0.1c-2.8-0.5-0.4,0-2.6-0.3
						c-0.4-0.1,0.6,0-0.9-0.3c-0.7-0.1-4.3-0.5-6.2-1c0.4,0.1,0.9,0.2-0.2,0.1c-1.5-0.3-4-0.9-5.4-1c-0.2-0.1-0.3-0.1-0.3-0.1
						c-1.1-0.2-3.8-0.7-4.5-0.7c-0.9-0.4-7.2-1.2-7.1-1.4l-3.5-0.7h0.1c-2.3-0.5-3-0.6-3.9-0.7c-0.5-0.1-0.1-0.1-0.1-0.1
						c-3.2-0.7-3.6-0.8-6.4-1.2l-0.3-0.1c-0.8-0.1-4.7-1.1-8-1.7c0,0,0.1,0,0.4,0.1c-1.8-0.3-4-0.9-5.9-1.2
						c-1.9-0.5-3.4-0.9-4.2-0.9l-2.4-0.5c3,0.7-0.5,0,0.8,0.3c-1.2-0.3-3-0.8-1.6-0.5l0.2,0.1c0.6,0-3.8-0.9-3.7-1
						c-3-0.7-6-1.4-8.9-2.1c-0.8-0.2-1.4-0.3-2.2-0.5c-0.8-0.2-1.4-0.4-2.2-0.6c-1.4-0.4-2.8-0.7-4.2-1.1l0.6,0.3l-1.9-0.5
						c-0.5-0.1-0.7-0.3,0.8,0.1c-0.7-0.3-2.4-0.6-2.4-0.5c-2.7-0.7,1.1,0.2,0.3-0.1l-1.1-0.3l0.3,0.1c-0.9-0.2-1-0.2-2.8-0.6
						c-1-0.3-0.5-0.2-0.9-0.3c0,0-0.1-0.1-0.7-0.2l-2.5-0.7l0.9,0.3c-1.1-0.3-2.3-0.6-1.2-0.2c-0.8-0.3-3-0.9-5.3-1.4
						c-2.2-0.6-4.3-1.2-4.7-1.4c-1.5-0.4-3-0.8-4.8-1.3c0.5,0.1,0.7,0.3-0.9-0.1c0.7,0-2.8-0.9-4.1-1.4c1.1,0.4-4.6-1.2-2.8-0.7
						c-1.3-0.4,0-0.1-1-0.4c-3.2-0.8-6.8-2.1-10.7-3.3c-0.1,0,0.6,0.3-0.3,0l-2-0.7c-0.8-0.2-0.8-0.1-2.1-0.6
						c0.2,0.1,0.5,0.2-0.1,0.1c-3.7-1.2-7.6-2.4-11.4-3.6c-3.8-1.2-7.6-2.6-11.3-3.9c0.9,0.4,0.3,0.1-0.5-0.1c0.5,0.2-0.1,0.1,0,0.1
						l-3.1-1.1c-0.7-0.1-3.4-1.1-3.8-1.2l1,0.3c-1.4-0.4,1.7,0.9,1.4,0.9c1.5,0.4,3.8,1.5,6.4,2.2c0.5,0.2-0.5-0.1-0.2,0
						c0.7,0.1,1.4,0.4,2.8,0.9l-0.2-0.1c3.9,1.3,5.5,2,9.9,3.4l-0.3-0.1c0.9,0.3,1.1,0.4,1.6,0.5c1.1,0.3-2.7-0.9-1.6-0.6
						c1.1,0.5,6.7,2.1,7.5,2.5c1.4,0.5-0.4-0.2,1,0.3l0.4,0.1l0.4,0.1c0.9,0.3,1.4,0.5,1.4,0.5c-0.2-0.1-0.7-0.2-0.9-0.3
						c1.2,0.5,3.5,1,3.9,1.2l-1.4-0.5c2,0.6,4.2,1.3,6.5,2c0.6,0.2,1.1,0.3,1.6,0.5c0.6,0.1,1.1,0.3,1.6,0.5c1,0.3,2.1,0.6,3.1,0.9
						l-0.3-0.1c3,0.8,2.4,0.7,5.7,1.6h-0.1c0.7,0.1,1.5,0.4,2.5,0.7c-0.9-0.2,1.5,0.5,0.4,0.3c3.2,0.9,1.6,0.4,3.8,0.9l0.5,0.2
						c0.8,0.2,0.9,0.1,2.5,0.6c-1.3-0.3,1,0.4-0.6,0c3.4,1.1,5.2,1.3,6.7,1.8c1.7,0.3-2.9-0.9-2.1-0.7c-0.8-0.3,1.3,0.3,2.5,0.5
						c1.1,0.3,1.8,0.7,4.7,1.4c-0.3-0.1-0.3-0.1-0.6-0.1c1,0.3,2.1,0.5,3.3,0.9c0.8,0.1,1.7,0.5,1.9,0.4l-2.6-0.7
						c1.4,0.3,2.9,0.6,5.2,1.2c-0.2,0-0.9-0.2-1.4-0.3c0.7,0.2,1.3,0.3,2.1,0.5c-0.3,0.1-3.1-0.8-4.7-1.1c0.8,0.3,2.9,0.7,2.2,0.6
						c1.2,0.1,2.8,0.7,4.7,1.1h-0.2c0.3,0.1,0.9,0.2,1.5,0.3l-1-0.2c1.6,0.3,2.9,0.9,4.5,1.1c-3.1-0.7-0.7-0.2-2-0.6
						c3.9,0.9,2.1,0.7,6.5,1.6c-0.6-0.1-2.2-0.5-1.2-0.3c0.9,0.2,1.9,0.5,2.4,0.7c2.8,0.7-0.4-0.1,0.9,0.1c0.9,0.3,1.4,0.3,2.7,0.6
						v0.1c3.2,0.8,0.9,0.1,3.8,0.8l-1.2-0.2l1.5,0.3h-0.4c1.7,0.3,2.2,0.5,3.8,0.9c-0.4-0.1,0.3-0.1,1.7,0.3
						c0.9,0.3-0.6-0.1,1.4,0.4c-0.5-0.1-1-0.1-1.9-0.4c-0.1,0-0.5-0.1-0.6-0.1c1,0.3,2.7,0.7,3.4,0.8c-0.3-0.1-0.7-0.1-0.8-0.2
						c0,0,0.8,0.1,1.5,0.3c0.7,0.2,1.5,0.3,1.5,0.3c0.5,0.1,0.1,0.1-0.3,0c0.6,0.1,1,0.2,1.9,0.3c-0.3,0-0.2,0.1-1.5-0.2l2.8,0.5
						c0.2,0.1,1.4,0.4,1,0.3c1.6,0.3,3.9,0.7,6,1.2c0.1,0,0.4,0.1,0.8,0.1c2,0.4,3.7,0.9,6.1,1.2l1.3,0.4c1.8,0.3-1.7-0.5,1.3,0.1
						c2.2,0.4,0.8,0.3,1.5,0.4c1.1,0.1,3,0.4,5,0.9C301.9,328.3,301.5,328.1,300.9,328.1z M323.7,332.1c-0.5-0.1-1.3-0.1-1.6-0.3
						C322.5,331.9,322.9,332,323.7,332.1z M358.6,337.2c-0.4,0-0.9-0.1-1.4-0.2C357.7,337,358.1,337.1,358.6,337.2z M457.5,345.2
						C457.5,345.2,457.4,345.2,457.5,345.2C456.5,345.1,456.8,345.2,457.5,345.2z M459.6,345.3C459.8,345.3,459.8,345.3,459.6,345.3
						c-0.1,0-0.6,0-1-0.1C458.7,345.3,459,345.3,459.6,345.3z M238.7,313.4l0.4,0.1C238.2,313.3,238.4,313.3,238.7,313.4z"/>
					<path fill="#3F3F3F" d="M354.6,336.8c-0.1,0-0.2-0.1-0.2-0.1C354.3,336.7,354.3,336.7,354.6,336.8z"/>
					<path fill="#3F3F3F" d="M286.8,325.2L286.8,325.2C286.7,325.2,286.7,325.2,286.8,325.2L286.8,325.2z"/>
					<path fill="#3F3F3F" d="M427,344.1c-0.5-0.1-0.7-0.1-0.9-0.1C426.1,344.1,426.3,344.1,427,344.1z"/>
					<path fill="#3F3F3F" d="M470.8,345.5h-1.3C470.2,345.5,470.3,345.5,470.8,345.5C470.6,345.5,470.3,345.5,470.8,345.5z"/>
					<path fill="#3F3F3F" d="M482.5,346.2c0.2,0,0.4,0,0.6,0H483C482.2,346.1,481.6,346.2,482.5,346.2z"/>
					<path fill="#3F3F3F" d="M472.1,345.8c0.1,0.1,0.9,0.1,1.9,0.1h-0.2C474,345.8,473,345.8,472.1,345.8z"/>
					<path fill="#3F3F3F" d="M474.1,345.8c0.3,0,0.6,0,0.9,0C475.1,345.8,474.7,345.8,474.1,345.8z"/>
					<path fill="#3F3F3F" d="M462.3,345.4c0.5,0,0.3-0.1,0.6-0.1C463.3,345.3,459.8,345.4,462.3,345.4z"/>
					<polygon fill="#3F3F3F" points="472.8,346 472.4,345.8 472,345.9 					"/>
					<path fill="#3F3F3F" d="M465.3,345.7l1.5,0.1c0,0,0.2,0,0.4,0C466.3,345.8,465.3,345.7,465.3,345.7z"/>
					<path fill="#3F3F3F" d="M467.2,345.8c0.5,0,0.9,0,1.2,0C468.2,345.8,467.6,345.8,467.2,345.8z"/>
					<polygon fill="#3F3F3F" points="470.7,345.9 470.2,345.9 469.2,345.8 					"/>
					<path fill="#3F3F3F" d="M449.1,345l-1.6-0.1c-0.2,0,0.3,0.1,0.9,0.1C448.7,345.1,449.3,345.1,449.1,345z"/>
					<path fill="#3F3F3F" d="M454,345.5c-0.5-0.1-0.5-0.1-0.8-0.1l-0.1,0.1H454z"/>
					<path fill="#3F3F3F" d="M449.3,345.2c-0.2,0-2.4-0.1-0.3,0.1C449.1,345.3,450.7,345.4,449.3,345.2z"/>
					<polygon fill="#3F3F3F" points="424.4,343.7 424.9,343.8 424.8,343.7 					"/>
					<path fill="#3F3F3F" d="M402.6,342.4c1.9,0.2,0.5-0.1,2.2,0.1c0.5,0-1.4-0.1-0.9-0.1C402.7,342.3,402.1,342.2,402.6,342.4z"/>
					<path fill="#3F3F3F" d="M403.8,342.4c0.2,0,0.4,0,0.6,0.1C404.1,342.4,404,342.4,403.8,342.4z"/>
					<polygon fill="#3F3F3F" points="168.5,292 167.3,291.6 168,291.8 					"/>
					<path fill="#3F3F3F" d="M166.2,291.3l-0.2-0.2l-0.8-0.1C165.5,291,166,291.2,166.2,291.3z"/>
					<path fill="#3F3F3F" d="M327,332.9L327,332.9c-0.1-0.1-0.4-0.1-0.9-0.2L327,332.9z"/>
					<polygon fill="#3F3F3F" points="310.5,329.9 310.8,330 310.2,329.8 					"/>
					<path fill="#3F3F3F" d="M296.5,327.4c0.6,0.1,1.2,0.3,1.8,0.3C297.1,327.5,296.4,327.3,296.5,327.4z"/>
				</g>
			</g>
		</g>
	</g>
</g>
<g opacity="0.5">
	<g>
		<g>
			<g>
				<g>
					<path fill="#3F3F3F" d="M1250.4,605.7c0.3,0.7,0.2,0.5,0.3,0.6C1250.2,605,1250.4,605.7,1250.4,605.7z"/>
					<polygon fill="#3F3F3F" points="1246.1,593.6 1246.2,593.8 1245.6,592 					"/>
					<path fill="#3F3F3F" d="M1242.3,582.2c0.2,1.1,1.4,4.1,2.1,6.2l0.1,0.3l0.4,0.9C1244,587.1,1242.8,583.9,1242.3,582.2z"/>
					<path fill="#3F3F3F" d="M1240.4,576.1c0.1,0.4-0.5-1.3,0.5,1.4c0-0.1-0.1-0.2-0.1-0.3C1240.7,577,1240.6,576.7,1240.4,576.1z"
						/>
					<path fill="#3F3F3F" d="M1240.8,577.2C1241.3,578.4,1240.6,576.5,1240.8,577.2L1240.8,577.2z"/>
					<path fill="#3F3F3F" d="M1238.9,571.7l0.6,1.6c-0.1-0.3-0.6-1.7-0.4-1.2C1238.5,570.5,1238.6,570.8,1238.9,571.7z"/>
					<path fill="#3F3F3F" d="M1238.3,570.3l0.3,0.8C1238.5,571,1238.5,570.7,1238.3,570.3z"/>
					<path fill="#3F3F3F" d="M1239.2,572.8l-0.7-1.7c0.1,0.3,0,0.3,0.3,0.8C1238.7,571.7,1238.9,572.1,1239.2,572.8z"/>
					<path fill="#3F3F3F" d="M1239.6,573.8c0.3,0.9,0.7,2,0.1,0.5C1240.6,577.2,1240.6,576.8,1239.6,573.8z"/>
					<path fill="#3F3F3F" d="M1242,581.6l0.4,1.2l0.4,1C1242.5,583.3,1242,581.6,1242,581.6z"/>
					<path fill="#3F3F3F" d="M1235.4,562c-0.1-0.1,0.1,0.5,0.1,0.7l0.5,1.2C1235.8,563.2,1235.4,562,1235.4,562z"/>
					<path fill="#3F3F3F" d="M1235.6,562.6l-0.7-1.7C1235.5,562.4,1235.6,562.7,1235.6,562.6z"/>
					<polygon fill="#3F3F3F" points="1238.1,570 1239.1,572.9 1237.8,569.4 					"/>
					<polygon fill="#3F3F3F" points="1233,555.3 1233.5,556.3 1232.8,554.6 					"/>
					<path fill="#3F3F3F" d="M1231.4,551c0.3,0.7-0.3-1,0-0.3c-0.5-1.2-0.9-2.2-1.2-3.1C1230.6,548.5,1231,549.6,1231.4,551z"/>
					<path fill="#3F3F3F" d="M1229.5,546c0.2,0.5,0.4,1,0.7,1.5C1229.9,547.1,1229.7,546.6,1229.5,546z"/>
					<path fill="#3F3F3F" d="M1233.9,557.9c0-0.1-0.1-0.4-0.5-1.4l0.2,0.7C1233.7,557.5,1233.8,557.7,1233.9,557.9z"/>
					<path fill="#3F3F3F" d="M1233.6,557.3L1233.6,557.3c-0.3-0.8-0.5-1.2-0.6-1.5C1233.1,555.9,1233.3,556.4,1233.6,557.3z"/>
					<path fill="#3F3F3F" d="M1233.9,558.1c0-0.1,0-0.1-0.1-0.2C1233.9,558,1233.9,558,1233.9,558.1z"/>
					<path fill="#3F3F3F" d="M1236.5,565.4c-0.4-1-1.2-3.1-0.6-1C1236.3,565.1,1235.9,563.9,1236.5,565.4z"/>
					<path fill="#3F3F3F" d="M1234.1,559l0.7,1.8c0-0.1-0.1-0.4,0.1,0.1L1234.1,559z"/>
					<polygon fill="#3F3F3F" points="1233.8,558 1234.1,559 1233.9,558.3 					"/>
					<path fill="#3F3F3F" d="M1230.7,549.2c-0.3-0.8-0.7-1.6-1-2.6c0.4,1,0.8,2.2,1.1,3.1C1230.9,549.9,1231,550.3,1230.7,549.2z"/>
					<path fill="#3F3F3F" d="M1232.1,553.1c0-0.1-0.1-0.1-0.1-0.2C1232,553.1,1232.1,553.1,1232.1,553.1z"/>
					<path fill="#3F3F3F" d="M1225.8,536.9c0,0.1,0,0.1,0,0.1s0,0,0,0.1V536.9z"/>
					<path fill="#3F3F3F" d="M1230.9,549.9c0.3,0.8,0.5,1.2,0.7,1.7c-0.2-0.6-0.5-1.2-0.8-1.9
						C1230.8,549.7,1230.7,549.7,1230.9,549.9z"/>
					<path fill="#3F3F3F" d="M1228.4,543.4c0.2,0.4,0.3,0.9,0.5,1.4C1228.8,544.3,1228.5,543.5,1228.4,543.4z"/>
					<path fill="#3F3F3F" d="M1231.9,552.7C1231.9,552.8,1231.9,552.8,1231.9,552.7C1231.9,552.5,1231.9,552.6,1231.9,552.7z"/>
					<path fill="#3F3F3F" d="M1231.9,552.7c-0.2-0.4-0.3-0.7-0.5-1c0.2,0.5,0.4,0.9,0.5,1.3C1232,552.9,1231.9,552.7,1231.9,552.7z"
						/>
					<path fill="#3F3F3F" d="M1224.2,534.1c0.1,0.1,1,2.2,1.6,4c0.8,1.8,0.6,0.5,0.1-1c-0.1-0.1-0.1-0.1-0.9-1.8
						c0.2,0.7,1.5,4.1,0.9,2.5c-0.9-2.4-0.8-2-1.1-3.1c0.3,1-1.3-3-1.3-2.5l0.9,2.1C1224.3,534.3,1223.9,533.5,1224.2,534.1z"/>
					<path fill="#3F3F3F" d="M1227.3,540.5l0.3,0.7c-0.3-0.9-0.6-1.4-0.9-2.6c-0.6-1.2-0.7-1.5-0.7-1.6l1.4,3.7L1227.3,540.5z"/>
					<path fill="#3F3F3F" d="M1228.9,544.7c-0.3-0.6-1-2.4-0.7-1.2c0.9,2.2,0.7,1.5,1.2,2.8C1227.9,542.7,1229.8,547.2,1228.9,544.7
						c0.3,0.7,0.6,1.4,0.8,2c-0.2-0.7-0.5-1.2-0.7-1.8v0.1l0,0l0,0c0.1,0.1,0.1,0.2,0,0v-0.1
						C1228.9,544.8,1228.9,544.7,1228.9,544.7C1228.5,543.7,1228.9,544.5,1228.9,544.7l0.1,0.2l0,0l-1.4-3.5
						C1227.8,542.1,1228.2,543,1228.9,544.7z"/>
					<path fill="#3F3F3F" d="M1235,562.5c0-0.1,0-0.1,0-0.1C1234.9,562.2,1234.9,562.1,1235,562.5z"/>
					<path fill="#3F3F3F" d="M1234.6,561.1c0.1,0.3,0.2,0.5,0.5,1.3c0.3,0.7,0,0-0.1,0.1c0.2,0.5,0.7,1.8,0.2,0.2l-0.1-0.3
						c-0.5-1.4-1-3.3-0.9-3S1234.3,560.1,1234.6,561.1z"/>
					<path fill="#3F3F3F" d="M1231.7,552.7l-1.1-2.9l0.5,1.5v-0.1C1231.6,552.9,1231.6,552.5,1231.7,552.7z"/>
					<polygon fill="#3F3F3F" points="1225.7,536.6 1225.9,536.9 1225.2,535.3 					"/>
					<polygon fill="#3F3F3F" points="1224.2,532.7 1224.3,532.9 1223.8,531.9 					"/>
					<path fill="#3F3F3F" d="M1066.5,340.5l-0.9-0.7C1066.1,340.1,1066.4,340.3,1066.5,340.5z"/>
					<path fill="#3F3F3F" d="M1073.1,345.1l0.2,0.1C1072.9,345,1072.8,344.9,1073.1,345.1z"/>
					<path fill="#3F3F3F" d="M1175.1,441.5c-0.8-1.2-1.7-2.5-1.6-2.4l0.2,0.4C1174.4,440.4,1174.9,441,1175.1,441.5z"/>
					<path fill="#3F3F3F" d="M1123.5,385.3c0.1,0.1,0.2,0.2,0.3,0.3c0.3,0.3,0.6,0.5,0.9,0.7C1124.4,385.9,1124,385.6,1123.5,385.3z
						"/>
					<path fill="#3F3F3F" d="M1122.5,384.7l-1.5-1.4C1121.3,383.6,1121.8,384,1122.5,384.7z"/>
					<path fill="#3F3F3F" d="M1030,315.5l-1.1-0.7C1030.6,316,1029.9,315.5,1030,315.5z"/>
					<path fill="#3F3F3F" d="M1206.7,494c-0.6-1-0.9-1.9-1.3-2.7C1206,492.6,1206.5,493.7,1206.7,494z"/>
					<path fill="#3F3F3F" d="M1069.8,341.8c-0.6-0.4-0.9-0.5-0.9-0.5C1069.5,341.7,1069.9,342,1069.8,341.8z"/>
					<path fill="#3F3F3F" d="M1203.8,488.2c0.1,0.2,0.2,0.4,0.3,0.6c0.4,0.8,0.8,1.6,1.3,2.5
						C1204.9,490.3,1204.4,489.3,1203.8,488.2z"/>
					<path fill="#3F3F3F" d="M894.2,227.7c-0.1-0.1-0.2-0.1-0.3-0.2C893.8,227.4,894,227.5,894.2,227.7z"/>
					<path fill="#3F3F3F" d="M857.5,200c0.4,0.3,0.9,0.7,1.5,1.1C858.8,200.9,858.3,200.6,857.5,200z"/>
					<path fill="#3F3F3F" d="M1217.8,517.5C1218.1,518.3,1217.9,517.5,1217.8,517.5L1217.8,517.5z"/>
					<path fill="#3F3F3F" d="M1219.2,521.4c-0.1-0.2-0.2-0.3-0.2-0.3S1219.1,521.3,1219.2,521.4z"/>
					<path fill="#3F3F3F" d="M1199.2,480.5L1199.2,480.5C1199.2,480.7,1199.2,480.6,1199.2,480.5z"/>
					<path fill="#3F3F3F" d="M1218.2,518.7c-0.1-0.3-0.3-0.7-0.5-1C1217.9,517.8,1218,518.1,1218.2,518.7z"/>
					<path fill="#3F3F3F" d="M1218.2,518.5c0.1,0.3,0.2,0.5,0.3,0.7C1218.6,519.3,1218.5,519.2,1218.2,518.5z"/>
					<path fill="#3F3F3F" d="M1217.3,516.3c0.2,0.5,0.4,0.9,0.6,1.3c-0.1-0.1-0.1-0.2-0.1-0.2
						C1217.7,517.2,1217.5,516.9,1217.3,516.3z"/>
					<path fill="#3F3F3F" d="M966.8,274.8c-0.1-0.1-0.1-0.1-0.2-0.1C965.6,274.2,966.1,274.5,966.8,274.8z"/>
					<path fill="#3F3F3F" d="M1159.4,422.6L1159.4,422.6L1159.4,422.6L1159.4,422.6z"/>
					<path fill="#3F3F3F" d="M1157.1,420c1,1,1.5,1.7,2.2,2.6l-0.5-1L1157.1,420z"/>
					<path fill="#3F3F3F" d="M1050.8,329.4l2.1,1.5c-2.7-1.8-4.6-3.1-2.6-1.6c0.5,0.1,8.4,5.8,8.9,5.9l1.4,1
						c-0.4-0.3-0.5-0.3-0.9-0.6c2.7,2,2.2,1.4,5.7,3.9c1.2,0.9,2.1,1.5,1.2,0.9l2.8,1.9c0.8,0.6,0.6,0.5-0.2-0.1c0,0,1,0.7,2.1,1.5
						c1,0.7,2.1,1.5,2.1,1.5l0,0c0.6,0.4,2,1.4,2.7,1.8c1,0.8-0.6-0.4-0.3-0.1l2.4,1.6c0.9,0.7-1-0.7-2.7-1.8c1.9,1.7,2,1.3,6.4,4.8
						c0,0-0.6-0.4-1-0.8c-0.6-0.4-1-0.8-1-0.8c1.2,1.1,2.9,2.3,5.3,4.2c-0.6-0.5-4.7-3.7-2.2-1.9c0.7,0.5,1.6,1.2,2.9,2.2
						c-0.1,0.1,1.2,1,2.8,2.2h-0.2c1.8,1.3,1.6,1.2,2.7,1.9c1.9,1.5,2.2,1.8,2.6,2.2c3,2.4-2-1.7,1.6,1.1c2.5,2,4.3,3.4,7.3,5.8
						c1.7,1.4-0.4-0.2,0.2,0.3l1.6,1.2c0.4,0.3,0.2,0.2,0.2,0.2c1.3,1,0.2,0.1,2.3,1.7c0.7,0.4,3.9,3.5,6.5,5.6
						c0.6,0.5-0.4-0.2-0.2-0.1c3.4,2.8,2.9,2.4,5.7,4.7l2.2,2.1c-1.6-1.5,0.7,0.3,2.6,2c-0.6-0.5-1-1-1.3-1.3l3,2.6
						c0.4,0.3,0,0.1-0.5-0.3c0.2,0.2,0.4,0.3,0.6,0.5c1,1,0.4,0.5-0.4-0.1c-0.4-0.3-0.7-0.7-1-1c-0.8-0.7-1.5-1.2-1.4-1
						c0.2,0.2,0.6,0.5,1,0.9c-0.2-0.2-0.4-0.3-0.3-0.2c0.1,0.1,0.4,0.4,0.9,0.8l0.6,0.7l0.2,0.1c0,0,0.3,0.2,0.6,0.5
						c0.4,0.3,0.9,0.8,1.2,1.2c0.9,0.9,1.9,1.8,1.9,1.8c2.8,2.5,5.4,4.6,9.6,8.7c-1.1-1-0.4-0.1-0.5-0.2c-0.5-0.6-1.3-1.4-2.3-2.3
						c-0.5-0.5-0.9-0.9-1.5-1.4s-1-1-1.6-1.6c1.1,1.1,0.9,0.9,0.6,0.6c0,0,1,0.9,2,1.8c1,0.9,2,1.9,2,1.9c-0.2-0.1,0.8,0.9,1.7,1.8
						c-0.7-0.8,3,2.8,4.6,4.3c0,0.1-0.3-0.3-2.3-2.2c2,2.2,2.8,2.6,4.7,4.8c-0.5-0.5-0.7-0.7-0.9-0.9c1,1,3.6,3.8,2.9,3.1l-0.5-0.5
						c0.8,0.8,1.7,1.8,2.7,2.8c0.9,1,2,2.2,2.8,3.2c1.9,2.1,3.5,3.8,3.7,4c0,0.1-0.6-0.3-0.8-0.5c0,0,1.4,1.4,2.7,2.8
						c1.3,1.4,2.7,2.8,2.7,2.8c-0.6-0.5,0.8,1.6-1.5-1c0.7,0.8,1.4,1.8,2.8,3.3c-0.4-0.5-0.9-1.4-0.3-0.7c1.5,2,1,1.4,2.9,3.9
						c-0.7-0.8,0.3,0,1.3,1.2c-0.2-0.2-0.1,0.2-0.5-0.3l2.6,3.1c-0.7-0.8-0.3-0.1,0.2,0.7c-0.2-0.3,2.1,2.8,2.8,3.6l-0.9-1.4
						c1.3,1.8,2.1,2.6,2.8,3.5c0.4,0.5,0.8,0.9,1.1,1.4c0.5,0.5,0.9,1.2,1.5,2.1c-0.4-0.4-0.9-1,0.3,0.9c0.7,0.8,3,3.5,5.4,6.8
						l0.4,0.7c0,0,0.1,0.1,0.3,0.4c0.2,0.2,0.4,0.5,0.6,0.9c0.4,0.6,0.9,1.2,0.9,1.2c-0.3-0.4-0.7-0.9-1.1-1.6
						c-0.5-0.7-1-1.4-1.7-2.1c-1.2-1.5-2.5-3.1-3.3-4.3c0.9,1.4,0.2,0.4,1.6,2.4c0.5,0.7-0.9-1.1-1.2-1.7l3.2,4.8
						c0-0.1,0.7,0.8,1.2,1.7c0.7,0.9,1.2,1.8,1.2,1.7c0,0-0.9-1.3-1.7-2.6c-0.9-1.3-1.9-2.6-1.9-2.6c0-0.3,2.5,2.9,4.6,6.3
						c0.5,0.9-0.7-0.6-0.6-0.5c0.3,0.5,2.2,3.2,2.3,3.5l-0.9-1.4c1.1,1.9,2.2,3.1,3.5,5.4c0.6,0.8,1.2,2.4,1.4,2.6
						c-0.7-1.3-0.4-1.7,0.3-0.9c0.2,0.3,2.4,4.3,2.8,5.2c0.7,1.4-1.4-1.9-0.9-0.8c0.1,0.1,0.6,0.7,0.8,1c0.5,0.9-0.3-0.3,0.8,1.5
						c0.3,0.3,2.2,3.7,0.6,0.9c1,1.8,1.1,1.9,2.3,4c-0.3-0.7,1.3,1.8,2.3,3.6c-0.1-0.1,0.1,0.3,0.2,0.5c2,3.7,3.1,5.7,4.8,9.2
						c0.1,0.3,0.9,2,0.6,1.3c0.3,0.5,0.6,0.9,1.1,2c0.9,2.1-1.2-2.4-0.6-0.8c0.1,0.1,1.5,2.8,2.3,4.3c-0.1-0.5-1.8-3.5-2.6-5
						c0.1,0,0.5,0.6,1.1,1.7c0.7,1.1,1.5,2.7,2.5,4.5c1.4,2.9,0.5,1.3,0.8,1.8c2.6,5.4,2.5,4.6,4.5,9.2c0.8,1.8-0.2,0.1,0,0.5
						c-1.1-2.4-1.6-3.7-2.4-5.2l0.9,2c-0.4-0.7-1.1-2.3-1.5-3.2c0.3,0.8,1.4,3.1,2.7,5.7c1.2,2.6,2.6,5.6,3.4,7.8
						c0.4,0.7,0.9,2,0.8,1.4l-0.6-1.3c-0.5-1.2,1.2,2.5,0.5,0.8c0.9,1.8,1.9,3.8,2.8,6.4l0.1,0.5c0-0.1-0.6-1.7-0.9-2.4
						c0.5,1,1.5,3.9,2.1,5l-0.7-1.8c0.9,1.8,1.9,4,2.8,6.3c-0.3-1-0.2-0.5-0.8-2.2c0.4,1.4-2.4-5.8-1.6-3.5c-0.6-1.6-1-2.9-1.9-5
						c0,0.1,0.3,0.8-0.6-1.1c0-0.1-0.2-0.3-0.2-0.4c0-0.1,0-0.1-0.1-0.1c0,0.1,0,0.1,0,0.1c0-0.1,0-0.1,0,0.1c0.2,0.5,0.3,0.9,0.4,1
						c-0.5-0.9-1.8-3.9-2.3-4.9c-0.5-1.1,0.3,0.5,0-0.1l-0.8-1.5c0-0.2-1.1-3,0-0.4l-1-2.4c-0.6-1.4-1.5-3.3-2.1-4.5
						c-0.5-1.1-1.4-2.8-0.9-1.8l-1.8-3.7v-0.1c-0.9-1.8-1.8-3.7-2.8-5.6c-0.9-1.9-2-3.9-2.9-6c-0.7-1.2-1.3-2.5-2.4-4.5l-0.2-0.4
						c-0.9-1.6-2.5-4.7-2.9-5.3c-0.4-0.9-1.3-2.8-2.6-4.7c-1.1-2-2.5-4.1-3.2-5.4l-0.2-0.1c-1.1-1.8-2.1-3.7-3.6-5.9v0.1
						c-1.3-2-3.1-5-5.2-8.2c0.2,0.2,0.7,1,1,1.6c-2.1-3.8-5.3-7.7-7.5-11.1c-0.6-0.8-1-1.4-1.4-2c0.1,0.1,0.1,0.1,0.2,0.2
						c-0.1-0.1-0.2-0.2-0.2-0.3c-0.3-0.4-0.5-0.7-0.8-1.2c0.2,0.3,0.5,0.7,0.7,1c-0.5-0.7-1.1-1.6-1.9-2.6l-0.2-0.4
						c-0.1-0.1-0.1-0.1-0.2-0.2c-0.7-0.9-0.6-0.7-0.3-0.2c-0.4-0.5-0.8-0.9-0.9-1.2c-0.5-0.8-1.9-2.4-2.6-3.5
						c-0.6-0.6-3.5-4.7-4.2-5.1c0-0.1-0.2-0.3,0.2,0.2c-0.9-1-1.6-2-2.5-2.9l-0.3-0.5l-2-2.2c-1-1.4-1.5-2-0.3-0.7
						c-1.4-1.6-1.9-2.2-2.5-2.8c-0.5-0.6-0.9-1.1-2.2-2.4l0.2,0.1c-0.9-1-2.3-2.5-2.8-3.1c-0.9-1.1-3.2-3.8-6.2-6.8
						c-1.4-1.5-2.9-3.1-4.5-4.7c-1.5-1.6-3-3.1-4.4-4.5c0.9,1.1-2.4-2.5-2.8-2.7c-0.3-0.3-1-1.1-0.1-0.3c-1.4-1.4-2.5-2.4-3.4-3.3
						c-0.9-0.9-1.8-1.7-2.8-2.6c-0.3-0.3,0.7,0.5,0.4,0.3c-0.3-0.2-0.9-0.9-1.2-1.1c-0.3-0.3,0.5,0.4,0.9,0.8
						c-2.9-2.8-3.3-2.9-3.7-3.1c-1.4-1.4-2.3-2.1-3.4-3c-0.5-0.5-1.3-1.3,0.6,0.3c-1-0.9-6.4-5.8-6.5-5.8c-0.3-0.3-1.5-1.3-1.8-1.5
						c-2.5-2.1-2.7-2.2-5-4.3l0.7,0.6c-1-0.7-2-1.7-4-3.3l0.1,0.1c-4.5-3.7-2-1.6-6.4-5.2l0.2,0.3c-0.6-0.3-3.9-3.2-6.6-5.3l0.9,0.8
						c-1.5-1.1-3.8-3.3-5.3-4.5c-0.3-0.3,0.6,0.4,0.9,0.7c-3.8-3-0.6-0.3-3.5-2.5c-0.5-0.5,0.9,0.5-1.1-1c-0.9-0.8-5.8-4.2-8.4-6.2
						c0.6,0.5,1.1,0.9-0.3-0.1c-2.1-1.5-5.5-4.3-7.5-5.5c-0.3-0.2-0.4-0.3-0.4-0.3c-1.6-1.1-5.3-3.7-6.4-4.4
						c-1.2-1.2-10.3-7-10.1-7.1l-5.1-3.5l0.2,0.1c-3.2-2.2-4.5-2.9-5.7-3.7c-0.8-0.5-0.2-0.1-0.1-0.1c-4.7-3.3-5.3-3.5-9.4-6.2
						l-0.4-0.3c-1.1-0.7-6.9-4.7-11.8-7.7c0.1,0,0.2,0.1,0.6,0.3c-5.5-3.4-12.7-8.5-15-9.6l-3.6-2.2c4.7,2.9-0.8-0.4,1,0.9
						c-1.8-1.2-4.7-3.1-2.4-1.6l0.4,0.3c0.9,0.5-5.7-3.7-5.5-3.7c-9.1-5.8-18-11.5-26.6-16.9l0.9,0.7l-2.9-1.9
						c-0.8-0.5-0.9-0.7,1.1,0.7c-0.6-0.4-1.4-0.9-2.2-1.4s-1.4-0.9-1.5-0.9c-4.2-2.7,1.7,0.9,0.5,0.1l-1.7-1.1l0.4,0.3
						c-1.4-0.9-1.6-0.9-4.2-2.6c-1.6-1-0.8-0.6-1.4-1c0,0,0-0.1-0.2-0.1c-0.2-0.1-0.4-0.3-0.8-0.5l-3.8-2.4l1.4,1
						c-1.7-1-3.5-2.2-1.9-1.1c-2.5-1.7-14-9-15.5-10c-2.4-1.4-4.7-2.9-7.5-4.8c0.7,0.5,1,0.8-1.4-0.8c1,0.5-4.4-2.9-6.2-4.3
						c1.7,1.2-6.9-4.5-4.3-2.6c-2-1.3-0.1-0.1-1.5-1.2c-4.8-3.1-10.5-7.1-16.3-11c-0.1-0.1,0.9,0.7-0.5-0.2l-2.9-2.2
						c-1.1-0.8-1.2-0.7-3.2-2.2c0.3,0.2,0.7,0.5-0.1,0c-11.2-7.9-23-16.2-33.7-24.8c1.4,1.2,0.5,0.4-0.7-0.5c0.8,0.6-0.1,0,0,0.1
						c0,0-1.1-0.9-2.3-1.8c-1.1-0.9-2.2-1.8-2.2-1.8c-0.9-0.6-4.8-3.8-5.4-4.1l1.4,1.1c-2-1.4,2.4,2.2,2,2.1c1.1,0.8,2.5,2,4,3.2
						s3.3,2.6,5.1,3.9c0.8,0.6-0.7-0.5-0.3-0.1c0.9,0.7,2.1,1.5,4.1,3l-0.3-0.2c5.8,4.3,8.1,6.2,14.7,10.9l-0.4-0.4
						c1.4,1,1.7,1.2,2.3,1.7c1.7,1.1-4-2.9-2.4-1.8c0.9,0.7,3.3,2.5,5.8,4.3c2.5,1.7,4.8,3.4,5.4,3.9c2.2,1.6-0.6-0.5,1.6,1l0.6,0.5
						l0.6,0.3c1.4,1,2.1,1.6,2.2,1.6c-0.4-0.3-1-0.7-1.4-0.9c1.8,1.3,5.3,3.7,6,4.1l-2.2-1.6c6.1,4.1,13.6,9.2,19.6,13.1l-0.4-0.3
						c4.7,2.9,3.6,2.4,8.6,5.7l-0.2-0.1c1,0.7,2.4,1.5,3.8,2.4c-1.3-0.8,2.4,1.6,0.7,0.5c5,3.2,2.5,1.6,5.9,3.6l0.8,0.5
						c1.1,0.7,1.3,0.7,3.8,2.4c-2.1-1.3,1.5,1.1-0.9-0.4c5.2,3.5,8,5,10.3,6.7c2.6,1.4-4.6-3-3.1-2.2c-1.1-0.8,2.1,1.2,3.8,2.3
						c1.7,1.1,2.8,2,7,4.7c-0.5-0.3-0.5-0.3-0.9-0.5c1.6,1,3.2,2,5.1,3.3c1.1,0.7,2.6,1.6,2.9,1.8l-4-2.5c2.3,1.4,4.5,2.6,8.1,5
						c-0.3-0.2-1.4-0.9-2.2-1.3c1,0.7,2.1,1.3,3.2,2c-0.4-0.1-4.8-3-7.3-4.5c1.1,0.8,4.7,2.8,3.3,2.2c1.9,1,4.2,2.7,7.2,4.5
						l-0.3-0.1c0.5,0.3,1.4,0.9,2.3,1.4l-1.6-0.9c2.5,1.4,4.5,2.9,6.8,4.3c-4.7-3-0.9-0.7-2.9-2c5.9,3.6,3.2,2.2,9.8,6.4
						c-0.9-0.5-3.3-2.1-1.9-1.2c1.2,0.8,2.8,1.8,3.6,2.4c4.4,2.8-0.6-0.5,1.2,0.7c1.4,1,2.2,1.3,4.1,2.5l-0.1,0.1
						c4.9,3.1,1.4,0.7,5.8,3.6l-2-1.1l2.4,1.4l-0.6-0.3c2.6,1.6,3.3,2.1,5.8,3.7c-0.6-0.4,0.5,0.1,2.7,1.5c1.4,1-0.9-0.5,2.2,1.5
						c-0.8-0.4-1.5-0.9-2.8-1.8c-0.2-0.1-0.8-0.4-0.9-0.5c1.5,1,4,2.6,5.1,3.3c-0.4-0.3-0.9-0.6-1.2-0.8l4.6,2.8
						c0.7,0.5,0.1,0.1-0.5-0.2c0.9,0.6,1.5,1,2.8,1.8c-0.4-0.2-0.4-0.1-2.3-1.3l4.3,2.7c0.3,0.2,2.1,1.4,1.5,1.1
						c2.3,1.6,5.8,3.7,8.9,5.7c0.2,0.1,0.5,0.3,1.1,0.7c2.8,1.9,5.4,3.7,8.8,5.9l1.8,1.4c2.7,1.8-2.5-1.8,2,1.1
						c3.1,2.1,1,0.9,2.2,1.6c1.6,1,4.5,2.8,7.2,4.8C1052.4,330.5,1051.6,330,1050.8,329.4z M1082.6,352.2c-0.6-0.5-1.8-1.3-2.3-1.7
						C1081.2,350.9,1081.6,351.4,1082.6,352.2z M1127.5,389.1c-0.4-0.3-1-0.9-1.7-1.6C1126.3,387.9,1126.8,388.5,1127.5,389.1z
						 M1213.8,508.6C1213.8,508.6,1213.7,508.6,1213.8,508.6C1213.1,507.3,1213.3,507.7,1213.8,508.6z M1214.9,511.4
						c0.1,0.3,0.1,0.3,0.1,0.1c-0.1-0.2-0.4-0.8-0.7-1.5C1214.4,510.2,1214.5,510.5,1214.9,511.4z M957.6,268.5l0.6,0.4
						C956.8,268,957.2,268.3,957.6,268.5z"/>
					<path fill="#3F3F3F" d="M1122.6,384.8c-0.1-0.1-0.2-0.2-0.2-0.2C1122.2,384.4,1122.2,384.4,1122.6,384.8z"/>
					<path fill="#3F3F3F" d="M1030.3,315.7L1030.3,315.7c-0.2-0.1-0.2-0.1-0.2-0.1L1030.3,315.7z"/>
					<path fill="#3F3F3F" d="M1192.8,470c-0.3-0.5-0.5-0.9-0.6-1C1192.1,469,1192.3,469.2,1192.8,470z"/>
					<path fill="#3F3F3F" d="M1221.4,525.8l-0.8-1.8c0.4,0.9,0.5,1.2,0.7,1.6C1221.3,525.6,1221.2,525.2,1221.4,525.8z"/>
					<path fill="#3F3F3F" d="M1227,541.1c0.1,0.3,0.2,0.5,0.3,0.8v-0.1C1226.9,540.7,1226.6,540,1227,541.1z"/>
					<path fill="#3F3F3F" d="M1221.7,527.4c0,0.1,0.5,1.2,0.9,2.5c0-0.1-0.1-0.1-0.1-0.2C1222.9,530.1,1222.3,528.7,1221.7,527.4z"
						/>
					<path fill="#3F3F3F" d="M1222.9,530.2c0.2,0.4,0.3,0.8,0.5,1.1C1223.5,531.5,1223.2,530.9,1222.9,530.2z"/>
					<path fill="#3F3F3F" d="M1216.5,514.8c0.2,0.6,0.3,0.3,0.4,0.7C1217.3,516.1,1215.1,511.6,1216.5,514.8z"/>
					<polygon fill="#3F3F3F" points="1221.9,528.5 1221.8,528 1221.5,527.4 					"/>
					<path fill="#3F3F3F" d="M1217.9,518.9l0.9,2c0,0,0.1,0.2,0.3,0.5c-0.3-0.6-0.6-1.2-0.8-1.7
						C1218,519.1,1217.9,518.8,1217.9,518.9z"/>
					<path fill="#3F3F3F" d="M1219,521.3c0.3,0.7,0.6,1.2,0.7,1.6C1219.6,522.5,1219.2,521.8,1219,521.3z"/>
					<polygon fill="#3F3F3F" points="1220.8,525.9 1220.5,525.3 1219.9,523.8 					"/>
					<path fill="#3F3F3F" d="M1208.3,497.9l-1.1-2.1c-0.1-0.2,0.1,0.4,0.6,1.2C1208,497.5,1208.5,498.3,1208.3,497.9z"/>
					<path fill="#3F3F3F" d="M1211.1,504.4c-0.3-0.6-0.3-0.6-0.4-0.9l-0.2-0.1L1211.1,504.4z"/>
					<path fill="#3F3F3F" d="M1208.2,498.2c-0.1-0.2-1.6-3-0.3-0.4C1208,498,1209,500.2,1208.2,498.2z"/>
					<polygon fill="#3F3F3F" points="1191.2,466.7 1191.5,467.3 1191.7,467.1 					"/>
					<path fill="#3F3F3F" d="M1173,440.1c1.7,2.4,0.6,0.5,2,2.7c0.5,0.5-1.1-1.8-0.8-1.2C1173.1,440.1,1172.6,439.4,1173,440.1z"/>
					<path fill="#3F3F3F" d="M1174.2,441.5c0.2,0.2,0.4,0.5,0.6,0.7C1174.5,441.8,1174.3,441.6,1174.2,441.5z"/>
					<polygon fill="#3F3F3F" points="851.6,195.3 850.1,194 851.1,194.8 					"/>
					<path fill="#3F3F3F" d="M848.5,192.9l-0.3-0.3l-1-0.7C847.6,192.1,848.2,192.7,848.5,192.9z"/>
					<path fill="#3F3F3F" d="M1087.1,355.8l0.2,0.1c-0.2-0.2-0.7-0.5-1.4-1.1L1087.1,355.8z"/>
					<polygon fill="#3F3F3F" points="1064.4,338.9 1064.7,339.3 1064.1,338.7 					"/>
					<path fill="#3F3F3F" d="M1044.5,325.4c0.9,0.5,1.8,1.2,2.6,1.8C1045.3,325.9,1044.3,325.2,1044.5,325.4z"/>
				</g>
			</g>
		</g>
	</g>
</g>
</svg>
