<?xml version="1.0" encoding="utf-8"?>
<!-- Generator: Adobe Illustrator 18.0.0, SVG Export Plug-In . SVG Version: 6.00 Build 0)  -->
<!DOCTYPE svg PUBLIC "-//W3C//DTD SVG 1.1//EN" "http://www.w3.org/Graphics/SVG/1.1/DTD/svg11.dtd">
<svg version="1.1" id="Layer_1" xmlns="http://www.w3.org/2000/svg" xmlns:xlink="http://www.w3.org/1999/xlink" x="0px" y="0px"
	 viewBox="0 0 300 500" enable-background="new 0 0 300 500" xml:space="preserve">
<g opacity="0.2">
	
		<image overflow="visible" width="1079" height="2629" xlink:href="D13A697C.png"  transform="matrix(0.24 0 0 0.24 19.0926 -12.4138)">
	</image>
</g>
<g>
	<path fill="#5540BE" d="M195.8,380.3c0,0-0.3,20.6-1,53.1c-1,37.8-2.2,92.1-4.8,148.7H124l47-131.8l5.1-14l1.3-3.5l9.5-27
		L195.8,380.3z"/>
	<path fill="#5F52D9" d="M192.3,428.6c0,2.9-0.3,5.4-0.6,8.6l0,0c-3.5,35.3-21.9,88.6-45.1,145.2H54.1
		c21.3-78.8,41.9-148,52.1-182.7l0,0c4.4-14.6,7-23.2,7-23.2l0,0c17.5-10.5,31.1-12.1,41.9-8.6c2.2,0.6,4.1,1.6,6,2.9
		c13,7.3,20.6,22.2,25.1,35.3C191,418.1,192.3,428.6,192.3,428.6z"/>
	<polygon fill="#FADBBC" points="150,423.8 134.5,445.8 150,466.7 169.4,440.7 	"/>
	<path fill="#FADBBC" d="M104,209.4c0,0-5.1-45.1-9.2-45.4c0,0-3.5-1-4.4,26.7c0,0.3-17.2-37.8-21.3-36.2c-4.4,1.6-7.6,5.7-7.3,12.4
		c0.3,4.8,7.6,45.1,20.3,55.9L104,209.4z"/>
	<path fill="#F7F7F7" d="M150,278c0,0-34-90.5-47.3-79.4c0,0-14.3,9.5-24.1,14c-21.6,9.8-4.4,48.9,52.7,125.2L150,278z"/>
	<path fill="#FADBBC" d="M151.3,88.7c-1,23.5-8.6,45.4,25.7,45.4c16.8,0,32.4-15.6,34.6-38.8c2.5-23.2-9.2-43.5-25.7-45.4
		C169.4,48,153.5,39.1,151.3,88.7z"/>
	<path fill="#FADBBC" d="M218.7,179.6c-13,16.2-36.2,42.3-50.5,41c-5.4-0.6-10.5-14-14.6-28.9c12.7-11.8,15.2-37.2,15.6-53.7
		c0-1,0-1.9,0-2.9c0-0.6,0-1,0-1.6c0-0.6,0-1.6,0-2.2c0-5.4-0.3-8.6-0.3-8.6l33.4-1L218.7,179.6z"/>
	<path fill="#F09F9E" d="M169.1,137.9c0-1,0-1.9,0-2.9c0-0.6,0-1,0-1.6c5.4,0.6,12.4,0.6,18.7-1.6
		C187.2,132.2,179.6,137.3,169.1,137.9z"/>
	<path fill="#252447" d="M194.5,29c-14.9-2.9-24.8,1.3-40.3-4.1c-15.6-5.4-13,7.9-3.8,13.7c0,0,1.3,9.2-12.4-1.6s-6,25.1,27.3,26
		c0,0,32.4-0.3,33.4,13c0,0-14,54,6.7,46.1c0,0,27-5.7,14-64.2C218.7,58.2,214.2,32.8,194.5,29z"/>
	<path fill="#F7F7F7" d="M174.2,453.4L141.8,421c0,0,10.2-18.4,12.4-38.1c0-1.3,0.3-2.9,0.3-4.1c0,0-2.5,1-6,1.9
		c-14.9,4.1-50.5,10.2-32.7-36.2c0,0,8.6-118.8,37.8-153.1c0,0,42.9,2.2,61.3-25.1C226.9,148.4,285.1,365.1,174.2,453.4z"/>
	<path fill="#EAEAEA" d="M154.2,383.2c0-1.3,0.3-2.9,0.3-4.1c0,0-2.5,1-6,1.9c7.6-12.7,25.4-48,33.4-110.6
		C181.8,270.4,181.2,343.5,154.2,383.2z"/>
	<path fill="#5540BE" d="M131,434.3c0,0,12.7,32.1,27.3,37.5l-1.3,7.3c0,0-31.4-13.3-32.7-43.2L131,434.3z"/>
	
		<rect x="129.5" y="481" transform="matrix(-0.3293 0.9442 -0.9442 -0.3293 632.515 515.6191)" fill="#5540BE" width="7.3" height="2.9"/>
	
		<rect x="125.8" y="491.7" transform="matrix(-0.3293 0.9442 -0.9442 -0.3293 637.7388 533.2688)" fill="#5540BE" width="7.3" height="2.9"/>
	
		<rect x="122.2" y="502.1" transform="matrix(-0.329 0.9443 -0.9443 -0.329 642.7824 550.2559)" fill="#5540BE" width="7.3" height="2.9"/>
	
		<rect x="118.5" y="512.6" transform="matrix(-0.3293 0.9442 -0.9442 -0.3293 647.7823 568.0183)" fill="#5540BE" width="7.3" height="2.9"/>
	
		<rect x="115" y="522.9" transform="matrix(-0.3292 0.9443 -0.9443 -0.3292 652.8286 584.9675)" fill="#5540BE" width="7.3" height="2.9"/>
	
		<rect x="111.2" y="533.6" transform="matrix(-0.3293 0.9442 -0.9442 -0.3293 657.8224 602.7659)" fill="#5540BE" width="7.3" height="2.9"/>
	
		<rect x="107.6" y="543.8" transform="matrix(-0.3289 0.9444 -0.9444 -0.3289 662.7762 619.5172)" fill="#5540BE" width="7.3" height="2.9"/>
	
		<rect x="103.9" y="554.5" transform="matrix(-0.3292 0.9443 -0.9443 -0.3292 667.9544 637.3326)" fill="#5540BE" width="7.3" height="2.9"/>
	
		<rect x="100.3" y="564.8" transform="matrix(-0.3292 0.9443 -0.9443 -0.3292 672.9175 654.4576)" fill="#5540BE" width="7.3" height="2.9"/>
	
		<rect x="96.6" y="575.5" transform="matrix(-0.3293 0.9442 -0.9442 -0.3293 677.9921 672.2784)" fill="#5540BE" width="7.3" height="2.9"/>
	<path fill="#5540BE" d="M131,408.9c-18.1,0-20-6.4-20-7.3c-0.3-1,0.3-1.6,1.3-1.9c1-0.3,1.6,0.3,1.9,1.3c0,0.3,2.9,7,28.9,3.8
		c1,0,1.6,0.6,1.9,1.3c0,1-0.6,1.6-1.3,1.9C138.3,408.6,134.2,408.9,131,408.9z"/>
	<path fill="#EAEAEA" d="M162.1,209.1c-3.5,0-5.7-0.3-6-0.3c-1,0-1.6-1-1.3-1.6c0-1,1-1.6,1.6-1.3c0.3,0,46.4,4.1,61-26.7
		c0.3-0.6,1.3-1.3,2.2-0.6c0.6,0.3,1.3,1.3,0.6,2.2C207.9,206.2,175.5,209.1,162.1,209.1z"/>
	<path fill="#EAEAEA" d="M118.6,317.4L118.6,317.4c-1,0-1.6-1-1.6-1.9c1.9-17.2,12.4-75.3,12.7-75.9c0-1,1-1.3,1.9-1.3
		c1,0,1.6,1,1.3,1.9c0,0.6-10.8,58.5-12.7,75.6C120.2,317.1,119.6,317.4,118.6,317.4z"/>
	<path fill="#EAEAEA" d="M73.5,232.3c-0.6,0-1.6-0.6-1.6-1.3c0-1,0.6-1.6,1.3-1.9c19.1-2.5,34.9-23.8,35.3-24.1
		c0.6-0.6,1.6-1,2.2-0.3c0.6,0.6,1,1.6,0.3,2.2C110.3,207.8,94.1,229.7,73.5,232.3L73.5,232.3z"/>
	<path fill="#EAEAEA" d="M180.9,444.2c-0.6,0-1.3-0.3-1.6-1c-6-18.1-31.1-23.5-31.4-23.5c-1-0.3-1.3-1-1.3-1.9c0.3-1,1-1.3,1.9-1.3
		c1,0.3,27,6,33.7,25.7c0.3,1-0.3,1.6-1,1.9C181.2,444.2,181.2,444.2,180.9,444.2z"/>
</g>
</svg>
