<?xml version="1.0" encoding="utf-8"?>
<!-- Generator: Adobe Illustrator 18.0.0, SVG Export Plug-In . SVG Version: 6.00 Build 0)  -->
<!DOCTYPE svg PUBLIC "-//W3C//DTD SVG 1.1//EN" "http://www.w3.org/Graphics/SVG/1.1/DTD/svg11.dtd">
<svg version="1.1" id="Layer_1" xmlns="http://www.w3.org/2000/svg" xmlns:xlink="http://www.w3.org/1999/xlink" x="0px" y="0px"
	 viewBox="0 0 1366 900" enable-background="new 0 0 1366 900" xml:space="preserve">
<g>
	<path fill="#EBF2FF" d="M1449.7,754.6c-48.7-8.1-99.6-17.3-138.3-47.9c-63-49.9-74.3-139.7-78.2-219.9
		c-3.9-80.3-8.6-168.9-64.9-226.3C1124.7,216,1059.7,201,998,192.7c-53.1-7.2-107.7-10.9-159.7,1.8c-69.5,16.9-128.7,61.5-195,88.4
		c-129.9,52.5-279.7,33-409.2-20.5c-38.7-16-76.8-35-118.1-41.2c-53.8-8-108.1,6.3-160.5,20.8c-47.2,13.1-96.3,27.6-131.8,61.3
		c-21.4,20.3-36.4,46.3-56.3,68c-27.1,29.8-62.5,51.1-89.7,80.8c-41.5,45.4-60.6,107.1-69.8,167.9c-11.2,73.6-8.1,154,33.9,215.5
		c17.3,25.3,40.3,46.1,63.7,65.9c75.1,63.6,156.3,119.9,242.3,167.7c45.1,25.1,91.9,48,141.7,61.4c58.4,15.7,119.5,18,179.9,20.1
		c130.1,4.7,261.9,9.2,389.1-18.6c75-16.4,147.3-43.9,222.6-58.6c119-23.2,242-14,362.4-28.7c120.4-14.6,246.5-59.7,313.6-160.7"/>
</g>
<g>
	<path fill="#2B65C1" d="M556.6,1775.1c-28.7-40.2-58.2-82.7-63.9-131.7c-9.3-79.8,46.2-151.3,100.2-210.8
		c54-59.5,113.3-125.5,114.1-205.9c0.6-62.3-34.8-118.8-72.5-168.4c-32.5-42.6-68.4-83.8-114.2-111.7
		c-61.1-37.2-134.5-47.5-200.4-75.4C191,816.6,98.8,696.8,45.1,567.5c-16.1-38.6-29.6-79-54.4-112.7c-32.3-43.7-80.9-72-128.2-98.8
		c-42.6-24.1-87.6-48.6-136.5-49.9c-29.5-0.8-58.5,6.9-87.9,8.3c-40.2,1.9-80.3-8.1-120.5-6.3c-61.5,2.8-118.6,32.9-168.1,69.3
		c-60,44.2-114.7,103.1-128.4,176.3c-5.7,30.1-4.1,61.1-1.6,91.7c8.1,98,25.8,195.3,52.8,289.9c14.2,49.6,31,98.9,56.8,143.6
		c30.2,52.4,71.8,97.2,113,141.4c88.7,95.3,178.7,191.7,288.3,261.9c64.6,41.4,135.2,73.1,198.8,116c100.6,67.7,181,161.2,276.5,236
		c95.5,74.8,216.5,132,335.4,108.1"/>
</g>
<g>
	<g>
		<g>
			<g>
				<g>
					<path fill="#363636" d="M977.4,349.1c1-0.7,0.4-0.8,0.5-0.9C976.4,349.5,977.5,349.2,977.4,349.1z"/>
					<polygon fill="#363636" points="962.2,361.9 962.4,361.5 960.2,363.5 					"/>
					<path fill="#363636" d="M946.7,372.1c1.9-0.3,5.7-3.7,8.6-5.2l0.5-0.2l0.9-1.3c-1.6,1.2-3.5,2.5-5.3,3.7
						C949.6,370.3,947.9,371.4,946.7,372.1z"/>
					<path fill="#363636" d="M937.4,375.8c0.7-0.1-1.7,1.2,2.1-1c-0.2,0.1-0.3,0.1-0.4,0.1C938.7,375,938.2,375.3,937.4,375.8z"/>
					<path fill="#363636" d="M939,374.9C940.7,373.9,937.8,375.3,939,374.9L939,374.9z"/>
					<path fill="#363636" d="M931.2,379.4l2.1-1.5c-0.5,0.1-2.6,1.2-1.9,0.7C929.2,380,929.8,379.9,931.2,379.4z"/>
					<path fill="#363636" d="M929.3,381l1.1-0.7C930.2,380.3,929.9,380.5,929.3,381z"/>
					<path fill="#363636" d="M932.8,378.7l-2.4,1.6c0.4-0.1,0.5,0.1,1.1-0.7C931.4,379.9,931.8,379.4,932.8,378.7z"/>
					<path fill="#363636" d="M934.3,378c1.3-0.6,3-1.4,0.9,0.1C939.4,375.6,938.5,375.5,934.3,378z"/>
					<path fill="#363636" d="M946.2,373.2l1.8-0.8l1.3-1.1C948.6,371.8,946,373.1,946.2,373.2z"/>
					<path fill="#363636" d="M916.8,386.2c-0.1,0.2,0.9,0,1.2,0.1l1.6-1C918.7,385.6,917,386.4,916.8,386.2z"/>
					<path fill="#363636" d="M918,386.3c0,0-0.6,0.4-1.2,0.7c-0.3,0.2-0.6,0.4-0.8,0.5c-0.2,0.1-0.4,0.2-0.4,0.2
						C917.8,386.7,918.2,386.4,918,386.3z"/>
					<path fill="#363636" d="M929.3,381.9c0,0,0.2-0.2,0.6-0.4c0.4-0.3,0.8-0.6,1.3-0.9c1-0.7,1.9-1.4,1.9-1.4s-1.2,0.8-2.3,1.6
						C930.2,381.2,929.7,381.6,929.3,381.9c-0.5,0.2-0.8,0.4-0.8,0.4L929.3,381.9z"/>
					<polygon fill="#363636" points="906.9,390.6 908.2,389.6 905.8,391.3 					"/>
					<path fill="#363636" d="M900.3,393.5c1-0.7-1.7,0.1-0.6-0.5c-1.8,0.8-3.3,1.6-4.6,2.3C896.5,394.6,898.1,394.1,900.3,393.5z"/>
					<path fill="#363636" d="M892.9,396.5c0.7-0.4,1.4-0.8,2.2-1.2C894.3,395.7,893.6,396.1,892.9,396.5z"/>
					<path fill="#363636" d="M911.1,389.7c-0.2,0-0.7,0-2.2,0.5l1.2-0.1C910.3,390,910.7,389.8,911.1,389.7z"/>
					<path fill="#363636" d="M910.1,390.1L910.1,390.1c-1.2,0.5-1.9,0.8-2.3,1C908.1,390.9,908.8,390.6,910.1,390.1z"/>
					<path fill="#363636" d="M911.3,389.5c-0.1,0-0.2,0.1-0.3,0.1C911.2,389.7,911.2,389.6,911.3,389.5z"/>
					<path fill="#363636" d="M922.4,384.9c-1.4,1-4.4,2.7-1.2,1.6C922.1,385.7,920.3,386.3,922.4,384.9z"/>
					<path fill="#363636" d="M912.8,389.5l2.8-1.1c-0.1-0.1-0.7,0,0-0.4L912.8,389.5z"/>
					<polygon fill="#363636" points="911.5,390.2 912.8,389.5 911.8,389.9 					"/>
					<path fill="#363636" d="M897.8,395c-1.1,0.6-2.5,1.2-4,1.8c1.6-0.5,3.3-1.1,4.9-1.8C898.9,394.9,899.6,394.4,897.8,395z"/>
					<path fill="#363636" d="M903.8,392.8c-0.1,0-0.2,0.1-0.3,0.1C903.8,392.9,903.9,392.8,903.8,392.8z"/>
					<path fill="#363636" d="M878.9,402.1c0.1,0,0.2,0,0.3,0c0,0,0-0.1,0-0.1L878.9,402.1z"/>
					<path fill="#363636" d="M899.1,395c1.2-0.4,1.9-0.8,2.6-1.2c-0.9,0.4-1.8,0.8-2.9,1.2C898.7,395.2,898.7,395.2,899.1,395z"/>
					<path fill="#363636" d="M888.8,398.3c0.7-0.2,1.4-0.4,2.2-0.6C890.3,397.8,889,398.1,888.8,398.3z"/>
					<path fill="#363636" d="M903.1,393c0.1,0,0.1-0.1,0.2-0.1C902.9,393,902.9,393,903.1,393z"/>
					<path fill="#363636" d="M903.1,393c-0.6,0.3-1,0.6-1.5,0.9c0.7-0.3,1.4-0.7,1.9-1C903.4,393,903.3,393,903.1,393z"/>
					<path fill="#363636" d="M875.2,406.3c0.1-0.4,3.2-1.9,6.2-2.4c2.7-1.2,0.4-1.8-2.2-1.7c0,0.2,0,0.3-2.7,1.5
						c1.1-0.1,6.5-1.7,4.2-0.5c-3.7,1.5-3.1,0.9-5,1.3c0.8,0-0.3,0.6-1.5,1.1c-1.2,0.6-2.6,1.2-2.1,1.4l3.3-1.2
						C875.4,405.9,874.2,406.5,875.2,406.3z"/>
					<path fill="#363636" d="M884.6,400.3l1.1-0.4c-1.4,0.4-2.4,0.6-4.2,0.9c-1.9,0.8-2.2,1.1-2.3,1.3l5.8-1.9L884.6,400.3z"/>
					<path fill="#363636" d="M890.9,398c-0.7,0.8-3.5,2-1.6,1.8c3.4-1.3,2.2-1.3,4.2-2.2C888.1,399.8,895,396.8,890.9,398
						c1.1-0.5,2.1-0.8,3-1.2c-1,0.3-2,0.6-2.9,0.9c0.1,0,0.1,0,0.1,0l0,0l0,0c0.3,0,0.3,0,0.1,0c0,0-0.1,0-0.1,0.1
						C891.1,397.9,891,397.9,890.9,398c-1.6,0.5-0.3,0,0.2-0.2c0,0,0-0.1,0-0.1l0,0c0,0-1.3,0.6-2.7,1.2c-1.4,0.5-2.7,1-2.7,1
						C886.9,399.6,888.4,399.1,890.9,398z"/>
					<path fill="#363636" d="M918.8,388.7c-0.2,0-0.2,0-0.2,0C918.3,388.9,918.2,389,918.8,388.7z"/>
					<path fill="#363636" d="M916.5,389.5c0.4-0.2,0.6-0.6,1.9-1.1c1.1-0.4,0.1,0.2,0.2,0.3c0.7-0.5,2.5-1.6,0.1-0.6l-0.3,0.2
						c-0.5,0.2-1.1,0.5-1.7,0.7c-0.6,0.2-1.2,0.3-1.7,0.5c-1,0.3-1.6,0.4-1.5,0.3C914.2,389.8,914.9,389.8,916.5,389.5z"/>
					<path fill="#363636" d="M903.7,394.2c0,0-0.3,0.1-0.7,0.3c-0.4,0.2-1,0.4-1.5,0.7c-1.1,0.5-2.2,1-2.2,1l2.5-0.5l-0.2-0.2
						C904.1,394.6,903.4,394.5,903.7,394.2z"/>
					<polygon fill="#363636" points="878.3,402.1 878.8,401.5 876.3,403 					"/>
					<polygon fill="#363636" points="872.3,404.1 872.4,403.7 870.9,404.4 					"/>
					<path fill="#363636" d="M518.1,399.2l-1.4-0.2C517.4,399.1,517.8,399.1,518.1,399.2z"/>
					<path fill="#363636" d="M528.3,401.2l0.3-0.1C528.1,401,527.9,401.1,528.3,401.2z"/>
					<path fill="#363636" d="M719,422.3c-2.1-0.4-4.4-1.1-4.1-0.6l0.6,0.5C716.9,422.1,718,422.2,719,422.3z"/>
					<path fill="#363636" d="M612.7,414c0.2,0.1,0.4,0.1,0.6,0.2c0.5-0.1,1-0.1,1.5-0.2C614.1,414,613.4,414,612.7,414z"/>
					<path fill="#363636" d="M610.9,415.5l-2.7-0.7C608.8,415,609.7,415.2,610.9,415.5z"/>
					<path fill="#363636" d="M462.3,388.9l-1.7,0.1C463.1,389.5,462,389,462.3,388.9z"/>
					<path fill="#363636" d="M809.3,418.2c-1.8,0.1-3.2,0.2-4.5,0.4C807,418.5,808.8,418.6,809.3,418.2z"/>
					<path fill="#363636" d="M523,395.4c-0.9-0.1-1.3-0.1-1.3,0C522.7,395.5,523.2,395.6,523,395.4z"/>
					<path fill="#363636" d="M799.7,419.2c0.3,0,0.6,0,1,0c1.3-0.2,2.6-0.5,4.2-0.7C803.2,418.6,801.4,418.7,799.7,419.2z"/>
					<path fill="#363636" d="M260.1,349.5c-0.1,0-0.3-0.1-0.4-0.1C259.6,349.4,259.8,349.5,260.1,349.5z"/>
					<path fill="#363636" d="M202,333.9c0.6,0.1,1.5,0.3,2.4,0.4C204,334.2,203.3,334,202,333.9z"/>
					<path fill="#363636" d="M847.8,410.6C849.1,410.2,848,410.5,847.8,410.6L847.8,410.6z"/>
					<path fill="#363636" d="M854.5,410.7c-0.3,0.1-0.5,0.2-0.5,0.3C854.1,410.9,854.3,410.8,854.5,410.7z"/>
					<path fill="#363636" d="M786.6,423.3c0,0-0.1,0-0.1,0C786.9,423.4,786.9,423.4,786.6,423.3z"/>
					<path fill="#363636" d="M849.8,410.3c-0.5,0.1-1.1,0.2-1.7,0.3C848.4,410.6,848.9,410.5,849.8,410.3z"/>
					<path fill="#363636" d="M849.5,410.2c0.5-0.1,0.8-0.2,1.1-0.2C850.8,409.8,850.6,409.8,849.5,410.2z"/>
					<path fill="#363636" d="M846,411.1c0.7-0.2,1.4-0.3,2.1-0.5c-0.3,0-0.4,0-0.3,0C847.4,410.7,846.9,410.8,846,411.1z"/>
					<path fill="#363636" d="M368.7,369.3c-0.1,0-0.2-0.1-0.3-0.1C367,369.1,367.6,369.2,368.7,369.3z"/>
					<path fill="#363636" d="M683.7,424.7c0.1,0,0.1,0,0.2,0C683.8,424.7,683.7,424.7,683.7,424.7L683.7,424.7z"/>
					<path fill="#363636" d="M678.9,424.6c2.1-0.3,3.3-0.1,4.8,0.1l-1.5-1.4L678.9,424.6z"/>
					<path fill="#363636" d="M493.7,394.6l3.3,1c-4.1-0.1-7-0.9-4,0.2c0.7-1.2,13,2.4,13.7,1.1l2.1,0.7c-0.6-0.1-0.7-0.1-1.4-0.2
						c4.2,1.5,3.4-0.4,8.8,0.9c1.9,0.5,3.2,0.9,1.9,0.8l4.3,0.5c1.2,0.3,0.9,0.4-0.3,0.2l6.5,1.2l-0.1,0c1,0,3.1,0.1,4.2,0.1
						c1.6,0.5-0.9,0-0.5,0.2l3.7,0.4c1.4,0.6-1.7,0.4-4.1-0.1c3.1,2,3.1,0.2,10.2,2.4l-3.4-0.5c2.1,1.2,4.8,1.4,8.6,2.6
						c-0.9-0.4-7.5-2.7-3.5-2.2c1.1,0.3,2.5,0.6,4.7,0.8c-0.1,0.5,2,0.8,4.6,1.2l-0.3,0.6c2.8,0.3,2.7,0,4.4,0
						c3.1,0.6,3.7,1.3,4.3,1.8c5,1-3.3-1.4,2.6-0.4c4.1,1,7.1,1.3,12.1,1.8c2.9,0.7-0.6,0.3,0.4,0.7l2.7,0c0.6,0.1,0.4,0.2,0.3,0.3
						c2.2,0.2,0.3-0.6,3.7-0.2c1-0.5,6.9,2.3,11.2,2.2c1,0.4-0.6,0.3-0.3,0.6c5.9,0.4,5.1,0.5,10,0.5l4,1.1c-2.9-1,1-0.9,4.4-0.8
						c-1-0.4-1.9-0.7-2.5-0.9l5.4,0.5c0.6,0.2,0.1,0.3-0.9,0.5c0.4,0,0.7,0,1,0c1.9,0.5,0.8,0.7-0.6,0.9c-0.6-0.2-1.3-0.5-1.9-0.7
						c-1.4,0.2-2.7,0.4-2.5,0.8c0.4,0,1,0,1.8,0.1c-0.4,0.1-0.6,0.1-0.4,0.2c0.2,0.1,0.8,0,1.7,0l1.1,0.9l0.3-0.2l6.9,1.5
						c5.1,0,9.6-0.4,17.7,0.4c-2,0.3-0.5,0.8-0.7,1.4c-2.1-0.9-6.2-0.6-10.3-1.3c2.1,0.4,1.6,0.6,1.1,0.6l7.5,0.5
						c-0.2,0.5,1.5,0.6,3.4,1c-1.3-1.2,5.6,0,8.6,0.1c0.1,0.4-0.6,0.6-4.3,0.1c4,1.3,5.4-0.5,9.3,0.6c-0.9-0.1-1.4-0.2-1.7-0.1
						c2.1-0.1,7.2,0.8,6,0.9l-0.9-0.1c3,0.4,7.5,0.9,11.4,1.2c3.9,0.3,7.2,0.3,7.7-0.1c0,0.1-0.9,0.9-1.3,1.1c0,0,2.7-0.5,5.5-0.9
						c1.4-0.2,2.7-0.5,3.7-0.7c1-0.2,1.7-0.3,1.7-0.3c-1,0.7,2.5,2.7-2.5,2.7c1.4,0.2,3.2,0.5,6.2,0.4c-1-0.2-2.3-1.2-1-1.2
						c3.6,1.1,2.5,0.6,6.9,1.7c-1.4-0.3,0.3-1.3,2.5-1.1c-0.4,0.2,0.1,1.1-0.7,1.2l5.8-0.8c-1.4,0.1-0.3,0.9,1,1.3
						c-0.6-0.3,5,0.3,6.5,0.3l-2.4-0.4c3.2,0.3,4.9-0.1,6.5-0.4c1.6-0.4,3.2-0.7,6.4-0.6c-0.8,0.2-2,1.4,1.3,1.6
						c0.8-0.3,2.4-0.9,4.6-1.5c2.2-0.7,4.9-1.3,7.7-1.5l1.1,0.3l4.3-0.3c-2.7,0.8-10.3,2.6-14.5,3.2c2.4,0.3,0.7,0.4,4.3,0.4
						c1.3,0.3-2,0.4-3.1,0.5l8.5,0.3c-0.4-0.7,6.5-0.6,6.2-1.2l-9.2,0.6c-0.4-0.7,5.3-1.8,11.3-1.7c1.5,0.2-1.1,1.2-1,1.4
						c0.8-0.2,5.7-0.5,6.2-0.4l-2.5,0.4c3.3,0.2,5.4-1,9.5-0.4c1.4,0,4.2,0.7,4.4,0.3c-2.3-0.7-2.8-3-1.3-3.7c0.5,0,7.3,0.4,8.9,0.7
						c2.3,0.5-3.3,1.6-1.4,2c0.1-0.2,1.3-0.5,1.8-0.6c1.5,0.1-0.6,0.6,2.6,0.4c0.5-0.7,6.4-0.4,1.5-0.7c3.1-0.4,3.3-0.1,6.9-0.4
						c-1.2-0.4,3.1-1.7,6.2-2.2c-0.2,0.2,0.5,0.4,0.9,0.4c6.3-0.6,9.7-0.7,15.6-1.3c0.6,0.1,3.4-0.1,2.2,0.3
						c0.8-0.2,1.6-0.6,3.4-0.8c3.6,0.1-4,0.7-1.3,1c0.2-0.4,4.6-1.2,7.1-1.8c-0.9-0.5-5.9,0.7-8.5,1.3c-0.1-0.8,4.2-2.3,10.2-3.6
						c4.8-1,2.2,0.2,3-0.1c4.5-0.7,6.4-1.4,8.1-2c0.8-0.3,1.6-0.6,2.7-0.8c1.1-0.2,2.4-0.5,4.3-0.7c3.1-0.1,0.3,1,1.1,1.3
						c-1.9,0.5-3.4,0.7-4.8,0.9c-1.4,0.1-2.6,0.2-3.9,0.5l3.3-0.3c-1.2,0.4-3.8,1-5.3,1.1c1.3,0,5.1-0.6,9.5-1.4
						c4.4-0.9,9.3-1.9,12.8-2.5c1.2-0.5,3.3-1.2,2.2-1.1l-2.2,0.6c-2.1,0.1,4-1.6,1.2-1.1c2.8-1,6-2.3,10.1-3.1l0.9,0.4
						c-0.1-0.2-2.8,0.3-3.9,0.8c1.6-0.7,6.5-0.7,8.1-2.1c0,0-0.7,0.1-1.5,0.2c-0.7,0.1-1.5,0.2-1.5,0.2c2.8-1.1,6.2-2.8,9.8-3.7
						c-1.8-0.1-0.8,0.3-3.6,0.4c2.5,0.2-9.2,2.6-5.4,2.5c-2.9-0.1-4.7,0.8-8.3,1c0.2,0.2,1.3,0.1-1.7,0.7c-0.1,0.1-0.4,0.2-0.6,0.3
						c-0.1,0-0.1,0-0.2,0c0.1,0,0.1,0,0.2,0c-0.1,0.1-0.1,0.1,0.1,0c0.7-0.1,1.4-0.1,1.6-0.1c-1.4,0.8-6.2,2.1-7.8,2.6
						c-1.8,0.3,0.7-0.4-0.3-0.4l-2.4,0.9c-0.3-0.4-5,0.3-0.8-0.9l-3.9,0.8c-2.3,0.2-5.5,0.8-7.4,1.3c-1.8,0.2-4.5,1.3-3,0.7l-6,1.3
						l-0.1-0.1c-3,0.5-6.1,1.1-9.3,1.7c-3.2,0.5-6.5,1-10.1,1.1c-2,0.3-4.1,0.7-7.6,0.9l-0.7-0.3c-1.3,0.2-3.3,0.3-5.1,0.5
						c-1.8,0.1-3.4,0.2-3.9,0.4c-2.9-0.8-12.8,0.8-17.4,0.7l-0.2,0.5c-3.2,0.1-6.2,0.4-10.2,0.7l0.3,0.4c-3.4,0.4-8.8-0.2-14.2-0.1
						c0.4-0.2,1.7-0.1,2.7-0.1c-3.2-0.4-6.6-0.4-10-0.1c-3.3,0.2-6.6,0.5-9.5,0c-1.5,0.1-2.5,0-3.5-0.1c0.1,0,0.3,0,0.4,0
						c-0.1,0-0.4,0-0.6,0c-0.6-0.1-1.3-0.2-2-0.3c0.6,0.1,1.2,0.2,1.7,0.3c-1.1,0-2.8,0-4.5,0l-0.7-0.5c-0.1,0-0.2,0-0.4,0
						c-1.6-0.2-1.3,0.2-0.5,0.6c-0.8,0-1.6,0.1-2.2,0.2c-1.3-0.9-4.4,0-6.2-0.9c-1.2,0.3-8.4-0.2-9.4,0.6c0-0.1-0.5-0.2,0.4-0.1
						c-1.9-0.2-3.7-0.5-5.4-0.4l-0.7-0.7l-4.1,0.5c-2.4-0.6-3.5-0.9-1-1.1c-6,0.3-4.8-0.2-9.9,0.1l0.3-0.4c-1.8-0.2-4.7,0.1-5.8-0.3
						c-4-1.1-19.9-2.3-30.1-4.4c0.9,0.7-0.3,0.4-1.7,0.1c-1.5-0.4-3.2-0.8-3.5-0.4c-0.6-0.4-2-0.7-0.3-0.7
						c-5.3-0.5-7.8-1.6-11.6-1.3c-0.6-0.4,1.2-0.2,0.7-0.5c-0.4,0-1.7,0-2.2-0.3c-0.5-0.2,0.8-0.1,1.7-0.1c-5.4-0.8-6,0-6.5,0.7
						c-2.7-0.8-4-1-6.1-0.7c-0.9-0.4-2.4-0.9,0.9-0.5c-1.9-0.3-11.4-2.3-11.7-1.6c-0.6-0.3-2.6-0.5-3.1-0.5
						c-4.2-0.7-4.5-0.9-8.7-1.5l1.1,0.3c-1.8,0.5-3.5-0.4-6.8-0.9l0.1-0.1c-7.5-1.9-3.3-0.3-10.7-2.3l0.3,0.5
						c-0.9,0.9-6.5-1.8-11-2.2l1.5,0.6c-2.4-0.1-6.4-2.6-8.7-3.2c-0.5-0.2,0.8,0,1.6,0.1c-6.1-1.8-0.9,0.5-5.6-0.3
						c-0.8-0.5,1.3-0.6-1.9-1.3c-1.5-0.6-9.3-0.6-13.4-2.1c0.9,0.4,1.8,0.9-0.4,0.7c-3.3-0.5-8.8-2.7-11.9-2.5
						c-0.4-0.2-0.6-0.2-0.6-0.3c-2.6-0.3-8.3-1.2-9.9-1.1c-2-2.1-15.9-2.2-15.5-3.7l-7.8-1.4l0.2-0.1c-5-1.1-6.8-1-8.6-1
						c-1.1-0.3-0.3-0.3-0.2-0.4c-7.2-1.7-8-1.8-14.2-2.2l-0.5-0.6c-1.7,0-10.4-2.8-17.6-3.6c0.1,0,0.2-0.1,0.8-0.1
						c-8.1-1-19-5.1-22.2-3.8l-5.4-0.6c6.8,1.5-1.2,0.6,1.6,1.4c-2.7-0.4-6.9-1.9-3.5-1.3l0.5,0.2c1.4-0.7-8.5-2-8.1-2.6
						c-13.5-2.6-26.5-5.6-39.2-8.1l1.3,1l-4.4-0.9c-1.1-0.4-1.4-0.9,1.7-0.2c-1.6-0.7-5.3-0.7-5.5-0.5c-6.1-1.5,2.6-0.4,0.7-0.8
						l-2.6-0.4l0.6,0.2c-2.1-0.1-2.4,0.2-6.1-0.6c-2.4-0.6-1.1-0.7-2.1-0.9c0,0-0.3-0.1-1.4-0.3l-5.5-1.1l2.1,1
						c-2.5-0.2-5.2-1-2.8,0.1c-3.6-1.7-20.6-4.3-22.9-5.1c-3.5-0.3-6.9-0.9-11.1-1.8c1,0.3,1.5,1.1-2.1,0.3c1.6-1.1-6.5-1.9-9.3-3.4
						c2.5,1.1-10.4-1.8-6.4-0.2c-3-0.7-0.1-0.5-2.3-1.3c-7.3-0.9-15.8-3.4-24.8-4.9c-0.2,0.1,1.3,0.7-0.7,0.6l-4.5-1.8
						c-1.8-0.3-1.8,0.7-4.9-0.5c0.4,0.2,1.1,0.6-0.1,0.4c-17.3-4.2-35.8-6.2-53.3-11.2c2.3,0.8,0.7,0.5-1.1,0.2
						c1.2,0.3-0.1,0.4,0.1,0.7l-7.3-2.1c-1.5,0.4-8-1.5-8.9-1l2.4,0.3c-3.3,0.1,4.1,2.5,3.4,3.3c3.7-0.2,9,3,15,2.9
						c1.2,0.4-1.1,0.1-0.5,0.4c1.5-0.1,3.3,0.1,6.5,0.9l-0.4,0c9.2,1.7,13,2.8,23.3,5.1l-0.7-0.6c2.2,0.5,2.6,0.7,3.7,1
						c2.7-0.2-6.2-1.2-3.7-1.6c2.8,1.5,15.6,3,17.4,4.5c3.4,0.7-0.9-0.7,2.5-0.1l0.8,0.5l0.9-0.2c2.2,0.5,3.3,1.1,3.3,1.3
						c-0.5-0.1-1.6-0.2-2.1-0.3c2.8,0.9,8.2,1.5,9.2,1.8l-3.2-0.8c9.3,1.5,20.6,4.1,29.7,5.2l-0.6-0.4c6.9,0.9,5.4,1.3,13,2.6
						l-0.3,0c1.5,0.1,3.6,0.3,5.6,0.8c-1.9-0.1,3.5,1.2,0.9,1c7.5,1,3.7,0.4,8.8,0.5l1.1,0.6c1.7,0,1.9-0.2,5.7,0.5
						c-3.1-0.3,2.3,1-1.2,0.8c7.7,2.3,11.9,1.5,15.3,3.3c3.8-0.3-6.7-1.9-4.6-1.7c-1.6-0.7,3.1-0.2,5.6,0.4c2.5,0.5,4,2.1,10.4,3.3
						c-0.6-0.1-0.7-0.1-1.3-0.2c2.3,0.7,4.7,0.5,7.5,1.5c1.7-0.3,3.8,0.8,4.4,0.1l-5.8-0.9c3.3,0.4,6.6,0.1,11.9,1.6
						c-0.5,0.1-2.1,0-3.2-0.1c1.5,0.5,3.1,0.4,4.7,1c-0.6,0.7-7.1-1.2-10.7-1.3c1.6,0.7,6.8,0.7,4.8,1.2c2.8-0.6,6.2,1.3,10.7,1.3
						l-0.4,0.4c0.7,0.1,2.1,0.1,3.4,0.4l-2.4,0.2c3.6,0.2,6.6,1.7,10,2.1c-7-1.3-1.5-0.9-4.3-1.8c8.7,1,4.7,2.2,14.4,3.8
						c-1.3-0.2-4.8-1.2-2.8-1c1.8,0.4,4.2,1.1,5.3,1.6c6.4,1.1-0.9-0.7,1.9-0.4c2.1,1,3.2,0.4,6,0.7l-0.1,0.5c7.2,1.7,2.1-0.6,8.6,1
						l-2.9,0.1l3.4,0.5l-0.8,0.4c3.8,0.3,4.9,0.6,8.5,1.5c-0.8-0.5,0.6-0.8,3.9-0.2c2.1,0.7-1.3,0.2,3.3,1c-1.1,0.1-2.3,0.3-4.2-0.6
						c-0.2,0.1-1.1,0.1-1.3,0.2c2.3,0.8,5.9,1.2,7.6,1.5c-0.6-0.1-1.4-0.3-1.8-0.5l6.7,0.6c1,0.4,0.2,0.4-0.7,0.3
						c1.4,0.2,2.3,0.2,4.3,0.5c-0.6,0.3-0.5,0.7-3.4,0.4l6.4,0.8c0.4,0.2,3.1,1.1,2.3,1.1c3.5,0.9,8.7,0.9,13.3,2.1
						c0.3,0,0.8,0,1.7,0.1c4.3,0.9,8.1,2.1,13.4,2.6l2.8,1.3c4.1,0.6-3.8-1.6,3-0.6c4.8,0.7,1.7,0.9,3.3,1.4c2.4,0.1,6.7,0.2,11,1.6
						C496.1,395.1,495,394.8,493.7,394.6z M543.6,403.9c-1-0.1-3-0.1-3.6-0.6C541.2,403,542,403.4,543.6,403.9z M619.9,416
						c-0.7,0-1.9-0.2-3.1-0.6C617.7,415.5,618.8,415.7,619.9,416z M833.5,414.1C833.5,414.1,833.5,414.1,833.5,414.1
						C831.3,414.4,832,414.3,833.5,414.1z M838,413.4c0.4-0.2,0.4-0.2,0.2-0.2c-0.3,0.2-1.3,0.4-2.4,0.6
						C836.1,413.8,836.7,413.8,838,413.4z M355.2,363.4l0.8,0.3C354,363.4,354.6,363.4,355.2,363.4z"/>
					<path fill="#363636" d="M611.1,415.3c-0.3-0.1-0.3-0.2-0.4-0.3C610.4,415,610.3,415.1,611.1,415.3z"/>
					<path fill="#363636" d="M462.6,388.8l-0.2,0c-0.1,0-0.1,0-0.2,0.1L462.6,388.8z"/>
					<path fill="#363636" d="M768.6,426.5c-0.9,0-1.5-0.1-1.8-0.2C766.7,426.4,767.2,426.5,768.6,426.5z"/>
					<path fill="#363636" d="M861.1,407c0,0-0.7,0.2-1.4,0.5c-0.7,0.2-1.4,0.4-1.4,0.4c1.4-0.4,1.9-0.4,2.6-0.5
						C860.8,407.2,860.3,407.2,861.1,407z"/>
					<path fill="#363636" d="M886.1,402.3c0.4-0.2,0.9-0.3,1.2-0.5l-0.2-0.2C885.4,402.2,884.3,402.8,886.1,402.3z"/>
					<path fill="#363636" d="M864.2,407.7c0.3,0.3,2-0.3,4-1c-0.1,0-0.2,0.1-0.3,0.1C868.2,406.2,866.2,407,864.2,407.7z"/>
					<path fill="#363636" d="M868.6,406.6c0.6-0.2,1.2-0.4,1.8-0.5C870.6,405.8,869.6,406.3,868.6,406.6z"/>
					<path fill="#363636" d="M843.6,411.9c1-0.1,0.5-0.6,1-0.6C845.6,410.6,838.5,413.3,843.6,411.9z"/>
					<polygon fill="#363636" points="866.1,408.6 865.3,408.3 864.3,409 					"/>
					<path fill="#363636" d="M850.4,412.4l3.2-0.7c-0.1-0.1,0.3-0.2,0.8-0.4C852.5,411.8,850.3,412.2,850.4,412.4z"/>
					<path fill="#363636" d="M854.4,411.3c1-0.2,2-0.5,2.5-0.7C856.4,410.7,855.2,411.1,854.4,411.3z"/>
					<path fill="#363636" d="M861.9,410l-1,0.2l-2.2,0.5c0,0,0.8-0.2,1.6-0.3C861.1,410.2,861.9,410,861.9,410z"/>
					<path fill="#363636" d="M816,419.2l-3.5,0.6c-0.3,0.2,0.6,0.2,1.9-0.1C815.3,419.5,816.6,419.2,816,419.2z"/>
					<path fill="#363636" d="M826.9,418.7c-1,0.1-1.1,0-1.6-0.1l0,0.6L826.9,418.7z"/>
					<path fill="#363636" d="M816.6,420.6c-0.3,0.2-5.1,1.2-0.6,0.5C816.4,420.9,819.9,420.2,816.6,420.6z"/>
					<polygon fill="#363636" points="763,425 763.9,425 763.7,424 					"/>
					<path fill="#363636" d="M715.5,427.4c4.2,0.4,1-0.6,4.9-0.2c1-0.2-3.1-0.4-2.1-0.5C715.7,426.9,714.4,426.7,715.5,427.4z"/>
					<path fill="#363636" d="M718.3,426.7c0.4,0,0.8-0.1,1.3-0.1C718.9,426.7,718.5,426.7,718.3,426.7z"/>
					<polygon fill="#363636" points="192.3,331.4 189.7,330.7 191.4,331.4 					"/>
					<path fill="#363636" d="M187.1,331.2l-0.5-0.8l-1.7,0.3C185.5,330.8,186.6,331,187.1,331.2z"/>
					<path fill="#363636" d="M550.8,406.6l0.2-0.1c-0.4-0.2-1-0.4-2.3-0.6L550.8,406.6z"/>
					<polygon fill="#363636" points="514.7,399.1 515.3,399.3 514.2,398.5 					"/>
					<path fill="#363636" d="M484.1,394c1.2,0.3,2.7,0.4,4,0.7C485.4,394.3,483.9,393.2,484.1,394z"/>
				</g>
			</g>
		</g>
	</g>
</g>
<g>
	<g>
		<g>
			<g>
				<g>
					<polygon fill="#363636" points="372,900.4 372.1,900.9 372.3,896.5 					"/>
					<path fill="#363636" d="M376.3,873c-0.3,0.6-0.6,1.5-0.8,2.6c-0.2,1.1-0.4,2.4-0.6,3.8c-0.4,2.8-0.7,5.9-1.3,8.3l-0.3,0.8
						c0,0,0.1,0.6,0.1,1.1c0.1,0.6,0.1,1.1,0.1,1.1c0.4-3,0.9-6.4,1.3-9.6c0.2-1.6,0.5-3.1,0.7-4.5C375.8,875.3,376.1,874,376.3,873
						z"/>
					<path fill="#363636" d="M380.9,858.9c-0.5,0.8,0.5-3.2-0.9,3.3c0.1-0.3,0.1-0.4,0.2-0.6C380.4,861,380.6,860.2,380.9,858.9z"/>
					<path fill="#363636" d="M380.2,861.6C379.6,864.4,380.9,859.8,380.2,861.6L380.2,861.6z"/>
					<path fill="#363636" d="M383.2,848.5c0,0,0,0.2-0.1,0.6c-0.1,0.4-0.1,0.8-0.2,1.3c-0.2,0.9-0.3,1.9-0.3,1.9
						c0.3-0.7,1.2-4,1-2.8C384.4,845.7,384.1,846.4,383.2,848.5z"/>
					<path fill="#363636" d="M383.7,844.9l-0.4,1.9C383.4,846.5,383.6,846,383.7,844.9z"/>
					<path fill="#363636" d="M382.4,851c0,0,0.2-1,0.4-2.1c0.2-1,0.5-2.1,0.5-2.1c-0.3,0.5-0.5,0.5-0.4,1.9
						C382.7,848.3,382.7,849.2,382.4,851z"/>
					<path fill="#363636" d="M381.7,853.3c-0.7,2.1-1.4,4.7-0.7,0.9C379.4,861.4,380.1,860.4,381.7,853.3z"/>
					<path fill="#363636" d="M375.9,871.5l-0.8,2.8c0,0-0.1,0.6-0.1,1.2c0,0.6-0.1,1.3-0.1,1.3C374.9,875.5,376.1,871.3,375.9,871.5
						z"/>
					<path fill="#363636" d="M390.3,825.7c-0.1-0.3-0.8,1.1-1,1.3l-0.7,2.8C389.1,828.4,390.1,825.8,390.3,825.7z"/>
					<path fill="#363636" d="M389.3,827.1l1-4.1C389.1,826.5,389.1,827.2,389.3,827.1z"/>
					<path fill="#363636" d="M383.1,844c0,0-0.3,1.7-0.7,3.4c-0.2,0.9-0.3,1.7-0.4,2.4c-0.1,0.6-0.2,1.1-0.2,1.1s0.3-2.1,0.8-4.1
						c0.4-2,0.8-4.1,0.8-4.1L383.1,844z"/>
					<path fill="#363636" d="M395.7,810.5l-0.5,2.4c0,0,0.2-1.1,0.5-2.1c0.1-0.5,0.2-1.1,0.3-1.4c0.1-0.4,0.2-0.7,0.2-0.7
						s-0.1,0.4-0.3,0.9C395.8,810,395.7,810.5,395.7,810.5z"/>
					<path fill="#363636" d="M399.5,800.5c-0.4,1.8,1.4-2.1,0.8-0.3c0.5-1.4,0.9-2.6,1.3-3.9c0.4-1.2,0.8-2.3,1.1-3.4
						c-0.4,1.1-0.9,2.2-1.5,3.5C400.8,797.7,400.2,799,399.5,800.5z"/>
					<path fill="#363636" d="M404,789.4c-0.4,1.1-0.8,2.3-1.2,3.6C403.2,791.8,403.7,790.6,404,789.4z"/>
					<path fill="#363636" d="M392.8,816.1c0.2-0.3,0.6-0.8,1.5-3l-1,1.4C393.2,815,393,815.6,392.8,816.1z"/>
					<path fill="#363636" d="M393.3,814.6L393.3,814.6c0.7-1.8,1.1-2.9,1.3-3.4C394.4,811.6,394,812.7,393.3,814.6z"/>
					<path fill="#363636" d="M392.6,816.5c0.1-0.1,0.1-0.3,0.1-0.4C392.7,816.3,392.6,816.4,392.6,816.5z"/>
					<path fill="#363636" d="M386.5,833.4c0.5-2.4,1.9-7.5,0-2.8C386.3,832.4,387.3,829.7,386.5,833.4z"/>
					<path fill="#363636" d="M391.4,818.3c0,0-0.4,1.1-0.8,2.1c-0.2,0.5-0.4,1.1-0.6,1.4c-0.1,0.4-0.2,0.7-0.2,0.7
						c0.1,0,0.5-0.8,0.3,0.4c0,0,0.3-1.2,0.6-2.3C391.1,819.5,391.4,818.3,391.4,818.3z"/>
					<polygon fill="#363636" points="392.1,816.2 391.4,818.3 392,816.7 					"/>
					<path fill="#363636" d="M400.5,796.3c0.6-1.9,1.4-3.8,2.4-6c-1.1,2.3-2.3,4.7-3.2,7.1C399.7,797.7,399.5,798.9,400.5,796.3z"/>
					<path fill="#363636" d="M396.9,805.1c0-0.1,0.1-0.3,0.1-0.4C396.9,805,396.8,805.2,396.9,805.1z"/>
					<path fill="#363636" d="M413,768.9c-0.1,0.1-0.2,0.2-0.2,0.3c0,0,0,0.1,0,0.1L413,768.9z"/>
					<path fill="#363636" d="M399.5,797.7c-0.8,1.8-1.1,2.9-1.4,4c0.5-1.4,1-2.8,1.6-4.3C399.7,797.2,399.7,797.1,399.5,797.7z"/>
					<path fill="#363636" d="M406.5,783.3c-0.5,0.9-1,1.9-1.6,3C405.4,785.4,406.4,783.6,406.5,783.3z"/>
					<path fill="#363636" d="M397.4,804.2c0,0.1-0.1,0.2-0.1,0.3C397.6,803.9,397.6,804,397.4,804.2z"/>
					<path fill="#363636" d="M397.4,804.2c0.3-0.9,0.5-1.7,0.7-2.5c-0.4,1.1-0.8,2.1-1.1,3C397.2,804.5,397.3,804.3,397.4,804.2z"/>
					<path fill="#363636" d="M414,761.2c0.2,0.5-1.9,5.2-4.3,8.9c-0.8,2-0.6,2.5,0.1,2.2c0.7-0.4,1.8-1.7,3.1-3.1
						c-0.1-0.2-0.2-0.3,1.6-4.3c-0.5,0.6-1.7,2.8-2.7,4.3c-1,1.5-1.6,2.5-0.9,0.7c2.6-5.3,2.4-4.2,3.9-6.7c-1.6,1.9,2.9-7,1.6-6.2
						l-2.2,4.7C414,761.8,414.7,760,414,761.2z"/>
					<path fill="#363636" d="M409,776.8l-0.8,1.7c1-1.9,1.8-3.1,3.2-5.5c1.1-2.8,1.4-3.4,1.3-3.7c0,0-0.3,0.5-0.7,1.2
						c-0.4,0.8-0.9,1.8-1.4,2.8c-1,2-2,4.1-2,4.1L409,776.8z"/>
					<path fill="#363636" d="M404.8,785.9c0.1-0.7,0.5-2.1,0.8-3.1c0.3-0.9,0.3-1.4-0.5-0.3c-2.2,4.9-1.2,3.6-2.3,6.6
						C406.1,781.2,402,791.6,404.8,785.9c-0.7,1.6-1.3,3-1.9,4.4c0.7-1.4,1.3-2.8,2-4c0,0.1-0.1,0.1-0.1,0.2l0,0l0,0
						c-0.2,0.3-0.3,0.4-0.1,0c0,0,0-0.1,0.1-0.2C404.7,786.2,404.8,786.1,404.8,785.9c1.1-2.3,0.3-0.3,0,0.4c0,0,0,0.1,0,0.1
						c0,0,0,0,0,0c0,0,0.2-0.5,0.5-1.3c0.3-0.8,0.7-1.8,1.2-2.8c0.9-2,1.8-4,1.8-4c-0.4,0.8-0.9,1.7-1.5,2.9c-0.3,0.6-0.6,1.3-0.9,2
						C405.5,784.1,405.2,785,404.8,785.9z"/>
					<path fill="#363636" d="M387,825.9c0.1-0.2,0.1-0.2,0.2-0.2C387.3,825.1,387.4,824.9,387,825.9z"/>
					<path fill="#363636" d="M388.4,822.6c-0.1,0.6-0.1,1.2-0.8,3.1c-0.7,1.7-0.2-0.1-0.4,0c-0.3,1.2-1,4.2,0.4,0.6l0.1-0.6
						c0.6-1.6,1.3-3.5,2-4.9c0.7-1.4,1.1-2.2,1-1.9C390.1,819.7,389.4,820.4,388.4,822.6z"/>
					<path fill="#363636" d="M396.1,803.7l2.5-6.8l-1.7,3.3l0.3-0.1C395.6,803.9,396.2,803.2,396.1,803.7z"/>
					<polygon fill="#363636" points="413.6,768.2 413.6,769.3 414.9,765.3 					"/>
					<path fill="#363636" d="M417.9,759.9l0.2,0.5c0,0,0.2-0.6,0.5-1.2c0.2-0.6,0.5-1.1,0.5-1.1s-0.3,0.4-0.6,0.9
						C418.2,759.4,417.9,759.9,417.9,759.9z"/>
					<path fill="#363636" d="M866,496.9l1.9-0.9C867,496.4,866.4,496.7,866,496.9z"/>
					<path fill="#363636" d="M851.7,503l-0.3,0.3C852,503,852.2,502.8,851.7,503z"/>
					<path fill="#363636" d="M597.1,633c3.1-0.4,6.7-0.7,6.2-1l-1-0.2C600.1,632.4,598.5,632.7,597.1,633z"/>
					<path fill="#363636" d="M741.2,565.9c-0.3,0.1-0.6,0.2-0.9,0.3c-0.6,0.5-1.1,1-1.6,1.4C739.5,567.1,740.4,566.5,741.2,565.9z"
						/>
					<path fill="#363636" d="M742.2,563.2l3.7-1.8C745.1,561.8,743.9,562.4,742.2,563.2z"/>
					<path fill="#363636" d="M946.3,470l2.2-1.2C944.9,470,946.6,469.7,946.3,470z"/>
					<path fill="#363636" d="M474.8,682.8c2-1.7,3.7-3,5.1-4.2c-1.3,1-2.5,1.8-3.4,2.5C475.6,681.8,475,682.4,474.8,682.8z"/>
					<path fill="#363636" d="M862.1,503.5c1.2-0.6,1.6-0.9,1.6-1C862.5,503.1,861.8,503.5,862.1,503.5z"/>
					<path fill="#363636" d="M485.7,673.7c-0.4,0.3-0.8,0.5-1.1,0.8c-1.4,1.3-2.9,2.5-4.7,4.1C481.7,677.2,483.9,675.6,485.7,673.7z
						"/>
					<path fill="#363636" d="M1199.2,303.6c0.2-0.1,0.4-0.3,0.5-0.5C1199.7,303,1199.5,303.2,1199.2,303.6z"/>
					<path fill="#363636" d="M1259.7,237.9c-0.5,0.7-1.3,1.9-2,3.1C1258.1,240.4,1258.7,239.5,1259.7,237.9z"/>
					<path fill="#363636" d="M437.8,727.8C436.7,729.4,437.7,728,437.8,727.8L437.8,727.8z"/>
					<path fill="#363636" d="M431,734.9c0.2-0.4,0.3-0.7,0.2-0.8C431.2,734.3,431.2,734.6,431,734.9z"/>
					<path fill="#363636" d="M500.4,660.2c0.1,0,0.1-0.1,0.2-0.1C500,660.3,500.1,660.3,500.4,660.2z"/>
					<path fill="#363636" d="M436,730.1c0.5-0.6,1-1.3,1.5-2C437.3,728.4,436.8,729,436,730.1z"/>
					<path fill="#363636" d="M436.4,729.9c-0.4,0.6-0.7,1-1,1.4C435.3,731.6,435.5,731.4,436.4,729.9z"/>
					<path fill="#363636" d="M439.4,725.4c-0.6,0.9-1.2,1.8-1.8,2.6c0.2-0.3,0.4-0.4,0.3-0.3C438.1,727.3,438.6,726.6,439.4,725.4z"
						/>
					<path fill="#363636" d="M1073.2,408.3c0.1-0.1,0.2-0.1,0.4-0.2C1075.2,406.8,1074.5,407.3,1073.2,408.3z"/>
					<path fill="#363636" d="M645.4,612.7c-0.1,0-0.1,0.1-0.2,0.1C645.3,612.7,645.4,612.7,645.4,612.7L645.4,612.7z"/>
					<path fill="#363636" d="M651.9,609.6c-2.6,1.7-4.2,2.3-6.4,3l2.7,0.3L651.9,609.6z"/>
					<path fill="#363636" d="M901,484.1l-5,1.2c5.6-2.5,9.9-3.6,5.2-2.7c-0.1,0.7-4.8,2.3-9.5,3.9c-4.7,1.6-9.3,3.3-9.4,4.1
						c0,0-0.8,0.2-1.6,0.4c-0.8,0.2-1.6,0.5-1.6,0.5c0.9-0.3,1-0.5,1.9-0.8c-3.2,0.8-4.2,1.5-5.5,2.3c-1.2,0.8-2.7,1.7-6.6,3.2
						c-2.7,1-4.7,1.6-2.9,0.7c0,0-1.5,0.7-3,1.4c-1.5,0.7-2.9,1.4-2.9,1.4c-1.8,0.7-1.4,0.3,0.3-0.4c0,0-2.3,1-4.5,2
						c-2.3,1-4.5,2.1-4.5,2.1l0.1-0.1c-1.2,0.8-4,2.4-5.4,3.2c-2.4,0.9,1.1-0.7,0.4-0.5c0,0-1.2,0.6-2.4,1.3
						c-1.2,0.7-2.4,1.3-2.4,1.3c-2.2,0.7,1.8-1.7,5.3-3.2c-2.6,0.4-3.6,1-5.3,2c-1.6,1-3.9,2.2-9.1,4.4c0,0,1.1-0.6,2.3-1.2
						c1.1-0.6,2.3-1.2,2.3-1.2c-3.4,0.8-6.9,2.8-12.3,5.1c1.3-0.4,11.1-4.2,5.9-1.2c-1.5,0.7-3.6,1.6-6.3,3.3c-0.2-0.4-3,1.1-6.5,3
						l-0.1-0.7c-3.7,2.2-3.2,2.3-5.3,3.7c-4.2,2.2-5.3,2.2-6.5,2.4c-6.7,3.6,5-1.8-2.8,2.6c-5.6,2.8-9.4,5.2-15.7,9.3
						c-3.9,2,0.5-0.7-1-0.1l-3.1,2.4c-0.8,0.5-0.6,0.2-0.5,0c-2.8,1.8,0.1,0.7-4.3,3.4c-0.9,1.3-9.7,4.4-14.8,8.4
						c-1.5,0.6,0.5-0.7-0.1-0.7c-7.3,4.9-6.3,4.1-12.2,8.4l-5.5,2.7c4.1-1.9-0.6,1.5-4.7,4.5c1.5-0.6,2.8-1.1,3.6-1.5l-6.8,4.3
						c-0.9,0.4-0.3-0.2,0.7-1.1c-0.4,0.3-0.9,0.6-1.2,0.9c-2.6,1.2-1.5,0.2,0.1-1.2c0.9-0.4,1.8-0.8,2.7-1.1
						c1.5-1.3,2.9-2.6,2.4-2.8c-0.4,0.3-1.3,0.9-2.2,1.5c0.4-0.4,0.6-0.6,0.4-0.5c-0.3,0.1-0.9,0.6-2,1.4l-1.9,0.3l-0.2,0.5
						l-9.4,4.9c-6.2,4.4-11.4,8.5-21.8,14.5c2.4-1.9,0.2-1.1,0-1.7c3.2-1,8-4.7,13.5-7.6c-2.9,1.5-2.4,0.9-1.7,0.4L708,583
						c0-0.6-2.2,0.8-4.9,2c1.2-0.1-0.5,1-3,2.5c-2.5,1.4-5.8,3.1-7.7,4.3c-0.4-0.2,0.4-1,5.3-3.5c-2.9,1.1-4.4,2.2-6,3.4
						c-1.6,1.2-3.2,2.3-6,3.4c1.2-0.6,1.9-0.9,2.3-1.3c-1.3,0.8-3.7,2.1-5.6,3c-1.9,0.9-3.3,1.4-2.5,0.9l1.2-0.6
						c-2,1-4.5,2.2-7.2,3.5c-2.7,1.3-5.5,2.6-8.1,3.9c-5.3,2.5-9.6,4.7-10.1,5.3c-0.1-0.1,0.7-1.4,1.1-1.8c0,0-3.4,2.2-6.7,4.4
						c-1.7,1.1-3.4,2.1-4.7,3c-1.3,0.8-2.1,1.3-2.1,1.3c1-1.2-4.6-0.8,2.1-3.9c-2,0.7-4.5,1.6-8.5,3.3c1.4-0.4,3.7-0.3,1.9,0.5
						c-5.4,1.1-3.7,0.9-10.2,2.5c2.1-0.5,0.2,1.3-3.1,2.4c0.5-0.3-0.6-1,0.5-1.5c0,0-1.9,0.9-3.8,1.9c-1,0.5-1.9,0.9-2.7,1.3
						c-0.7,0.3-1.2,0.6-1.2,0.6c2-0.8,0.1-1-1.8-0.8c0.5,0-1.3,0.5-3.4,1.1c-2.1,0.6-4.7,1.3-5.7,1.6l3.5-0.7
						c-9.3,2.4-8.7,4.1-18,6.2c1.1-0.5,2.4-2-2.3-1.1c-2,1.1-9,4.9-17.2,7l-1.7,0l-6.3,1.7c3.7-1.7,14.5-5.8,20.4-7.9
						c-3.6,0.5-1.1-0.2-6.3,1c-1.9,0.1,2.8-1.1,4.3-1.4l-12.3,2.4c0.7,0.5-9.3,2.7-8.7,3.1l13.2-3.6c0.7,0.6-7.3,3.5-16.1,5.3
						c-2.3,0.2,1.4-1.5,1.2-1.7c-1.1,0.5-8.2,2.3-9,2.4l3.6-1.2c-4.9,0.9-7.7,2.7-13.6,3.7c-1,0.3-2.5,0.5-3.9,0.7
						c-1.3,0.2-2.4,0.5-2.5,0.7c3.5-0.3,4.7,1.9,2.8,3c-0.4,0.1-3,0.7-5.8,1.3c-2.8,0.7-5.8,1.4-7,1.7c-1.7,0.3-0.6-0.5,0.5-1.3
						c1.1-0.8,2.4-1.5,0.9-1.3c-0.1,0.2-1.8,1.1-2.5,1.4c-2.1,0.6,0.6-0.9-3.8,0.9c-0.5,0.9-8.9,3.7-1.8,1.4c-4.2,2-4.6,1.8-9.5,4.2
						c0.9-0.2-0.1,0.7-1.7,1.9c-0.8,0.6-1.8,1.3-2.8,2c-1,0.7-2,1.5-3,2.1c0.1-0.3-0.9,0-1.3,0.2c-4,2.4-7.1,4.4-10,6.4
						c-1.5,1-2.9,2-4.4,3.1c-0.7,0.6-1.5,1.1-2.3,1.7c-0.8,0.6-1.6,1.3-2.4,2c-0.4,0.2-1.4,0.9-2.2,1.4c-0.8,0.5-1.3,0.8-0.7,0.1
						c-0.9,0.9-1.6,1.9-3.6,3.7c-2.1,1.6-1.1,0.5,0.2-0.6c1.2-1.1,2.6-2.4,0.8-1.3c0,0.5-4.9,5.1-7.4,8.1c1.2-0.4,6.5-6.1,9.3-8.8
						c0.3,0.3-0.7,1.7-2.6,3.9c-0.9,1.1-2,2.4-3.3,3.8c-1.3,1.4-2.7,3-4.2,4.7c-4.9,5.4-2.6,1.9-3.3,2.9c-4.7,4.9-6.3,7.4-7.7,9.6
						c-1.5,2.2-2.7,4.1-6.5,8.4c-3.2,3.2-1-0.5-1.9,0.1c1.7-2.4,3.2-4.1,4.6-5.6c1.4-1.5,2.6-2.8,3.9-4.3c0,0-0.8,0.9-1.7,1.8
						c-0.9,0.9-1.7,1.8-1.7,1.8c1.1-1.6,3.5-4.7,5.1-6.2c-1.4,1.3-5.2,5.6-9.3,10.8c-4.1,5.2-8.5,11.2-11.7,15.5
						c-0.9,1.7-2.6,4.5-1.5,3.3l1.8-2.8c2.1-2.3-3,5.5-0.5,2.2c-2.2,3.9-4.7,8.2-8.2,13.5l-1.1,0.7c0.2,0,2.5-3.3,3.3-4.9
						c-1.2,2.4-5.8,7.8-6.6,10.6l2.7-3.5c-2.2,3.9-4.3,9.1-7.2,13.8c1.8-1.9,0.6-1.1,3.2-4.2c-1.2,1.3,0.5-1.8,2.2-4.7
						c1.7-2.8,3.3-5.4,1.5-3.3c2.9-3,4-5.8,7.4-9.9c-0.3,0-1.4,1.3,1.3-2.5c0.1-0.2,0.3-0.7,0.4-0.9c0.1-0.1,0.1-0.2,0.2-0.3
						c-0.1,0.1-0.1,0.1-0.2,0.2c0.1-0.2,0.1-0.2-0.1,0.1c-0.7,0.9-1.3,1.6-1.6,1.8c0.9-2.2,5.1-8.3,6.3-10.5c1.7-2.2-0.5,1.1,0.6,0
						l1.9-3.3c0.6-0.1,5-5.5,1.3-0.1l3.5-4.7c1.1-1.3,2.5-2.9,3.7-4.4c1.2-1.5,2.5-3,3.3-4.2c1.8-2.1,4.1-5.6,2.8-3.6
						c0,0,0.4-0.4,0.9-1.1c0.5-0.7,1.2-1.6,2-2.4c1.5-1.8,3-3.5,3-3.5l0.1,0c6.1-6.6,12.5-13.9,21-19.8c1.1-1,2.3-2,3.7-3.1
						c0.7-0.6,1.5-1.1,2.3-1.8c0.9-0.6,1.8-1.3,2.9-2l1-0.2c0.4-0.3,0.8-0.6,1.3-0.9c0.5-0.3,1-0.6,1.6-1c1.1-0.7,2.3-1.4,3.4-2.1
						c2.3-1.3,4.3-2.4,5-3c1-0.3,2.6-0.9,4.5-1.8c0.5-0.2,0.9-0.5,1.4-0.7c0.5-0.2,1-0.5,1.6-0.7c1.1-0.5,2.2-1,3.3-1.6
						c1.1-0.5,2.3-1,3.5-1.5c1.2-0.5,2.3-1,3.4-1.5c2.2-0.9,4.3-1.7,5.9-2.2l0.1-0.6c2.2-0.8,4.4-1.5,6.8-2.3
						c2.3-0.8,4.8-1.6,7.6-2.5l-0.5-0.3c4.8-1.7,12.7-3,20.6-4.7c-0.5,0.3-2.5,0.7-3.9,0.9c9.6-1.1,19.8-5,28.5-6.2
						c2.1-0.6,3.7-0.9,5.2-1.2c-0.2,0-0.4,0.1-0.5,0.1c0.2-0.1,0.5-0.1,0.9-0.2c1-0.1,2-0.3,3-0.5c-0.9,0.1-1.8,0.2-2.6,0.4
						c1.6-0.4,4.1-1,6.6-1.8l1.2,0.2c0.2-0.1,0.4-0.1,0.6-0.2c2.4-0.5,1.9-0.7,0.5-0.7c1.2-0.4,2.3-0.8,3.1-1.2c2.1,0.2,6.3-2,9.2-2
						c0.8-0.4,3.8-1.4,6.7-2.5c2.9-1.1,5.8-2.3,6.3-2.9c0.1,0.1,0.8-0.1-0.4,0.3c2.7-0.8,5.4-1.7,7.6-2.8l1.3,0.2
						c0,0,1.4-0.7,2.7-1.4c1.4-0.8,2.7-1.5,2.7-1.5c3.6-1,5.1-1.4,1.8,0.4c4-2,5.7-2.7,7.2-3.4c1.5-0.7,2.8-1.3,6.2-3.1l-0.2,0.5
						c2.5-1.1,6.2-3.4,7.8-3.7c2.9-0.9,9.7-4,17.5-7.9c7.8-3.9,16.5-8.4,23.5-11.8c-3.2,0.4,6.6-3,6.7-4.1c0.9-0.2,2.9-1.1,0.8,0.3
						c6.8-4.1,10.6-5.4,15-8.8c0.9-0.2-1.3,1.2-0.5,0.9c0.5-0.4,2.1-1.5,2.9-1.7c0.8-0.3-0.9,0.8-1.9,1.5c7-4.1,7.3-5.2,7.4-6.2
						c3.7-1.7,5.5-2.8,7.8-4.7c1.4-0.5,3.6-1.5-0.7,1.2c2.5-1.4,15.1-8.4,15-9.1c0.8-0.3,3.4-2,4-2.4c5.5-3.2,6-3.4,11.4-6.6
						l-1.5,0.8c1.7-1.9,4.4-2.8,8.7-5.3l-0.1,0.1c10.3-5.3,4.2-2.7,14.4-7.8l-0.8-0.1c0.4-1.4,9.1-4.4,14.7-7.9l-2.2,0.9
						c3-2.1,9.5-3.5,12.8-5.1c0.7-0.3-1,0.7-2,1.3c8.6-3.9,0.8-1.1,7-4.5c1.3-0.3-1.1,1.5,3.1-0.6c1.1-0.4,4.1-2.2,7.5-4.2
						c3.4-2,7.4-4,10.4-5.1c-1.4,0.4-2.8,0.8,0.1-0.8c2.3-1.1,5.4-2.3,8.5-3.5c3.1-1.2,6.1-2.4,8-3.7c0.6-0.2,0.9-0.2,0.9-0.2
						c1.7-0.8,4.6-2.1,7.2-3.3c2.6-1.2,5.2-2.3,6.2-2.9c1,0.1,2.8-0.5,5.1-1.3c2.3-0.8,4.9-1.9,7.5-2.9c5.1-2,9.9-3.8,10.1-3
						c0,0,0.7-0.2,1.7-0.6c1.1-0.3,2.5-0.8,3.9-1.2c2.8-0.9,5.6-1.8,5.6-1.8l-0.2,0.2c7.2-2.1,9.7-3.2,12.1-4.3
						c1.7-0.4,0.5,0.1,0.4,0.2c10.7-2.9,11.7-3.2,20.3-6.6l1.1,0.2c2.3-1,15.5-3.9,25.6-8.1c-0.1,0.1-0.3,0.3-1.1,0.6
						c5.7-2.3,12.6-4.6,18.6-6.8c3-1.2,5.7-2.2,7.9-3.3c2.2-1.1,3.8-2.1,4.7-2.9c0,0,0.4-0.2,1.1-0.6c0.7-0.4,1.6-0.8,2.4-1.3
						c1.8-1,3.5-1.9,3.5-1.9c-9.5,4.4,1.1-1.4-2.9,0.2c0.9-0.5,2-1,3-1.4c1-0.5,2-0.9,2.7-1.1c1.4-0.5,1.8-0.5-0.4,0.6l-0.7,0.3
						c-0.6,0.8,2.3-0.5,5.4-2.1c3.1-1.5,6.3-3.3,6.3-2.9c18.1-9.8,35.2-20.1,51.1-30.9l-2.2,0.6l5.5-3.8c1.5-0.9,2.3-0.9-1.7,1.8
						c2.3-1.1,6.4-4.9,6.4-5.1c7.8-5.1-2.5,2.8-0.1,1.2l3.2-2.3l-0.8,0.4c2.4-2.1,2.4-2.5,7.1-5.8c3-2,1.8-0.7,2.9-1.5
						c0,0,0.4-0.2,1.8-1.3l6.8-4.9l-3.1,1.5c2.8-2.4,6.4-4.7,2.9-2.9c5.3-2.5,25.4-18.6,28.3-20.6c3.9-3.5,7.9-6.8,12.9-10.7
						c-1.3,0.9-2.5,1,1.9-2.4c-0.7,2.4,8.1-6,12.2-8.1c-1.8,1,1.3-1.5,4-3.9c2.7-2.4,5.2-4.7,2.5-3c3.6-2.9,0.5,0.2,3.4-1.9
						c8-7.6,18.3-15.9,27.9-25.4c0-0.3-1.8,1.1,0.1-1.1l5.7-4.4c1.8-2,1-2.5,4.9-5.5c-0.6,0.4-1.5,1-0.3-0.4
						c9.5-9.3,18.7-19.3,27.4-29.8c8.8-10.4,17.1-21.3,25.6-31.8c-2.4,2.8-1,0.8,0.6-1.5c-1.1,1.5-0.3-0.3-0.7-0.1l6.9-9
						c0.2-0.5,0.7-1.4,1.3-2.5c0.6-1.1,1.4-2.3,2.2-3.6c1.5-2.5,3-4.9,3.1-5.5l-1.8,3.1c1.9-4.4-4.9,4.7-5.4,3.6
						c-1.1,2.5-3.4,5.2-5.8,8.2c-1.2,1.5-2.5,3.2-3.7,4.9c-1.2,1.7-2.5,3.5-3.5,5.4c-1.3,1.4,0.7-1.5-0.1-0.8c-1,2-2.5,4.2-5.6,8.1
						l0.2-0.5c-4.2,5.5-7.4,9.3-10.6,13.3c-1.7,1.9-3.5,3.9-5.4,6.1c-1,1.1-2,2.3-3.1,3.5c-1.1,1.3-2.3,2.6-3.6,4l1.1-0.5
						c-2.3,2.4-2.9,2.9-4,4c-2,3.3,6.3-7,4.6-3.8c-1.8,1.3-5.8,5.7-9.6,10c-3.9,4.2-7.8,8.1-9.2,8.8c-3.5,3.7,1.4-0.7-2.1,3
						l-1.2,0.8l-0.6,1.2c-2.4,2.3-3.9,3.3-4.2,3.2c0.6-0.6,1.6-1.7,2.2-2.3c-3.4,2.8-8.6,8.8-9.8,9.7c0,0,0.2-0.2,0.6-0.5
						c0.4-0.3,0.8-0.7,1.3-1.1c0.9-0.8,1.8-1.7,1.8-1.7c-9.8,10-22.7,21.4-32.6,30.6l0.9-0.5c-7.6,7.1-6.5,5.2-15.1,12.7l0.3-0.3
						c-1.6,1.6-3.9,3.7-6.3,5.6c2.1-2-4.5,3-1.8,0.4c-8.5,7.4-4.1,3.8-9.4,9l-1.6,0.8c-1.8,1.8-1.9,2.1-6.3,5.7
						c3.5-3.1-3.2,1.8,0.7-1.8c-4.9,3.4-8.4,6.1-11.2,8.5c-2.8,2.3-5,4.1-7.5,5.2c-1.9,2,0.3,0.6,2.6-1.1c2.3-1.7,4.8-3.7,3.7-2.7
						c2.2-1.3-3.1,3.4-6.2,5.5c-3.1,2.2-6,2.8-13.7,8.5c0.8-0.6,0.8-0.7,1.6-1.2c-3.1,1.9-5.5,4.4-9.3,6.6c-1.6,1.9-4.7,3.3-4.8,4.3
						l7.1-5.2c-3.9,3.1-7.2,6.5-14.3,10.8c0.4-0.5,2.3-2.1,3.7-3.1c-2.1,1.2-3.7,2.7-5.9,4c0.1-1,8.7-6.2,12.7-9.8
						c-2.3,1.2-7.9,6.3-6.2,4c-2.5,3.1-7.8,5.3-12.8,9.6l0.1-0.6c-0.8,0.6-2.5,2-4,3l2.5-2.4c-2,1.7-4.2,3-6.4,4.2
						c-2.2,1.2-4.4,2.4-6.4,3.9c8.9-5.7,2.3-0.8,6.2-2.9c-5.3,3.8-7.1,4.5-9,5.3c-1.9,0.8-4.1,1.6-10.2,5.4c1.7-1.1,6.5-3.6,4-1.8
						c-1.2,0.7-2.6,1.4-3.9,2.1c-1.3,0.7-2.5,1.2-3.3,1.6c-8.3,4.9,1.5-0.3-1.9,2c-3.1,1.1-4,2.5-7.6,4.7l-0.3-0.4
						c-4.9,2.4-5.4,3-5.8,3.5c-0.4,0.5-0.7,0.9-5.2,3l3.4-2.5l-4.5,2.5l0.7-1c-2.4,1.5-4,2.3-5.7,3.1c-1.6,0.8-3.3,1.5-5.8,2.6
						c1.3-0.2-0.3,1.1-4.7,3.1c-3.2,1,1.5-1.1-4.8,1.6c1.3-0.9,2.7-1.9,5.6-2.7c0.2-0.3,1.3-0.9,1.5-1.2c-3.4,1.2-8.2,3.5-10.5,4.5
						c0.9-0.3,2-0.8,2.5-0.9c0,0-2.2,1.1-4.5,2.2c-1.1,0.5-2.3,1.1-3.1,1.5c-0.9,0.4-1.4,0.7-1.4,0.7c-1.5,0.4-0.4-0.2,0.7-0.8
						c-1.9,0.8-3.1,1.5-5.9,2.5c0.6-0.6,0.3-1,4.1-2.6c0,0-2.2,0.9-4.4,1.9c-2.2,0.9-4.4,1.8-4.4,1.8c-0.7,0.1-4.8,1.2-3.6,0.6
						c-5.1,1.5-12,4.8-18.8,6.6c-0.3,0.2-1,0.5-2.4,1c-6.3,1.9-12.1,3-19.4,5.8l-4.5,0.6c-5.8,1.9,6-0.9-3.7,2.3
						c-6.9,2.3-2.8,0.2-5.2,0.8c-3.3,1.4-9.1,3.9-15.6,5.5C897.4,485.2,899,484.8,901,484.1z M830.9,513.2c1.3-0.7,3.8-2.3,4.8-2.6
						C834.4,511.9,833.2,512.2,830.9,513.2z M731.1,570.6c0.9-0.7,2.4-1.4,4.1-2.2C734.1,569.1,732.7,569.9,731.1,570.6z
						 M450.3,709.8c0-0.1,0.1-0.1,0.1-0.1C452.5,707.3,451.7,708.1,450.3,709.8z M446,715.1c-0.4,0.6-0.3,0.6,0,0.4
						c0.2-0.4,1.1-1.7,2.1-3C447.7,712.7,447.2,713.4,446,715.1z M1092.6,398.5l-1.1,0.7C1093.8,397.4,1093.2,397.9,1092.6,398.5z"
						/>
					<path fill="#363636" d="M742.1,563.5c0.4-0.1,0.5-0.1,0.7-0.1C743.2,563.1,743.2,563,742.1,563.5z"/>
					<path fill="#363636" d="M945.9,470.2l0.2-0.1c0.1-0.1,0.2-0.1,0.2-0.2L945.9,470.2z"/>
					<path fill="#363636" d="M524.2,646.7c1.3-0.4,2.1-0.6,2.6-0.7C526.8,645.9,526.2,646,524.2,646.7z"/>
					<path fill="#363636" d="M426.8,745.2l2.2-3.7c-1.1,1.8-1.6,2.4-2.2,3.2C427,744.7,427.6,744.1,426.8,745.2z"/>
					<path fill="#363636" d="M406.4,776.9c-0.2,0.6-0.6,1.2-0.8,1.8l0.3-0.1C407,776.2,407.7,774.4,406.4,776.9z"/>
					<path fill="#363636" d="M423.4,747.8c-0.5,0.1-1.8,2.5-3.2,5.2c0.1-0.2,0.2-0.3,0.3-0.5C420.5,753.6,422,750.7,423.4,747.8z"/>
					<path fill="#363636" d="M419.9,753.6c-0.4,0.8-0.9,1.7-1.4,2.4C418.5,756.5,419.1,755.1,419.9,753.6z"/>
					<path fill="#363636" d="M441.2,722.2c-0.9,1.1-0.1,1-0.7,1.6C440,725.3,445.6,715.6,441.2,722.2z"/>
					<polygon fill="#363636" points="421,749.3 422,748.6 422.5,746.9 					"/>
					<path fill="#363636" d="M434.1,729.1l-2.8,4c0.1,0-0.2,0.5-0.6,1.2C432.3,731.7,434.3,729.1,434.1,729.1z"/>
					<path fill="#363636" d="M430.7,734.2c-0.8,1.3-1.6,2.6-2,3.4C429.1,736.9,430.1,735.3,430.7,734.2z"/>
					<polygon fill="#363636" points="424.3,743.5 425.1,742.3 427,739.4 					"/>
					<path fill="#363636" d="M466.5,688.2l3.6-3.9c0.3-0.5-0.8,0.4-2.2,1.9C467.2,687.3,465.8,688.7,466.5,688.2z"/>
					<path fill="#363636" d="M454.7,699.2c1-1,1.2-1,1.8-1.5l-0.4-0.5L454.7,699.2z"/>
					<path fill="#363636" d="M465,687.6c0.2-0.5,5.1-5.8,0.4-1C465.1,687.1,461.6,691.1,465,687.6z"/>
					<polygon fill="#363636" points="532.5,645.6 531.2,646 531.8,646.9 					"/>
					<path fill="#363636" d="M600.5,626.8c-6.1,1.3-1.3,1-6.9,2c-1.4,0.6,4.6-0.8,3.1-0.3C600.4,627.3,602.4,627,600.5,626.8z"/>
					<path fill="#363636" d="M596.8,628.5c-0.6,0.2-1.2,0.4-1.8,0.6C596,628.8,596.5,628.6,596.8,628.5z"/>
					<polygon fill="#363636" points="1268.4,225.8 1270.8,222.5 1269.1,224.5 					"/>
					<path fill="#363636" d="M1271.9,218.8l1.1-0.5l0.8-2.4C1273.3,216.7,1272.4,218.3,1271.9,218.8z"/>
					<path fill="#363636" d="M820.2,517.2l-0.2,0.3c0.6-0.1,1.5-0.6,3.2-1.4L820.2,517.2z"/>
					<polygon fill="#363636" points="870.5,494.4 869.6,494.7 871.5,494.6 					"/>
					<path fill="#363636" d="M914.1,478.7c-1.8,0.5-3.9,1.3-5.7,1.8C912.3,479.2,914.8,479.3,914.1,478.7z"/>
				</g>
			</g>
		</g>
	</g>
</g>
</svg>
