<?xml version="1.0" encoding="utf-8"?>
<!-- Generator: Adobe Illustrator 18.0.0, SVG Export Plug-In . SVG Version: 6.00 Build 0)  -->
<!DOCTYPE svg PUBLIC "-//W3C//DTD SVG 1.1//EN" "http://www.w3.org/Graphics/SVG/1.1/DTD/svg11.dtd">
<svg version="1.1" id="Layer_1" xmlns="http://www.w3.org/2000/svg" xmlns:xlink="http://www.w3.org/1999/xlink" x="0px" y="0px"
	 viewBox="-398 -149.5 1366 600" enable-background="new -398 -149.5 1366 600" xml:space="preserve">
<g>
	<path fill="#F2F9F9" d="M1000.1,470.9c-41.9-44.1-101.4-71.2-162.2-73.7c-21.4-0.9-42.9,1.2-64.3,3.3c-32.9,3.3-65.8,6.6-98.2,13.4
		c-31.9,6.8-64.8,17.1-96.5,9.1c-44.6-11.3-73.9-58.3-75.7-104.3c-1.8-46,18.9-90.3,45.7-127.8c26.8-37.5,60-69.9,88.3-106.3
		c40.1-51.6,70.3-111,115.6-158.1s112.6-81.4,175.4-63.3c17.3,4.9,33.2,13.6,48.2,23.5c56.1,37,99,91.5,130.9,150.6
		c31.9,59.2,53.5,123.2,74.1,187.1c6.5,20.1,12.9,40.5,14.4,61.7c1.5,20.9-1.9,42-6,62.5c-6.4,32.2-14.6,64.5-31,92.9
		s-42,52.8-73.6,61.5"/>
</g>
<g>
	<path fill="#E7F2F2" d="M855.2-193.5c32.1,51.7,84.9,90.2,144,104.9c20.8,5.2,42.3,7.5,63.6,9.8c32.9,3.5,65.8,6.9,98.9,6.6
		c32.6-0.2,67-3.6,96.3,10.6c41.5,20.1,60.6,72,53.1,117.4s-36.7,84.6-70.5,115.9c-33.8,31.3-72.9,56.3-107.9,86.2
		c-49.7,42.5-91.2,94.5-145.1,131.6s-126.7,57-184.5,26.6c-15.9-8.3-29.8-20-42.5-32.7c-47.5-47.5-78.5-109.6-97.7-173.9
		S635.2,78,628,11.2c-2.3-21-4.4-42.3-1.7-63.3c2.8-20.8,10.3-40.7,18.5-60c12.8-30.2,27.3-60.2,49.1-84.8
		c21.8-24.6,51.8-43.3,84.5-45.4"/>
</g>
<g>
	<g>
		<path fill="none" stroke="#3F3B3C" stroke-width="2.8474" stroke-miterlimit="10" d="M420,431.6"/>
	</g>
</g>
<g>
	<g>
		<path fill="none" stroke="#3F3B3C" stroke-width="0.2" stroke-miterlimit="10" d="M35.7,94"/>
	</g>
</g>
<g>
	<g>
		<g>
			<g>
				<g>
					<path fill="#3F3F3F" d="M-202.6,130.3c-0.7,1-0.4,0.7-0.4,0.8C-201.9,129.4-202.6,130.3-202.6,130.3z"/>
					<polygon fill="#3F3F3F" points="-190.8,114.7 -191.1,115 -189.1,112.8 					"/>
					<path fill="#3F3F3F" d="M-176.5,101.7c-1.6,1-5.6,4.5-8.2,6.9l-0.5,0.4l-1,1.1c0.8-0.7,1.5-1.5,2.4-2.3
						c0.9-0.8,1.8-1.5,2.7-2.3c0.9-0.7,1.7-1.5,2.5-2.1C-177.8,102.8-177.1,102.2-176.5,101.7z"/>
					<path fill="#3F3F3F" d="M-167.5,95.5c-0.3,0.2,0.2-0.1,0.3-0.2c0.1,0-0.4,0.2-2.4,1.6c0.2-0.1,0.3-0.2,0.4-0.3
						C-168.9,96.5-168.4,96.1-167.5,95.5z"/>
					<path fill="#3F3F3F" d="M-169.2,96.7C-171,97.9-168.1,95.9-169.2,96.7L-169.2,96.7z"/>
					<path fill="#3F3F3F" d="M-160.8,91.2c0,0-0.7,0.4-1.2,0.7c-0.3,0.2-0.6,0.4-0.9,0.5c-0.2,0.1-0.4,0.3-0.4,0.3
						c0.5-0.3,2.8-1.6,1.9-1.1C-158.8,90.1-159.4,90.4-160.8,91.2z"/>
					<path fill="#3F3F3F" d="M-158.5,89.8l-1.3,0.8C-159.6,90.4-159.2,90.2-158.5,89.8z"/>
					<path fill="#3F3F3F" d="M-162.5,92.2l2.8-1.6c-0.4,0.2-0.5,0.2-1.2,0.7C-160.9,91.2-161.4,91.5-162.5,92.2z"/>
					<path fill="#3F3F3F" d="M-164,93.2c-1.3,0.9-3.1,2-0.8,0.4C-169.3,96.5-168.7,96.1-164,93.2z"/>
					<path fill="#3F3F3F" d="M-175.8,101l-1.7,1.2l-1.4,1.1C-178.2,102.8-175.6,100.9-175.8,101z"/>
					<path fill="#3F3F3F" d="M-144.6,82.6c0.2-0.1-0.9,0.4-1.1,0.5l-2,1C-146.7,83.6-144.8,82.7-144.6,82.6z"/>
					<path fill="#3F3F3F" d="M-145.7,83.2c0,0,0.8-0.4,1.5-0.7c0.8-0.3,1.5-0.7,1.5-0.7c-1.4,0.6-2.2,1-2.6,1.2
						C-145.7,83.1-145.8,83.2-145.7,83.2z"/>
					<polygon fill="#3F3F3F" points="-158.1,89.4 -162.7,92.2 -157.3,88.9 					"/>
					<polygon fill="#3F3F3F" points="-132.7,77.6 -134.5,78.4 -131.4,77 					"/>
					<path fill="#3F3F3F" d="M-124.6,74.6c-1.3,0.5,1.9-0.6,0.5-0.1c2.3-0.8,4.2-1.4,5.9-2C-120.2,73.1-122.1,73.7-124.6,74.6z"/>
					<path fill="#3F3F3F" d="M-115.3,71.6c-0.5,0.1-0.9,0.3-1.4,0.5c-0.5,0.2-0.9,0.3-1.5,0.5c0.5-0.2,0.9-0.3,1.4-0.5
						C-116.4,71.8-115.8,71.7-115.3,71.6z"/>
					<path fill="#3F3F3F" d="M-137.5,79.4c0.3-0.1,0.8-0.3,2.6-0.9l-1.2,0.5C-136.7,79-137.1,79.2-137.5,79.4z"/>
					<path fill="#3F3F3F" d="M-136.3,78.9L-136.3,78.9c1.4-0.5,2.3-0.9,2.8-1.1C-133.9,78-134.8,78.3-136.3,78.9z"/>
					<path fill="#3F3F3F" d="M-137.8,79.5c0.1-0.1,0.2-0.1,0.3-0.1C-137.6,79.4-137.7,79.5-137.8,79.5z"/>
					<path fill="#3F3F3F" d="M-150.6,85.4c1.7-0.9,5.3-2.7,1.8-1C-150.1,85.1-148.1,84.1-150.6,85.4z"/>
					<path fill="#3F3F3F" d="M-139.3,80.1l-3.2,1.4c0.1,0,0.7-0.3-0.2,0.1L-139.3,80.1z"/>
					<polygon fill="#3F3F3F" points="-137.8,79.4 -139.3,80.1 -138.1,79.6 					"/>
					<path fill="#3F3F3F" d="M-121.4,73.4c1.5-0.5,3.1-1,5-1.6c-2,0.6-4.1,1.3-6.1,2C-122.7,73.8-123.6,74.1-121.4,73.4z"/>
					<path fill="#3F3F3F" d="M-128.7,75.9c0.1-0.1,0.2-0.1,0.3-0.1C-128.6,75.9-128.8,75.9-128.7,75.9z"/>
					<path fill="#3F3F3F" d="M-97.4,66.8c-0.1,0-0.2,0.1-0.3,0.1c0,0,0,0-0.1,0L-97.4,66.8z"/>
					<path fill="#3F3F3F" d="M-122.7,73.8c-1.5,0.5-2.4,0.9-3.2,1.1c1.1-0.4,2.3-0.9,3.5-1.2C-122.4,73.7-122.3,73.7-122.7,73.8z"/>
					<path fill="#3F3F3F" d="M-110.1,70c-0.8,0.2-1.7,0.5-2.7,0.7C-112,70.5-110.4,70.1-110.1,70z"/>
					<path fill="#3F3F3F" d="M-127.9,75.7c-0.1,0-0.1,0.1-0.2,0.1C-127.7,75.6-127.7,75.6-127.9,75.7z"/>
					<path fill="#3F3F3F" d="M-127.9,75.7c0.8-0.3,1.3-0.5,1.9-0.7c-0.9,0.3-1.7,0.7-2.5,0.9C-128.2,75.7-128,75.7-127.9,75.7z"/>
					<path fill="#3F3F3F" d="M-91.6,65.3c-0.1,0.1-1.2,0.3-2.8,0.6c-1.5,0.3-3.5,0.7-5.3,1.1c-3.5,0.9-1.1,0.5,2-0.1
						c0.1-0.1,0.1-0.1,3.7-0.9c-1.3,0.2-8.2,1.7-5,1c2.4-0.5,3.4-0.8,4.1-0.9c0.7-0.1,1-0.2,2.3-0.4c-2.1,0.3,6.2-1.2,5.1-1.2
						l-4.3,0.9C-92,65.4-90.4,65.1-91.6,65.3z"/>
					<path fill="#3F3F3F" d="M-104.6,68.5l-1.5,0.4c0.9-0.2,1.6-0.4,2.4-0.6c0.8-0.2,1.6-0.4,2.8-0.6c2.5-0.6,2.9-0.7,3.1-0.8
						c0,0-1.8,0.4-3.7,0.8c-0.9,0.2-1.8,0.5-2.5,0.6c-0.7,0.2-1.1,0.3-1.1,0.3L-104.6,68.5z"/>
					<path fill="#3F3F3F" d="M-112.6,70.6c1.1-0.4,4.6-1.4,2.4-0.9c-4.3,1.2-2.9,0.9-5.5,1.6C-108.9,69.5-117.7,72.1-112.6,70.6
						c-1.4,0.4-2.7,0.8-3.8,1.1c1.2-0.3,2.5-0.7,3.6-1c-0.1,0-0.1,0-0.2,0.1l0,0l0,0c-0.3,0.1-0.4,0.1-0.1,0c0,0,0.1,0,0.2-0.1
						C-112.9,70.8-112.8,70.7-112.6,70.6c2-0.6,0.3-0.1-0.3,0.1h-0.1l0,0c0,0,1.7-0.5,3.4-1c1.7-0.5,3.5-0.9,3.5-0.9
						C-107.5,69.3-109.4,69.7-112.6,70.6z"/>
					<path fill="#3F3F3F" d="M-145.7,82.7c0.2-0.1,0.2-0.1,0.2-0.1C-145.1,82.4-144.9,82.4-145.7,82.7z"/>
					<path fill="#3F3F3F" d="M-143.1,81.6c-0.5,0.2-0.9,0.4-2.3,1.1c-1.2,0.6,0,0-0.1,0c-0.9,0.5-3,1.5-0.3,0.2l0.4-0.2
						c2.5-1.2,5.8-2.5,5.4-2.3C-140.7,80.6-141.4,80.9-143.1,81.6z"/>
					<path fill="#3F3F3F" d="M-128,75.6c0,0,1.3-0.5,2.8-1c1.3-0.5,2.8-1,2.8-1s-0.8,0.2-1.4,0.5c-0.7,0.3-1.4,0.5-1.4,0.5h0.2
						C-128.4,75.6-127.7,75.4-128,75.6z"/>
					<path fill="#3F3F3F" d="M-96.6,66.7l-0.8,0.3c0,0,0.9-0.2,1.7-0.4c0.9-0.2,1.7-0.4,1.7-0.4s-0.2,0.1-0.4,0.1
						c-0.3,0.1-0.6,0.1-0.9,0.2C-96,66.6-96.6,66.7-96.6,66.7z"/>
					<path fill="#3F3F3F" d="M-88.9,65.2l-0.3,0.1c0,0,0.5-0.1,1-0.2c0.5-0.1,1-0.2,1-0.2s-0.5,0.1-0.9,0.1
						C-88.5,65.1-88.9,65.2-88.9,65.2z"/>
					<path fill="#3F3F3F" d="M351,118.9l1.8-0.2C352,118.8,351.4,118.9,351,118.9z"/>
					<path fill="#3F3F3F" d="M337.8,119.9l-0.3,0.1C338.1,119.9,338.4,119.9,337.8,119.9z"/>
					<path fill="#3F3F3F" d="M97.7,98.6c2.4,0.8,5.1,1.6,4.8,1.5l-0.8-0.3C100.1,99.3,98.7,98.9,97.7,98.6z"/>
					<path fill="#3F3F3F" d="M229.5,120.5c-0.3,0-0.5-0.1-0.8-0.1c-0.7,0-1.2-0.1-1.8-0.1C227.7,120.4,228.6,120.4,229.5,120.5z"/>
					<path fill="#3F3F3F" d="M231.4,120.4l3.5,0.3C234.2,120.6,233,120.5,231.4,120.4z"/>
					<path fill="#3F3F3F" d="M422.1,110l2.1-0.4C421,110.2,422.4,110,422.1,110z"/>
					<path fill="#3F3F3F" d="M-7.2,64.9c2.2,0.5,4,0.7,5.5,1.1c-1.3-0.3-2.5-0.5-3.4-0.7C-6.1,65.1-6.8,64.9-7.2,64.9z"/>
					<path fill="#3F3F3F" d="M345.9,119.9c1.1-0.1,1.6-0.1,1.5-0.1C346.4,119.9,345.7,119.9,345.9,119.9z"/>
					<path fill="#3F3F3F" d="M4.7,67.4c-0.4-0.1-0.8-0.2-1.1-0.3c-1.6-0.3-3.2-0.7-5.1-1.2C0.3,66.4,2.5,67,4.7,67.4z"/>
					<path fill="#3F3F3F" d="M666.1,44.7c0.2-0.1,0.4-0.1,0.6-0.2C666.6,44.5,666.4,44.6,666.1,44.7z"/>
					<path fill="#3F3F3F" d="M735.5,22.7c-0.7,0.2-1.8,0.5-2.8,0.9C733.2,23.4,734,23.1,735.5,22.7z"/>
					<path fill="#3F3F3F" d="M-56.9,61.7C-58.6,61.7-57.1,61.7-56.9,61.7L-56.9,61.7z"/>
					<path fill="#3F3F3F" d="M-65.2,61.9c0.4-0.1,0.7-0.1,0.7-0.1C-64.6,61.9-64.9,61.9-65.2,61.9z"/>
					<path fill="#3F3F3F" d="M20.6,71.6C20.6,71.6,20.7,71.6,20.6,71.6C20.2,71.4,20.3,71.5,20.6,71.6z"/>
					<path fill="#3F3F3F" d="M-59.4,61.8c0.7-0.1,1.4-0.1,2.2-0.1C-57.6,61.7-58.3,61.7-59.4,61.8z"/>
					<path fill="#3F3F3F" d="M-59.1,61.8c-0.6,0-1,0.1-1.5,0.1C-60.8,61.9-60.7,61.9-59.1,61.8z"/>
					<path fill="#3F3F3F" d="M-54.5,61.6c-0.9,0.1-1.9,0-2.8,0.1c0.4,0,0.5,0,0.4,0C-56.4,61.6-55.7,61.6-54.5,61.6z"/>
					<path fill="#3F3F3F" d="M538.3,85.1c0.1,0,0.2-0.1,0.4-0.1C540.2,84.5,539.5,84.7,538.3,85.1z"/>
					<path fill="#3F3F3F" d="M140,108.3c-0.1,0-0.1,0-0.2-0.1C139.9,108.3,140,108.3,140,108.3L140,108.3z"/>
					<path fill="#3F3F3F" d="M145.9,109.4c-2.6-0.5-4-0.7-5.9-1.1l1.9,0.5L145.9,109.4z"/>
					<path fill="#3F3F3F" d="M382.3,115.7l-4.3,0.4c5.1-0.6,8.8-1.1,4.8-0.7c-0.6,0.3-16.6,1.8-17.2,2.1c0,0-0.7,0.1-1.4,0.1
						c-0.7,0.1-1.4,0.1-1.4,0.1c0.9-0.1,0.9-0.1,1.7-0.2c-5.5,0.4-4.1,0.5-11.1,1.1c-2.5,0.2-4.2,0.3-2.6,0.2c0,0-1.3,0.1-2.8,0.3
						c-0.7,0.1-1.3,0.1-1.9,0.2c-0.5,0.1-0.9,0.1-0.9,0.1c-1.6,0.1-1.2,0.1,0.4-0.1l-8.4,0.6h0.1c-1.2,0.1-3.9,0.3-5.2,0.5
						c-2.2,0.1,1-0.1,0.5-0.1c0,0-1.1,0.1-2.4,0.2c-1.1,0.1-2.4,0.1-2.4,0.1c-1.9,0.1,2-0.2,5.2-0.4c-4.4,0.1-3.9,0.3-13.3,0.7
						l4.4-0.3c-2.8,0.1-6.3,0.3-11.3,0.4c1.1,0,10-0.3,4.9-0.1c-1.4,0.1-3.3,0.1-6.1,0.3c0,0-0.7,0-1.8,0c-1,0-2.6,0.1-4.3,0.1
						l0.2-0.1c-3.6,0.1-3.3,0.1-5.5,0.3c-4.1,0.1-4.8,0.1-5.8,0c-6.5,0.1,4.5,0.1-3.2,0.1c-5.4,0-9.1,0.1-15.6,0.1
						c-3.8-0.1,0.7-0.1-0.7-0.1h-3.3c-0.9,0-0.6,0-0.4-0.1c-2.8,0-0.2,0.1-4.7,0c-1.2,0.1-9.1-0.2-14.5-0.4c-1.3-0.1,0.7,0,0.3-0.1
						c-7.5-0.3-6.5-0.2-12.6-0.4l-5.2-0.4c3.8,0.3-1,0.1-5.4-0.1c1.3,0.1,2.6,0.2,3.3,0.3l-6.8-0.4c-0.9-0.1-0.1-0.1,1,0
						c-0.5,0-0.9-0.1-1.2-0.1c-2.5-0.2-1.1-0.1,0.6-0.1c0.9,0.1,1.7,0.1,2.5,0.2c1.7,0.1,3.3,0.1,2.9,0.1c-0.5,0-1.3-0.1-2.3-0.1
						c0.5,0,0.8,0,0.6,0c-0.2,0-0.9-0.1-2.1-0.1l-1.5-0.2h-0.4c0,0-0.6-0.1-1.4-0.1c-0.9-0.1-2-0.1-3-0.3c-2.3-0.2-4.5-0.5-4.5-0.5
						c-3.2-0.3-6.2-0.5-9.7-0.7c-0.9-0.1-1.8-0.1-2.7-0.2c-0.9-0.1-1.9-0.2-2.9-0.3c-2.1-0.2-4.3-0.5-6.8-0.7
						c2.6,0.2,0.6-0.1,0.8-0.1c1.3,0.2,3.3,0.4,5.6,0.7c1.1,0.1,2.4,0.3,3.6,0.4s2.6,0.2,3.9,0.3c-2.8-0.3-2.1-0.3-1.4-0.2
						c0,0-2.4-0.1-4.7-0.5c-2.4-0.3-4.7-0.5-4.7-0.5c0.2-0.1-2-0.3-4.4-0.6c1.8,0.3-7-0.7-10.7-1.2c-0.2-0.1,0.7,0,5.3,0.7
						c-5-0.8-6.6-0.8-11.6-1.6c1.1,0.1,1.7,0.3,2.2,0.3c-2.7-0.3-9-1.2-7.5-1.1l1.1,0.1c-1.9-0.3-4.2-0.7-6.6-1
						c-2.5-0.4-5.1-0.9-7.5-1.2c-2.4-0.4-4.7-0.7-6.4-1c-1.7-0.3-2.8-0.5-3.1-0.5c-0.1,0,1,0.1,1.4,0.1l-13.2-2.2
						c1.2,0.1-3.1-1,2.9,0.2c-1.7-0.4-3.9-0.8-7.5-1.6c1.1,0.3,2.8,0.8,1.2,0.5c-4.4-1.1-3-0.8-8.4-2.1c1.7,0.4-0.3,0.1-3-0.5
						c0.5,0.1-0.2-0.2,0.9,0c0,0-1.7-0.4-3.5-0.7c-0.9-0.2-1.7-0.4-2.4-0.5c-0.7-0.1-1-0.3-1-0.3c1.7,0.4,0.4-0.1-1.1-0.5
						c0.7,0.2-5.9-1.6-7.7-2l2.8,0.8c-3.8-1-5.8-1.4-7.7-1.9c-1.9-0.5-3.8-1-7.5-2.1c0.9,0.3,2.4,0.5-1.4-0.7
						c-0.9-0.2-2.9-0.7-5.5-1.4c-0.7-0.2-1.3-0.3-2.1-0.5c-0.7-0.2-1.4-0.5-2.2-0.7c-1.5-0.5-3.1-1-4.7-1.5l-1.2-0.5l-5.3-1.4
						c1.6,0.5,4.7,1.4,7.9,2.4c1.6,0.5,3.2,1,4.8,1.5c1.6,0.5,3,0.9,4.3,1.2c-2.8-0.9-0.8-0.3-4.9-1.6c-0.8-0.3-0.2-0.1,0.8,0.2
						c0.9,0.3,2.2,0.7,2.8,0.9c0,0-0.6-0.2-1.5-0.5c-0.9-0.3-2.1-0.7-3.3-1.1c-2.4-0.8-4.8-1.6-4.8-1.6c0.4,0.2-7.5-2.4-7.1-2.2
						l10.5,3.4c0.4,0.2-6.3-1.8-13.1-4.1c-1.7-0.7,1.4,0.3,1.2,0.3c-0.9-0.3-6.5-2.2-7-2.5l2.8,1c-3.7-1.4-6.2-2.2-10.6-3.9
						c-1.5-0.6-4.6-1.8-4.8-1.9c2.5,1,2.8,1.5,0.9,0.9c-0.6-0.2-8-3.1-9.8-3.8c-2.5-1,4,1.2,1.8,0.4c-0.1,0-1.5-0.5-2.1-0.7
						c-1.6-0.6,0.8,0.2-2.8-1.1c-0.7-0.1-7.2-2.6-1.7-0.5c-3.5-1.2-3.7-1.4-7.8-2.8c1.2,0.5-3.8-1.1-7.4-2.2
						c0.2,0.1-0.6-0.3-0.9-0.4c-3.7-1.2-6.5-2-9.3-2.8C9.9,68.3,8.5,68,7,67.6c-0.8-0.2-1.5-0.4-2.3-0.6c-0.9-0.2-1.6-0.4-2.6-0.6
						c-0.7-0.2-4.1-1-2.6-0.7c-1-0.2-2-0.5-4.3-0.9c-2.2-0.5-0.9-0.2,0.5,0.1c1.4,0.3,2.8,0.6,1.2,0.2c-0.2,0-1.6-0.3-3.4-0.6
						c-1.8-0.3-4-0.7-5.6-0.9c0.3,0.1,0.9,0.1,1.6,0.3c0.8,0.1,1.8,0.3,2.8,0.5s2.2,0.4,3.2,0.6c0.6,0.1,1,0.2,1.5,0.3
						c0.5,0.1,0.9,0.2,1.3,0.3c0,0.1-1.4-0.2-3.8-0.6c-1.1-0.2-2.6-0.5-4.2-0.7c-1.6-0.3-3.4-0.5-5.3-0.8c-1.5-0.2-2.5-0.3-3-0.5
						c-0.6-0.1-0.8-0.1-0.8-0.1s0.6,0,0,0c-2.8-0.3-4.9-0.5-6.5-0.7c-1.6-0.1-2.8-0.2-3.9-0.3c-2.3-0.1-4.2-0.3-9-0.5
						c-3.8-0.2-0.2-0.1-1-0.3c2.6,0.1,4.5,0.1,6.3,0.3c1.7,0.1,3.2,0.3,4.9,0.4l-4.1-0.2c1.6,0.1,5,0.3,6.8,0.5
						c-0.8-0.1-2.5-0.2-4.6-0.4c-1-0.1-2.3-0.2-3.5-0.3c-1.3-0.1-2.7-0.1-4.1-0.2c-1.4-0.1-2.8-0.1-4.4-0.1c-1.4,0-2.9,0-4.4,0
						c-2.8-0.1-5.6,0.1-7.9,0.1c-0.8,0-1.9,0.1-2.7,0.1c-0.8,0.1-1,0.1-0.5,0.1c0,0,0.2,0,0.5,0s0.7,0,0.9,0c0.8,0,1.4-0.1,1.4-0.1
						c2.7,0-5.4,0.2-1.7,0.1c-1.9,0.1-3.9,0.3-6.2,0.4c-2.2,0.1-4.7,0.4-7.3,0.6h-1c0.1,0,3.5-0.3,5-0.5c-1.1,0.1-3.1,0.3-5.2,0.5
						c-0.5,0.1-1,0.1-1.5,0.1c-0.5,0.1-1,0.1-1.4,0.2c-0.9,0.1-1.7,0.3-2.4,0.3l3.7-0.4c-1.9,0.3-4,0.5-6.3,0.9
						c-1.1,0.1-2.3,0.3-3.4,0.5c-1.1,0.2-2.3,0.3-3.5,0.5c2.2-0.3,1-0.2,4.4-0.6c-2.9,0.2,12-1.5,7.3-1c1.7-0.2,3.2-0.3,4.8-0.4
						c0.9-0.1,1.6-0.1,2.6-0.2s1.9-0.1,3-0.2c-0.2,0-1.6,0.1,2.4-0.2c0.2,0,0.6-0.1,0.9-0.1c0.1,0,0.2,0,0.3,0c-0.1,0-0.1,0-0.2,0
						c0.2,0,0.2,0-0.1,0c-0.9,0.1-1.7,0.1-2,0.1c0.9-0.1,3-0.2,5.1-0.4c2.1-0.1,4.3-0.1,5.3-0.2c2.4-0.1-0.9,0.1,0.3,0.1
						c0,0,0.8-0.1,1.6-0.1c0.4,0,0.8,0,1.1,0c0.3,0,0.5,0,0.5,0c0.3,0.1,6.4,0.1,0.8,0.1l5,0.1c1.5,0,3.2,0.1,4.9,0.2
						c1.7,0.1,3.3,0.1,4.6,0.2c2.4,0.2,6,0.4,3.9,0.3c0,0,0.5,0.1,1.2,0.1c0.8,0.1,1.7,0.1,2.7,0.2c2,0.2,3.9,0.4,3.9,0.4h0.1
						c0.9,0.1,1.9,0.2,2.9,0.3c0.9,0.1,1.9,0.3,2.9,0.4c0.9,0.1,2,0.3,2.9,0.4c0.5,0.1,1,0.1,1.5,0.2c0.5,0.1,1,0.2,1.5,0.3
						c2,0.4,4.1,0.7,6.1,1.1c2,0.5,4.1,1,6.3,1.4c2.5,0.6,5,1.2,9.1,2.4l0.8,0.3c3.1,0.9,9.2,2.9,10.5,3.3c1.6,0.6,5.3,1.8,9.2,3.2
						c3.9,1.4,8.1,2.9,10.6,3.9h0.3c3.6,1.3,7,2.6,11.5,4.3l-0.2-0.1c3.9,1.4,9.9,3.7,16,5.9c-0.5-0.1-2-0.7-3.1-1
						c3.6,1.4,7.6,2.6,11.5,3.9c1.9,0.7,3.8,1.2,5.7,1.8c1.9,0.6,3.7,1.1,5.4,1.6c1.7,0.5,2.9,0.9,4.2,1.2c-0.2-0.1-0.3-0.1-0.5-0.1
						c0.2,0.1,0.5,0.1,0.7,0.2c0.8,0.3,1.5,0.5,2.4,0.7c-0.8-0.2-1.4-0.5-2-0.7c1.3,0.4,3.3,1,5.3,1.6l0.8,0.3
						c0.2,0.1,0.3,0.1,0.5,0.1c2,0.5,1.6,0.4,0.6,0.1c1,0.3,2,0.5,2.7,0.7c1.5,0.5,5.3,1.4,7.4,2c0.7,0.1,3.2,0.8,5.7,1.4
						c2.6,0.6,5,1.1,5.6,1.2c0.1,0,0.7,0.2-0.5-0.1c2.3,0.5,4.6,1,6.5,1.5l0.9,0.3c0,0,1.2,0.3,2.5,0.5c0.7,0.1,1.2,0.3,1.7,0.3
						c0.5,0.1,0.8,0.1,0.8,0.1c3,0.7,4.3,0.9,1.2,0.4c7.3,1.4,6,1.1,12.2,2.3h-0.3c1.1,0.2,2.6,0.5,3.9,0.7c1.3,0.2,2.6,0.4,3.2,0.5
						c1.2,0.3,3.4,0.6,6.2,1.1c1.4,0.3,2.9,0.5,4.6,0.8c0.9,0.1,1.6,0.3,2.6,0.5c0.9,0.1,1.8,0.3,2.7,0.4c7.3,1,15.5,2.3,22,2.9
						c-2.5-0.5,6.1,0.8,6.6,0.7c0.8,0.1,2.6,0.3,0.5,0.1c3.3,0.4,5.9,0.6,8.2,0.8c2.3,0.2,4.3,0.4,6.6,0.5c0.8,0.1-1.4-0.1-0.8,0
						c0.6,0.1,2.2,0.1,2.8,0.3c0.7,0.1-0.9-0.1-2.1-0.1c3.4,0.3,5.3,0.5,6.5,0.5s1.4,0,1.7-0.1c3.5,0.3,5.2,0.4,7.8,0.5
						c1.2,0.1,3.2,0.3-1,0c1.2,0.1,4.8,0.3,8.3,0.5c1.7,0.1,3.3,0.1,4.6,0.2c1.2,0.1,2.1,0.1,2.1,0.1c0.8,0.1,3.4,0.1,4,0.1
						c2.8,0.1,4.2,0.2,5.6,0.3c0.8,0,1.4,0.1,2.4,0.1c0.9,0,1.9,0,3.2,0.1l-1.5-0.1c2.1-0.1,4.5,0.1,8.7,0.1h-0.1
						c9.9,0.3,4.3,0.1,14,0.1l-0.6-0.1c0.5-0.1,2.6-0.1,5.3-0.1c2.8,0,6.1,0.1,8.9-0.1h-2c3-0.1,8.6-0.1,11.7-0.1c0.7,0-1,0.1-2,0.1
						c8.1-0.1,1-0.1,7.1-0.3c0.6,0,0.2,0.1,0.2,0.1s0.1,0,0.5,0c0.4,0,0.9,0,2-0.1c2-0.1,11.8-0.7,17.3-0.9
						c-1.2,0.1-2.5,0.1,0.4-0.1c4.3-0.3,11.6-0.7,15.5-1c0.6,0,0.8-0.1,0.8,0c3.2-0.3,10.5-1,12.5-1.2c0.8,0,2.4-0.1,4.5-0.3
						c2-0.2,4.5-0.5,6.7-0.8c2.4-0.3,4.6-0.5,6.2-0.7c1.6-0.2,2.8-0.3,2.8-0.2c0,0,2.5-0.3,4.9-0.6c2.5-0.3,4.9-0.7,4.9-0.7
						l-0.3,0.1c6.4-0.8,8.6-1.1,10.8-1.5c1.4-0.2,0.4,0,0.3,0c9.2-1.3,10.2-1.4,17.8-2.8l0.9-0.1c1-0.2,4.4-0.7,8.5-1.4
						c2.1-0.3,4.4-0.7,6.7-1.1c2.4-0.5,4.7-0.9,6.9-1.3c-0.1,0-0.3,0.1-0.9,0.2c10.1-1.8,24.1-4.5,27.7-5.4c0,0,0.4-0.1,1-0.2
						c0.6-0.1,1.4-0.3,2.3-0.5c1.6-0.4,3.2-0.7,3.2-0.7c-8.5,1.8,1.2-0.4-2.3,0.3c3.3-0.7,8.6-1.8,4.6-0.9l-0.7,0.1
						c-1.4,0.5,10.5-2.2,10.3-2.1c16.6-3.7,32.7-7.7,48-11.7l-1.8,0.4c0,0,1.3-0.3,2.7-0.7c1.3-0.3,2.7-0.7,2.7-0.7
						c1.4-0.4,1.9-0.5-1.9,0.6c1-0.3,2.6-0.7,3.9-1.1c1.3-0.4,2.5-0.7,2.5-0.7c7.4-2-2.8,0.9-0.6,0.3l3.1-0.9l-0.7,0.2
						c2.5-0.7,2.7-0.9,7.2-2.1c2.8-0.8,1.5-0.4,2.7-0.7c0,0,0.1,0,0.4-0.1s0.7-0.2,1.3-0.4l6.6-1.9L560,79c2.9-0.9,6.3-1.8,3.1-1
						c1.1-0.3,3.2-0.9,5.9-1.6c2.6-0.8,5.6-1.6,8.5-2.6s5.9-1.8,8.3-2.5s4.1-1.2,4.7-1.5c4.1-1.3,8.1-2.6,13-4.1
						c-1.2,0.4-2,0.5,2.3-0.9c-1.4,0.7,7.9-2.5,11.4-3.5c-3.1,1,12.1-4,7.2-2.6c3.5-1.2,0.3,0,2.9-0.9c8.4-2.9,18.6-6.2,29-9.8
						c0.2-0.1-1.6,0.5,0.6-0.3l5.5-1.8c2-0.7,1.8-0.8,5.6-2c-0.6,0.1-1.3,0.4,0-0.1c20.4-6.9,41.5-14.2,62.7-20.4
						c-2.8,0.8-0.9,0.3,1.2-0.4c-1.4,0.4,0-0.1-0.3,0c0,0,2.2-0.7,4.5-1.3c1.1-0.3,2.2-0.7,3-0.9c0.9-0.3,1.4-0.4,1.4-0.4
						c0.8-0.3,3.1-1,5.5-1.6c2.3-0.7,4.6-1.2,4.9-1.4l-2.8,0.8c1.9-0.6,0.5-0.3-1.2,0.2c-1.7,0.5-3.9,1-3.6,0.9
						c-4.2,1.3-11.1,3.1-17.8,5.3c-1.5,0.5,1.2-0.5,0.5-0.2c-1.7,0.6-3.8,1.2-7.7,2.4l0.4-0.1c-5.4,1.7-9.2,2.9-13.3,4.2
						c-4,1.3-8.2,2.6-14.2,4.7l0.9-0.3c-2.6,0.9-3.1,1-4.4,1.4c-2.9,1,7.2-2.4,4.7-1.4c-3.5,1-18.2,6.2-20.6,6.8
						c-4,1.4,1.2-0.3-2.8,1l-1,0.3l-0.9,0.4c-2.6,0.9-3.9,1.3-4.1,1.3c0.7-0.2,1.8-0.6,2.5-0.9c-3.4,1.1-9.5,3.3-10.6,3.7l3.8-1.3
						c-10.7,3.7-24,8.2-34.4,11.7l0.9-0.3c-8,2.7-6.5,2.1-15.3,5l0.3-0.1c-1.7,0.6-4.1,1.4-6.5,2.2c2.2-0.7-4.3,1.3-1.3,0.3
						c-8.7,2.8-4.3,1.4-10.1,3.3l-1.3,0.4c-2,0.7-2.1,0.7-6.5,2.1c3.6-1.1-2.8,0.8,1.1-0.5c-9.4,2.7-13.9,4.3-18.2,5.4
						c-2.1,0.7-0.1,0.1,2.2-0.5c2.3-0.7,4.7-1.4,3.6-1c2-0.6-3.5,1.2-6.5,2c-3,0.9-5.2,1.3-12.8,3.5c0.8-0.2,0.8-0.3,1.5-0.5
						c-2.8,0.8-5.6,1.6-9.1,2.5c-1.9,0.6-4.6,1.2-5,1.5l7-2c-4,1.1-7.6,2.3-14.2,4c0.6-0.1,2.5-0.7,3.8-1c-1.9,0.5-3.7,1-5.7,1.5
						c0.3-0.1,2.4-0.7,5-1.4c2.6-0.7,5.6-1.6,7.8-2.2c-2.1,0.5-8,2.3-5.9,1.6c-2.9,1-7.6,2-12.7,3.5l0.3-0.1c-0.9,0.2-2.5,0.7-4,1.1
						l2.7-0.8c-2.1,0.6-4.1,1.1-6.2,1.6c-2,0.5-4.1,1-6.1,1.4c8.5-2.1,2-0.4,5.6-1.2c-10.4,2.7-6.1,1.4-17.8,4.3
						c1.6-0.3,6-1.4,3.5-0.8c-2.3,0.5-5.2,1.2-6.6,1.5c-7.9,1.8,1.2-0.2-2.1,0.6c-2.8,0.5-3.8,0.9-7.3,1.8l-0.1-0.1
						c-4.5,1-5.1,1.1-5.5,1.3c-0.5,0.1-0.9,0.3-4.9,1.1l3.4-0.9l-4.2,0.9l0.9-0.3c-4.6,1-6,1.4-10.5,2.3c1-0.2-0.6,0.2-4.6,1
						c-2.8,0.5,1.5-0.4-4.2,0.8c1.2-0.3,2.7-0.6,5.1-1c0.3-0.1,1.2-0.3,1.5-0.4c-2.9,0.5-7.4,1.4-9.5,1.9c0.8-0.1,1.7-0.3,2.3-0.5
						c0,0-2.1,0.5-4.1,0.9c-2.1,0.5-4.1,0.9-4.1,0.9c-1.3,0.2-0.3,0,0.8-0.2c-1.7,0.3-2.8,0.5-5.3,1c0.7-0.2,0.5-0.2,3.9-0.9
						l-7.9,1.5c-0.6,0.1-4.1,0.7-3,0.5c-1.1,0.2-2.3,0.4-3.6,0.7c-1.3,0.2-2.7,0.5-4.2,0.7c-2.8,0.5-5.9,1-8.8,1.5
						c-0.3,0.1-0.9,0.2-2.2,0.4c-2.8,0.5-5.3,0.8-8.1,1.2c-2.8,0.4-5.6,0.8-8.8,1.3c0,0-0.9,0.1-1.9,0.2c-0.9,0.1-1.9,0.2-1.9,0.2
						c-5.1,0.7,5.1-0.5-3.5,0.6c-6.1,0.8-2.3,0.2-4.5,0.5c-3,0.4-8.3,1.2-13.9,1.8C379.2,116.1,380.6,115.9,382.3,115.7z M318.2,121
						c1.2-0.1,3.7-0.3,4.7-0.3C321.4,121,320.4,121,318.2,121z M220,119.7c0.9,0.1,2.4,0.2,4,0.3C222.9,120,221.6,119.9,220,119.7z
						 M-38.2,61.5C-38.1,61.5-38.1,61.5-38.2,61.5C-35.2,61.7-36.3,61.6-38.2,61.5z M-43.9,61.4c-0.6,0-0.6,0-0.3,0
						c0.4,0,1.7,0,3.2,0C-41.5,61.4-42.2,61.4-43.9,61.4z M555.5,80.7l-1,0.3C556.8,80.3,556.2,80.5,555.5,80.7z"/>
					<path fill="#3F3F3F" d="M231.1,120.4c0.4,0.1,0.5,0.1,0.6,0.1C232.2,120.4,232.2,120.4,231.1,120.4z"/>
					<path fill="#3F3F3F" d="M421.7,110.2h0.2c0.1,0,0.2-0.1,0.2-0.1L421.7,110.2z"/>
					<path fill="#3F3F3F" d="M41.4,78.5c1,0.4,1.6,0.7,2,0.8C43.5,79.4,43,79.2,41.4,78.5z"/>
					<path fill="#3F3F3F" d="M-74.5,63.1c0,0,0.9-0.1,1.8-0.3c0.5-0.1,0.9-0.1,1.2-0.1c0.4-0.1,0.6-0.1,0.6-0.1
						c-1.8,0.1-2.4,0.3-3.3,0.3C-74,63-73.4,63-74.5,63.1z"/>
					<path fill="#3F3F3F" d="M-105.7,68.5c-0.5,0.1-1,0.3-1.6,0.4h0.2C-105,68.3-103.5,67.9-105.7,68.5z"/>
					<path fill="#3F3F3F" d="M-77.9,63.3c-0.2,0-0.8,0.1-1.7,0.2c-0.9,0.1-2.1,0.3-3.4,0.5c0.2,0,0.3-0.1,0.5-0.1
						c-0.4,0.1,0.1,0,1-0.1c0.5-0.1,1-0.2,1.6-0.3C-79.3,63.5-78.6,63.4-77.9,63.3z"/>
					<path fill="#3F3F3F" d="M-83.6,64.1c-0.8,0.1-1.6,0.3-2.4,0.4C-86.3,64.5-85,64.3-83.6,64.1z"/>
					<path fill="#3F3F3F" d="M-51.3,61.5c-1.2,0-0.8,0.1-1.4,0.1C-54.1,61.7-44.5,61.2-51.3,61.5z"/>
					<path fill="#3F3F3F" d="M-80,63.4c0,0,0.2,0,0.5,0c0.2,0,0.5,0,0.5,0l1.4-0.3c0,0-0.6,0.1-1.1,0.1C-79.4,63.4-80,63.4-80,63.4z
						"/>
					<path fill="#3F3F3F" d="M-59.7,61.5l-4.2,0.2c0.1,0-0.5,0-1.1,0.1c1.2-0.1,2.7-0.1,3.6-0.2C-60.3,61.5-59.6,61.5-59.7,61.5z"/>
					<path fill="#3F3F3F" d="M-64.9,61.9c-1.3,0.1-2.6,0.3-3.3,0.3C-67.5,62.1-66,61.9-64.9,61.9z"/>
					<path fill="#3F3F3F" d="M-74.4,62.7l1.2-0.1c0,0,0.8-0.1,1.4-0.2c0.8-0.1,1.4-0.1,1.4-0.1s-1,0.1-2.1,0.2
						C-73.4,62.6-74.4,62.7-74.4,62.7z"/>
					<path fill="#3F3F3F" d="M-15.2,63.3l4.5,0.7c0.5,0.1-0.8-0.1-2.4-0.4C-14.1,63.4-15.8,63.2-15.2,63.3z"/>
					<path fill="#3F3F3F" d="M-28.7,61.7c1.2,0.1,1.3,0.1,2,0.2l0.2-0.1L-28.7,61.7z"/>
					<path fill="#3F3F3F" d="M-15.6,63c0.5,0.1,6.5,0.9,0.9,0.1C-15.2,63-19.6,62.4-15.6,63z"/>
					<polygon fill="#3F3F3F" points="47.5,81.1 46.4,80.7 46.5,80.9 					"/>
					<path fill="#3F3F3F" d="M101.8,99c-4.9-1.5-1.2-0.3-5.7-1.6c-1.1-0.3,3.6,1.1,2.5,0.8C101.6,99,103.1,99.5,101.8,99z"/>
					<path fill="#3F3F3F" d="M98.5,98.2c-0.5-0.1-0.9-0.3-1.5-0.5C97.9,98,98.3,98.1,98.5,98.2z"/>
					<polygon fill="#3F3F3F" points="747.2,19.3 750.5,18.5 748.4,19 					"/>
					<path fill="#3F3F3F" d="M753.3,17.6l0.8-0.1l1.9-0.6C755.3,17,753.9,17.4,753.3,17.6z"/>
					<path fill="#3F3F3F" d="M308.6,121.3h-0.3c0.6,0,1.3,0,2.9-0.1L308.6,121.3z"/>
					<polygon fill="#3F3F3F" points="355.3,118.4 354.5,118.5 356.1,118.5 					"/>
					<path fill="#3F3F3F" d="M394.1,114c-1.6,0.2-3.4,0.5-5,0.7C392.6,114.2,394.6,114.1,394.1,114z"/>
				</g>
			</g>
		</g>
	</g>
</g>
<g>
	<g>
		<g>
			<g>
				<g>
					<path fill="#3F3F3F" d="M135.6,115.3c0.6,0,0.4-0.1,0.5-0.1C135.1,115.2,135.6,115.3,135.6,115.3z"/>
					<polygon fill="#3F3F3F" points="126.3,115.6 126.4,115.5 125.1,115.7 					"/>
					<path fill="#3F3F3F" d="M117.6,115.8c0.9,0.1,3.1-0.1,4.7-0.1h0.3l0.7-0.1C121.4,115.7,118.9,115.8,117.6,115.8z"/>
					<path fill="#3F3F3F" d="M113.1,115.7c0.3,0-0.9,0.1,1,0c-0.1,0-0.1,0-0.2,0C113.7,115.7,113.4,115.7,113.1,115.7z"/>
					<path fill="#3F3F3F" d="M113.9,115.7C114.9,115.7,113.3,115.7,113.9,115.7L113.9,115.7z"/>
					<path fill="#3F3F3F" d="M109.7,115.7h1.2c-0.3,0-1.3,0-0.9-0.1C108.8,115.7,109,115.7,109.7,115.7z"/>
					<path fill="#3F3F3F" d="M108.6,115.8h0.7C109.1,115.8,108.9,115.8,108.6,115.8z"/>
					<path fill="#3F3F3F" d="M110.5,115.7h-1.3c0.2,0,0.2,0.1,0.6,0C109.7,115.8,109.9,115.8,110.5,115.7z"/>
					<path fill="#3F3F3F" d="M111.3,115.8c0.7,0,1.5,0.1,0.4,0.1C113.9,115.8,113.5,115.7,111.3,115.8z"/>
					<path fill="#3F3F3F" d="M117.2,115.9h0.9l0.8-0.1C118.5,115.9,117.1,115.9,117.2,115.9z"/>
					<path fill="#3F3F3F" d="M102.2,115.7c-0.1,0,0.4,0.1,0.5,0.1h0.9C103.2,115.7,102.3,115.7,102.2,115.7z"/>
					<path fill="#3F3F3F" d="M102.7,115.7l-1.3,0.1C102.6,115.8,102.8,115.8,102.7,115.7z"/>
					<polygon fill="#3F3F3F" points="108.4,115.9 110.5,115.9 107.9,115.9 					"/>
					<polygon fill="#3F3F3F" points="97.2,115.7 98,115.7 96.5,115.7 					"/>
					<path fill="#3F3F3F" d="M93.8,115.7c0.6-0.1-0.8-0.1-0.2-0.1c-0.9,0-1.7,0.1-2.4,0.1C92,115.7,92.7,115.7,93.8,115.7z"/>
					<path fill="#3F3F3F" d="M90.1,115.7c0.4,0,0.8,0,1.1-0.1C90.8,115.7,90.5,115.7,90.1,115.7z"/>
					<path fill="#3F3F3F" d="M99.1,115.8c-0.1,0-0.3-0.1-1-0.1l0.5,0.1C98.8,115.8,98.9,115.8,99.1,115.8z"/>
					<path fill="#3F3F3F" d="M98.6,115.8L98.6,115.8c-0.6,0-0.9,0-1.1,0C97.7,115.8,98,115.8,98.6,115.8z"/>
					<path fill="#3F3F3F" d="M99.3,115.8C99.2,115.8,99.2,115.8,99.3,115.8C99.2,115.8,99.2,115.8,99.3,115.8z"/>
					<path fill="#3F3F3F" d="M104.9,115.9c-0.8,0-2.4,0.1-0.9,0.1C104.6,115.9,103.8,115.9,104.9,115.9z"/>
					<path fill="#3F3F3F" d="M100,115.9h1.4c0,0-0.3-0.1,0.1-0.1L100,115.9z"/>
					<polygon fill="#3F3F3F" points="99.2,115.9 100,115.9 99.4,115.9 					"/>
					<path fill="#3F3F3F" d="M92.5,115.8c-0.6,0-1.2,0-2,0c0.9,0,1.6,0,2.5,0C93,115.8,93.3,115.8,92.5,115.8z"/>
					<path fill="#3F3F3F" d="M95.5,115.8L95.5,115.8L95.5,115.8z"/>
					<polygon fill="#3F3F3F" points="83.1,115.7 83.2,115.7 83.2,115.7 					"/>
					<path fill="#3F3F3F" d="M93,115.8c0.6,0,0.9,0,1.3,0C93.9,115.8,93.4,115.8,93,115.8C92.8,115.8,92.8,115.8,93,115.8z"/>
					<path fill="#3F3F3F" d="M88,115.7c0.3,0,0.7,0.1,1,0.1C88.8,115.7,88.1,115.7,88,115.7z"/>
					<path fill="#3F3F3F" d="M95.1,115.8C95.1,115.8,95.2,115.8,95.1,115.8C95,115.7,95,115.7,95.1,115.8z"/>
					<path fill="#3F3F3F" d="M95.1,115.8c-0.3,0-0.6,0-0.8,0.1c0.4,0,0.7,0,1,0C95.3,115.8,95.2,115.8,95.1,115.8z"/>
					<path fill="#3F3F3F" d="M80.8,116c0.1-0.1,1.7-0.1,3,0c1.3,0,0.5-0.2-0.7-0.3c0,0,0,0.1-1.4,0.1c0.5,0.1,3.1,0.1,1.9,0.1
						c-1.8,0-1.5-0.1-2.4-0.1c0.8,0.1-2.4,0.1-2,0.1h1.6C81,115.9,80.3,115.9,80.8,116z"/>
					<path fill="#3F3F3F" d="M85.8,115.7h0.6c-0.7,0-1.1-0.1-2-0.1c-0.9,0-1.1,0-1.2,0.1l2.8,0.1H85.8z"/>
					<path fill="#3F3F3F" d="M88.9,115.8c-0.5,0.1-1.8,0.1-0.9,0.1c1.7,0,1.1-0.1,2.2-0.1C87.4,115.9,90.9,115.9,88.9,115.8
						c0.6,0,1,0,1.5,0C90,115.8,89.5,115.8,88.9,115.8c0.1-0.1,0.1,0,0.2,0l0,0l0,0c0.1,0,0.2,0,0,0
						C89.1,115.8,89.1,115.8,88.9,115.8C89,115.8,89,115.8,88.9,115.8C88.2,115.8,88.8,115.8,88.9,115.8L88.9,115.8L88.9,115.8
						c0.1,0-0.6,0-1.2,0c-0.7,0-1.3,0-1.3,0C87,115.8,87.7,115.8,88.9,115.8z"/>
					<path fill="#3F3F3F" d="M102.6,116.1C102.5,116.1,102.5,116.1,102.6,116.1C102.3,116.1,102.2,116.1,102.6,116.1z"/>
					<path fill="#3F3F3F" d="M101.5,116.1c0.2,0,0.4,0,1,0c0.6,0,0,0,0,0.1c0.4,0,1.3-0.1,0.1-0.1h-0.2c-1.1,0-2.5-0.1-2.3-0.1
						C100.4,116,100.7,116,101.5,116.1z"/>
					<path fill="#3F3F3F" d="M95.1,115.9h-2.3L94,116h-0.1C95.3,116,95,116,95.1,115.9z"/>
					<polygon fill="#3F3F3F" points="82.8,115.7 83.1,115.6 81.8,115.7 					"/>
					<polygon fill="#3F3F3F" points="79.8,115.6 79.9,115.5 79.2,115.5 					"/>
					<path fill="#3F3F3F" d="M-84.3,100l-0.7-0.1C-84.7,99.9-84.4,100-84.3,100z"/>
					<path fill="#3F3F3F" d="M-79.6,100.9L-79.6,100.9C-79.7,100.9-79.8,100.8-79.6,100.9z"/>
					<path fill="#3F3F3F" d="M7.9,111.7c-0.9-0.1-2-0.3-1.9-0.3l0.3,0.1C6.9,111.6,7.4,111.7,7.9,111.7z"/>
					<path fill="#3F3F3F" d="M-41,106.6c0.1,0,0.2,0.1,0.3,0.1c0.2,0,0.5,0,0.7,0.1C-40.3,106.6-40.7,106.6-41,106.6z"/>
					<path fill="#3F3F3F" d="M-41.8,106.7l-1.2-0.2C-42.7,106.5-42.3,106.6-41.8,106.7z"/>
					<path fill="#3F3F3F" d="M-109.6,95.1l-0.8-0.1C-109.3,95.3-109.7,95.1-109.6,95.1z"/>
					<path fill="#3F3F3F" d="M49.7,114.5c-0.9-0.1-1.5-0.1-2.1-0.1C48.7,114.5,49.5,114.6,49.7,114.5z"/>
					<path fill="#3F3F3F" d="M-82.2,99.7c-0.4-0.1-0.6-0.1-0.6-0.1C-82.4,99.7-82.1,99.8-82.2,99.7z"/>
					<path fill="#3F3F3F" d="M45.3,114.4c0.2,0,0.3,0,0.5,0.1c0.6,0,1.2,0.1,2,0.1C47,114.4,46.1,114.4,45.3,114.4z"/>
					<path fill="#3F3F3F" d="M-199,72.1c-0.1,0-0.1-0.1-0.2-0.1C-199.2,72-199.1,72-199,72.1z"/>
					<path fill="#3F3F3F" d="M-223.7,63.3c0.3,0.1,0.7,0.2,1,0.3C-222.9,63.6-223.3,63.5-223.7,63.3z"/>
					<path fill="#3F3F3F" d="M68.1,115.3C68.6,115.3,68.2,115.3,68.1,115.3L68.1,115.3z"/>
					<path fill="#3F3F3F" d="M71,115.6c-0.1,0-0.2,0-0.3,0C70.8,115.6,70.9,115.6,71,115.6z"/>
					<path fill="#3F3F3F" d="M39,114.4L39,114.4C39.2,114.4,39.1,114.4,39,114.4z"/>
					<path fill="#3F3F3F" d="M69,115.3c-0.2,0-0.5,0-0.8-0.1C68.3,115.3,68.5,115.3,69,115.3z"/>
					<path fill="#3F3F3F" d="M68.8,115.3c0.2,0,0.4,0,0.6,0C69.5,115.3,69.4,115.3,68.8,115.3z"/>
					<path fill="#3F3F3F" d="M67.2,115.3c0.4,0,0.7,0,1,0c-0.1,0-0.2,0-0.1,0C67.9,115.3,67.6,115.3,67.2,115.3z"/>
					<path fill="#3F3F3F" d="M-151.6,85.3C-151.6,85.3-151.7,85.3-151.6,85.3C-152.3,85.1-152.1,85.2-151.6,85.3z"/>
					<path fill="#3F3F3F" d="M-8.4,110.7C-8.3,110.7-8.3,110.7-8.4,110.7C-8.3,110.7-8.4,110.7-8.4,110.7L-8.4,110.7z"/>
					<path fill="#3F3F3F" d="M-10.5,110.6c0.9,0.1,1.5,0.1,2.2,0.2l-0.7-0.3L-10.5,110.6z"/>
					<path fill="#3F3F3F" d="M-95.4,98l1.5,0.3c-1.9-0.3-3.2-0.5-1.8-0.2c0.3-0.1,5.9,1,6.2,0.9l0.9,0.2c-0.3-0.1-0.4-0.1-0.7-0.1
						c1.9,0.5,1.5,0.1,4,0.7c0.9,0.2,1.5,0.3,0.9,0.2l2,0.3c0.6,0.1,0.4,0.1-0.2,0l2.9,0.5l0,0c0.5,0.1,1.4,0.2,1.9,0.3
						c0.8,0.1-0.4-0.1-0.2,0l1.7,0.3c0.7,0.2-0.8-0.1-1.9-0.3c1.5,0.5,1.3,0.3,4.7,0.9l-1.6-0.2c0.9,0.3,2.2,0.4,4,0.8
						c-0.4-0.1-3.5-0.7-1.7-0.5c0.5,0.1,1.1,0.2,2.2,0.3c0,0.1,0.9,0.2,2.1,0.4l-0.1,0.1c1.3,0.2,1.2,0.1,2,0.2
						c1.4,0.3,1.7,0.3,2,0.5c2.3,0.4-1.5-0.3,1.1,0.1c1.9,0.3,3.2,0.5,5.5,0.9c1.3,0.3-0.3,0,0.2,0.1l1.2,0.1
						c0.3,0.1,0.2,0.1,0.1,0.1c1,0.1,0.1-0.1,1.7,0.1c0.2,0,1,0.1,2,0.3c0.9,0.2,2.2,0.4,3.1,0.5c0.5,0.1-0.3,0-0.1,0.1
						c2.7,0.3,2.3,0.3,4.6,0.5l1.9,0.3c-1.3-0.3,0.4-0.1,2,0.1c-0.5-0.1-0.9-0.2-1.1-0.3l2.5,0.3c0.3,0.1,0,0.1-0.4,0
						c0.2,0,0.3,0,0.5,0.1c0.9,0.1,0.4,0.1-0.3,0.1c-0.3-0.1-0.6-0.1-0.9-0.2c-0.7-0.1-1.2-0.1-1.1,0c0.2,0,0.5,0.1,0.9,0.1
						c-0.2,0-0.3,0-0.2,0c0.1,0,0.4,0.1,0.8,0.1l0.6,0.2h0.2l3.2,0.5c2.4,0.2,4.4,0.4,8.1,0.8c-0.9-0.1-0.2,0.1-0.3,0.1
						c-0.9-0.2-2.8-0.3-4.7-0.6c0.9,0.1,0.8,0.1,0.5,0.1l3.4,0.4c-0.1,0.1,0.7,0.1,1.6,0.3c-0.7-0.2,2.6,0.2,4,0.3
						c0.1,0.1-0.3,0.1-2-0.1c1.8,0.3,2.5,0.1,4.3,0.4c-0.4-0.1-0.7-0.1-0.8-0.1c0.9,0.1,3.3,0.4,2.8,0.3l-0.4-0.1
						c2.8,0.3,8.4,0.9,8.7,0.9c0,0-0.4,0.1-0.6,0.1l4.9,0.2c-0.5,0.1,1.1,0.5-1.1,0.3c0.7,0.1,1.4,0.2,2.8,0.3
						c-0.5-0.1-1-0.3-0.5-0.2c1.6,0.3,1.1,0.1,3.2,0.5c-0.7-0.1,0.1-0.1,1.1-0.1c-0.2,0,0.1,0.1-0.3,0.1l2.7,0.1
						c-0.7-0.1-0.1,0.1,0.5,0.2c-0.3-0.1,2.3,0.2,2.9,0.3L3,111.7c2.9,0.3,2.9,0.1,5.9,0.3c-0.4,0-0.9,0.1,0.6,0.3
						c0.7,0,3.1-0.1,5.7,0.1l0.5,0.1c0,0,0.5,0.1,1,0.1c0.5,0.1,1,0.1,1,0.1c-1.2,0-4.8-0.1-6.7-0.1c1.1,0.1,0.3,0.1,2,0.2
						c0.6,0.1-0.9,0-1.4-0.1l3.9,0.4c-0.2-0.1,2.9,0.2,2.8,0.1c0,0-1-0.1-2.1-0.1s-2.1-0.1-2.1-0.1c-0.1-0.1,0.6-0.1,1.5,0
						s2.4,0.1,3.7,0.2c0.7,0.1-0.6,0.1-0.5,0.1c0.4,0,2.7,0.1,2.8,0.1h-1.1c1.5,0.1,2.6,0.1,4.4,0.3c0.7,0.1,1.9,0.3,2,0.2
						c-1-0.2-1.1-0.5-0.5-0.5c0.2,0,3.3,0.3,4.1,0.4c1,0.1-1.6,0.1-0.8,0.2c0,0,0.7,0,0.9,0c0.7,0.1-0.3,0.1,1.1,0.1
						c0.3-0.1,2.9,0.2,0.7,0c1.4,0.1,1.5,0.1,3.1,0.3c-0.6-0.1,1.5-0.1,2.9,0c-0.1,0,0.2,0.1,0.4,0.1c2.9,0.2,4.5,0.3,7.2,0.4
						c0.3,0.1,1.5,0.1,0.9,0.1c0.4,0,0.8,0,1.6,0c1.6,0.1-1.9-0.1-0.7,0.1c0.1-0.1,2.2,0,3.4,0.1c-0.4-0.1-2.8-0.1-4-0.1
						c0-0.1,2.1-0.1,4.9-0.1c2.3,0.1,0.9,0.1,1.3,0.1c4.3,0.2,3.6,0,7.1,0.2c1.4,0.1,0.1,0.1,0.4,0.2c-1.8-0.1-2.8-0.2-4.1-0.2
						l1.5,0.1c-0.6,0-1.8-0.1-2.5-0.1c0.6,0.1,2.4,0.1,4.5,0.3c2.1,0.1,4.4,0.2,6,0.3c0.6,0,1.6,0,1.1-0.1h-1
						c-0.9-0.1,2-0.1,0.7-0.1c1.4,0,2.9-0.1,4.9,0.1l0.4,0.1c0,0-1.2-0.1-1.8-0.1c0.9,0,3,0.2,3.9,0.1l-1.3-0.1c1.4,0,3.1-0.1,4.8,0
						c-0.8-0.1-0.4,0-1.6-0.1c1,0.1-4.5-0.1-2.8,0.1c-1.2-0.1-2.2-0.1-3.8-0.2c0.1,0,0.6,0.1-0.9,0c-0.1,0-0.2,0-0.3,0h-0.1H69
						c-0.1,0-0.1,0,0,0c0.4,0,0.7,0.1,0.8,0.1c-0.8,0.1-3,0-3.8,0c-0.9,0,0.4,0-0.1-0.1h-1.1c-0.1-0.1-2.3-0.2-0.3-0.1l-1.8-0.1
						c-1-0.1-2.6-0.1-3.5-0.2c-0.9-0.1-2.2-0.1-1.4-0.1l-2.8-0.1l0,0c-2.8-0.1-5.9-0.2-9.1-0.4c-0.9,0-1.9-0.1-3.5-0.1l-0.3-0.1
						c-1.2-0.1-3.7-0.3-4.2-0.3c-1.3-0.2-5.9-0.5-8.1-0.6l-0.1,0.1c-1.5-0.1-2.9-0.2-4.7-0.3l0.1,0.1c-1.6-0.1-4.1-0.3-6.5-0.5
						c0.2,0,0.9,0.1,1.2,0.1c-1.5-0.1-3-0.3-4.7-0.4c-1.5-0.1-3-0.2-4.4-0.4c-0.7-0.1-1.1-0.1-1.6-0.1c0.1,0,0.1,0,0.2,0
						c-0.1,0-0.2,0-0.3,0c-0.3-0.1-0.6-0.1-0.9-0.1c0.3,0.1,0.6,0.1,0.8,0.1c-0.5-0.1-1.3-0.1-2.1-0.2l-0.3-0.1c-0.1,0-0.1,0-0.2,0
						c-0.8-0.1-0.6,0-0.2,0.1c-0.4,0-0.8-0.1-1-0.1c-0.6-0.1-2-0.1-2.8-0.3c-0.6,0-3.9-0.3-4.4-0.3c0,0-0.3-0.1,0.2,0
						c-0.9-0.1-1.7-0.2-2.5-0.2l-0.4-0.1c0,0-0.5,0-0.9,0s-0.9-0.1-0.9-0.1c-1.1-0.2-1.6-0.3-0.5-0.2c-2.8-0.2-2.2-0.2-4.6-0.4
						l0.1-0.1c-0.9-0.1-2.2-0.2-2.7-0.3c-1.8-0.3-9.2-1-14-1.7c0.5,0.1-0.1,0.1-0.8-0.1c-0.7-0.1-1.5-0.3-1.6-0.2
						c-0.3-0.1-0.9-0.2-0.2-0.1c-2.5-0.3-3.6-0.5-5.3-0.7c-0.3-0.1,0.6,0,0.3-0.1c-0.2,0-0.8-0.1-1-0.1c-0.3-0.1,0.4,0,0.8,0.1
						c-2.5-0.3-2.8-0.3-2.9-0.2c-1.2-0.2-1.9-0.3-2.8-0.3c-0.4-0.1-1.1-0.2,0.4,0c-0.9-0.1-5.2-0.8-5.4-0.7
						c-0.3-0.1-1.2-0.2-1.4-0.2c-1.9-0.3-2.1-0.3-4-0.5l0.6,0.1c-0.8,0-1.6-0.2-3.1-0.5l0,0c-3.5-0.7-1.5-0.2-4.9-0.9l0.2,0.1
						c-0.4,0.1-3-0.6-5-0.9l0.7,0.1c-1.1-0.1-2.9-0.7-4.1-0.9c-0.2-0.1,0.4,0.1,0.8,0.1c-2.8-0.5-0.4,0-2.6-0.3
						c-0.4-0.1,0.6,0-0.9-0.3c-0.7-0.1-4.3-0.5-6.2-1c0.4,0.1,0.9,0.2-0.2,0.1c-1.5-0.3-4-0.9-5.4-1c-0.2-0.1-0.3-0.1-0.3-0.1
						c-1.1-0.2-3.8-0.7-4.5-0.7c-0.9-0.4-7.2-1.2-7.1-1.4l-3.5-0.7h0.1c-2.3-0.5-3-0.6-3.9-0.7c-0.5-0.1-0.1-0.1-0.1-0.1
						c-3.2-0.7-3.6-0.8-6.4-1.2l-0.3-0.1c-0.8-0.1-4.7-1.1-8-1.7c0,0,0.1,0,0.4,0.1c-1.8-0.3-4-0.9-5.9-1.2
						c-1.9-0.5-3.4-0.9-4.2-0.9l-2.4-0.5c3,0.7-0.5,0,0.8,0.3c-1.2-0.3-3-0.8-1.6-0.5l0.2,0.1c0.6,0-3.8-0.9-3.7-1
						c-3-0.7-6-1.4-8.9-2.1c-0.8-0.2-1.4-0.3-2.2-0.5c-0.8-0.2-1.4-0.4-2.2-0.6c-1.4-0.4-2.8-0.7-4.2-1.1l0.6,0.3l-1.9-0.5
						c-0.5-0.1-0.7-0.3,0.8,0.1c-0.7-0.3-2.4-0.6-2.4-0.5c-2.7-0.7,1.1,0.2,0.3-0.1l-1.1-0.3l0.3,0.1c-0.9-0.2-1-0.2-2.8-0.6
						c-1-0.3-0.5-0.2-0.9-0.3c0,0-0.1-0.1-0.7-0.2l-2.5-0.7l0.9,0.3c-1.1-0.3-2.3-0.6-1.2-0.2c-0.8-0.3-3-0.9-5.3-1.4
						c-2.2-0.6-4.3-1.2-4.7-1.4c-1.5-0.4-3-0.8-4.8-1.3c0.5,0.1,0.7,0.3-0.9-0.1c0.7,0-2.8-0.9-4.1-1.4c1.1,0.4-4.6-1.2-2.8-0.7
						c-1.3-0.4,0-0.1-1-0.4c-3.2-0.8-6.8-2.1-10.7-3.3c-0.1,0,0.6,0.3-0.3,0l-2-0.7c-0.8-0.2-0.8-0.1-2.1-0.6
						c0.2,0.1,0.5,0.2-0.1,0.1c-3.7-1.2-7.6-2.4-11.4-3.6c-3.8-1.2-7.6-2.6-11.3-3.9c0.9,0.4,0.3,0.1-0.5-0.1c0.5,0.2-0.1,0.1,0,0.1
						l-3.1-1.1c-0.7-0.1-3.4-1.1-3.8-1.2l1,0.3c-1.4-0.4,1.7,0.9,1.4,0.9c1.5,0.4,3.8,1.5,6.4,2.2c0.5,0.2-0.5-0.1-0.2,0
						c0.7,0.1,1.4,0.4,2.8,0.9l-0.2-0.1c3.9,1.3,5.5,2,9.9,3.4l-0.3-0.1c0.9,0.3,1.1,0.4,1.6,0.5c1.1,0.3-2.7-0.9-1.6-0.6
						c1.1,0.5,6.7,2.1,7.5,2.5c1.4,0.5-0.4-0.2,1,0.3l0.4,0.1l0.4,0.1c0.9,0.3,1.4,0.5,1.4,0.5c-0.2-0.1-0.7-0.2-0.9-0.3
						c1.2,0.5,3.5,1,3.9,1.2l-1.4-0.5c2,0.6,4.2,1.3,6.5,2c0.6,0.2,1.1,0.3,1.6,0.5c0.6,0.1,1.1,0.3,1.6,0.5c1,0.3,2.1,0.6,3.1,0.9
						l-0.3-0.1c3,0.8,2.4,0.7,5.7,1.6h-0.1c0.7,0.1,1.5,0.4,2.5,0.7c-0.9-0.2,1.5,0.5,0.4,0.3c3.2,0.9,1.6,0.4,3.8,0.9l0.5,0.2
						c0.8,0.2,0.9,0.1,2.5,0.6c-1.3-0.3,1,0.4-0.6,0c3.4,1.1,5.2,1.3,6.7,1.8c1.7,0.3-2.9-0.9-2.1-0.7c-0.8-0.3,1.3,0.3,2.5,0.5
						c1.1,0.3,1.8,0.7,4.7,1.4c-0.3-0.1-0.3-0.1-0.6-0.1c1,0.3,2.1,0.5,3.3,0.9c0.8,0.1,1.7,0.5,1.9,0.4l-2.6-0.7
						c1.4,0.3,2.9,0.6,5.2,1.2c-0.2,0-0.9-0.2-1.4-0.3c0.7,0.2,1.3,0.3,2.1,0.5c-0.3,0.1-3.1-0.8-4.7-1.1c0.8,0.3,2.9,0.7,2.2,0.6
						c1.2,0.1,2.8,0.7,4.7,1.1h-0.2c0.3,0.1,0.9,0.2,1.5,0.3l-1-0.2c1.6,0.3,2.9,0.9,4.5,1.1c-3.1-0.7-0.7-0.2-2-0.6
						c3.9,0.9,2.1,0.7,6.5,1.6c-0.6-0.1-2.2-0.5-1.2-0.3c0.9,0.2,1.9,0.5,2.4,0.7c2.8,0.7-0.4-0.1,0.9,0.1c0.9,0.3,1.4,0.3,2.7,0.6
						v0.1c3.2,0.8,0.9,0.1,3.8,0.8l-1.2-0.2l1.5,0.3h-0.4c1.7,0.3,2.2,0.5,3.8,0.9c-0.4-0.1,0.3-0.1,1.7,0.3
						c0.9,0.3-0.6-0.1,1.4,0.4c-0.5-0.1-1-0.1-1.9-0.4c-0.1,0-0.5-0.1-0.6-0.1c1,0.3,2.7,0.7,3.4,0.8c-0.3-0.1-0.7-0.1-0.8-0.2
						c0,0,0.8,0.1,1.5,0.3s1.5,0.3,1.5,0.3c0.5,0.1,0.1,0.1-0.3,0c0.6,0.1,1,0.2,1.9,0.3c-0.3,0-0.2,0.1-1.5-0.2l2.8,0.5
						c0.2,0.1,1.4,0.4,1,0.3c1.6,0.3,3.9,0.7,6,1.2c0.1,0,0.4,0.1,0.8,0.1c2,0.4,3.7,0.9,6.1,1.2l1.3,0.4c1.8,0.3-1.7-0.5,1.3,0.1
						c2.2,0.4,0.8,0.3,1.5,0.4c1.1,0.1,3,0.4,5,0.9C-94.4,98.2-94.8,98-95.4,98z M-72.6,102c-0.5-0.1-1.3-0.1-1.6-0.3
						C-73.8,101.8-73.4,101.9-72.6,102z M-37.7,107.1c-0.4,0-0.9-0.1-1.4-0.2C-38.6,106.9-38.2,107-37.7,107.1z M61.2,115.1
						C61.2,115.1,61.1,115.1,61.2,115.1C60.2,115,60.5,115.1,61.2,115.1z M63.3,115.2C63.5,115.2,63.5,115.2,63.3,115.2
						c-0.1,0-0.6,0-1-0.1C62.4,115.2,62.7,115.2,63.3,115.2z M-157.6,83.3l0.4,0.1C-158.1,83.2-157.9,83.2-157.6,83.3z"/>
					<path fill="#3F3F3F" d="M-41.7,106.7c-0.1,0-0.2-0.1-0.2-0.1C-42,106.6-42,106.6-41.7,106.7z"/>
					<path fill="#3F3F3F" d="M-109.5,95.1L-109.5,95.1C-109.6,95.1-109.6,95.1-109.5,95.1L-109.5,95.1z"/>
					<path fill="#3F3F3F" d="M30.7,114c-0.5-0.1-0.7-0.1-0.9-0.1C29.8,114,30,114,30.7,114z"/>
					<path fill="#3F3F3F" d="M74.5,115.4h-1.3C73.9,115.4,74,115.4,74.5,115.4C74.3,115.4,74,115.4,74.5,115.4z"/>
					<path fill="#3F3F3F" d="M86.2,116.1c0.2,0,0.4,0,0.6,0h-0.1C85.9,116,85.3,116.1,86.2,116.1z"/>
					<path fill="#3F3F3F" d="M75.8,115.7c0.1,0.1,0.9,0.1,1.9,0.1h-0.2C77.7,115.7,76.7,115.7,75.8,115.7z"/>
					<path fill="#3F3F3F" d="M77.8,115.7c0.3,0,0.6,0,0.9,0C78.8,115.7,78.4,115.7,77.8,115.7z"/>
					<path fill="#3F3F3F" d="M66,115.3c0.5,0,0.3-0.1,0.6-0.1C67,115.2,63.5,115.3,66,115.3z"/>
					<polygon fill="#3F3F3F" points="76.5,115.9 76.1,115.7 75.7,115.8 					"/>
					<path fill="#3F3F3F" d="M69,115.6l1.5,0.1c0,0,0.2,0,0.4,0C70,115.7,69,115.6,69,115.6z"/>
					<path fill="#3F3F3F" d="M70.9,115.7c0.5,0,0.9,0,1.2,0C71.9,115.7,71.3,115.7,70.9,115.7z"/>
					<polygon fill="#3F3F3F" points="74.4,115.8 73.9,115.8 72.9,115.7 					"/>
					<path fill="#3F3F3F" d="M52.8,114.9l-1.6-0.1c-0.2,0,0.3,0.1,0.9,0.1C52.4,115,53,115,52.8,114.9z"/>
					<path fill="#3F3F3F" d="M57.7,115.4c-0.5-0.1-0.5-0.1-0.8-0.1l-0.1,0.1H57.7z"/>
					<path fill="#3F3F3F" d="M53,115.1c-0.2,0-2.4-0.1-0.3,0.1C52.8,115.2,54.4,115.3,53,115.1z"/>
					<polygon fill="#3F3F3F" points="28.1,113.6 28.6,113.7 28.5,113.6 					"/>
					<path fill="#3F3F3F" d="M6.3,112.3c1.9,0.2,0.5-0.1,2.2,0.1c0.5,0-1.4-0.1-0.9-0.1C6.4,112.2,5.8,112.1,6.3,112.3z"/>
					<path fill="#3F3F3F" d="M7.5,112.3c0.2,0,0.4,0,0.6,0.1C7.8,112.3,7.7,112.3,7.5,112.3z"/>
					<polygon fill="#3F3F3F" points="-227.8,61.9 -229,61.5 -228.3,61.7 					"/>
					<path fill="#3F3F3F" d="M-230.1,61.2l-0.2-0.2l-0.8-0.1C-230.8,60.9-230.3,61.1-230.1,61.2z"/>
					<path fill="#3F3F3F" d="M-69.3,102.8L-69.3,102.8c-0.1-0.1-0.4-0.1-0.9-0.2L-69.3,102.8z"/>
					<polygon fill="#3F3F3F" points="-85.8,99.8 -85.5,99.9 -86.1,99.7 					"/>
					<path fill="#3F3F3F" d="M-99.8,97.3c0.6,0.1,1.2,0.3,1.8,0.3C-99.2,97.4-99.9,97.2-99.8,97.3z"/>
				</g>
			</g>
		</g>
	</g>
</g>
<g opacity="0.5">
	<g>
		<g>
			<g>
				<g>
					<path fill="#3F3F3F" d="M854.1,375.6c0.3,0.7,0.2,0.5,0.3,0.6C853.9,374.9,854.1,375.6,854.1,375.6z"/>
					<polygon fill="#3F3F3F" points="849.8,363.5 849.9,363.7 849.3,361.9 					"/>
					<path fill="#3F3F3F" d="M846,352.1c0.2,1.1,1.4,4.1,2.1,6.2l0.1,0.3l0.4,0.9C847.7,357,846.5,353.8,846,352.1z"/>
					<path fill="#3F3F3F" d="M844.1,346c0.1,0.4-0.5-1.3,0.5,1.4c0-0.1-0.1-0.2-0.1-0.3C844.4,346.9,844.3,346.6,844.1,346z"/>
					<path fill="#3F3F3F" d="M844.5,347.1C845,348.3,844.3,346.4,844.5,347.1L844.5,347.1z"/>
					<path fill="#3F3F3F" d="M842.6,341.6l0.6,1.6c-0.1-0.3-0.6-1.7-0.4-1.2C842.2,340.4,842.3,340.7,842.6,341.6z"/>
					<path fill="#3F3F3F" d="M842,340.2l0.3,0.8C842.2,340.9,842.2,340.6,842,340.2z"/>
					<path fill="#3F3F3F" d="M842.9,342.7l-0.7-1.7c0.1,0.3,0,0.3,0.3,0.8C842.4,341.6,842.6,342,842.9,342.7z"/>
					<path fill="#3F3F3F" d="M843.3,343.7c0.3,0.9,0.7,2,0.1,0.5C844.3,347.1,844.3,346.7,843.3,343.7z"/>
					<path fill="#3F3F3F" d="M845.7,351.5l0.4,1.2l0.4,1C846.2,353.2,845.7,351.5,845.7,351.5z"/>
					<path fill="#3F3F3F" d="M839.1,331.9c-0.1-0.1,0.1,0.5,0.1,0.7l0.5,1.2C839.5,333.1,839.1,331.9,839.1,331.9z"/>
					<path fill="#3F3F3F" d="M839.3,332.5l-0.7-1.7C839.2,332.3,839.3,332.6,839.3,332.5z"/>
					<polygon fill="#3F3F3F" points="841.8,339.9 842.8,342.8 841.5,339.3 					"/>
					<polygon fill="#3F3F3F" points="836.7,325.2 837.2,326.2 836.5,324.5 					"/>
					<path fill="#3F3F3F" d="M835.1,320.9c0.3,0.7-0.3-1,0-0.3c-0.5-1.2-0.9-2.2-1.2-3.1C834.3,318.4,834.7,319.5,835.1,320.9z"/>
					<path fill="#3F3F3F" d="M833.2,315.9c0.2,0.5,0.4,1,0.7,1.5C833.6,317,833.4,316.5,833.2,315.9z"/>
					<path fill="#3F3F3F" d="M837.6,327.8c0-0.1-0.1-0.4-0.5-1.4l0.2,0.7C837.4,327.4,837.5,327.6,837.6,327.8z"/>
					<path fill="#3F3F3F" d="M837.3,327.2L837.3,327.2c-0.3-0.8-0.5-1.2-0.6-1.5C836.8,325.8,837,326.3,837.3,327.2z"/>
					<path fill="#3F3F3F" d="M837.6,328c0-0.1,0-0.1-0.1-0.2C837.6,327.9,837.6,327.9,837.6,328z"/>
					<path fill="#3F3F3F" d="M840.2,335.3c-0.4-1-1.2-3.1-0.6-1C840,335,839.6,333.8,840.2,335.3z"/>
					<path fill="#3F3F3F" d="M837.8,328.9l0.7,1.8c0-0.1-0.1-0.4,0.1,0.1L837.8,328.9z"/>
					<polygon fill="#3F3F3F" points="837.5,327.9 837.8,328.9 837.6,328.2 					"/>
					<path fill="#3F3F3F" d="M834.4,319.1c-0.3-0.8-0.7-1.6-1-2.6c0.4,1,0.8,2.2,1.1,3.1C834.6,319.8,834.7,320.2,834.4,319.1z"/>
					<path fill="#3F3F3F" d="M835.8,323c0-0.1-0.1-0.1-0.1-0.2C835.7,323,835.8,323,835.8,323z"/>
					<path fill="#3F3F3F" d="M829.5,306.8c0,0.1,0,0.1,0,0.1s0,0,0,0.1V306.8z"/>
					<path fill="#3F3F3F" d="M834.6,319.8c0.3,0.8,0.5,1.2,0.7,1.7c-0.2-0.6-0.5-1.2-0.8-1.9C834.5,319.6,834.4,319.6,834.6,319.8z"
						/>
					<path fill="#3F3F3F" d="M832.1,313.3c0.2,0.4,0.3,0.9,0.5,1.4C832.5,314.2,832.2,313.4,832.1,313.3z"/>
					<path fill="#3F3F3F" d="M835.6,322.6c0,0.1,0,0.1,0.1,0.1C835.6,322.4,835.6,322.5,835.6,322.6z"/>
					<path fill="#3F3F3F" d="M835.6,322.6c-0.2-0.4-0.3-0.7-0.5-1c0.2,0.5,0.4,0.9,0.5,1.3C835.7,322.8,835.6,322.6,835.6,322.6z"/>
					<path fill="#3F3F3F" d="M827.9,304c0.1,0.1,1,2.2,1.6,4c0.8,1.8,0.6,0.5,0.1-1c-0.1-0.1-0.1-0.1-0.9-1.8
						c0.2,0.7,1.5,4.1,0.9,2.5c-0.9-2.4-0.8-2-1.1-3.1c0.3,1-1.3-3-1.3-2.5l0.9,2.1C828,304.2,827.6,303.4,827.9,304z"/>
					<path fill="#3F3F3F" d="M831,310.4l0.3,0.7c-0.3-0.9-0.6-1.4-0.9-2.6c-0.6-1.2-0.7-1.5-0.7-1.6l1.4,3.7L831,310.4z"/>
					<path fill="#3F3F3F" d="M832.6,314.6c-0.3-0.6-1-2.4-0.7-1.2c0.9,2.2,0.7,1.5,1.2,2.8C831.6,312.6,833.5,317.1,832.6,314.6
						c0.3,0.7,0.6,1.4,0.8,2c-0.2-0.7-0.5-1.2-0.7-1.8v0.1l0,0l0,0c0.1,0.1,0.1,0.2,0,0v-0.1C832.6,314.7,832.6,314.6,832.6,314.6
						c-0.4-1,0-0.2,0.1,0.1v0.1l0,0l-1.4-3.5C831.5,312,831.9,312.9,832.6,314.6z"/>
					<path fill="#3F3F3F" d="M838.7,332.4c0-0.1,0-0.1,0-0.1C838.6,332.1,838.6,332,838.7,332.4z"/>
					<path fill="#3F3F3F" d="M838.3,331c0.1,0.3,0.2,0.5,0.5,1.3c0.3,0.7,0,0-0.1,0.1c0.2,0.5,0.7,1.8,0.2,0.2l-0.1-0.3
						c-0.5-1.4-1-3.3-0.9-3C838,329.6,838,330,838.3,331z"/>
					<path fill="#3F3F3F" d="M835.4,322.6l-1.1-2.9l0.5,1.5v-0.1C835.3,322.8,835.3,322.4,835.4,322.6z"/>
					<polygon fill="#3F3F3F" points="829.4,306.5 829.6,306.8 828.9,305.2 					"/>
					<polygon fill="#3F3F3F" points="827.9,302.6 828,302.8 827.5,301.8 					"/>
					<path fill="#3F3F3F" d="M670.2,110.4l-0.9-0.7C669.8,110,670.1,110.2,670.2,110.4z"/>
					<path fill="#3F3F3F" d="M676.8,115l0.2,0.1C676.6,114.9,676.5,114.8,676.8,115z"/>
					<path fill="#3F3F3F" d="M778.8,211.4c-0.8-1.2-1.7-2.5-1.6-2.4l0.2,0.4C778.1,210.3,778.6,210.9,778.8,211.4z"/>
					<path fill="#3F3F3F" d="M727.2,155.2c0.1,0.1,0.2,0.2,0.3,0.3c0.3,0.3,0.6,0.5,0.9,0.7C728.1,155.8,727.7,155.5,727.2,155.2z"
						/>
					<path fill="#3F3F3F" d="M726.2,154.6l-1.5-1.4C725,153.5,725.5,153.9,726.2,154.6z"/>
					<path fill="#3F3F3F" d="M633.7,85.4l-1.1-0.7C634.3,85.9,633.6,85.4,633.7,85.4z"/>
					<path fill="#3F3F3F" d="M810.4,263.9c-0.6-1-0.9-1.9-1.3-2.7C809.7,262.5,810.2,263.6,810.4,263.9z"/>
					<path fill="#3F3F3F" d="M673.5,111.7c-0.6-0.4-0.9-0.5-0.9-0.5C673.2,111.6,673.6,111.9,673.5,111.7z"/>
					<path fill="#3F3F3F" d="M807.5,258.1c0.1,0.2,0.2,0.4,0.3,0.6c0.4,0.8,0.8,1.6,1.3,2.5C808.6,260.2,808.1,259.2,807.5,258.1z"
						/>
					<path fill="#3F3F3F" d="M497.9-2.4c-0.1-0.1-0.2-0.1-0.3-0.2C497.5-2.7,497.7-2.6,497.9-2.4z"/>
					<path fill="#3F3F3F" d="M461.2-30.1c0.4,0.3,0.9,0.7,1.5,1.1C462.5-29.2,462-29.5,461.2-30.1z"/>
					<path fill="#3F3F3F" d="M821.5,287.4C821.8,288.2,821.6,287.4,821.5,287.4L821.5,287.4z"/>
					<path fill="#3F3F3F" d="M822.9,291.3c-0.1-0.2-0.2-0.3-0.2-0.3C822.7,291,822.8,291.2,822.9,291.3z"/>
					<path fill="#3F3F3F" d="M802.9,250.4L802.9,250.4C802.9,250.6,802.9,250.5,802.9,250.4z"/>
					<path fill="#3F3F3F" d="M821.9,288.6c-0.1-0.3-0.3-0.7-0.5-1C821.6,287.7,821.7,288,821.9,288.6z"/>
					<path fill="#3F3F3F" d="M821.9,288.4c0.1,0.3,0.2,0.5,0.3,0.7C822.3,289.2,822.2,289.1,821.9,288.4z"/>
					<path fill="#3F3F3F" d="M821,286.2c0.2,0.5,0.4,0.9,0.6,1.3c-0.1-0.1-0.1-0.2-0.1-0.2C821.4,287.1,821.2,286.8,821,286.2z"/>
					<path fill="#3F3F3F" d="M570.5,44.7c-0.1-0.1-0.1-0.1-0.2-0.1C569.3,44.1,569.8,44.4,570.5,44.7z"/>
					<path fill="#3F3F3F" d="M763.1,192.5C763.1,192.5,763.1,192.5,763.1,192.5C763.1,192.5,763.1,192.5,763.1,192.5L763.1,192.5z"
						/>
					<path fill="#3F3F3F" d="M760.8,189.9c1,1,1.5,1.7,2.2,2.6l-0.5-1L760.8,189.9z"/>
					<path fill="#3F3F3F" d="M654.5,99.3l2.1,1.5c-2.7-1.8-4.6-3.1-2.6-1.6c0.5,0.1,8.4,5.8,8.9,5.9l1.4,1c-0.4-0.3-0.5-0.3-0.9-0.6
						c2.7,2,2.2,1.4,5.7,3.9c1.2,0.9,2.1,1.5,1.2,0.9l2.8,1.9c0.8,0.6,0.6,0.5-0.2-0.1c0,0,1,0.7,2.1,1.5c1,0.7,2.1,1.5,2.1,1.5l0,0
						c0.6,0.4,2,1.4,2.7,1.8c1,0.8-0.6-0.4-0.3-0.1l2.4,1.6c0.9,0.7-1-0.7-2.7-1.8c1.9,1.7,2,1.3,6.4,4.8c0,0-0.6-0.4-1-0.8
						c-0.6-0.4-1-0.8-1-0.8c1.2,1.1,2.9,2.3,5.3,4.2c-0.6-0.5-4.7-3.7-2.2-1.9c0.7,0.5,1.6,1.2,2.9,2.2c-0.1,0.1,1.2,1,2.8,2.2h-0.2
						c1.8,1.3,1.6,1.2,2.7,1.9c1.9,1.5,2.2,1.8,2.6,2.2c3,2.4-2-1.7,1.6,1.1c2.5,2,4.3,3.4,7.3,5.8c1.7,1.4-0.4-0.2,0.2,0.3l1.6,1.2
						c0.4,0.3,0.2,0.2,0.2,0.2c1.3,1,0.2,0.1,2.3,1.7c0.7,0.4,3.9,3.5,6.5,5.6c0.6,0.5-0.4-0.2-0.2-0.1c3.4,2.8,2.9,2.4,5.7,4.7
						l2.2,2.1c-1.6-1.5,0.7,0.3,2.6,2c-0.6-0.5-1-1-1.3-1.3l3,2.6c0.4,0.3,0,0.1-0.5-0.3c0.2,0.2,0.4,0.3,0.6,0.5
						c1,1,0.4,0.5-0.4-0.1c-0.4-0.3-0.7-0.7-1-1c-0.8-0.7-1.5-1.2-1.4-1c0.2,0.2,0.6,0.5,1,0.9c-0.2-0.2-0.4-0.3-0.3-0.2
						c0.1,0.1,0.4,0.4,0.9,0.8l0.6,0.7l0.2,0.1c0,0,0.3,0.2,0.6,0.5c0.4,0.3,0.9,0.8,1.2,1.2c0.9,0.9,1.9,1.8,1.9,1.8
						c2.8,2.5,5.4,4.6,9.6,8.7c-1.1-1-0.4-0.1-0.5-0.2c-0.5-0.6-1.3-1.4-2.3-2.3c-0.5-0.5-0.9-0.9-1.5-1.4c-0.6-0.5-1-1-1.6-1.6
						c1.1,1.1,0.9,0.9,0.6,0.6c0,0,1,0.9,2,1.8s2,1.9,2,1.9c-0.2-0.1,0.8,0.9,1.7,1.8c-0.7-0.8,3,2.8,4.6,4.3c0,0.1-0.3-0.3-2.3-2.2
						c2,2.2,2.8,2.6,4.7,4.8c-0.5-0.5-0.7-0.7-0.9-0.9c1,1,3.6,3.8,2.9,3.1l-0.5-0.5c0.8,0.8,1.7,1.8,2.7,2.8c0.9,1,2,2.2,2.8,3.2
						c1.9,2.1,3.5,3.8,3.7,4c0,0.1-0.6-0.3-0.8-0.5c0,0,1.4,1.4,2.7,2.8c1.3,1.4,2.7,2.8,2.7,2.8c-0.6-0.5,0.8,1.6-1.5-1
						c0.7,0.8,1.4,1.8,2.8,3.3c-0.4-0.5-0.9-1.4-0.3-0.7c1.5,2,1,1.4,2.9,3.9c-0.7-0.8,0.3,0,1.3,1.2c-0.2-0.2-0.1,0.2-0.5-0.3
						l2.6,3.1c-0.7-0.8-0.3-0.1,0.2,0.7c-0.2-0.3,2.1,2.8,2.8,3.6l-0.9-1.4c1.3,1.8,2.1,2.6,2.8,3.5c0.4,0.5,0.8,0.9,1.1,1.4
						c0.5,0.5,0.9,1.2,1.5,2.1c-0.4-0.4-0.9-1,0.3,0.9c0.7,0.8,3,3.5,5.4,6.8l0.4,0.7c0,0,0.1,0.1,0.3,0.4c0.2,0.2,0.4,0.5,0.6,0.9
						c0.4,0.6,0.9,1.2,0.9,1.2c-0.3-0.4-0.7-0.9-1.1-1.6c-0.5-0.7-1-1.4-1.7-2.1c-1.2-1.5-2.5-3.1-3.3-4.3c0.9,1.4,0.2,0.4,1.6,2.4
						c0.5,0.7-0.9-1.1-1.2-1.7l3.2,4.8c0-0.1,0.7,0.8,1.2,1.7c0.7,0.9,1.2,1.8,1.2,1.7c0,0-0.9-1.3-1.7-2.6
						c-0.9-1.3-1.9-2.6-1.9-2.6c0-0.3,2.5,2.9,4.6,6.3c0.5,0.9-0.7-0.6-0.6-0.5c0.3,0.5,2.2,3.2,2.3,3.5l-0.9-1.4
						c1.1,1.9,2.2,3.1,3.5,5.4c0.6,0.8,1.2,2.4,1.4,2.6c-0.7-1.3-0.4-1.7,0.3-0.9c0.2,0.3,2.4,4.3,2.8,5.2c0.7,1.4-1.4-1.9-0.9-0.8
						c0.1,0.1,0.6,0.7,0.8,1c0.5,0.9-0.3-0.3,0.8,1.5c0.3,0.3,2.2,3.7,0.6,0.9c1,1.8,1.1,1.9,2.3,4c-0.3-0.7,1.3,1.8,2.3,3.6
						c-0.1-0.1,0.1,0.3,0.2,0.5c2,3.7,3.1,5.7,4.8,9.2c0.1,0.3,0.9,2,0.6,1.3c0.3,0.5,0.6,0.9,1.1,2c0.9,2.1-1.2-2.4-0.6-0.8
						c0.1,0.1,1.5,2.8,2.3,4.3c-0.1-0.5-1.8-3.5-2.6-5c0.1,0,0.5,0.6,1.1,1.7c0.7,1.1,1.5,2.7,2.5,4.5c1.4,2.9,0.5,1.3,0.8,1.8
						c2.6,5.4,2.5,4.6,4.5,9.2c0.8,1.8-0.2,0.1,0,0.5c-1.1-2.4-1.6-3.7-2.4-5.2l0.9,2c-0.4-0.7-1.1-2.3-1.5-3.2
						c0.3,0.8,1.4,3.1,2.7,5.7c1.2,2.6,2.6,5.6,3.4,7.8c0.4,0.7,0.9,2,0.8,1.4l-0.6-1.3c-0.5-1.2,1.2,2.5,0.5,0.8
						c0.9,1.8,1.9,3.8,2.8,6.4l0.1,0.5c0-0.1-0.6-1.7-0.9-2.4c0.5,1,1.5,3.9,2.1,5l-0.7-1.8c0.9,1.8,1.9,4,2.8,6.3
						c-0.3-1-0.2-0.5-0.8-2.2c0.4,1.4-2.4-5.8-1.6-3.5c-0.6-1.6-1-2.9-1.9-5c0,0.1,0.3,0.8-0.6-1.1c0-0.1-0.2-0.3-0.2-0.4
						c0-0.1,0-0.1-0.1-0.1c0,0.1,0,0.1,0,0.1c0-0.1,0-0.1,0,0.1c0.2,0.5,0.3,0.9,0.4,1c-0.5-0.9-1.8-3.9-2.3-4.9
						c-0.5-1.1,0.3,0.5,0-0.1l-0.8-1.5c0-0.2-1.1-3,0-0.4l-1-2.4c-0.6-1.4-1.5-3.3-2.1-4.5c-0.5-1.1-1.4-2.8-0.9-1.8l-1.8-3.7v-0.1
						c-0.9-1.8-1.8-3.7-2.8-5.6c-0.9-1.9-2-3.9-2.9-6c-0.7-1.2-1.3-2.5-2.4-4.5l-0.2-0.4c-0.9-1.6-2.5-4.7-2.9-5.3
						c-0.4-0.9-1.3-2.8-2.6-4.7c-1.1-2-2.5-4.1-3.2-5.4l-0.2-0.1c-1.1-1.8-2.1-3.7-3.6-5.9v0.1c-1.3-2-3.1-5-5.2-8.2
						c0.2,0.2,0.7,1,1,1.6c-2.1-3.8-5.3-7.7-7.5-11.1c-0.6-0.8-1-1.4-1.4-2c0.1,0.1,0.1,0.1,0.2,0.2c-0.1-0.1-0.2-0.2-0.2-0.3
						c-0.3-0.4-0.5-0.7-0.8-1.2c0.2,0.3,0.5,0.7,0.7,1c-0.5-0.7-1.1-1.6-1.9-2.6l-0.2-0.4c-0.1-0.1-0.1-0.1-0.2-0.2
						c-0.7-0.9-0.6-0.7-0.3-0.2c-0.4-0.5-0.8-0.9-0.9-1.2c-0.5-0.8-1.9-2.4-2.6-3.5c-0.6-0.6-3.5-4.7-4.2-5.1c0-0.1-0.2-0.3,0.2,0.2
						c-0.9-1-1.6-2-2.5-2.9l-0.3-0.5l-2-2.2c-1-1.4-1.5-2-0.3-0.7c-1.4-1.6-1.9-2.2-2.5-2.8c-0.5-0.6-0.9-1.1-2.2-2.4l0.2,0.1
						c-0.9-1-2.3-2.5-2.8-3.1c-0.9-1.1-3.2-3.8-6.2-6.8c-1.4-1.5-2.9-3.1-4.5-4.7c-1.5-1.6-3-3.1-4.4-4.5c0.9,1.1-2.4-2.5-2.8-2.7
						c-0.3-0.3-1-1.1-0.1-0.3c-1.4-1.4-2.5-2.4-3.4-3.3s-1.8-1.7-2.8-2.6c-0.3-0.3,0.7,0.5,0.4,0.3c-0.3-0.2-0.9-0.9-1.2-1.1
						c-0.3-0.3,0.5,0.4,0.9,0.8c-2.9-2.8-3.3-2.9-3.7-3.1c-1.4-1.4-2.3-2.1-3.4-3c-0.5-0.5-1.3-1.3,0.6,0.3c-1-0.9-6.4-5.8-6.5-5.8
						c-0.3-0.3-1.5-1.3-1.8-1.5c-2.5-2.1-2.7-2.2-5-4.3l0.7,0.6c-1-0.7-2-1.7-4-3.3l0.1,0.1c-4.5-3.7-2-1.6-6.4-5.2l0.2,0.3
						c-0.6-0.3-3.9-3.2-6.6-5.3l0.9,0.8c-1.5-1.1-3.8-3.3-5.3-4.5c-0.3-0.3,0.6,0.4,0.9,0.7c-3.8-3-0.6-0.3-3.5-2.5
						c-0.5-0.5,0.9,0.5-1.1-1c-0.9-0.8-5.8-4.2-8.4-6.2c0.6,0.5,1.1,0.9-0.3-0.1c-2.1-1.5-5.5-4.3-7.5-5.5c-0.3-0.2-0.4-0.3-0.4-0.3
						c-1.6-1.1-5.3-3.7-6.4-4.4c-1.2-1.2-10.3-7-10.1-7.1l-5.1-3.5l0.2,0.1c-3.2-2.2-4.5-2.9-5.7-3.7c-0.8-0.5-0.2-0.1-0.1-0.1
						c-4.7-3.3-5.3-3.5-9.4-6.2l-0.4-0.3c-1.1-0.7-6.9-4.7-11.8-7.7c0.1,0,0.2,0.1,0.6,0.3c-5.5-3.4-12.7-8.5-15-9.6l-3.6-2.2
						c4.7,2.9-0.8-0.4,1,0.9c-1.8-1.2-4.7-3.1-2.4-1.6l0.4,0.3c0.9,0.5-5.7-3.7-5.5-3.7c-9.1-5.8-18-11.5-26.6-16.9l0.9,0.7
						l-2.9-1.9c-0.8-0.5-0.9-0.7,1.1,0.7c-0.6-0.4-1.4-0.9-2.2-1.4c-0.8-0.5-1.4-0.9-1.5-0.9c-4.2-2.7,1.7,0.9,0.5,0.1l-1.7-1.1
						l0.4,0.3c-1.4-0.9-1.6-0.9-4.2-2.6c-1.6-1-0.8-0.6-1.4-1c0,0,0-0.1-0.2-0.1c-0.2-0.1-0.4-0.3-0.8-0.5l-3.8-2.4l1.4,1
						c-1.7-1-3.5-2.2-1.9-1.1c-2.5-1.7-14-9-15.5-10c-2.4-1.4-4.7-2.9-7.5-4.8c0.7,0.5,1,0.8-1.4-0.8c1,0.5-4.4-2.9-6.2-4.3
						c1.7,1.2-6.9-4.5-4.3-2.6c-2-1.3-0.1-0.1-1.5-1.2c-4.8-3.1-10.5-7.1-16.3-11c-0.1-0.1,0.9,0.7-0.5-0.2l-2.9-2.2
						c-1.1-0.8-1.2-0.7-3.2-2.2c0.3,0.2,0.7,0.5-0.1,0c-11.2-7.9-23-16.2-33.7-24.8c1.4,1.2,0.5,0.4-0.7-0.5c0.8,0.6-0.1,0,0,0.1
						c0,0-1.1-0.9-2.3-1.8c-1.1-0.9-2.2-1.8-2.2-1.8c-0.9-0.6-4.8-3.8-5.4-4.1l1.4,1.1c-2-1.4,2.4,2.2,2,2.1c1.1,0.8,2.5,2,4,3.2
						c1.5,1.2,3.3,2.6,5.1,3.9c0.8,0.6-0.7-0.5-0.3-0.1c0.9,0.7,2.1,1.5,4.1,3l-0.3-0.2c5.8,4.3,8.1,6.2,14.7,10.9l-0.4-0.4
						c1.4,1,1.7,1.2,2.3,1.7c1.7,1.1-4-2.9-2.4-1.8c0.9,0.7,3.3,2.5,5.8,4.3c2.5,1.7,4.8,3.4,5.4,3.9c2.2,1.6-0.6-0.5,1.6,1l0.6,0.5
						l0.6,0.3c1.4,1,2.1,1.6,2.2,1.6c-0.4-0.3-1-0.7-1.4-0.9c1.8,1.3,5.3,3.7,6,4.1L502,0.3c6.1,4.1,13.6,9.2,19.6,13.1l-0.4-0.3
						c4.7,2.9,3.6,2.4,8.6,5.7l-0.2-0.1c1,0.7,2.4,1.5,3.8,2.4c-1.3-0.8,2.4,1.6,0.7,0.5c5,3.2,2.5,1.6,5.9,3.6l0.8,0.5
						c1.1,0.7,1.3,0.7,3.8,2.4c-2.1-1.3,1.5,1.1-0.9-0.4c5.2,3.5,8,5,10.3,6.7c2.6,1.4-4.6-3-3.1-2.2c-1.1-0.8,2.1,1.2,3.8,2.3
						c1.7,1.1,2.8,2,7,4.7c-0.5-0.3-0.5-0.3-0.9-0.5c1.6,1,3.2,2,5.1,3.3c1.1,0.7,2.6,1.6,2.9,1.8l-4-2.5c2.3,1.4,4.5,2.6,8.1,5
						c-0.3-0.2-1.4-0.9-2.2-1.3c1,0.7,2.1,1.3,3.2,2c-0.4-0.1-4.8-3-7.3-4.5c1.1,0.8,4.7,2.8,3.3,2.2c1.9,1,4.2,2.7,7.2,4.5
						l-0.3-0.1c0.5,0.3,1.4,0.9,2.3,1.4l-1.6-0.9c2.5,1.4,4.5,2.9,6.8,4.3c-4.7-3-0.9-0.7-2.9-2c5.9,3.6,3.2,2.2,9.8,6.4
						c-0.9-0.5-3.3-2.1-1.9-1.2c1.2,0.8,2.8,1.8,3.6,2.4c4.4,2.8-0.6-0.5,1.2,0.7c1.4,1,2.2,1.3,4.1,2.5l-0.1,0.1
						c4.9,3.1,1.4,0.7,5.8,3.6l-2-1.1l2.4,1.4l-0.6-0.3c2.6,1.6,3.3,2.1,5.8,3.7c-0.6-0.4,0.5,0.1,2.7,1.5c1.4,1-0.9-0.5,2.2,1.5
						c-0.8-0.4-1.5-0.9-2.8-1.8c-0.2-0.1-0.8-0.4-0.9-0.5c1.5,1,4,2.6,5.1,3.3c-0.4-0.3-0.9-0.6-1.2-0.8l4.6,2.8
						c0.7,0.5,0.1,0.1-0.5-0.2c0.9,0.6,1.5,1,2.8,1.8c-0.4-0.2-0.4-0.1-2.3-1.3l4.3,2.7c0.3,0.2,2.1,1.4,1.5,1.1
						c2.3,1.6,5.8,3.7,8.9,5.7c0.2,0.1,0.5,0.3,1.1,0.7c2.8,1.9,5.4,3.7,8.8,5.9l1.8,1.4c2.7,1.8-2.5-1.8,2,1.1
						c3.1,2.1,1,0.9,2.2,1.6c1.6,1,4.5,2.8,7.2,4.8C656.1,100.4,655.3,99.9,654.5,99.3z M686.3,122.1c-0.6-0.5-1.8-1.3-2.3-1.7
						C684.9,120.8,685.3,121.3,686.3,122.1z M731.2,159c-0.4-0.3-1-0.9-1.7-1.6C730,157.8,730.5,158.4,731.2,159z M817.5,278.5
						C817.5,278.5,817.4,278.5,817.5,278.5C816.8,277.2,817,277.6,817.5,278.5z M818.6,281.3c0.1,0.3,0.1,0.3,0.1,0.1
						c-0.1-0.2-0.4-0.8-0.7-1.5C818.1,280.1,818.2,280.4,818.6,281.3z M561.3,38.4l0.6,0.4C560.5,37.9,560.9,38.2,561.3,38.4z"/>
					<path fill="#3F3F3F" d="M726.3,154.7c-0.1-0.1-0.2-0.2-0.2-0.2C725.9,154.3,725.9,154.3,726.3,154.7z"/>
					<path fill="#3F3F3F" d="M634,85.6L634,85.6c-0.2-0.1-0.2-0.1-0.2-0.1L634,85.6z"/>
					<path fill="#3F3F3F" d="M796.5,239.9c-0.3-0.5-0.5-0.9-0.6-1C795.8,238.9,796,239.1,796.5,239.9z"/>
					<path fill="#3F3F3F" d="M825.1,295.7l-0.8-1.8c0.4,0.9,0.5,1.2,0.7,1.6C825,295.5,824.9,295.1,825.1,295.7z"/>
					<path fill="#3F3F3F" d="M830.7,311c0.1,0.3,0.2,0.5,0.3,0.8v-0.1C830.6,310.6,830.3,309.9,830.7,311z"/>
					<path fill="#3F3F3F" d="M825.4,297.3c0,0.1,0.5,1.2,0.9,2.5c0-0.1-0.1-0.1-0.1-0.2C826.6,300,826,298.6,825.4,297.3z"/>
					<path fill="#3F3F3F" d="M826.6,300.1c0.2,0.4,0.3,0.8,0.5,1.1C827.2,301.4,826.9,300.8,826.6,300.1z"/>
					<path fill="#3F3F3F" d="M820.2,284.7c0.2,0.6,0.3,0.3,0.4,0.7C821,286,818.8,281.5,820.2,284.7z"/>
					<polygon fill="#3F3F3F" points="825.6,298.4 825.5,297.9 825.2,297.3 					"/>
					<path fill="#3F3F3F" d="M821.6,288.8l0.9,2c0,0,0.1,0.2,0.3,0.5c-0.3-0.6-0.6-1.2-0.8-1.7C821.7,289,821.6,288.7,821.6,288.8z"
						/>
					<path fill="#3F3F3F" d="M822.7,291.2c0.3,0.7,0.6,1.2,0.7,1.6C823.3,292.4,822.9,291.7,822.7,291.2z"/>
					<polygon fill="#3F3F3F" points="824.5,295.8 824.2,295.2 823.6,293.7 					"/>
					<path fill="#3F3F3F" d="M812,267.8l-1.1-2.1c-0.1-0.2,0.1,0.4,0.6,1.2C811.7,267.4,812.2,268.2,812,267.8z"/>
					<path fill="#3F3F3F" d="M814.8,274.3c-0.3-0.6-0.3-0.6-0.4-0.9l-0.2-0.1L814.8,274.3z"/>
					<path fill="#3F3F3F" d="M811.9,268.1c-0.1-0.2-1.6-3-0.3-0.4C811.7,267.9,812.7,270.1,811.9,268.1z"/>
					<polygon fill="#3F3F3F" points="794.9,236.6 795.2,237.2 795.4,237 					"/>
					<path fill="#3F3F3F" d="M776.7,210c1.7,2.4,0.6,0.5,2,2.7c0.5,0.5-1.1-1.8-0.8-1.2C776.8,210,776.3,209.3,776.7,210z"/>
					<path fill="#3F3F3F" d="M777.9,211.4c0.2,0.2,0.4,0.5,0.6,0.7C778.2,211.7,778,211.5,777.9,211.4z"/>
					<polygon fill="#3F3F3F" points="455.3,-34.8 453.8,-36.1 454.8,-35.3 					"/>
					<path fill="#3F3F3F" d="M452.2-37.2l-0.3-0.3l-1-0.7C451.3-38,451.9-37.4,452.2-37.2z"/>
					<path fill="#3F3F3F" d="M690.8,125.7l0.2,0.1c-0.2-0.2-0.7-0.5-1.4-1.1L690.8,125.7z"/>
					<polygon fill="#3F3F3F" points="668.1,108.8 668.4,109.2 667.8,108.6 					"/>
					<path fill="#3F3F3F" d="M648.2,95.3c0.9,0.5,1.8,1.2,2.6,1.8C649,95.8,648,95.1,648.2,95.3z"/>
				</g>
			</g>
		</g>
	</g>
</g>
</svg>
