<?xml version="1.0" encoding="utf-8"?>
<!-- Generator: Adobe Illustrator 18.0.0, SVG Export Plug-In . SVG Version: 6.00 Build 0)  -->
<!DOCTYPE svg PUBLIC "-//W3C//DTD SVG 1.1//EN" "http://www.w3.org/Graphics/SVG/1.1/DTD/svg11.dtd">
<svg version="1.1" id="Layer_1" xmlns="http://www.w3.org/2000/svg" xmlns:xlink="http://www.w3.org/1999/xlink" x="0px" y="0px"
	 viewBox="0 0 1366 1400" enable-background="new 0 0 1366 1400" xml:space="preserve">
<g>
	<linearGradient id="SVGID_1_" gradientUnits="userSpaceOnUse" x1="250.3958" y1="23.0473" x2="495.5257" y2="1413.2478">
		<stop  offset="0" style="stop-color:#5189BD"/>
		<stop  offset="1" style="stop-color:#FFFFFF"/>
	</linearGradient>
	<path fill="url(#SVGID_1_)" d="M-97.2,84.3c28.9,26.5,30.9,72,55,102.9c21.9,28,58.4,39.8,93.4,46c64.5,11.6,131.3,9.5,195-5.9
		c0,0,1018.8-482.6,982.8,303.5c0,0-122.7,1296.8-630.1,618.1S48.3,1331.6,48.3,1331.6c-26.3,64.8-138.5-17-203.2-43.5
		c-51.9-21.2-103.6-45.7-144.6-83.9c-31.2-29.1-55-65.2-84.4-96.1c-20.1-21.2-42.9-39.9-61.2-62.6c-48.1-59.6-60.6-140.1-63.8-216.6
		c-7.1-173.6,25.7-348.7,95.2-508c38.6-88.4,97-178.9,189.6-205.9"/>
</g>
</svg>
